<svg width="24" height="24" viewBox="0 0 24 24" fill="none" xmlns="http://www.w3.org/2000/svg">
<path d="M11.8913 2.14317C15.0683 2.14317 15.4412 2.15733 16.6969 2.21398C17.8581 2.2659 18.486 2.45945 18.9061 2.62467C19.4632 2.84182 19.8597 3.09674 20.2751 3.51215C20.6905 3.92757 20.9502 4.3241 21.1626 4.88113C21.3231 5.30127 21.5214 5.92911 21.5733 7.09039C21.6299 8.34608 21.6441 8.71901 21.6441 11.896C21.6441 15.073 21.6299 15.4459 21.5733 16.7016C21.5214 17.8629 21.3278 18.4907 21.1626 18.9109C20.9454 19.4679 20.6905 19.8644 20.2751 20.2798C19.8597 20.6953 19.4632 20.9549 18.9061 21.1673C18.486 21.3278 17.8581 21.5261 16.6969 21.578C15.4412 21.6347 15.0683 21.6488 11.8913 21.6488C8.71429 21.6488 8.34136 21.6347 7.08567 21.578C5.92439 21.5261 5.29655 21.3325 4.87641 21.1673C4.31938 20.9502 3.92284 20.6953 3.50743 20.2798C3.09201 19.8644 2.83238 19.4679 2.61995 18.9109C2.45945 18.4907 2.26118 17.8629 2.20926 16.7016C2.15261 15.4459 2.13845 15.073 2.13845 11.896C2.13845 8.71901 2.15261 8.34608 2.20926 7.09039C2.26118 5.92911 2.45473 5.30127 2.61995 4.88113C2.8371 4.3241 3.09201 3.92757 3.50743 3.51215C3.92284 3.09674 4.31938 2.8371 4.87641 2.62467C5.29655 2.46417 5.92439 2.2659 7.08567 2.21398C8.34136 2.15261 8.71429 2.14317 11.8913 2.14317ZM11.8913 0C8.66236 0 8.25638 0.0141619 6.98653 0.0708095C5.72141 0.127457 4.85753 0.330444 4.10223 0.623124C3.3186 0.925244 2.65772 1.33594 1.99683 1.99683C1.33594 2.65772 0.929964 3.32333 0.623123 4.10223C0.330444 4.85753 0.127457 5.72141 0.0708095 6.99126C0.0141619 8.25639 0 8.66236 0 11.8913C0 15.1202 0.0141619 15.5262 0.0708095 16.796C0.127457 18.0611 0.330444 18.925 0.623123 19.685C0.925244 20.4687 1.33594 21.1296 1.99683 21.7904C2.65772 22.4513 3.32332 22.8573 4.10223 23.1641C4.85753 23.4568 5.72141 23.6598 6.99126 23.7165C8.26111 23.7731 8.66236 23.7873 11.896 23.7873C15.1296 23.7873 15.5309 23.7731 16.8007 23.7165C18.0659 23.6598 18.9297 23.4568 19.6898 23.1641C20.4734 22.862 21.1343 22.4513 21.7952 21.7904C22.456 21.1296 22.862 20.4639 23.1689 19.685C23.4615 18.9297 23.6645 18.0659 23.7212 16.796C23.7778 15.5262 23.792 15.1249 23.792 11.8913C23.792 8.65764 23.7778 8.25639 23.7212 6.98654C23.6645 5.72141 23.4615 4.85753 23.1689 4.09751C22.8667 3.31388 22.456 2.653 21.7952 1.99211C21.1343 1.33122 20.4687 0.925244 19.6898 0.618403C18.9345 0.325724 18.0706 0.122736 16.8007 0.0660889C15.5262 0.0141619 15.1202 0 11.8913 0Z" fill="black"/>
<path d="M11.8913 5.78287C8.52072 5.78287 5.78276 8.51611 5.78276 11.8914C5.78276 15.2666 8.52072 17.9999 11.8913 17.9999C15.2618 17.9999 17.9998 15.2619 17.9998 11.8914C17.9998 8.52083 15.2618 5.78287 11.8913 5.78287ZM11.8913 15.8567C9.70088 15.8567 7.92592 14.0817 7.92592 11.8914C7.92592 9.70099 9.70088 7.92603 11.8913 7.92603C14.0816 7.92603 15.8566 9.70099 15.8566 11.8914C15.8566 14.0817 14.0816 15.8567 11.8913 15.8567Z" fill="black"/>
<path d="M18.2405 6.96783C19.0279 6.96783 19.6662 6.32955 19.6662 5.5422C19.6662 4.75484 19.0279 4.11657 18.2405 4.11657C17.4532 4.11657 16.8149 4.75484 16.8149 5.5422C16.8149 6.32955 17.4532 6.96783 18.2405 6.96783Z" fill="black"/>
</svg>
