<svg width="165" height="164" viewBox="0 0 165 164" fill="none" xmlns="http://www.w3.org/2000/svg">
<g filter="url(#filter0_i_3255_845)">
<path d="M159.845 71.7703L140.548 52.4733C132.612 44.5374 137.462 36.1607 146.11 35.652C160.353 34.7702 168.357 19.5768 156.725 6.92691C144.075 -4.67164 128.949 3.29813 128.067 17.5081C127.525 26.1561 119.08 31.0397 111.178 23.1378L92.2882 4.24772C86.6246 -1.41591 77.4339 -1.41591 71.7703 4.24772L52.6428 23.3752C44.707 31.311 36.2963 26.3935 35.7537 17.7454C34.872 3.50161 19.6107 -4.60381 6.96083 7.02866C-4.70555 19.7125 3.39987 34.9737 17.6437 35.8555C26.2917 36.3981 31.2093 44.8427 23.3073 52.7785L4.24772 71.8042C-1.41591 77.4678 -1.41591 86.6585 4.24772 92.3221L23.1378 111.212C31.0736 119.114 26.3596 127.355 17.7115 127.898C3.4677 128.78 -4.50207 143.939 7.1304 156.589C19.7803 168.221 34.872 160.286 35.7537 146.042C36.2963 137.394 44.5713 132.646 52.5072 140.548L71.5668 159.607C77.3322 165.373 86.7602 165.373 92.5256 159.641L105.888 146.279L111.619 140.548C119.114 132.714 114.264 124.472 105.718 123.93C91.4743 123.048 83.4027 107.787 95.0352 95.137C107.685 83.5045 122.946 91.6099 123.828 105.854C124.371 114.4 132.578 119.216 140.412 111.721L145.601 106.532L159.573 92.5595C159.607 92.5256 159.607 92.5256 159.641 92.4917L159.845 92.2882C165.508 86.6246 165.508 77.4339 159.845 71.7703Z" fill="#F5F8C2"/>
</g>
<path d="M35.8176 59.5488C36.1129 58.7554 41.4585 59.3729 42.5856 59.2914C43.3685 57.4853 44.1835 55.7013 45.1246 54C44.6748 55.1398 44.3207 60.8754 43.1509 60.8222C41.8873 60.8389 40.6262 60.9869 39.3683 61.0006C43.5728 64.2736 43.3028 62.5141 41.6634 67.767C45.8623 64.7365 44.3733 64.6904 48.6024 67.7372C48.317 66.834 48.0651 65.9225 47.7763 65.022C47.4814 64.1769 47.2687 63.575 48.1899 63.0748C49.1605 62.352 50.1505 61.654 51.1239 60.9353C50.1518 60.9552 49.1854 60.8869 48.2221 60.8398C47.651 60.7697 46.7159 61.0778 46.4832 60.3478C45.9159 58.3095 45.5396 56.2562 45.1248 54.1751C45.181 54.3136 45.2413 54.5475 45.295 54.709C45.2873 54.6657 45.2419 54.4843 45.2893 54.5928C45.2978 54.5963 45.3063 54.5998 45.3152 54.6033C45.3109 54.5327 45.1959 54.1622 45.2664 54.3109C45.9068 56.0859 46.7517 57.8317 47.4538 59.6102C48.8377 59.4888 50.6605 59.495 52.0653 59.4645C52.4456 59.4623 53.2855 59.4573 53.6547 59.4329C54.2877 59.375 54.6079 60.2654 54.1048 60.6407C52.5138 61.8174 50.8437 63.1024 49.255 64.2943C49.7135 65.6742 50.5027 68.142 50.9594 69.5374L50.9611 69.5387L50.96 69.5396L51.1353 70.0795C51.3915 70.785 50.5081 71.4216 49.9398 70.9631C48.3479 69.7918 46.7189 68.6669 45.1285 67.4936C43.6376 68.6338 42.1282 69.7516 40.6522 70.912C40.2174 71.3561 39.4889 71.4559 39.0937 70.9057C38.5187 70.3325 39.7486 67.8569 39.8258 67.2204C40.0488 66.5286 40.4977 65.0966 40.7142 64.4085C39.7521 63.6927 38.3602 62.6655 37.4059 61.9245C36.7458 61.3301 35.0617 60.6809 35.8176 59.5488ZM53.8572 71.2302C48.2433 75.0695 41.8076 77.604 36.0902 81.1717C36.155 81.1816 36.2337 81.1254 36.2921 81.1526C36.2773 81.2391 36.162 81.3074 36.3221 81.2817C36.1937 81.3669 36.0401 81.4144 35.9364 81.5296C40.7699 80.3228 45.3649 77.9092 49.8342 75.617C53.7575 73.6188 57.4974 71.1513 61.0664 68.5672C65.0834 65.618 68.9683 62.4392 72.296 58.7094C72.0761 59.7849 71.6745 60.9273 71.7778 62.0087C71.722 62.3707 71.678 62.7534 71.6685 63.1073C71.7771 63.2379 71.6889 63.3596 71.7744 63.4736C71.8351 63.5176 71.7903 63.5582 71.8172 63.6006C71.8724 63.6383 71.8767 63.6768 71.8945 63.7191C73.1405 63.3622 73.46 61.7996 73.7826 60.6753C74.1945 59.251 74.4741 57.7536 74.6478 56.2881C74.3965 55.0795 73.0355 55.7452 72.2421 55.8543C70.3894 56.2046 68.4088 56.2816 66.792 57.3518C66.7059 57.4047 66.4446 57.5031 66.6269 57.5971C66.6281 57.6455 66.5818 57.7044 66.639 57.7278C66.5899 57.7668 66.5376 57.764 66.5065 57.833C66.671 58.0473 66.9033 57.9533 67.1234 57.9509C67.2657 58.0815 67.4015 57.9085 67.571 57.9327C68.9706 58.0484 70.3695 57.7252 71.7896 57.6571C65.8049 62.1554 60.2317 67.2706 53.8572 71.2302ZM81.9897 91.5391C81.6059 94.6262 78.4037 95.8055 76.2269 97.41C71.4162 100.553 66.5825 104.186 61.2838 106.418C59.5375 107.271 57.691 106.998 55.8357 106.835C51.0161 106.315 46.2301 105.774 41.4017 105.647C41.3289 106.099 41.3419 106.581 41.2253 107.027C40.9547 108.013 39.9293 108.824 38.9716 108.25C39.8226 107.994 40.2796 107.067 40.1186 106.192C40.0136 103.645 39.7645 101.117 39.7972 98.5624C39.8122 97.4318 39.7868 94.981 39.7907 93.8214C39.811 93.5035 39.7579 93.1543 39.491 92.9482C39.1865 92.6925 38.7301 92.8 38.3674 92.78C36.8136 92.7906 35.1281 92.761 33.5827 92.7812C32.9941 92.8039 32.7223 93.3418 32.785 93.8864C32.7717 94.106 32.7761 94.7728 32.7643 95.0052C32.6901 98.0063 32.6451 101.063 32.6187 104.06C32.6054 104.537 32.6042 105.722 32.5907 106.211C32.589 106.653 32.5554 106.866 32.7448 107.194C32.942 107.45 33.1835 107.706 33.5264 107.729C34.2293 107.732 34.934 107.765 35.6338 107.825C36.1089 107.878 36.6091 107.717 37.0635 107.87C37.6966 107.916 38.3782 107.799 38.9716 108.075C38.8278 108.143 38.6606 108.129 38.5045 108.16C38.6688 108.197 38.5342 108.215 38.4857 108.291C38.5327 108.338 38.6303 108.316 38.6898 108.349C37.0883 108.698 35.3142 108.79 33.6507 108.988C33.0769 109.051 32.4809 108.871 32.0326 108.499C30.9668 107.68 31.1318 106.206 31.1268 105.003C31.0825 103.854 31.0963 102.567 31.0551 101.409C31.0507 98.7265 30.9592 95.7194 31.0219 93.0414C31.2721 91.5088 32.8732 90.7299 34.2663 90.9206C35.5373 90.8866 36.81 90.8977 38.0809 90.8439C39.9899 90.6026 41.6877 91.5527 41.7095 93.6693C42.2616 93.5857 42.8371 93.5202 43.3946 93.429C43.3861 93.3966 43.3777 93.3642 43.3691 93.3312C43.3399 93.4146 43.2945 93.3359 43.24 93.3219C43.1937 93.3453 43.2158 93.3941 43.1829 93.4239C42.377 91.3949 42.4562 89.0777 42.3634 86.9049C42.3375 86.174 42.3325 85.3959 42.3298 84.6618C42.2979 84.1666 42.4144 83.6585 42.727 83.2689C43.3608 82.3392 44.5919 82.5266 45.5621 82.4937C46.3734 82.4768 47.16 82.4168 47.9763 82.4097C50.0791 82.6184 49.886 84.8086 49.8185 86.4175C49.755 88.0701 49.8042 89.758 49.1933 91.3226C51.0055 90.4132 52.8268 89.2834 54.9106 89.174C54.2087 86.3013 54.3123 83.3431 54.214 80.4103C54.0739 77.8646 54.4675 76.9891 57.1356 77.0288C58.1628 77.0763 59.2639 76.8585 60.2753 77.0767C62.0168 77.6512 61.6384 79.4804 61.6987 80.9508C61.6535 84.016 61.9028 87.2079 61.0003 90.167C63.104 90.7586 66.1186 91.2498 66.7787 93.7562C66.3175 90.3253 66.1945 86.8006 66.1941 83.345C66.1022 79.2271 66.1347 74.9106 66.0498 70.7928C66.1343 69.0517 67.5167 68.7553 68.9617 68.8639C70.6021 68.8821 73.2751 68.2888 73.5533 70.6185C73.6132 73.6759 73.6513 77.0847 73.5835 80.1358C73.5459 83.7704 73.5731 87.4373 72.8804 91.0163C74.201 90.2952 75.5082 89.4208 76.8699 88.7808C78.9115 87.8205 82.2076 88.8031 81.9897 91.5391ZM67.4152 93.7191C67.4264 93.837 67.4286 93.9544 67.427 94.0719C67.6453 93.9503 72.0213 91.4975 72.2832 91.3513C71.4891 84.5995 71.7668 77.6152 71.659 70.7955C71.6569 70.7932 71.6567 70.7909 71.6576 70.7881C71.6413 70.7255 71.5793 70.7188 71.5267 70.723C70.3243 70.7226 69.1273 70.706 67.9271 70.7302C67.9225 70.733 67.9182 70.7341 67.9154 70.7366C67.6752 78.3505 67.8118 86.1209 67.4152 93.7191ZM66.8188 94.1576C66.8214 94.2499 66.8199 94.3366 66.816 94.4136L66.8442 94.3978C66.8352 94.318 66.8267 94.238 66.8188 94.1576ZM55.5097 88.9411C55.5229 89.0194 55.5232 89.0974 55.5196 89.1754C57.1306 89.2882 58.6917 89.7126 60.272 90.0004C60.0153 89.1958 60.1276 88.2939 60.0111 87.4547C59.848 86.3563 59.7816 85.2327 59.7886 84.1121C59.7946 82.941 59.7802 81.2578 59.7788 80.083C59.7681 79.7291 59.7524 79.3023 59.7539 78.9461C59.7509 78.9084 59.7207 78.8683 59.6871 78.8687C59.6845 78.8684 59.6816 78.8692 59.6783 78.871L59.676 78.8707C58.5513 78.8198 57.3651 78.9392 56.2356 78.8867C56.1561 78.906 55.9414 78.8198 55.905 78.931C55.9015 78.9353 55.9044 78.9409 55.9007 78.9457C55.7876 82.2742 55.8216 85.6706 55.5097 88.9411ZM43.557 93.4026C45.311 93.1663 46.9501 92.5622 48.4936 91.6848C48.1939 90.9983 48.2153 90.1933 48.1586 89.4361C47.8166 87.841 47.9381 86.0694 47.9057 84.4235C47.9247 84.2686 47.265 84.388 47.1901 84.3541C46.1871 84.3354 45.1439 84.3629 44.1417 84.384C44.1393 84.3859 44.1358 84.3889 44.1358 84.3889C44.1122 84.3727 44.0641 84.3994 44.0456 84.4229C44.0451 84.4259 44.0439 84.429 44.0412 84.4322C43.8872 87.4231 43.9978 90.5049 43.557 93.4026ZM80.1669 91.242C79.9692 90.0415 78.3163 90.1947 77.4544 90.5516C76.7097 90.9041 74.6076 92.1145 73.8412 92.5103C72.7436 93.1032 70.4131 94.3672 69.3344 94.9621C68.343 95.319 65.7454 97.4066 64.9672 96.7979C63.8284 98.648 61.4321 97.5039 59.7356 97.4383C58.4958 97.2876 57.2424 97.0763 56.0155 96.9094C55.1544 97.0793 54.0007 97.052 53.4877 96.2323C53.5127 96.1998 53.5396 96.1812 53.5476 96.1154C53.5681 96.0741 53.6169 96.1012 53.6261 96.0278C53.6375 95.9802 53.6609 95.9641 53.6866 95.9545C53.7757 95.9405 53.8278 95.815 53.9002 95.7513C54.1835 95.6994 54.4276 95.5369 54.7133 95.4831C54.8497 95.3655 55.0171 95.3643 55.1545 95.2323C55.5735 95.1171 56.0229 94.8964 56.4723 94.9652C57.3145 95.1554 58.2451 95.2671 59.0908 95.4397C60.296 95.601 61.4699 95.9568 62.6552 96.254C62.9952 96.339 63.3444 96.3582 63.677 96.247C63.704 96.2261 63.7327 96.2145 63.7809 96.258C63.9806 96.269 64.1729 96.1246 64.3843 96.1003C64.4821 96.0904 64.5067 95.939 64.5927 95.9291C65.9245 93.7352 64.9217 93.1476 62.8508 92.3197C60.7153 91.5795 58.4032 91.1384 56.1883 90.7155C53.6596 90.265 51.3712 91.7271 49.0993 92.6288C48.0296 93.0648 46.9565 93.5236 45.8205 93.8057C44.4737 94.0328 43.083 94.1527 41.7145 94.1708C41.6896 97.8791 41.7617 101.645 41.4553 105.339C47.2371 103.814 53.2738 105.239 59.1446 105.094C64.4024 103.42 68.9265 99.8088 73.5695 96.8567C75.245 95.4658 80.178 93.4492 80.1669 91.242Z" fill="#2C2C2C"/>
<defs>
<filter id="filter0_i_3255_845" x="0" y="0" width="164.092" height="167.938" filterUnits="userSpaceOnUse" color-interpolation-filters="sRGB">
<feFlood flood-opacity="0" result="BackgroundImageFix"/>
<feBlend mode="normal" in="SourceGraphic" in2="BackgroundImageFix" result="shape"/>
<feColorMatrix in="SourceAlpha" type="matrix" values="0 0 0 0 0 0 0 0 0 0 0 0 0 0 0 0 0 0 127 0" result="hardAlpha"/>
<feOffset dy="4"/>
<feGaussianBlur stdDeviation="4.6"/>
<feComposite in2="hardAlpha" operator="arithmetic" k2="-1" k3="1"/>
<feColorMatrix type="matrix" values="0 0 0 0 0 0 0 0 0 0 0 0 0 0 0 0 0 0 0.25 0"/>
<feBlend mode="normal" in2="shape" result="effect1_innerShadow_3255_845"/>
</filter>
</defs>
</svg>
