<svg width="1104" height="98" viewBox="0 0 1104 98" fill="none" xmlns="http://www.w3.org/2000/svg">
<path d="M0.000651002 95.832C0.000651002 96.5684 0.597605 97.1654 1.33398 97.1654C2.07036 97.1654 2.66732 96.5684 2.66732 95.832C2.66732 95.0956 2.07036 94.4987 1.33398 94.4987C0.597605 94.4987 0.000651002 95.0956 0.000651002 95.832ZM1100.5 1.33203C1100.5 2.06841 1101.1 2.66536 1101.83 2.66536C1102.57 2.66536 1103.17 2.06841 1103.17 1.33203C1103.17 0.595652 1102.57 -0.00130212 1101.83 -0.00130212C1101.1 -0.00130212 1100.5 0.595652 1100.5 1.33203ZM1.33398 95.832V96.082H3.70898V95.832V95.582H1.33398V95.832ZM8.45898 95.832V96.082H13.209V95.832V95.582H8.45898V95.832ZM17.959 95.832V96.082H20.334V95.832V95.582H17.959V95.832ZM20.334 95.832V96.082C20.9484 96.082 21.5572 96.0582 22.1597 96.0114L22.1403 95.7621L22.121 95.5129C21.5314 95.5587 20.9354 95.582 20.334 95.582V95.832ZM25.7055 95.2014L25.7637 95.4445C26.9589 95.1586 28.1183 94.7803 29.2339 94.3177L29.1381 94.0868L29.0423 93.8559C27.951 94.3084 26.8167 94.6785 25.6474 94.9583L25.7055 95.2014ZM32.3529 92.4457L32.4837 92.6588C33.5241 92.0199 34.5103 91.3014 35.4339 90.5118L35.2715 90.3218L35.109 90.1318C34.2052 90.9044 33.2401 91.6075 32.222 92.2327L32.3529 92.4457ZM37.8237 87.7695L38.0138 87.932C38.8033 87.0084 39.5218 86.0221 40.1607 84.9817L39.9477 84.8509L39.7346 84.7201C39.1095 85.7381 38.4064 86.7032 37.6337 87.6071L37.8237 87.7695ZM41.5887 81.6362L41.8197 81.7319C42.2823 80.6164 42.6605 79.457 42.9465 78.2618L42.7033 78.2036L42.4602 78.1454C42.1804 79.3148 41.8104 80.449 41.3578 81.5404L41.5887 81.6362ZM43.2641 74.6384L43.5133 74.6577C43.5602 74.0553 43.584 73.4464 43.584 72.832H43.334H43.084C43.084 73.4335 43.0606 74.0294 43.0148 74.619L43.2641 74.6384ZM43.334 72.832H43.584V70.8112H43.334H43.084V72.832H43.334ZM43.334 66.7695H43.584V62.7279H43.334H43.084V66.7695H43.334ZM43.334 58.6862H43.584V54.6445H43.334H43.084V58.6862H43.334ZM43.334 50.6029H43.584V46.5612H43.334H43.084V50.6029H43.334ZM43.334 42.5195H43.584V38.4779H43.334H43.084V42.5195H43.334ZM43.334 34.4362H43.584V30.3945H43.334H43.084V34.4362H43.334ZM43.334 26.3529H43.584V24.332H43.334H43.084V26.3529H43.334ZM43.334 24.332H43.584C43.584 23.7306 43.6073 23.1346 43.6531 22.5451L43.4039 22.5257L43.1546 22.5063C43.1078 23.1088 43.084 23.7177 43.084 24.332H43.334ZM43.9646 18.9605L44.2078 19.0186C44.4875 17.8493 44.8576 16.7151 45.3102 15.6237L45.0792 15.5279L44.8483 15.4321C44.3857 16.5477 44.0074 17.7071 43.7215 18.9023L43.9646 18.9605ZM46.7203 12.3132L46.9333 12.444C47.5585 11.426 48.2616 10.4609 49.0342 9.55701L48.8442 9.39456L48.6542 9.23211C47.8646 10.1557 47.1462 11.1419 46.5073 12.1823L46.7203 12.3132ZM51.3965 6.84227L51.559 7.0323C52.4628 6.25961 53.4279 5.55655 54.4459 4.93138L54.3151 4.71834L54.1843 4.50531C53.1439 5.14421 52.1577 5.86268 51.2341 6.65224L51.3965 6.84227ZM57.5299 3.07728L57.6256 3.30821C58.717 2.85563 59.8513 2.48557 61.0206 2.2058L60.9624 1.96267L60.9043 1.71953C59.709 2.00549 58.5496 2.38375 57.4341 2.84635L57.5299 3.07728ZM64.5276 1.40192L64.547 1.65117C65.1366 1.60536 65.7325 1.58203 66.334 1.58203V1.33203V1.08203C65.7196 1.08203 65.1107 1.10587 64.5083 1.15267L64.5276 1.40192ZM66.334 1.33203V1.58203H68.3251V1.33203V1.08203H66.334V1.33203ZM72.3072 1.33203V1.58203H76.2893V1.33203V1.08203H72.3072V1.33203ZM80.2715 1.33203V1.58203H84.2536V1.33203V1.08203H80.2715V1.33203ZM88.2358 1.33203V1.58203H92.2179V1.33203V1.08203H88.2358V1.33203ZM96.2001 1.33203V1.58203H100.182V1.33203V1.08203H96.2001V1.33203ZM104.164 1.33203V1.58203H108.146V1.33203V1.08203H104.164V1.33203ZM112.129 1.33203V1.58203H116.111V1.33203V1.08203H112.129V1.33203ZM120.093 1.33203V1.58203H124.075V1.33203V1.08203H120.093V1.33203ZM128.057 1.33203V1.58203H132.039V1.33203V1.08203H128.057V1.33203ZM136.021 1.33203V1.58203H140.004V1.33203V1.08203H136.021V1.33203ZM143.986 1.33203V1.58203H147.968V1.33203V1.08203H143.986V1.33203ZM151.95 1.33203V1.58203H155.932V1.33203V1.08203H151.95V1.33203ZM159.914 1.33203V1.58203H163.896V1.33203V1.08203H159.914V1.33203ZM167.879 1.33203V1.58203H171.861V1.33203V1.08203H167.879V1.33203ZM175.843 1.33203V1.58203H177.834V1.33203V1.08203H175.843V1.33203ZM177.834 1.33203V1.58203C178.435 1.58203 179.031 1.60536 179.621 1.65117L179.64 1.40192L179.66 1.15267C179.057 1.10587 178.448 1.08203 177.834 1.08203V1.33203ZM183.206 1.96267L183.147 2.2058C184.317 2.48557 185.451 2.85563 186.542 3.30821L186.638 3.07728L186.734 2.84635C185.618 2.38375 184.459 2.00549 183.264 1.71953L183.206 1.96267ZM189.853 4.71834L189.722 4.93138C190.74 5.55654 191.705 6.25961 192.609 7.03229L192.771 6.84227L192.934 6.65224C192.01 5.86268 191.024 5.1442 189.984 4.50531L189.853 4.71834ZM195.324 9.39456L195.134 9.557C195.906 10.4609 196.609 11.4259 197.235 12.444L197.448 12.3132L197.661 12.1823C197.022 11.1419 196.303 10.1557 195.514 9.23211L195.324 9.39456ZM199.089 15.5279L198.858 15.6237C199.31 16.7151 199.68 17.8493 199.96 19.0186L200.203 18.9605L200.446 18.9023C200.161 17.7071 199.782 16.5477 199.32 15.4321L199.089 15.5279ZM200.764 22.5257L200.515 22.545C200.561 23.1346 200.584 23.7306 200.584 24.332H200.834H201.084C201.084 23.7176 201.06 23.1088 201.013 22.5063L200.764 22.5257ZM200.834 24.332H200.584V26.232H200.834H201.084V24.332H200.834ZM200.834 30.032H200.584V33.832H200.834H201.084V30.032H200.834ZM200.834 37.632H200.584V41.432H200.834H201.084V37.632H200.834ZM200.834 45.232H200.584V49.032H200.834H201.084V45.232H200.834ZM200.834 52.832H200.584V56.632H200.834H201.084V52.832H200.834ZM200.834 60.432H200.584V62.332H200.834H201.084V60.432H200.834ZM200.834 62.332H200.584C200.584 62.9464 200.608 63.5553 200.655 64.1577L200.904 64.1384L201.153 64.119C201.107 63.5294 201.084 62.9335 201.084 62.332H200.834ZM201.465 67.7036L201.221 67.7618C201.507 68.957 201.886 70.1164 202.348 71.2319L202.579 71.1361L202.81 71.0404C202.358 69.949 201.988 68.8148 201.708 67.6454L201.465 67.7036ZM204.22 74.3509L204.007 74.4817C204.646 75.5221 205.365 76.5084 206.154 77.432L206.344 77.2695L206.534 77.1071C205.762 76.2032 205.059 75.2381 204.433 74.2201L204.22 74.3509ZM208.897 79.8218L208.734 80.0118C209.658 80.8014 210.644 81.5199 211.684 82.1588L211.815 81.9457L211.946 81.7327C210.928 81.1075 209.963 80.4044 209.059 79.6318L208.897 79.8218ZM215.03 83.5868L214.934 83.8177C216.05 84.2803 217.209 84.6586 218.404 84.9445L218.462 84.7014L218.521 84.4583C217.351 84.1785 216.217 83.8084 215.126 83.3559L215.03 83.5868ZM222.028 85.2621L222.008 85.5114C222.611 85.5582 223.22 85.582 223.834 85.582V85.332V85.082C223.233 85.082 222.637 85.0587 222.047 85.0129L222.028 85.2621ZM223.834 85.332V85.582H225.846V85.332V85.082H223.834V85.332ZM229.87 85.332V85.582H233.894V85.332V85.082H229.87V85.332ZM237.917 85.332V85.582H241.941V85.332V85.082H237.917V85.332ZM245.965 85.332V85.582H249.989V85.332V85.082H245.965V85.332ZM254.013 85.332V85.582H258.036V85.332V85.082H254.013V85.332ZM262.06 85.332V85.582H266.084V85.332V85.082H262.06V85.332ZM270.108 85.332V85.582H274.132V85.332V85.082H270.108V85.332ZM278.155 85.332V85.582H282.179V85.332V85.082H278.155V85.332ZM286.203 85.332V85.582H290.227V85.332V85.082H286.203V85.332ZM294.251 85.332V85.582H298.274V85.332V85.082H294.251V85.332ZM302.298 85.332V85.582H306.322V85.332V85.082H302.298V85.332ZM310.346 85.332V85.582H314.37V85.332V85.082H310.346V85.332ZM318.394 85.332V85.582H322.417V85.332V85.082H318.394V85.332ZM326.441 85.332V85.582H330.465V85.332V85.082H326.441V85.332ZM334.489 85.332V85.582H338.513V85.332V85.082H334.489V85.332ZM342.536 85.332V85.582H346.56V85.332V85.082H342.536V85.332ZM350.584 85.332V85.582H354.608V85.332V85.082H350.584V85.332ZM358.632 85.332V85.582H362.655V85.332V85.082H358.632V85.332ZM366.679 85.332V85.582H370.703V85.332V85.082H366.679V85.332ZM374.727 85.332V85.582H378.751V85.332V85.082H374.727V85.332ZM382.774 85.332V85.582H386.798V85.332V85.082H382.774V85.332ZM390.822 85.332V85.582H392.834V85.332V85.082H390.822V85.332ZM392.834 85.332V85.582C393.448 85.582 394.057 85.5582 394.66 85.5114L394.64 85.2621L394.621 85.0129C394.031 85.0587 393.435 85.082 392.834 85.082V85.332ZM398.206 84.7014L398.264 84.9445C399.459 84.6586 400.618 84.2803 401.734 83.8177L401.638 83.5868L401.542 83.3559C400.451 83.8084 399.317 84.1785 398.147 84.4583L398.206 84.7014ZM404.853 81.9457L404.984 82.1588C406.024 81.5199 407.01 80.8014 407.934 80.0118L407.771 79.8218L407.609 79.6318C406.705 80.4044 405.74 81.1075 404.722 81.7327L404.853 81.9457ZM410.324 77.2695L410.514 77.432C411.303 76.5084 412.022 75.5221 412.661 74.4817L412.448 74.3509L412.235 74.2201C411.609 75.2381 410.906 76.2032 410.134 77.1071L410.324 77.2695ZM414.089 71.1362L414.32 71.2319C414.782 70.1164 415.161 68.957 415.446 67.7618L415.203 67.7036L414.96 67.6454C414.68 68.8148 414.31 69.949 413.858 71.0404L414.089 71.1362ZM415.764 64.1384L416.013 64.1577C416.06 63.5553 416.084 62.9464 416.084 62.332H415.834H415.584C415.584 62.9335 415.561 63.5294 415.515 64.119L415.764 64.1384ZM415.834 62.332H416.084V60.432H415.834H415.584V62.332H415.834ZM415.834 56.632H416.084V52.832H415.834H415.584V56.632H415.834ZM415.834 49.032H416.084V45.232H415.834H415.584V49.032H415.834ZM415.834 41.432H416.084V37.632H415.834H415.584V41.432H415.834ZM415.834 33.832H416.084V30.032H415.834H415.584V33.832H415.834ZM415.834 26.232H416.084V24.332H415.834H415.584V26.232H415.834ZM415.834 24.332H416.084C416.084 23.7306 416.107 23.1346 416.153 22.5451L415.904 22.5257L415.655 22.5063C415.608 23.1088 415.584 23.7177 415.584 24.332H415.834ZM416.465 18.9605L416.708 19.0186C416.988 17.8493 417.358 16.7151 417.81 15.6237L417.579 15.5279L417.348 15.4321C416.886 16.5477 416.507 17.7071 416.221 18.9023L416.465 18.9605ZM419.22 12.3132L419.433 12.444C420.059 11.426 420.762 10.4609 421.534 9.55701L421.344 9.39456L421.154 9.23211C420.365 10.1557 419.646 11.1419 419.007 12.1823L419.22 12.3132ZM423.897 6.84227L424.059 7.0323C424.963 6.25961 425.928 5.55655 426.946 4.93138L426.815 4.71834L426.684 4.50531C425.644 5.14421 424.658 5.86268 423.734 6.65224L423.897 6.84227ZM430.03 3.07728L430.126 3.30821C431.217 2.85563 432.351 2.48557 433.521 2.2058L433.462 1.96267L433.404 1.71953C432.209 2.00549 431.05 2.38375 429.934 2.84635L430.03 3.07728ZM437.028 1.40192L437.047 1.65117C437.637 1.60536 438.233 1.58203 438.834 1.58203V1.33203V1.08203C438.22 1.08203 437.611 1.10587 437.008 1.15267L437.028 1.40192ZM438.834 1.33203V1.58203H440.843V1.33203V1.08203H438.834V1.33203ZM444.861 1.33203V1.58203H448.879V1.33203V1.08203H444.861V1.33203ZM452.896 1.33203V1.58203H456.914V1.33203V1.08203H452.896V1.33203ZM460.932 1.33203V1.58203H464.95V1.33203V1.08203H460.932V1.33203ZM468.968 1.33203V1.58203H472.986V1.33203V1.08203H468.968V1.33203ZM477.004 1.33203V1.58203H481.021V1.33203V1.08203H477.004V1.33203ZM485.039 1.33203V1.58203H489.057V1.33203V1.08203H485.039V1.33203ZM493.075 1.33203V1.58203H497.093V1.33203V1.08203H493.075V1.33203ZM501.111 1.33203V1.58203H505.129V1.33203V1.08203H501.111V1.33203ZM509.146 1.33203V1.58203H513.164V1.33203V1.08203H509.146V1.33203ZM517.182 1.33203V1.58203H521.2V1.33203V1.08203H517.182V1.33203ZM525.218 1.33203V1.58203H529.236V1.33203V1.08203H525.218V1.33203ZM533.254 1.33203V1.58203H537.271V1.33203V1.08203H533.254V1.33203ZM541.289 1.33203V1.58203H545.307V1.33203V1.08203H541.289V1.33203ZM549.325 1.33203V1.58203H551.334V1.33203V1.08203H549.325V1.33203ZM551.334 1.33203V1.58203C551.935 1.58203 552.531 1.60536 553.121 1.65117L553.14 1.40192L553.16 1.15267C552.557 1.10587 551.948 1.08203 551.334 1.08203V1.33203ZM556.706 1.96267L556.647 2.2058C557.817 2.48557 558.951 2.85563 560.042 3.30821L560.138 3.07728L560.234 2.84635C559.118 2.38375 557.959 2.00549 556.764 1.71953L556.706 1.96267ZM563.353 4.71834L563.222 4.93138C564.24 5.55654 565.205 6.25961 566.109 7.03229L566.271 6.84227L566.434 6.65224C565.51 5.86268 564.524 5.1442 563.484 4.50531L563.353 4.71834ZM568.824 9.39455L568.634 9.557C569.406 10.4608 570.109 11.4259 570.735 12.444L570.948 12.3132L571.161 12.1823C570.522 11.1419 569.803 10.1557 569.014 9.2321L568.824 9.39455ZM572.589 15.5279L572.358 15.6237C572.81 16.7151 573.18 17.8493 573.46 19.0186L573.703 18.9605L573.946 18.9023C573.661 17.7071 573.282 16.5477 572.82 15.4321L572.589 15.5279ZM574.264 22.5257L574.015 22.545C574.061 23.1346 574.084 23.7306 574.084 24.332H574.334H574.584C574.584 23.7176 574.56 23.1088 574.513 22.5063L574.264 22.5257ZM574.334 24.332H574.084V26.232H574.334H574.584V24.332H574.334ZM574.334 30.032H574.084V33.832H574.334H574.584V30.032H574.334ZM574.334 37.632H574.084V41.432H574.334H574.584V37.632H574.334ZM574.334 45.232H574.084V49.032H574.334H574.584V45.232H574.334ZM574.334 52.832H574.084V56.632H574.334H574.584V52.832H574.334ZM574.334 60.432H574.084V62.332H574.334H574.584V60.432H574.334ZM574.334 62.332H574.084C574.084 62.9464 574.108 63.5553 574.155 64.1577L574.404 64.1384L574.653 64.119C574.607 63.5294 574.584 62.9335 574.584 62.332H574.334ZM574.965 67.7036L574.721 67.7618C575.007 68.957 575.386 70.1164 575.848 71.2319L576.079 71.1361L576.31 71.0404C575.858 69.949 575.488 68.8148 575.208 67.6454L574.965 67.7036ZM577.72 74.3509L577.507 74.4817C578.146 75.5221 578.865 76.5084 579.654 77.432L579.844 77.2695L580.034 77.1071C579.262 76.2032 578.558 75.2381 577.933 74.2201L577.72 74.3509ZM582.396 79.8218L582.234 80.0118C583.158 80.8014 584.144 81.5199 585.184 82.1588L585.315 81.9457L585.446 81.7327C584.428 81.1075 583.463 80.4044 582.559 79.6318L582.396 79.8218ZM588.53 83.5868L588.434 83.8177C589.55 84.2803 590.709 84.6586 591.904 84.9445L591.962 84.7014L592.021 84.4583C590.851 84.1785 589.717 83.8084 588.626 83.3559L588.53 83.5868ZM595.528 85.2621L595.508 85.5114C596.111 85.5582 596.72 85.582 597.334 85.582V85.332V85.082C596.733 85.082 596.137 85.0587 595.547 85.0129L595.528 85.2621ZM597.334 85.332V85.582H599.36V85.332V85.082H597.334V85.332ZM603.413 85.332V85.582H607.466V85.332V85.082H603.413V85.332ZM611.518 85.332V85.582H615.571V85.332V85.082H611.518V85.332ZM619.623 85.332V85.582H623.676V85.332V85.082H619.623V85.332ZM627.729 85.332V85.582H631.781V85.332V85.082H627.729V85.332ZM635.834 85.332V85.582H639.887V85.332V85.082H635.834V85.332ZM643.939 85.332V85.582H647.992V85.332V85.082H643.939V85.332ZM652.044 85.332V85.582H656.097V85.332V85.082H652.044V85.332ZM660.15 85.332V85.582H664.202V85.332V85.082H660.15V85.332ZM668.255 85.332V85.582H672.308V85.332V85.082H668.255V85.332ZM676.36 85.332V85.582H680.413V85.332V85.082H676.36V85.332ZM684.466 85.332V85.582H688.518V85.332V85.082H684.466V85.332ZM692.571 85.332V85.582H696.623V85.332V85.082H692.571V85.332ZM700.676 85.332V85.582H704.729V85.332V85.082H700.676V85.332ZM708.781 85.332V85.582H712.834V85.332V85.082H708.781V85.332ZM716.887 85.332V85.582H720.939V85.332V85.082H716.887V85.332ZM724.992 85.332V85.582H729.044V85.332V85.082H724.992V85.332ZM733.097 85.332V85.582H737.15V85.332V85.082H733.097V85.332ZM741.202 85.332V85.582H745.255V85.332V85.082H741.202V85.332ZM749.308 85.332V85.582H751.334V85.332V85.082H749.308V85.332ZM751.334 85.332V85.582C751.948 85.582 752.557 85.5582 753.16 85.5114L753.14 85.2621L753.121 85.0129C752.531 85.0587 751.935 85.082 751.334 85.082V85.332ZM756.706 84.7014L756.764 84.9445C757.959 84.6586 759.118 84.2803 760.234 83.8177L760.138 83.5868L760.042 83.3559C758.951 83.8084 757.817 84.1785 756.647 84.4583L756.706 84.7014ZM763.353 81.9457L763.484 82.1588C764.524 81.5199 765.51 80.8014 766.434 80.0118L766.271 79.8218L766.109 79.6318C765.205 80.4044 764.24 81.1075 763.222 81.7327L763.353 81.9457ZM768.824 77.2695L769.014 77.432C769.803 76.5084 770.522 75.5221 771.161 74.4817L770.948 74.3509L770.735 74.2201C770.109 75.2381 769.406 76.2032 768.634 77.1071L768.824 77.2695ZM772.589 71.1362L772.82 71.2319C773.282 70.1164 773.661 68.957 773.946 67.7618L773.703 67.7036L773.46 67.6454C773.18 68.8148 772.81 69.949 772.358 71.0404L772.589 71.1362ZM774.264 64.1384L774.513 64.1577C774.56 63.5553 774.584 62.9464 774.584 62.332H774.334H774.084C774.084 62.9335 774.061 63.5294 774.015 64.119L774.264 64.1384ZM774.334 62.332H774.584V60.432H774.334H774.084V62.332H774.334ZM774.334 56.632H774.584V52.832H774.334H774.084V56.632H774.334ZM774.334 49.032H774.584V45.232H774.334H774.084V49.032H774.334ZM774.334 41.432H774.584V37.632H774.334H774.084V41.432H774.334ZM774.334 33.832H774.584V30.032H774.334H774.084V33.832H774.334ZM774.334 26.232H774.584V24.332H774.334H774.084V26.232H774.334ZM774.334 24.332H774.584C774.584 23.7306 774.607 23.1346 774.653 22.5451L774.404 22.5257L774.155 22.5063C774.108 23.1088 774.084 23.7177 774.084 24.332H774.334ZM774.965 18.9605L775.208 19.0186C775.488 17.8493 775.858 16.7151 776.31 15.6237L776.079 15.5279L775.848 15.4321C775.386 16.5477 775.007 17.7071 774.721 18.9023L774.965 18.9605ZM777.72 12.3132L777.933 12.444C778.558 11.426 779.262 10.4609 780.034 9.55701L779.844 9.39456L779.654 9.23211C778.865 10.1557 778.146 11.1419 777.507 12.1823L777.72 12.3132ZM782.396 6.84227L782.559 7.0323C783.463 6.25962 784.428 5.55655 785.446 4.93139L785.315 4.71835L785.184 4.50531C784.144 5.14421 783.158 5.86268 782.234 6.65225L782.396 6.84227ZM788.53 3.07729L788.626 3.30822C789.717 2.85564 790.851 2.48557 792.021 2.20581L791.962 1.96267L791.904 1.71953C790.709 2.00549 789.55 2.38376 788.434 2.84635L788.53 3.07729ZM795.528 1.40192L795.547 1.65117C796.137 1.60536 796.733 1.58203 797.334 1.58203V1.33203V1.08203C796.72 1.08203 796.111 1.10587 795.508 1.15267L795.528 1.40192ZM797.334 1.33203V1.58203H799.263V1.33203V1.08203H797.334V1.33203ZM803.12 1.33203V1.58203H806.977V1.33203V1.08203H803.12V1.33203ZM810.834 1.33203V1.58203H814.691V1.33203V1.08203H810.834V1.33203ZM818.548 1.33203V1.58203H822.405V1.33203V1.08203H818.548V1.33203ZM826.263 1.33203V1.58203H830.12V1.33203V1.08203H826.263V1.33203ZM833.977 1.33203V1.58203H837.834V1.33203V1.08203H833.977V1.33203ZM841.691 1.33203V1.58203H845.548V1.33203V1.08203H841.691V1.33203ZM849.405 1.33203V1.58203H853.263V1.33203V1.08203H849.405V1.33203ZM857.12 1.33203V1.58203H860.977V1.33203V1.08203H857.12V1.33203ZM864.834 1.33203V1.58203H868.691V1.33203V1.08203H864.834V1.33203ZM872.548 1.33203V1.58203H876.405V1.33203V1.08203H872.548V1.33203ZM880.263 1.33203V1.58203H884.12V1.33203V1.08203H880.263V1.33203ZM887.977 1.33203V1.58203H891.834V1.33203V1.08203H887.977V1.33203ZM895.691 1.33203V1.58203H899.548V1.33203V1.08203H895.691V1.33203ZM903.405 1.33203V1.58203H905.334V1.33203V1.08203H903.405V1.33203ZM905.334 1.33203V1.58203C905.935 1.58203 906.531 1.60536 907.121 1.65117L907.14 1.40192L907.16 1.15267C906.557 1.10587 905.948 1.08203 905.334 1.08203V1.33203ZM910.706 1.96267L910.647 2.2058C911.817 2.48557 912.951 2.85563 914.042 3.30821L914.138 3.07728L914.234 2.84635C913.118 2.38375 911.959 2.00549 910.764 1.71953L910.706 1.96267ZM917.353 4.71834L917.222 4.93138C918.24 5.55654 919.205 6.25961 920.109 7.03229L920.271 6.84227L920.434 6.65224C919.51 5.86268 918.524 5.1442 917.484 4.50531L917.353 4.71834ZM922.824 9.39456L922.634 9.557C923.406 10.4609 924.109 11.4259 924.735 12.444L924.948 12.3132L925.161 12.1823C924.522 11.1419 923.803 10.1557 923.014 9.23211L922.824 9.39456ZM926.589 15.5279L926.358 15.6237C926.81 16.7151 927.18 17.8493 927.46 19.0186L927.703 18.9605L927.946 18.9023C927.661 17.7071 927.282 16.5477 926.82 15.4321L926.589 15.5279ZM928.264 22.5257L928.015 22.545C928.061 23.1346 928.084 23.7306 928.084 24.332H928.334H928.584C928.584 23.7176 928.56 23.1088 928.513 22.5063L928.264 22.5257ZM928.334 24.332H928.084V26.232H928.334H928.584V24.332H928.334ZM928.334 30.032H928.084V33.832H928.334H928.584V30.032H928.334ZM928.334 37.632H928.084V41.432H928.334H928.584V37.632H928.334ZM928.334 45.232H928.084V49.032H928.334H928.584V45.232H928.334ZM928.334 52.832H928.084V56.632H928.334H928.584V52.832H928.334ZM928.334 60.432H928.084V62.332H928.334H928.584V60.432H928.334ZM928.334 62.332H928.084C928.084 62.9464 928.108 63.5553 928.155 64.1577L928.404 64.1384L928.653 64.119C928.607 63.5294 928.584 62.9335 928.584 62.332H928.334ZM928.965 67.7036L928.721 67.7618C929.007 68.957 929.386 70.1164 929.848 71.2319L930.079 71.1361L930.31 71.0404C929.858 69.949 929.488 68.8148 929.208 67.6454L928.965 67.7036ZM931.72 74.3509L931.507 74.4817C932.146 75.5221 932.865 76.5084 933.654 77.432L933.844 77.2695L934.034 77.1071C933.262 76.2032 932.558 75.2381 931.933 74.2201L931.72 74.3509ZM936.396 79.8218L936.234 80.0118C937.158 80.8014 938.144 81.5199 939.184 82.1588L939.315 81.9457L939.446 81.7327C938.428 81.1075 937.463 80.4044 936.559 79.6318L936.396 79.8218ZM942.53 83.5868L942.434 83.8177C943.55 84.2803 944.709 84.6586 945.904 84.9445L945.962 84.7014L946.021 84.4583C944.851 84.1785 943.717 83.8084 942.626 83.3559L942.53 83.5868ZM949.528 85.2621L949.508 85.5114C950.111 85.5582 950.72 85.582 951.334 85.582V85.332V85.082C950.733 85.082 950.137 85.0587 949.547 85.0129L949.528 85.2621ZM951.334 85.332V85.582H953.326V85.332V85.082H951.334V85.332ZM957.311 85.332V85.582H961.295V85.332V85.082H957.311V85.332ZM965.279 85.332V85.582H969.264V85.332V85.082H965.279V85.332ZM973.248 85.332V85.582H977.232V85.332V85.082H973.248V85.332ZM981.217 85.332V85.582H985.201V85.332V85.082H981.217V85.332ZM989.186 85.332V85.582H993.17V85.332V85.082H989.186V85.332ZM997.154 85.332V85.582H1001.14V85.332V85.082H997.154V85.332ZM1005.12 85.332V85.582H1009.11V85.332V85.082H1005.12V85.332ZM1013.09 85.332V85.582H1017.08V85.332V85.082H1013.09V85.332ZM1021.06 85.332V85.582H1025.04V85.332V85.082H1021.06V85.332ZM1029.03 85.332V85.582H1033.01V85.332V85.082H1029.03V85.332ZM1037 85.332V85.582H1040.98V85.332V85.082H1037V85.332ZM1044.97 85.332V85.582H1048.95V85.332V85.082H1044.97V85.332ZM1052.94 85.332V85.582H1056.92V85.332V85.082H1052.94V85.332ZM1060.9 85.332V85.582H1064.89V85.332V85.082H1060.9V85.332ZM1068.87 85.332V85.582H1072.86V85.332V85.082H1068.87V85.332ZM1076.84 85.332V85.582H1078.83V85.332V85.082H1076.84V85.332ZM1078.83 85.332V85.582C1079.45 85.582 1080.06 85.5582 1080.66 85.5114L1080.64 85.2621L1080.62 85.0129C1080.03 85.0587 1079.44 85.082 1078.83 85.082V85.332ZM1084.21 84.7014L1084.26 84.9445C1085.46 84.6586 1086.62 84.2803 1087.73 83.8177L1087.64 83.5868L1087.54 83.3559C1086.45 83.8084 1085.32 84.1785 1084.15 84.4583L1084.21 84.7014ZM1090.85 81.9457L1090.98 82.1588C1092.02 81.5199 1093.01 80.8014 1093.93 80.0118L1093.77 79.8218L1093.61 79.6318C1092.71 80.4044 1091.74 81.1075 1090.72 81.7327L1090.85 81.9457ZM1096.32 77.2695L1096.51 77.432C1097.3 76.5084 1098.02 75.5221 1098.66 74.4817L1098.45 74.3509L1098.23 74.2201C1097.61 75.2381 1096.91 76.2032 1096.13 77.1071L1096.32 77.2695ZM1100.09 71.1362L1100.32 71.2319C1100.78 70.1164 1101.16 68.957 1101.45 67.7618L1101.2 67.7036L1100.96 67.6454C1100.68 68.8148 1100.31 69.949 1099.86 71.0404L1100.09 71.1362ZM1101.76 64.1384L1102.01 64.1577C1102.06 63.5553 1102.08 62.9464 1102.08 62.332H1101.83H1101.58C1101.58 62.9335 1101.56 63.5294 1101.51 64.119L1101.76 64.1384ZM1101.83 62.332H1102.08V60.4258H1101.83H1101.58V62.332H1101.83ZM1101.83 56.6133H1102.08V52.8008H1101.83H1101.58V56.6133H1101.83ZM1101.83 48.9883H1102.08V45.1758H1101.83H1101.58V48.9883H1101.83ZM1101.83 41.3633H1102.08V37.5508H1101.83H1101.58V41.3633H1101.83ZM1101.83 33.7383H1102.08V29.9258H1101.83H1101.58V33.7383H1101.83ZM1101.83 26.1133H1102.08V22.3008H1101.83H1101.58V26.1133H1101.83ZM1101.83 18.4883H1102.08V14.6758H1101.83H1101.58V18.4883H1101.83ZM1101.83 10.8633H1102.08V7.05078H1101.83H1101.58V10.8633H1101.83ZM1101.83 3.23828H1102.08V1.33203H1101.83H1101.58V3.23828H1101.83Z" fill="#2E2E2E"/>
</svg>
