<svg width="165" height="164" viewBox="0 0 165 164" fill="none" xmlns="http://www.w3.org/2000/svg">
<g filter="url(#filter0_i_3110_547)">
<path d="M159.845 71.7703L140.548 52.4733C132.612 44.5374 137.462 36.1607 146.11 35.652C160.353 34.7702 168.357 19.5768 156.725 6.92691C144.075 -4.67164 128.949 3.29813 128.067 17.5081C127.525 26.1561 119.08 31.0397 111.178 23.1378L92.2882 4.24772C86.6246 -1.41591 77.4339 -1.41591 71.7703 4.24772L52.6428 23.3752C44.707 31.311 36.2963 26.3935 35.7537 17.7454C34.872 3.50161 19.6107 -4.60381 6.96083 7.02866C-4.70555 19.7125 3.39987 34.9737 17.6437 35.8555C26.2917 36.3981 31.2093 44.8427 23.3073 52.7785L4.24772 71.8042C-1.41591 77.4678 -1.41591 86.6585 4.24772 92.3221L23.1378 111.212C31.0736 119.114 26.3596 127.355 17.7115 127.898C3.4677 128.78 -4.50207 143.939 7.1304 156.589C19.7803 168.221 34.872 160.286 35.7537 146.042C36.2963 137.394 44.5713 132.646 52.5072 140.548L71.5668 159.607C77.3322 165.373 86.7602 165.373 92.5256 159.641L105.888 146.279L111.619 140.548C119.114 132.714 114.264 124.472 105.718 123.93C91.4743 123.048 83.4027 107.787 95.0352 95.137C107.685 83.5045 122.946 91.6099 123.828 105.854C124.371 114.4 132.578 119.216 140.412 111.721L145.601 106.532L159.573 92.5595C159.607 92.5256 159.607 92.5256 159.641 92.4917L159.845 92.2882C165.508 86.6246 165.508 77.4339 159.845 71.7703Z" fill="#FEC2DD"/>
<path fill-rule="evenodd" clip-rule="evenodd" d="M77.6494 77.4225C77.6834 77.4692 77.6101 77.504 77.5801 77.5237C77.6121 77.5867 77.5769 77.5667 77.5769 77.6362C77.5769 77.6763 77.7053 77.6947 77.4692 77.8256C77.1499 78.0026 76.8719 78.2559 76.4969 78.3014L76.0678 78.3436C75.9876 78.376 76.0034 78.3251 75.9778 78.343L75.3149 78.4082L74.3407 78.4406C74.0868 78.4627 74.0184 78.4955 73.6829 78.5094C72.9743 78.555 72.2218 78.6793 71.4844 78.6137C71.4586 78.6113 71.4341 78.6013 71.4081 78.5994C71.3358 78.5936 71.1868 78.6004 71.1334 78.5721C71.1326 78.5719 70.415 78.5628 70.2606 78.3889C70.1873 78.3063 69.8989 78.223 69.6954 77.9112L69.5826 77.6013C69.656 77.5048 69.6246 77.4982 69.6551 77.4963C69.7003 77.4935 69.6866 77.4091 69.742 77.3957C69.8812 77.3619 69.8258 77.2206 70.0168 77.2509C70.1022 77.2645 70.1661 77.1753 70.2795 77.1783C70.4863 77.1836 70.5104 77.1062 70.5548 77.1049C70.5774 77.1037 70.6014 77.1093 70.6234 77.0814C70.6253 77.0783 70.6285 77.0764 70.6304 77.0771C70.6795 77.0926 70.725 77.0416 70.7722 77.0137L70.8912 77.0044C71.0472 76.9401 71.4311 76.9264 71.5869 76.9498C71.8143 76.9645 73.1832 76.8915 73.3052 76.9162C73.4131 76.938 73.916 76.8662 74.0765 76.8833L74.9965 76.9809L76.5157 77.0703C76.5866 77.0441 76.5883 77.1236 76.6171 77.1286C76.7004 77.1429 76.9997 77.1802 77.0923 77.2355C77.1681 77.2807 77.2852 77.1532 77.309 77.2424C77.3282 77.3139 77.4538 77.2742 77.5289 77.2915C77.5734 77.3016 77.6174 77.3763 77.6494 77.4225ZM77.6494 73.8941C77.6799 73.9422 77.6221 73.9677 77.5801 73.9953C77.6109 74.0666 77.577 74.0351 77.5769 74.1083C77.5768 74.148 77.7052 74.1664 77.4692 74.2977C77.1518 74.4744 76.8652 74.7304 76.4969 74.7735L76.0678 74.8152C75.9886 74.8482 76.0032 74.7966 75.9778 74.8145L75.3149 74.8804C74.8467 74.9214 74.3874 74.8738 73.9935 74.9636C73.9193 74.9805 73.9655 74.9423 73.8291 74.9723L73.1624 75.0107C72.3144 75.079 72.2311 75.1469 71.2835 75.0666C71.2337 75.0623 71.1833 75.0685 71.1335 75.0436C71.1332 75.0435 70.4159 75.0353 70.2607 74.8604C70.1862 74.7764 69.9003 74.6966 69.6956 74.3827L69.5827 74.0728C69.6596 73.9769 69.6215 73.9706 69.6552 73.9678C69.7028 73.9638 69.6847 73.8824 69.7421 73.8678C69.8781 73.8333 69.8303 73.6929 70.0169 73.7225C70.1013 73.736 70.1684 73.6477 70.2796 73.6499C70.4948 73.6541 70.5054 73.5787 70.5549 73.5766C70.5775 73.5753 70.6016 73.5816 70.6235 73.5529C70.6254 73.5498 70.6286 73.5479 70.6305 73.5491C70.6797 73.5647 70.7251 73.5143 70.7723 73.4858L70.8913 73.4765C71.0473 73.4119 71.4314 73.3977 71.587 73.4225C71.8142 73.4378 73.1543 73.3596 73.3053 73.3889L74.0767 73.3547L74.9966 73.4528L76.5158 73.5422C76.5889 73.5161 76.5875 73.5948 76.6173 73.6C76.6976 73.6138 77.0069 73.6543 77.0924 73.7069C77.1665 73.7523 77.2856 73.6257 77.3091 73.7138C77.329 73.7878 77.4556 73.7451 77.529 73.7629C77.5719 73.7734 77.6188 73.8499 77.6494 73.8941ZM77.6557 70.3662C77.5982 70.5713 77.649 70.5802 77.6362 70.6693C77.6097 70.7459 77.3463 71.1744 77.2273 71.24L77.0306 71.2879C77.0026 71.3206 77.0033 71.2706 76.9947 71.286L76.8245 71.3282C76.4363 71.4294 76.4369 71.3247 76.1944 71.4388L75.8819 71.4823C75.7112 71.5218 75.8439 71.5252 75.5246 71.5619C75.2996 71.5876 75.3449 71.5744 75.1396 71.5382L75.0728 71.514C74.7683 71.5071 74.7311 71.2978 74.6745 71.2314C74.6221 71.1698 74.5142 70.9185 74.5089 70.8339L74.468 70.5444L74.531 70.3407C74.5739 70.3156 74.5683 70.165 74.6394 70.194C74.673 70.2077 74.6996 70.119 74.7427 70.1226C74.819 70.1288 74.8369 70.0496 74.8524 70.0481C74.8882 70.0444 74.8747 70.0181 74.882 70.0207C74.901 70.0363 74.9192 69.9865 74.9381 69.958L74.9854 69.948C75.0546 69.8774 75.21 69.8737 75.2601 69.894L75.9388 69.8604C76.0032 69.8881 76.1316 69.7912 76.342 69.8499C76.8074 69.9795 76.7701 69.9539 77.2078 70.0138C77.2342 69.9885 77.2361 70.0669 77.2475 70.0728C77.3077 70.1036 77.3894 70.1102 77.4352 70.1785C77.4663 70.2247 77.5106 70.0959 77.5209 70.1866C77.5293 70.2607 77.5785 70.216 77.6079 70.2344L77.6557 70.3662ZM80.3324 60.4119C80.345 59.8454 79.9504 59.4257 79.3419 59.4207L69.034 59.3567C68.8695 59.3555 68.705 59.3468 68.5413 59.3449C68.323 59.343 67.8264 59.3746 67.6415 59.3294C67.5016 59.2952 67.1839 59.4881 67.0656 59.5822C66.8534 59.7507 66.7177 60.0912 66.6995 60.3747C66.664 60.9282 66.6754 61.5376 66.6315 62.1244C66.6 62.5426 66.7003 63.7575 66.6245 63.9237C66.5597 64.0656 66.5687 65.6123 66.5665 65.8795C66.6573 65.844 66.748 65.8093 66.8387 65.7726C68.1647 65.2428 69.6002 64.7587 70.9212 64.2279C71.8425 63.8578 72.8348 64.1187 73.4151 64.8938C73.5668 64.813 74.1235 64.3903 74.1877 64.3758L74.463 64.1658L74.9161 63.9932L75.5739 63.69C75.5979 63.6826 75.5797 63.6329 75.6432 63.6894C75.6669 63.7105 75.7391 63.6765 75.7396 63.6764C75.9918 63.6183 75.8905 63.7351 75.9746 63.5968C75.9919 63.5686 75.973 63.6396 76.0729 63.6323C76.0872 63.6312 76.0912 63.5604 76.1813 63.6304C76.291 63.7156 76.2721 63.6959 76.2721 63.7831C76.309 63.8801 76.4882 63.7981 76.3237 64.5974C76.2972 64.7262 76.109 64.8346 76.1 64.8645C76.086 64.9109 76.063 64.8657 76.0621 64.8868C76.0589 64.9247 76.0281 64.9203 76.0142 64.9396C75.7808 65.2086 75.4711 65.3218 75.3292 65.524L75.1395 65.6712C75.1288 65.6812 75.1244 65.701 75.1124 65.7078C74.9913 65.7793 74.9347 65.8835 74.7651 66.0233C74.5526 66.1989 74.433 66.2528 74.1917 66.3333C74.183 66.3367 74.0985 66.409 73.9322 66.4296C73.9322 66.591 73.8703 66.8583 73.815 67.0135C73.5733 67.6909 73.1463 67.9482 72.6108 68.3072L67.282 71.8636C66.9682 72.0722 66.7347 72.2389 66.3822 72.3996C66.4136 72.5992 66.4563 72.5425 66.4678 72.9214C66.478 73.2977 66.5106 73.663 66.5806 74.002C66.6256 74.2218 66.6199 74.9693 66.6152 75.2051C66.6016 75.912 66.6921 76.6327 66.6889 77.3864C66.6883 77.5502 66.6981 78.9758 66.7305 79.1746C66.7715 79.4257 66.7344 79.7926 66.8691 79.9702C66.9249 80.0438 66.9319 80.1508 67.1055 80.2838C67.3752 80.4908 67.7318 80.5471 68.0639 80.5329C68.4841 80.5125 68.9058 80.5075 69.326 80.4926C70.3361 80.4566 71.3468 80.4839 72.3569 80.4703C72.8824 80.4634 73.4079 80.4684 73.9334 80.4777C74.2 80.4833 74.4684 80.4715 74.7362 80.4715L79.3958 80.4647C79.7827 80.4647 80.1216 80.2242 80.2571 79.8473C80.3095 79.7016 80.2971 79.5383 80.2949 79.3864L80.2829 74.4493C80.2842 74.0847 80.2703 73.7158 80.2868 73.3555C80.3164 72.7456 80.271 72.1413 80.2824 71.5344C80.2949 70.8027 80.2606 70.0689 80.2584 69.3432L80.2565 67.4246C80.2557 65.0886 80.3324 62.7372 80.3324 60.4119ZM81.999 79.4392C81.9768 77.1185 81.9246 74.7899 81.9246 72.4761C81.9246 72.2326 81.9108 71.9898 81.9089 71.7464L81.8943 69.0012C81.8849 68.6546 81.8754 68.3123 81.8887 67.9658C81.902 67.6006 81.8614 66.9246 81.8566 66.5162L81.8238 60.5096C81.8221 59.9951 81.7512 59.582 81.4558 59.1202C80.9657 58.3539 80.1968 57.9877 79.3121 58.0003L76.3915 58.0351L73.9492 58.0581C73.5484 58.068 73.1445 58.0475 72.745 58.0773C72.6952 58.0816 72.6397 58.0823 72.5918 58.0773C72.3386 58.0512 71.9039 58.0809 71.6069 58.0835L67.9246 58.122C67.1421 58.1287 66.4534 58.4614 66.026 59.1114C65.6331 59.7091 65.6599 60.1619 65.7016 60.7983L66.0318 65.2627C66.05 65.5304 66.0665 65.7987 66.096 66.0621C65.8994 66.1366 65.7028 66.2081 65.5024 66.2776L59.5069 65.2392C60.1839 64.4672 60.4341 63.5785 60.316 62.5815C60.3038 62.4786 60.2389 62.1418 60.1856 62.0479C60.1505 61.9864 60.214 61.9876 60.1157 61.8175L59.9222 61.4057C59.0503 59.6753 56.911 60.056 56.9633 60.1928C56.9768 60.2282 57.0721 60.1982 57.0131 60.2965C56.9852 60.3428 56.9799 60.3185 57.0213 60.3593C56.9618 60.3756 56.8863 60.3863 56.86 60.4252C56.9439 60.5436 57.1529 60.6467 57.2961 60.6251C57.3048 60.6238 57.478 60.6639 57.4882 60.7195C57.5056 60.8135 57.7439 60.7554 57.8505 60.8605C57.9334 60.9368 58.4856 61.3653 58.4731 61.4636C58.4606 61.5619 58.5341 61.5747 58.5777 61.6425C58.8557 62.0741 58.9738 62.4109 58.9671 62.922C58.9585 63.5725 58.617 64.1428 58.0692 64.5039C57.756 64.7103 57.1019 64.922 56.7094 64.8871C56.5788 64.8755 56.4674 64.8892 56.3742 64.8387C56.219 64.7543 56.0689 64.8257 55.5135 64.3809C55.1071 64.0555 54.8723 63.5634 54.8411 63.0548C54.8386 63.0057 54.8204 62.9567 54.8272 62.9064C54.8988 62.4493 54.8313 62.6291 54.9836 62.1456L55.1127 61.8002C55.1316 61.7585 55.1732 61.7331 55.1852 61.6866C55.2037 61.6262 55.2153 61.517 55.2866 61.4698C55.3051 61.4576 55.2583 61.4503 55.3585 61.3605C55.4279 61.2984 55.3694 61.2173 55.6924 61.0183C55.9799 60.8411 55.895 60.793 56.2797 60.6915C56.3468 60.6739 56.3298 60.5622 56.5507 60.4996C56.6607 60.4684 56.6241 60.3918 56.7138 60.3853C56.7925 60.3796 56.6958 60.3739 56.86 60.2735C56.7607 60.2096 56.7593 60.154 56.7333 60.1338C56.577 60.0116 56.6671 59.966 56.4182 59.894C56.1709 59.8225 55.7633 59.8021 55.5146 59.8617C55.1257 59.9551 54.8994 59.9731 54.5632 60.2014C54.0813 60.5287 53.6478 61.0435 53.4448 61.5902C53.3734 61.7824 53.3758 61.6763 53.2728 62.0368C52.8947 63.359 53.3008 64.6906 54.3491 65.61C53.5549 65.8688 52.5407 66.1642 51.8097 66.5298C50.5651 67.1523 49.9041 67.8938 49.0108 68.8478L46.4703 71.5686C46.0314 72.0368 45.7178 72.3721 45.4759 73.0028C45.2132 73.6878 45.1768 74.265 45.2957 74.9586C45.3077 75.0276 45.3178 75.1058 45.3197 75.1736C45.3328 75.5299 45.4374 76.1445 45.4873 76.5493L46.0651 81.1833C46.1094 81.531 46.1848 81.7958 46.4054 82.0995C46.7617 82.5902 47.3532 82.8706 47.9536 82.8522C48.4238 82.8378 48.7528 82.814 49.1792 82.5075C49.7267 82.1138 49.8908 81.6196 49.9145 81.0175L50.1093 74.7618C50.1285 74.7189 52.0059 72.9867 51.9763 72.9618C51.8875 73.0115 51.7273 73.1586 51.6548 73.1804C51.8023 72.9858 51.9604 72.8735 51.6984 73.0431L52.5238 72.376L51.1426 73.2133C50.5023 73.6565 50.2319 73.9068 49.6877 74.3592C49.5892 74.441 49.5399 74.5439 49.5264 74.6753C49.5084 74.8506 49.4491 75.5704 49.3941 75.7051C49.301 75.9332 49.2472 77.7275 49.1749 78.2653C49.0554 79.1521 48.969 80.1392 48.8736 81.044C48.8539 81.231 48.8121 81.3732 48.6664 81.5179C48.4412 81.7413 48.239 81.7329 47.9261 81.7179C47.7997 81.7119 47.5875 81.664 47.5158 81.552C47.2941 81.2055 47.3025 81.0832 47.2594 80.6918L46.5865 74.6361C46.5017 73.8878 46.7205 73.2822 47.2324 72.7405L50.7667 69.0432C51.4952 68.2786 52.4214 67.7475 53.4264 67.432L55.2525 66.8663C56.6257 66.4388 57.8502 66.4532 59.241 66.7271L65.4173 67.8959C65.5698 67.9239 65.7311 67.9115 65.8874 67.8537L69.3562 66.5377L71.5357 65.7178C71.7597 65.6309 72.0089 65.6454 72.1318 65.901C72.3205 66.2938 72.4161 66.4728 71.9976 66.7476L65.9888 70.7003C65.417 71.0817 64.8448 71.1431 64.1975 71.0078L61.0708 70.3637C60.5588 70.2622 60.0737 70.6479 60.074 71.1686L60.0791 75.4206C60.0791 75.7982 60.0905 76.1759 60.0861 76.5516L60.081 80.9036C60.0809 81.0489 60.1043 81.5398 60.0539 81.7067C59.9806 81.9494 59.766 82.1117 59.5019 82.1327L59.2757 82.1365L57.9355 82.16C57.599 82.1643 57.2612 82.1514 56.9273 82.1681C56.3646 82.1967 55.8139 82.2477 55.2291 82.2314C55.2014 82.2308 55.1699 82.2327 55.1428 82.2358C54.7379 82.2807 54.2111 82.243 53.778 82.2737C53.5446 82.2902 53.3934 82.2503 53.2053 82.0544C52.9865 81.8266 52.9854 81.613 52.9835 81.3246L52.9136 78.967C52.8871 78.5154 52.8619 78.0521 52.8543 77.5913C52.8476 77.2251 52.8118 76.1364 52.7566 75.7913C52.6822 75.3274 52.6426 74.815 52.6154 74.2703C52.5908 73.7653 52.5393 73.7409 52.5266 73.2921C52.5241 73.2063 52.521 73.0833 52.5127 73.0567C52.4831 72.9524 52.4736 72.7287 52.4604 72.5132C52.4499 72.8046 52.3782 73.7492 52.323 74.0107L52.0181 77.454C51.9614 77.9925 51.9179 78.5223 51.8839 79.0514C51.8461 79.6334 51.8165 80.2141 51.7566 80.7719C51.6902 81.4066 51.6395 81.9759 51.9633 82.5663C52.3424 83.2575 53.0493 83.6423 53.8227 83.6569L56.0458 83.6886C56.0364 83.7362 56.0285 83.911 55.9928 83.929C55.914 83.9686 55.9616 83.9967 55.9568 84.0445C55.9549 84.0632 55.9461 84.0817 55.9449 84.1004L55.8617 85.46L55.7659 86.4612L54.9367 86.4694C54.7098 86.4793 54.4831 86.4936 54.2562 86.4979C51.5789 86.5458 48.9178 86.5296 46.2406 86.5867L44.8664 86.6183C44.7903 86.628 44.6594 86.5978 44.4045 86.6178L43.5319 86.6333C42.6754 86.648 41.501 86.6492 40.6573 86.7538C39.6885 86.874 38.867 87.76 38.8767 88.7314C38.8794 89.0048 39.0311 90.1603 39.0795 90.3476C39.1236 90.5178 39.1354 90.2591 39.1696 90.2265C39.2557 90.2961 39.252 90.3754 39.2836 90.242L39.3536 90.6284C39.0136 90.6998 39.2309 90.7345 39.2459 90.7706C39.1892 90.8782 39.1809 90.8405 39.2308 90.8837C39.181 90.8947 39.0791 90.9063 39.0462 90.947C39.1283 91.0636 39.41 91.1745 39.5522 91.1544C39.5666 91.1524 39.7641 91.1997 39.7772 91.2563C39.7991 91.3507 40.0697 91.3029 40.2012 91.4202C40.2684 91.4802 40.9468 91.9821 40.9435 92.1096C40.9407 92.2186 41.0083 92.2245 41.0714 92.3151C41.4121 92.8045 41.5326 93.2458 41.539 93.8238C41.5427 94.1614 41.4062 94.7085 41.1975 94.9922C40.7607 95.5856 40.4596 95.8062 39.7634 96.0443C39.6184 96.0939 39.167 96.1799 38.9896 96.1772C38.8641 96.1754 38.5755 96.1649 38.4666 96.1114C38.2894 96.0243 38.2797 96.1056 37.7338 95.7897C37.103 95.4246 36.6795 94.691 36.6418 93.9823C36.6399 93.9233 36.6204 93.8643 36.628 93.8053C36.6944 93.3236 36.6481 93.3893 36.8138 92.9004L36.9751 92.4953C36.999 92.4463 37.0469 92.4146 37.0639 92.3618C37.0915 92.2844 37.1068 92.1772 37.1918 92.1127C37.2183 92.0926 37.1598 92.099 37.2794 91.9879C37.4231 91.8544 37.2106 91.957 37.5642 91.6724C37.6538 91.6002 37.8128 91.5215 37.9397 91.409C38.0963 91.2703 38.362 91.2666 38.4293 91.1829C38.5758 91.0006 38.7237 91.0606 38.7891 90.9612C38.8393 90.8848 38.9102 90.9249 38.9253 90.8923C38.9524 90.8365 38.9984 90.8228 39.0463 90.796C38.9337 90.7335 38.9417 90.6863 38.9026 90.6582C38.7271 90.5321 38.8184 90.4849 38.5497 90.4215C38.2699 90.3557 37.8255 90.3424 37.5472 90.4153L36.9542 90.5725C36.2155 90.885 35.543 91.6087 35.2725 92.3531L35.1502 92.6196C35.0316 92.9457 34.9314 93.5195 34.9322 93.8556C34.9343 94.7117 35.1355 95.3278 35.626 96.0773C35.8281 96.3862 36.2092 96.758 36.4993 96.976L35.7967 97.3604C34.7023 98.0434 33.9417 98.9806 33.5869 100.212C33.433 100.746 33.3555 101.292 33.3626 101.844C33.3632 101.893 33.3778 102.475 33.4533 102.425C33.483 102.386 33.4653 102.32 33.51 102.29C33.6129 102.369 33.5721 102.403 33.6234 102.31C33.6285 102.379 33.6498 102.564 33.6883 102.615C33.7982 102.478 33.8825 102.119 33.9069 101.941C33.9502 101.626 33.8972 101.798 34.0096 101.434C34.0525 101.295 34.102 101.381 34.13 101.238C34.2156 100.801 34.2623 100.712 34.4853 100.36C34.7237 99.9832 35.0413 99.5417 35.375 99.2354C35.4543 99.1625 35.5253 99.202 35.678 99.0199C35.8111 98.8612 36.4571 98.4446 36.6036 98.3652C37.5236 97.8673 38.5485 97.6965 39.5859 97.8056C40.7294 97.9258 41.8689 98.5876 42.601 99.4378C43.1302 100.052 43.56 100.863 43.7566 101.648C43.8105 101.863 43.881 102.424 43.8619 102.615C43.8359 102.872 43.8886 103.698 43.8354 103.874C43.7589 104.128 43.5289 104.303 43.2582 104.308L40.0214 104.317C39.8915 104.317 39.7611 104.328 39.632 104.323C39.3774 104.314 39.1235 104.309 38.8689 104.316C38.3793 104.329 37.8898 104.302 37.3995 104.338L36.6396 104.379C36.5255 104.384 36.4108 104.371 36.2974 104.387C36.1071 104.415 35.92 104.467 35.7221 104.451C35.7121 104.45 35.7014 104.452 35.6924 104.455C35.5447 104.504 35.3562 104.448 35.1625 104.511C35.0576 104.545 34.6635 104.557 34.504 104.497C34.1276 104.356 33.9756 104.243 33.8929 103.845C33.8775 103.771 33.7678 103.706 33.7423 103.261C33.7289 103.027 33.6443 103.096 33.6414 102.908C33.6393 102.77 33.6234 102.909 33.5356 102.616C33.4662 102.801 33.42 102.782 33.3875 102.847C33.2736 103.074 33.2481 102.998 33.2205 103.072C33.1143 103.359 33.0588 103.508 33.0164 103.81C32.9092 104.574 33.3395 105.172 33.9678 105.589C34.3009 105.811 34.6904 105.833 35.0743 105.864C35.824 105.924 36.9681 105.942 37.7012 105.943C37.7258 105.943 37.7523 105.942 37.7762 105.945L40.2299 106L43.1813 105.986C43.9243 105.977 44.5518 105.739 45.0363 105.15C45.3841 104.727 45.5417 104.205 45.5209 103.663C45.4842 102.703 45.556 102.287 45.3439 101.318C45.187 100.601 45.0583 100.395 44.7699 99.764C44.6185 99.433 44.0248 98.6688 43.8008 98.4578L43.4618 98.1143C42.8589 97.5602 42.2683 97.1627 41.5065 96.8491C42.9578 95.6889 43.3103 93.7384 42.453 92.1381C42.2179 91.6993 41.8823 91.2992 41.4542 91.0325C41.0696 90.7929 40.4818 90.6081 40.0359 90.6008L39.3674 90.6251C39.423 90.5325 39.5128 90.1296 39.5193 89.986C39.5288 89.8083 39.5395 89.6326 39.5193 89.455L39.5376 89.017C39.5435 88.859 39.6022 88.9585 39.617 88.7941C39.6344 88.5999 39.6897 88.3507 39.8439 88.2084C40.3981 87.6967 40.8934 87.8096 41.6164 87.8326C41.7837 87.838 41.7549 87.9158 42.1356 87.8904L42.6341 87.8978L49.1047 87.9662L54.5129 88.0779L55.816 88.0729L55.8304 88.7213C55.8055 88.8739 55.8197 89.2322 55.8858 89.3865L55.8953 89.5014C55.9243 89.5455 55.9753 89.5896 55.959 89.6356C55.9584 89.6387 55.9602 89.6406 55.9634 89.6425C56.011 89.6746 55.9595 89.7248 56.0195 89.7667C56.0717 89.8032 56.0282 89.975 56.1083 90.1183C56.1682 90.225 56.1017 90.3227 56.1701 90.3618C56.2287 90.3941 56.2596 90.4282 56.2747 90.4643C56.0043 90.3439 55.4321 90.3423 55.1518 90.4152L54.5577 90.5724C53.8037 90.8918 53.165 91.6015 52.8765 92.353L52.7549 92.6195C52.6356 92.9412 52.5356 93.5235 52.5356 93.8555C52.5356 95.0974 53.099 96.2263 54.1046 96.9759C53.4304 97.3309 53.1228 97.4812 52.4973 98.0597C50.6349 99.7819 50.9393 102.502 51.0574 102.425C51.0876 102.386 51.0694 102.32 51.1141 102.29C51.2264 102.379 51.1718 102.396 51.2276 102.31C51.2345 102.38 51.2535 102.565 51.2931 102.615C51.3595 102.528 51.4648 102.239 51.4784 102.134L51.5426 101.68C51.6403 101.226 51.7002 101.405 51.7335 101.238C51.8227 100.79 51.8671 100.716 52.0901 100.36C52.3258 99.9828 52.6465 99.5422 52.9786 99.2354C53.0563 99.1636 53.1269 99.2042 53.2824 99.0199C53.418 98.859 54.0586 98.4462 54.208 98.3652C55.1267 97.8673 56.1546 97.6964 57.1909 97.8056C58.035 97.8946 58.9183 98.3074 59.5708 98.8205C60.4159 99.485 61.1017 100.606 61.3609 101.648C61.4137 101.86 61.4865 102.43 61.4674 102.615L61.4599 103.735C61.4473 104.063 61.179 104.303 60.8626 104.308L57.625 104.317C57.4959 104.317 57.3655 104.328 57.2356 104.324C56.9811 104.314 56.7271 104.309 56.4726 104.316C55.983 104.329 55.4934 104.302 55.005 104.338L54.2438 104.379C54.1304 104.384 54.0157 104.371 53.9023 104.388C53.7114 104.416 53.5242 104.467 53.3257 104.452C53.3163 104.45 53.3061 104.452 53.2961 104.455C53.1355 104.505 52.9641 104.448 52.7667 104.511C52.6623 104.545 52.2675 104.558 52.1089 104.498C51.7403 104.358 51.5746 104.242 51.4971 103.845C51.4831 103.773 51.3737 103.709 51.3465 103.262C51.3316 103.017 51.2518 103.109 51.2463 102.908C51.2425 102.77 51.2269 102.907 51.1398 102.616C51.0705 102.801 51.0228 102.786 50.991 102.847C50.8673 103.082 50.8561 102.996 50.824 103.072C50.4078 104.061 50.5628 104.922 51.5713 105.59C51.9063 105.811 52.2939 105.833 52.6791 105.864C53.4303 105.924 54.5703 105.942 55.3053 105.943C55.3311 105.943 55.3557 105.942 55.3809 105.945L57.8345 106L60.7854 105.986C62.1692 105.974 63.1614 105.014 63.1249 103.663C63.1002 102.748 63.1481 102.223 62.9479 101.318C62.7811 100.564 62.6703 100.42 62.3732 99.7642C62.2244 99.4358 61.6261 98.6646 61.4053 98.458L61.067 98.1145C60.4706 97.5626 59.8644 97.1612 59.1111 96.8493C59.9414 96.1841 60.4941 95.1752 60.5112 94.1128C60.5159 93.8201 60.5222 93.552 60.4545 93.26C60.4202 93.1121 60.4306 93.0152 60.348 92.8531C60.3123 92.7829 60.3751 92.7863 60.2704 92.5972L60.0569 92.1382C59.8221 91.6952 59.4841 91.3019 59.0576 91.0326C58.6781 90.7931 58.0803 90.6079 57.6391 90.6009C57.4099 90.5973 57.0025 90.5848 56.7948 90.6793C56.7067 90.7193 56.8347 90.7345 56.8495 90.7706C56.7897 90.8931 56.7798 90.8206 56.8344 90.8837C56.7848 90.8947 56.6821 90.9073 56.6492 90.947C56.7448 91.0676 57.0077 91.1753 57.1557 91.1544C57.1719 91.1522 57.368 91.2016 57.3819 91.2563C57.4065 91.3525 57.6737 91.3024 57.8048 91.4202C57.8692 91.4782 58.5498 91.9808 58.547 92.1096C58.5447 92.2197 58.6125 92.2237 58.6743 92.3151C59.017 92.8222 59.1402 93.2295 59.1431 93.8238C59.1448 94.1619 59.0108 94.7088 58.8009 94.9922C58.3626 95.584 58.0648 95.8071 57.3668 96.0443C57.1465 96.1191 56.7172 96.1925 56.4714 96.1704C56.3269 96.1574 56.1818 96.1668 56.0701 96.1114C55.9031 96.0285 55.8813 96.1038 55.3366 95.7897C54.7125 95.4296 54.2782 94.6844 54.2453 93.9823C54.244 93.9233 54.2232 93.8643 54.2314 93.8053C54.2983 93.3281 54.2494 93.3907 54.4174 92.9004L54.5793 92.4953C54.6026 92.4463 54.6499 92.4146 54.6669 92.3618C54.697 92.2774 54.7065 92.1848 54.7955 92.1127C54.8199 92.093 54.7667 92.0949 54.883 91.9879C55.0264 91.856 54.8145 91.9553 55.1678 91.6724C55.2569 91.6011 55.4081 91.5274 55.5428 91.409C55.7009 91.2699 55.9663 91.2667 56.0323 91.1829C56.1719 91.006 56.3316 91.0575 56.394 90.9612C56.4439 90.8842 56.5128 90.9252 56.5288 90.8923C56.556 90.8365 56.6025 90.8228 56.6492 90.796C56.5379 90.7341 56.5468 90.687 56.5061 90.6582C56.4809 90.6395 56.4563 90.6215 56.4331 90.5992C56.4614 90.6109 56.4722 90.6246 56.4905 90.6395C56.5956 90.5682 56.7882 90.569 56.9102 90.4638C57.1424 90.2632 57.2193 90.0505 57.2895 89.9898C57.4376 89.8619 57.4718 89.362 57.4734 89.1725L57.498 89.0116L57.5384 88.4123L57.5213 88.0508C57.8225 88.0458 58.125 88.021 58.4287 88.0446C58.6486 88.0614 58.8735 88.0477 59.0966 88.0489L66.6673 88.0185C66.8286 88.0185 66.9905 88.0067 67.1506 88.0116C67.4675 88.0203 67.7826 88.0259 68.0983 88.019C68.7063 88.0054 69.3144 88.0327 69.9212 87.9967L70.8657 87.9557C71.0068 87.9514 71.1493 87.9644 71.2898 87.9476C71.5267 87.9191 71.7586 87.8681 72.005 87.8836C72.017 87.8848 72.0303 87.8829 72.041 87.8798C72.1903 87.8392 72.366 87.8771 72.6149 87.8357C72.819 87.8019 73.1452 87.9802 73.2722 88.0966C73.7993 88.58 73.7319 88.7824 73.7454 89.3848C73.7489 89.5418 73.8653 89.72 73.8872 90.1897C73.8986 90.4336 73.9487 90.397 73.9755 90.5164C73.9153 90.4349 73.5581 90.3805 73.4424 90.3754C72.6988 90.343 72.8363 90.4353 72.3006 90.5313C71.9879 90.5873 71.534 90.9207 71.3138 91.1387C70.9342 91.5148 70.7209 91.7883 70.5091 92.2754C70.3382 92.6687 70.2845 92.7919 70.2112 93.2275C70.198 93.3071 70.1702 93.3846 70.1639 93.4654C70.0897 94.4794 70.2417 95.1829 70.8331 96.077C71.0383 96.3871 71.4145 96.7566 71.7077 96.9757L71.0051 97.3602C69.9069 98.0443 69.154 98.9794 68.7941 100.212C68.6387 100.744 68.5656 101.293 68.5704 101.844C68.5708 101.896 68.5857 102.475 68.6618 102.425C68.6914 102.386 68.6725 102.32 68.7172 102.29C68.8369 102.382 68.7665 102.399 68.8318 102.31C68.8369 102.378 68.8574 102.565 68.8967 102.615C69.0031 102.482 69.0933 102.114 69.1154 101.941C69.1554 101.627 69.1106 101.782 69.218 101.434C69.2609 101.295 69.3088 101.38 69.3384 101.238C69.4336 100.78 69.4585 100.733 69.6937 100.359C69.9405 99.9676 70.2394 99.5533 70.5828 99.2352C70.6606 99.1632 70.7345 99.2001 70.8866 99.0197C71.0224 98.8585 71.6616 98.4466 71.8122 98.365C72.7315 97.8668 73.7575 97.6965 74.7944 97.8054C75.9382 97.9254 77.0766 98.5879 77.8095 99.4376C78.326 100.036 78.7795 100.88 78.9651 101.647C79.0185 101.868 79.0904 102.42 79.0704 102.614C79.0435 102.878 79.0977 103.689 79.0439 103.874C78.971 104.125 78.7367 104.303 78.4667 104.308L75.2291 104.316C75.0987 104.316 74.9696 104.328 74.8403 104.323C74.5852 104.313 74.3306 104.309 74.076 104.316C73.587 104.329 73.0974 104.301 72.6078 104.338L71.8479 104.379C71.7333 104.383 71.6186 104.37 71.5051 104.387C71.3142 104.415 71.1282 104.467 70.9292 104.451C70.9204 104.45 70.9096 104.452 70.9002 104.455C70.7454 104.504 70.5666 104.447 70.3709 104.511C70.2682 104.544 69.8696 104.558 69.7123 104.497C69.3434 104.356 69.1779 104.243 69.0999 103.844C69.0863 103.775 68.9742 103.698 68.9506 103.261C68.9379 103.024 68.8574 103.11 68.8497 102.908C68.8441 102.76 68.8322 102.915 68.7427 102.615C68.6755 102.801 68.6296 102.782 68.5946 102.846C68.4613 103.09 68.457 102.999 68.4282 103.072C68.0364 104.069 68.1192 104.891 69.1749 105.589C69.5099 105.811 69.8967 105.833 70.282 105.864C71.0322 105.924 72.1764 105.942 72.9095 105.943C72.9341 105.943 72.9594 105.942 72.9839 105.945L75.4382 106L78.3896 105.986C79.134 105.977 79.7579 105.739 80.2446 105.15C80.6719 104.633 80.7427 104.121 80.7242 103.505C80.6969 102.597 80.7519 102.236 80.5508 101.318C80.3871 100.57 80.2715 100.415 79.9767 99.764C79.8265 99.4322 79.2326 98.6695 79.0083 98.4578L78.6699 98.1143C78.0669 97.557 77.4756 97.1658 76.7146 96.8491C78.1734 95.6828 78.5137 93.7403 77.6599 92.1381C77.4249 91.6971 77.09 91.3005 76.6618 91.0325C76.2787 90.7928 75.6884 90.6081 75.244 90.6008C75.0177 90.5972 74.602 90.5851 74.3977 90.6792C74.3107 90.7193 74.4388 90.7344 74.4539 90.7705C74.3975 90.8778 74.3885 90.84 74.4388 90.8836C74.3892 90.8943 74.2853 90.9069 74.2535 90.9469C74.3354 91.0632 74.618 91.1743 74.7601 91.1543C74.7762 91.1521 74.9722 91.2013 74.985 91.2561C75.0072 91.3509 75.2767 91.3022 75.4079 91.4201C75.4686 91.4747 76.1559 91.9822 76.1508 92.1095C76.1465 92.2162 76.22 92.2277 76.2787 92.315C76.6233 92.8286 76.7401 93.2252 76.7469 93.8237C76.7507 94.1615 76.6126 94.7081 76.4041 94.992C75.9687 95.5849 75.6646 95.8059 74.9706 96.0442C74.8263 96.0937 74.3743 96.1798 74.1975 96.1771C74.0728 96.1752 73.7827 96.165 73.6744 96.1113C73.512 96.0307 73.4666 96.0986 72.9404 95.7895C72.3087 95.4186 71.8862 94.6949 71.8497 93.9821C71.8478 93.9232 71.8271 93.8642 71.8346 93.8052C71.9072 93.2985 71.8495 93.4195 72.0211 92.9002L72.1831 92.4952C72.2057 92.4462 72.2549 92.4145 72.2713 92.3617C72.3057 92.2615 72.3069 92.1951 72.3999 92.1126C72.4265 92.0891 72.3684 92.0969 72.4869 91.9878C72.6277 91.8584 72.4236 91.9507 72.771 91.6723C72.8595 91.6014 73.0148 91.5261 73.1472 91.4089C73.3044 91.2698 73.5685 91.2671 73.6362 91.1828C73.781 91.0023 73.9307 91.0605 73.9972 90.9611C74.0193 90.9275 74.0451 90.9158 74.076 90.912C74.0816 90.9374 74.0879 90.9635 74.0936 90.9909C74.1055 90.9518 74.1137 90.9244 74.1213 90.9021C74.1269 90.9002 74.1308 90.8971 74.1327 90.8922C74.1604 90.8363 74.2064 90.8227 74.2537 90.7959C74.2291 90.7822 74.214 90.7748 74.2014 90.7648C74.2893 90.6455 74.2829 90.5456 74.3873 90.4673L74.5139 90.0742C74.5662 89.839 74.7455 88.9385 74.7263 88.6518C74.6918 88.1377 74.5089 87.7149 74.1932 87.2891C73.7956 86.753 73.1033 86.4828 72.439 86.4512L69.5475 86.3916C69.5159 86.3916 69.4845 86.3928 69.4548 86.3897C69.1319 86.3569 68.4285 86.366 68.0616 86.3624C67.9318 86.3605 67.8014 86.3494 67.6722 86.3475L62.7442 86.3487L57.3977 86.4468L57.341 86.0139C57.3089 85.631 57.3301 85.0698 57.2622 84.6574C57.2522 84.6127 57.2736 84.5661 57.2421 84.5214C57.2247 84.495 57.2769 84.5089 57.2433 84.4339C57.2031 84.344 57.2748 84.0768 57.0984 83.7023L59.5035 83.7247C60.7893 83.7059 61.7358 82.6844 61.7442 81.498L61.7934 72.7238L61.7921 72.2356L64.041 72.6884C64.6537 72.8082 65.3513 72.7615 65.937 72.5741C65.7766 73.4144 65.7547 73.9649 65.6591 74.789C65.5657 75.5956 65.5618 76.4872 65.4612 77.2343C65.418 77.5552 65.323 79.315 65.3434 79.7373C65.4034 80.9831 66.4377 82.0147 67.7561 82.0857C68.4469 82.1118 69.2495 82.0968 69.9482 82.0975C69.9998 82.0975 70.0528 82.0963 70.1032 82.0994C70.79 82.1409 71.7022 82.1179 72.4188 82.1274L78.1219 82.1547C78.4028 82.153 79.3994 82.1599 79.6853 82.1298C80.9522 81.9967 81.9461 80.9538 81.9971 79.6709C82.0022 79.5572 81.999 79.5081 81.999 79.4392Z" fill="#2C2C2C"/>
<path fill-rule="evenodd" clip-rule="evenodd" d="M77.6494 77.4225C77.6834 77.4692 77.6101 77.504 77.5801 77.5237C77.6121 77.5867 77.5769 77.5667 77.5769 77.6362C77.5769 77.6763 77.7053 77.6947 77.4692 77.8256C77.1499 78.0026 76.8719 78.2559 76.4969 78.3014L76.0678 78.3436C75.9876 78.376 76.0034 78.3251 75.9778 78.343L75.3149 78.4082L74.3407 78.4406C74.0868 78.4627 74.0184 78.4955 73.6829 78.5094C72.9743 78.555 72.2218 78.6793 71.4844 78.6137C71.4586 78.6113 71.4341 78.6013 71.4081 78.5994C71.3358 78.5936 71.1868 78.6004 71.1334 78.5721C71.1326 78.5719 70.415 78.5628 70.2606 78.3889C70.1873 78.3063 69.8989 78.223 69.6954 77.9112L69.5826 77.6013C69.656 77.5048 69.6246 77.4982 69.6551 77.4963C69.7003 77.4935 69.6866 77.4091 69.742 77.3957C69.8812 77.3619 69.8258 77.2206 70.0168 77.2509C70.1022 77.2645 70.1661 77.1753 70.2795 77.1783C70.4863 77.1836 70.5104 77.1062 70.5548 77.1049C70.5774 77.1037 70.6014 77.1093 70.6234 77.0814C70.6253 77.0783 70.6285 77.0764 70.6304 77.0771C70.6795 77.0926 70.725 77.0416 70.7722 77.0137L70.8912 77.0044C71.0472 76.9401 71.4311 76.9264 71.5869 76.9498C71.8143 76.9645 73.1832 76.8915 73.3052 76.9162C73.4131 76.938 73.916 76.8662 74.0765 76.8833L74.9965 76.9809L76.5157 77.0703C76.5866 77.0441 76.5883 77.1236 76.6171 77.1286C76.7004 77.1429 76.9997 77.1802 77.0923 77.2355C77.1681 77.2807 77.2852 77.1532 77.309 77.2424C77.3282 77.3139 77.4538 77.2742 77.5289 77.2915C77.5734 77.3016 77.6174 77.3763 77.6494 77.4225ZM77.6494 73.8941C77.6799 73.9422 77.6221 73.9677 77.5801 73.9953C77.6109 74.0666 77.577 74.0351 77.5769 74.1083C77.5768 74.148 77.7052 74.1664 77.4692 74.2977C77.1518 74.4744 76.8652 74.7304 76.4969 74.7735L76.0678 74.8152C75.9886 74.8482 76.0032 74.7966 75.9778 74.8145L75.3149 74.8804C74.8467 74.9214 74.3874 74.8738 73.9935 74.9636C73.9193 74.9805 73.9655 74.9423 73.8291 74.9723L73.1624 75.0107C72.3144 75.079 72.2311 75.1469 71.2835 75.0666C71.2337 75.0623 71.1833 75.0685 71.1335 75.0436C71.1332 75.0435 70.4159 75.0353 70.2607 74.8604C70.1862 74.7764 69.9003 74.6966 69.6956 74.3827L69.5827 74.0728C69.6596 73.9769 69.6215 73.9706 69.6552 73.9678C69.7028 73.9638 69.6847 73.8824 69.7421 73.8678C69.8781 73.8333 69.8303 73.6929 70.0169 73.7225C70.1013 73.736 70.1684 73.6477 70.2796 73.6499C70.4948 73.6541 70.5054 73.5787 70.5549 73.5766C70.5775 73.5753 70.6016 73.5816 70.6235 73.5529C70.6254 73.5498 70.6286 73.5479 70.6305 73.5491C70.6797 73.5647 70.7251 73.5143 70.7723 73.4858L70.8913 73.4765C71.0473 73.4119 71.4314 73.3977 71.587 73.4225C71.8142 73.4378 73.1543 73.3596 73.3053 73.3889L74.0767 73.3547L74.9966 73.4528L76.5158 73.5422C76.5889 73.5161 76.5875 73.5948 76.6173 73.6C76.6976 73.6138 77.0069 73.6543 77.0924 73.7069C77.1665 73.7523 77.2856 73.6257 77.3091 73.7138C77.329 73.7878 77.4556 73.7451 77.529 73.7629C77.5719 73.7734 77.6188 73.8499 77.6494 73.8941ZM77.6557 70.3662C77.5982 70.5713 77.649 70.5802 77.6362 70.6693C77.6097 70.7459 77.3463 71.1744 77.2273 71.24L77.0306 71.2879C77.0026 71.3206 77.0033 71.2706 76.9947 71.286L76.8245 71.3282C76.4363 71.4294 76.4369 71.3247 76.1944 71.4388L75.8819 71.4823C75.7112 71.5218 75.8439 71.5252 75.5246 71.5619C75.2996 71.5876 75.3449 71.5744 75.1396 71.5382L75.0728 71.514C74.7683 71.5071 74.7311 71.2978 74.6745 71.2314C74.6221 71.1698 74.5142 70.9185 74.5089 70.8339L74.468 70.5444L74.531 70.3407C74.5739 70.3156 74.5683 70.165 74.6394 70.194C74.673 70.2077 74.6996 70.119 74.7427 70.1226C74.819 70.1288 74.8369 70.0496 74.8524 70.0481C74.8882 70.0444 74.8747 70.0181 74.882 70.0207C74.901 70.0363 74.9192 69.9865 74.9381 69.958L74.9854 69.948C75.0546 69.8774 75.21 69.8737 75.2601 69.894L75.9388 69.8604C76.0032 69.8881 76.1316 69.7912 76.342 69.8499C76.8074 69.9795 76.7701 69.9539 77.2078 70.0138C77.2342 69.9885 77.2361 70.0669 77.2475 70.0728C77.3077 70.1036 77.3894 70.1102 77.4352 70.1785C77.4663 70.2247 77.5106 70.0959 77.5209 70.1866C77.5293 70.2607 77.5785 70.216 77.6079 70.2344L77.6557 70.3662ZM80.3324 60.4119C80.345 59.8454 79.9504 59.4257 79.3419 59.4207L69.034 59.3567C68.8695 59.3555 68.705 59.3468 68.5413 59.3449C68.323 59.343 67.8264 59.3746 67.6415 59.3294C67.5016 59.2952 67.1839 59.4881 67.0656 59.5822C66.8534 59.7507 66.7177 60.0912 66.6995 60.3747C66.664 60.9282 66.6754 61.5376 66.6315 62.1244C66.6 62.5426 66.7003 63.7575 66.6245 63.9237C66.5597 64.0656 66.5687 65.6123 66.5665 65.8795C66.6573 65.844 66.748 65.8093 66.8387 65.7726C68.1647 65.2428 69.6002 64.7587 70.9212 64.2279C71.8425 63.8578 72.8348 64.1187 73.4151 64.8938C73.5668 64.813 74.1235 64.3903 74.1877 64.3758L74.463 64.1658L74.9161 63.9932L75.5739 63.69C75.5979 63.6826 75.5797 63.6329 75.6432 63.6894C75.6669 63.7105 75.7391 63.6765 75.7396 63.6764C75.9918 63.6183 75.8905 63.7351 75.9746 63.5968C75.9919 63.5686 75.973 63.6396 76.0729 63.6323C76.0872 63.6312 76.0912 63.5604 76.1813 63.6304C76.291 63.7156 76.2721 63.6959 76.2721 63.7831C76.309 63.8801 76.4882 63.7981 76.3237 64.5974C76.2972 64.7262 76.109 64.8346 76.1 64.8645C76.086 64.9109 76.063 64.8657 76.0621 64.8868C76.0589 64.9247 76.0281 64.9203 76.0142 64.9396C75.7808 65.2086 75.4711 65.3218 75.3292 65.524L75.1395 65.6712C75.1288 65.6812 75.1244 65.701 75.1124 65.7078C74.9913 65.7793 74.9347 65.8835 74.7651 66.0233C74.5526 66.1989 74.433 66.2528 74.1917 66.3333C74.183 66.3367 74.0985 66.409 73.9322 66.4296C73.9322 66.591 73.8703 66.8583 73.815 67.0135C73.5733 67.6909 73.1463 67.9482 72.6108 68.3072L67.282 71.8636C66.9682 72.0722 66.7347 72.2389 66.3822 72.3996C66.4136 72.5992 66.4563 72.5425 66.4678 72.9214C66.478 73.2977 66.5106 73.663 66.5806 74.002C66.6256 74.2218 66.6199 74.9693 66.6152 75.2051C66.6016 75.912 66.6921 76.6327 66.6889 77.3864C66.6883 77.5502 66.6981 78.9758 66.7305 79.1746C66.7715 79.4257 66.7344 79.7926 66.8691 79.9702C66.9249 80.0438 66.9319 80.1508 67.1055 80.2838C67.3752 80.4908 67.7318 80.5471 68.0639 80.5329C68.4841 80.5125 68.9058 80.5075 69.326 80.4926C70.3361 80.4566 71.3468 80.4839 72.3569 80.4703C72.8824 80.4634 73.4079 80.4684 73.9334 80.4777C74.2 80.4833 74.4684 80.4715 74.7362 80.4715L79.3958 80.4647C79.7827 80.4647 80.1216 80.2242 80.2571 79.8473C80.3095 79.7016 80.2971 79.5383 80.2949 79.3864L80.2829 74.4493C80.2842 74.0847 80.2703 73.7158 80.2868 73.3555C80.3164 72.7456 80.271 72.1413 80.2824 71.5344C80.2949 70.8027 80.2606 70.0689 80.2584 69.3432L80.2565 67.4246C80.2557 65.0886 80.3324 62.7372 80.3324 60.4119ZM81.999 79.4392C81.9768 77.1185 81.9246 74.7899 81.9246 72.4761C81.9246 72.2326 81.9108 71.9898 81.9089 71.7464L81.8943 69.0012C81.8849 68.6546 81.8754 68.3123 81.8887 67.9658C81.902 67.6006 81.8614 66.9246 81.8566 66.5162L81.8238 60.5096C81.8221 59.9951 81.7512 59.582 81.4558 59.1202C80.9657 58.3539 80.1968 57.9877 79.3121 58.0003L76.3915 58.0351L73.9492 58.0581C73.5484 58.068 73.1445 58.0475 72.745 58.0773C72.6952 58.0816 72.6397 58.0823 72.5918 58.0773C72.3386 58.0512 71.9039 58.0809 71.6069 58.0835L67.9246 58.122C67.1421 58.1287 66.4534 58.4614 66.026 59.1114C65.6331 59.7091 65.6599 60.1619 65.7016 60.7983L66.0318 65.2627C66.05 65.5304 66.0665 65.7987 66.096 66.0621C65.8994 66.1366 65.7028 66.2081 65.5024 66.2776L59.5069 65.2392C60.1839 64.4672 60.4341 63.5785 60.316 62.5815C60.3038 62.4786 60.2389 62.1418 60.1856 62.0479C60.1505 61.9864 60.214 61.9876 60.1157 61.8175L59.9222 61.4057C59.0503 59.6753 56.911 60.056 56.9633 60.1928C56.9768 60.2282 57.0721 60.1982 57.0131 60.2965C56.9852 60.3428 56.9799 60.3185 57.0213 60.3593C56.9618 60.3756 56.8863 60.3863 56.86 60.4252C56.9439 60.5436 57.1529 60.6467 57.2961 60.6251C57.3048 60.6238 57.478 60.6639 57.4882 60.7195C57.5056 60.8135 57.7439 60.7554 57.8505 60.8605C57.9334 60.9368 58.4856 61.3653 58.4731 61.4636C58.4606 61.5619 58.5341 61.5747 58.5777 61.6425C58.8557 62.0741 58.9738 62.4109 58.9671 62.922C58.9585 63.5725 58.617 64.1428 58.0692 64.5039C57.756 64.7103 57.1019 64.922 56.7094 64.8871C56.5788 64.8755 56.4674 64.8892 56.3742 64.8387C56.219 64.7543 56.0689 64.8257 55.5135 64.3809C55.1071 64.0555 54.8723 63.5634 54.8411 63.0548C54.8386 63.0057 54.8204 62.9567 54.8272 62.9064C54.8988 62.4493 54.8313 62.6291 54.9836 62.1456L55.1127 61.8002C55.1316 61.7585 55.1732 61.7331 55.1852 61.6866C55.2037 61.6262 55.2153 61.517 55.2866 61.4698C55.3051 61.4576 55.2583 61.4503 55.3585 61.3605C55.4279 61.2984 55.3694 61.2173 55.6924 61.0183C55.9799 60.8411 55.895 60.793 56.2797 60.6915C56.3468 60.6739 56.3298 60.5622 56.5507 60.4996C56.6607 60.4684 56.6241 60.3918 56.7138 60.3853C56.7925 60.3796 56.6958 60.3739 56.86 60.2735C56.7607 60.2096 56.7593 60.154 56.7333 60.1338C56.577 60.0116 56.6671 59.966 56.4182 59.894C56.1709 59.8225 55.7633 59.8021 55.5146 59.8617C55.1257 59.9551 54.8994 59.9731 54.5632 60.2014C54.0813 60.5287 53.6478 61.0435 53.4448 61.5902C53.3734 61.7824 53.3758 61.6763 53.2728 62.0368C52.8947 63.359 53.3008 64.6906 54.3491 65.61C53.5549 65.8688 52.5407 66.1642 51.8097 66.5298C50.5651 67.1523 49.9041 67.8938 49.0108 68.8478L46.4703 71.5686C46.0314 72.0368 45.7178 72.3721 45.4759 73.0028C45.2132 73.6878 45.1768 74.265 45.2957 74.9586C45.3077 75.0276 45.3178 75.1058 45.3197 75.1736C45.3328 75.5299 45.4374 76.1445 45.4873 76.5493L46.0651 81.1833C46.1094 81.531 46.1848 81.7958 46.4054 82.0995C46.7617 82.5902 47.3532 82.8706 47.9536 82.8522C48.4238 82.8378 48.7528 82.814 49.1792 82.5075C49.7267 82.1138 49.8908 81.6196 49.9145 81.0175L50.1093 74.7618C50.1285 74.7189 52.0059 72.9867 51.9763 72.9618C51.8875 73.0115 51.7273 73.1586 51.6548 73.1804C51.8023 72.9858 51.9604 72.8735 51.6984 73.0431L52.5238 72.376L51.1426 73.2133C50.5023 73.6565 50.2319 73.9068 49.6877 74.3592C49.5892 74.441 49.5399 74.5439 49.5264 74.6753C49.5084 74.8506 49.4491 75.5704 49.3941 75.7051C49.301 75.9332 49.2472 77.7275 49.1749 78.2653C49.0554 79.1521 48.969 80.1392 48.8736 81.044C48.8539 81.231 48.8121 81.3732 48.6664 81.5179C48.4412 81.7413 48.239 81.7329 47.9261 81.7179C47.7997 81.7119 47.5875 81.664 47.5158 81.552C47.2941 81.2055 47.3025 81.0832 47.2594 80.6918L46.5865 74.6361C46.5017 73.8878 46.7205 73.2822 47.2324 72.7405L50.7667 69.0432C51.4952 68.2786 52.4214 67.7475 53.4264 67.432L55.2525 66.8663C56.6257 66.4388 57.8502 66.4532 59.241 66.7271L65.4173 67.8959C65.5698 67.9239 65.7311 67.9115 65.8874 67.8537L69.3562 66.5377L71.5357 65.7178C71.7597 65.6309 72.0089 65.6454 72.1318 65.901C72.3205 66.2938 72.4161 66.4728 71.9976 66.7476L65.9888 70.7003C65.417 71.0817 64.8448 71.1431 64.1975 71.0078L61.0708 70.3637C60.5588 70.2622 60.0737 70.6479 60.074 71.1686L60.0791 75.4206C60.0791 75.7982 60.0905 76.1759 60.0861 76.5516L60.081 80.9036C60.0809 81.0489 60.1043 81.5398 60.0539 81.7067C59.9806 81.9494 59.766 82.1117 59.5019 82.1327L59.2757 82.1365L57.9355 82.16C57.599 82.1643 57.2612 82.1514 56.9273 82.1681C56.3646 82.1967 55.8139 82.2477 55.2291 82.2314C55.2014 82.2308 55.1699 82.2327 55.1428 82.2358C54.7379 82.2807 54.2111 82.243 53.778 82.2737C53.5446 82.2902 53.3934 82.2503 53.2053 82.0544C52.9865 81.8266 52.9854 81.613 52.9835 81.3246L52.9136 78.967C52.8871 78.5154 52.8619 78.0521 52.8543 77.5913C52.8476 77.2251 52.8118 76.1364 52.7566 75.7913C52.6822 75.3274 52.6426 74.815 52.6154 74.2703C52.5908 73.7653 52.5393 73.7409 52.5266 73.2921C52.5241 73.2063 52.521 73.0833 52.5127 73.0567C52.4831 72.9524 52.4736 72.7287 52.4604 72.5132C52.4499 72.8046 52.3782 73.7492 52.323 74.0107L52.0181 77.454C51.9614 77.9925 51.9179 78.5223 51.8839 79.0514C51.8461 79.6334 51.8165 80.2141 51.7566 80.7719C51.6902 81.4066 51.6395 81.9759 51.9633 82.5663C52.3424 83.2575 53.0493 83.6423 53.8227 83.6569L56.0458 83.6886C56.0364 83.7362 56.0285 83.911 55.9928 83.929C55.914 83.9686 55.9616 83.9967 55.9568 84.0445C55.9549 84.0632 55.9461 84.0817 55.9449 84.1004L55.8617 85.46L55.7659 86.4612L54.9367 86.4694C54.7098 86.4793 54.4831 86.4936 54.2562 86.4979C51.5789 86.5458 48.9178 86.5296 46.2406 86.5867L44.8664 86.6183C44.7903 86.628 44.6594 86.5978 44.4045 86.6178L43.5319 86.6333C42.6754 86.648 41.501 86.6492 40.6573 86.7538C39.6885 86.874 38.867 87.76 38.8767 88.7314C38.8794 89.0048 39.0311 90.1603 39.0795 90.3476C39.1236 90.5178 39.1354 90.2591 39.1696 90.2265C39.2557 90.2961 39.252 90.3754 39.2836 90.242L39.3536 90.6284C39.0136 90.6998 39.2309 90.7345 39.2459 90.7706C39.1892 90.8782 39.1809 90.8405 39.2308 90.8837C39.181 90.8947 39.0791 90.9063 39.0462 90.947C39.1283 91.0636 39.41 91.1745 39.5522 91.1544C39.5666 91.1524 39.7641 91.1997 39.7772 91.2563C39.7991 91.3507 40.0697 91.3029 40.2012 91.4202C40.2684 91.4802 40.9468 91.9821 40.9435 92.1096C40.9407 92.2186 41.0083 92.2245 41.0714 92.3151C41.4121 92.8045 41.5326 93.2458 41.539 93.8238C41.5427 94.1614 41.4062 94.7085 41.1975 94.9922C40.7607 95.5856 40.4596 95.8062 39.7634 96.0443C39.6184 96.0939 39.167 96.1799 38.9896 96.1772C38.8641 96.1754 38.5755 96.1649 38.4666 96.1114C38.2894 96.0243 38.2797 96.1056 37.7338 95.7897C37.103 95.4246 36.6795 94.691 36.6418 93.9823C36.6399 93.9233 36.6204 93.8643 36.628 93.8053C36.6944 93.3236 36.6481 93.3893 36.8138 92.9004L36.9751 92.4953C36.999 92.4463 37.0469 92.4146 37.0639 92.3618C37.0915 92.2844 37.1068 92.1772 37.1918 92.1127C37.2183 92.0926 37.1598 92.099 37.2794 91.9879C37.4231 91.8544 37.2106 91.957 37.5642 91.6724C37.6538 91.6002 37.8128 91.5215 37.9397 91.409C38.0963 91.2703 38.362 91.2666 38.4293 91.1829C38.5758 91.0006 38.7237 91.0606 38.7891 90.9612C38.8393 90.8848 38.9102 90.9249 38.9253 90.8923C38.9524 90.8365 38.9984 90.8228 39.0463 90.796C38.9337 90.7335 38.9417 90.6863 38.9026 90.6582C38.7271 90.5321 38.8184 90.4849 38.5497 90.4215C38.2699 90.3557 37.8255 90.3424 37.5472 90.4153L36.9542 90.5725C36.2155 90.885 35.543 91.6087 35.2725 92.3531L35.1502 92.6196C35.0316 92.9457 34.9314 93.5195 34.9322 93.8556C34.9343 94.7117 35.1355 95.3278 35.626 96.0773C35.8281 96.3862 36.2092 96.758 36.4993 96.976L35.7967 97.3604C34.7023 98.0434 33.9417 98.9806 33.5869 100.212C33.433 100.746 33.3555 101.292 33.3626 101.844C33.3632 101.893 33.3778 102.475 33.4533 102.425C33.483 102.386 33.4653 102.32 33.51 102.29C33.6129 102.369 33.5721 102.403 33.6234 102.31C33.6285 102.379 33.6498 102.564 33.6883 102.615C33.7982 102.478 33.8825 102.119 33.9069 101.941C33.9502 101.626 33.8972 101.798 34.0096 101.434C34.0525 101.295 34.102 101.381 34.13 101.238C34.2156 100.801 34.2623 100.712 34.4853 100.36C34.7237 99.9832 35.0413 99.5417 35.375 99.2354C35.4543 99.1625 35.5253 99.202 35.678 99.0199C35.8111 98.8612 36.4571 98.4446 36.6036 98.3652C37.5236 97.8673 38.5485 97.6965 39.5859 97.8056C40.7294 97.9258 41.8689 98.5876 42.601 99.4378C43.1302 100.052 43.56 100.863 43.7566 101.648C43.8105 101.863 43.881 102.424 43.8619 102.615C43.8359 102.872 43.8886 103.698 43.8354 103.874C43.7589 104.128 43.5289 104.303 43.2582 104.308L40.0214 104.317C39.8915 104.317 39.7611 104.328 39.632 104.323C39.3774 104.314 39.1235 104.309 38.8689 104.316C38.3793 104.329 37.8898 104.302 37.3995 104.338L36.6396 104.379C36.5255 104.384 36.4108 104.371 36.2974 104.387C36.1071 104.415 35.92 104.467 35.7221 104.451C35.7121 104.45 35.7014 104.452 35.6924 104.455C35.5447 104.504 35.3562 104.448 35.1625 104.511C35.0576 104.545 34.6635 104.557 34.504 104.497C34.1276 104.356 33.9756 104.243 33.8929 103.845C33.8775 103.771 33.7678 103.706 33.7423 103.261C33.7289 103.027 33.6443 103.096 33.6414 102.908C33.6393 102.77 33.6234 102.909 33.5356 102.616C33.4662 102.801 33.42 102.782 33.3875 102.847C33.2736 103.074 33.2481 102.998 33.2205 103.072C33.1143 103.359 33.0588 103.508 33.0164 103.81C32.9092 104.574 33.3395 105.172 33.9678 105.589C34.3009 105.811 34.6904 105.833 35.0743 105.864C35.824 105.924 36.9681 105.942 37.7012 105.943C37.7258 105.943 37.7523 105.942 37.7762 105.945L40.2299 106L43.1813 105.986C43.9243 105.977 44.5518 105.739 45.0363 105.15C45.3841 104.727 45.5417 104.205 45.5209 103.663C45.4842 102.703 45.556 102.287 45.3439 101.318C45.187 100.601 45.0583 100.395 44.7699 99.764C44.6185 99.433 44.0248 98.6688 43.8008 98.4578L43.4618 98.1143C42.8589 97.5602 42.2683 97.1627 41.5065 96.8491C42.9578 95.6889 43.3103 93.7384 42.453 92.1381C42.2179 91.6993 41.8823 91.2992 41.4542 91.0325C41.0696 90.7929 40.4818 90.6081 40.0359 90.6008L39.3674 90.6251C39.423 90.5325 39.5128 90.1296 39.5193 89.986C39.5288 89.8083 39.5395 89.6326 39.5193 89.455L39.5376 89.017C39.5435 88.859 39.6022 88.9585 39.617 88.7941C39.6344 88.5999 39.6897 88.3507 39.8439 88.2084C40.3981 87.6967 40.8934 87.8096 41.6164 87.8326C41.7837 87.838 41.7549 87.9158 42.1356 87.8904L42.6341 87.8978L49.1047 87.9662L54.5129 88.0779L55.816 88.0729L55.8304 88.7213C55.8055 88.8739 55.8197 89.2322 55.8858 89.3865L55.8953 89.5014C55.9243 89.5455 55.9753 89.5896 55.959 89.6356C55.9584 89.6387 55.9602 89.6406 55.9634 89.6425C56.011 89.6746 55.9595 89.7248 56.0195 89.7667C56.0717 89.8032 56.0282 89.975 56.1083 90.1183C56.1682 90.225 56.1017 90.3227 56.1701 90.3618C56.2287 90.3941 56.2596 90.4282 56.2747 90.4643C56.0043 90.3439 55.4321 90.3423 55.1518 90.4152L54.5577 90.5724C53.8037 90.8918 53.165 91.6015 52.8765 92.353L52.7549 92.6195C52.6356 92.9412 52.5356 93.5235 52.5356 93.8555C52.5356 95.0974 53.099 96.2263 54.1046 96.9759C53.4304 97.3309 53.1228 97.4812 52.4973 98.0597C50.6349 99.7819 50.9393 102.502 51.0574 102.425C51.0876 102.386 51.0694 102.32 51.1141 102.29C51.2264 102.379 51.1718 102.396 51.2276 102.31C51.2345 102.38 51.2535 102.565 51.2931 102.615C51.3595 102.528 51.4648 102.239 51.4784 102.134L51.5426 101.68C51.6403 101.226 51.7002 101.405 51.7335 101.238C51.8227 100.79 51.8671 100.716 52.0901 100.36C52.3258 99.9828 52.6465 99.5422 52.9786 99.2354C53.0563 99.1636 53.1269 99.2042 53.2824 99.0199C53.418 98.859 54.0586 98.4462 54.208 98.3652C55.1267 97.8673 56.1546 97.6964 57.1909 97.8056C58.035 97.8946 58.9183 98.3074 59.5708 98.8205C60.4159 99.485 61.1017 100.606 61.3609 101.648C61.4137 101.86 61.4865 102.43 61.4674 102.615L61.4599 103.735C61.4473 104.063 61.179 104.303 60.8626 104.308L57.625 104.317C57.4959 104.317 57.3655 104.328 57.2356 104.324C56.9811 104.314 56.7271 104.309 56.4726 104.316C55.983 104.329 55.4934 104.302 55.005 104.338L54.2438 104.379C54.1304 104.384 54.0157 104.371 53.9023 104.388C53.7114 104.416 53.5242 104.467 53.3257 104.452C53.3163 104.45 53.3061 104.452 53.2961 104.455C53.1355 104.505 52.9641 104.448 52.7667 104.511C52.6623 104.545 52.2675 104.558 52.1089 104.498C51.7403 104.358 51.5746 104.242 51.4971 103.845C51.4831 103.773 51.3737 103.709 51.3465 103.262C51.3316 103.017 51.2518 103.109 51.2463 102.908C51.2425 102.77 51.2269 102.907 51.1398 102.616C51.0705 102.801 51.0228 102.786 50.991 102.847C50.8673 103.082 50.8561 102.996 50.824 103.072C50.4078 104.061 50.5628 104.922 51.5713 105.59C51.9063 105.811 52.2939 105.833 52.6791 105.864C53.4303 105.924 54.5703 105.942 55.3053 105.943C55.3311 105.943 55.3557 105.942 55.3809 105.945L57.8345 106L60.7854 105.986C62.1692 105.974 63.1614 105.014 63.1249 103.663C63.1002 102.748 63.1481 102.223 62.9479 101.318C62.7811 100.564 62.6703 100.42 62.3732 99.7642C62.2244 99.4358 61.6261 98.6646 61.4053 98.458L61.067 98.1145C60.4706 97.5626 59.8644 97.1612 59.1111 96.8493C59.9414 96.1841 60.4941 95.1752 60.5112 94.1128C60.5159 93.8201 60.5222 93.552 60.4545 93.26C60.4202 93.1121 60.4306 93.0152 60.348 92.8531C60.3123 92.7829 60.3751 92.7863 60.2704 92.5972L60.0569 92.1382C59.8221 91.6952 59.4841 91.3019 59.0576 91.0326C58.6781 90.7931 58.0803 90.6079 57.6391 90.6009C57.4099 90.5973 57.0025 90.5848 56.7948 90.6793C56.7067 90.7193 56.8347 90.7345 56.8495 90.7706C56.7897 90.8931 56.7798 90.8206 56.8344 90.8837C56.7848 90.8947 56.6821 90.9073 56.6492 90.947C56.7448 91.0676 57.0077 91.1753 57.1557 91.1544C57.1719 91.1522 57.368 91.2016 57.3819 91.2563C57.4065 91.3525 57.6737 91.3024 57.8048 91.4202C57.8692 91.4782 58.5498 91.9808 58.547 92.1096C58.5447 92.2197 58.6125 92.2237 58.6743 92.3151C59.017 92.8222 59.1402 93.2295 59.1431 93.8238C59.1448 94.1619 59.0108 94.7088 58.8009 94.9922C58.3626 95.584 58.0648 95.8071 57.3668 96.0443C57.1465 96.1191 56.7172 96.1925 56.4714 96.1704C56.3269 96.1574 56.1818 96.1668 56.0701 96.1114C55.9031 96.0285 55.8813 96.1038 55.3366 95.7897C54.7125 95.4296 54.2782 94.6844 54.2453 93.9823C54.244 93.9233 54.2232 93.8643 54.2314 93.8053C54.2983 93.3281 54.2494 93.3907 54.4174 92.9004L54.5793 92.4953C54.6026 92.4463 54.6499 92.4146 54.6669 92.3618C54.697 92.2774 54.7065 92.1848 54.7955 92.1127C54.8199 92.093 54.7667 92.0949 54.883 91.9879C55.0264 91.856 54.8145 91.9553 55.1678 91.6724C55.2569 91.6011 55.4081 91.5274 55.5428 91.409C55.7009 91.2699 55.9663 91.2667 56.0323 91.1829C56.1719 91.006 56.3316 91.0575 56.394 90.9612C56.4439 90.8842 56.5128 90.9252 56.5288 90.8923C56.556 90.8365 56.6025 90.8228 56.6492 90.796C56.5379 90.7341 56.5468 90.687 56.5061 90.6582C56.4809 90.6395 56.4563 90.6215 56.4331 90.5992C56.4614 90.6109 56.4722 90.6246 56.4905 90.6395C56.5956 90.5682 56.7882 90.569 56.9102 90.4638C57.1424 90.2632 57.2193 90.0505 57.2895 89.9898C57.4376 89.8619 57.4718 89.362 57.4734 89.1725L57.498 89.0116L57.5384 88.4123L57.5213 88.0508C57.8225 88.0458 58.125 88.021 58.4287 88.0446C58.6486 88.0614 58.8735 88.0477 59.0966 88.0489L66.6673 88.0185C66.8286 88.0185 66.9905 88.0067 67.1506 88.0116C67.4675 88.0203 67.7826 88.0259 68.0983 88.019C68.7063 88.0054 69.3144 88.0327 69.9212 87.9967L70.8657 87.9557C71.0068 87.9514 71.1493 87.9644 71.2898 87.9476C71.5267 87.9191 71.7586 87.8681 72.005 87.8836C72.017 87.8848 72.0303 87.8829 72.041 87.8798C72.1903 87.8392 72.366 87.8771 72.6149 87.8357C72.819 87.8019 73.1452 87.9802 73.2722 88.0966C73.7993 88.58 73.7319 88.7824 73.7454 89.3848C73.7489 89.5418 73.8653 89.72 73.8872 90.1897C73.8986 90.4336 73.9487 90.397 73.9755 90.5164C73.9153 90.4349 73.5581 90.3805 73.4424 90.3754C72.6988 90.343 72.8363 90.4353 72.3006 90.5313C71.9879 90.5873 71.534 90.9207 71.3138 91.1387C70.9342 91.5148 70.7209 91.7883 70.5091 92.2754C70.3382 92.6687 70.2845 92.7919 70.2112 93.2275C70.198 93.3071 70.1702 93.3846 70.1639 93.4654C70.0897 94.4794 70.2417 95.1829 70.8331 96.077C71.0383 96.3871 71.4145 96.7566 71.7077 96.9757L71.0051 97.3602C69.9069 98.0443 69.154 98.9794 68.7941 100.212C68.6387 100.744 68.5656 101.293 68.5704 101.844C68.5708 101.896 68.5857 102.475 68.6618 102.425C68.6914 102.386 68.6725 102.32 68.7172 102.29C68.8369 102.382 68.7665 102.399 68.8318 102.31C68.8369 102.378 68.8574 102.565 68.8967 102.615C69.0031 102.482 69.0933 102.114 69.1154 101.941C69.1554 101.627 69.1106 101.782 69.218 101.434C69.2609 101.295 69.3088 101.38 69.3384 101.238C69.4336 100.78 69.4585 100.733 69.6937 100.359C69.9405 99.9676 70.2394 99.5533 70.5828 99.2352C70.6606 99.1632 70.7345 99.2001 70.8866 99.0197C71.0224 98.8585 71.6616 98.4466 71.8122 98.365C72.7315 97.8668 73.7575 97.6965 74.7944 97.8054C75.9382 97.9254 77.0766 98.5879 77.8095 99.4376C78.326 100.036 78.7795 100.88 78.9651 101.647C79.0185 101.868 79.0904 102.42 79.0704 102.614C79.0435 102.878 79.0977 103.689 79.0439 103.874C78.971 104.125 78.7367 104.303 78.4667 104.308L75.2291 104.316C75.0987 104.316 74.9696 104.328 74.8403 104.323C74.5852 104.313 74.3306 104.309 74.076 104.316C73.587 104.329 73.0974 104.301 72.6078 104.338L71.8479 104.379C71.7333 104.383 71.6186 104.37 71.5051 104.387C71.3142 104.415 71.1282 104.467 70.9292 104.451C70.9204 104.45 70.9096 104.452 70.9002 104.455C70.7454 104.504 70.5666 104.447 70.3709 104.511C70.2682 104.544 69.8696 104.558 69.7123 104.497C69.3434 104.356 69.1779 104.243 69.0999 103.844C69.0863 103.775 68.9742 103.698 68.9506 103.261C68.9379 103.024 68.8574 103.11 68.8497 102.908C68.8441 102.76 68.8322 102.915 68.7427 102.615C68.6755 102.801 68.6296 102.782 68.5946 102.846C68.4613 103.09 68.457 102.999 68.4282 103.072C68.0364 104.069 68.1192 104.891 69.1749 105.589C69.5099 105.811 69.8967 105.833 70.282 105.864C71.0322 105.924 72.1764 105.942 72.9095 105.943C72.9341 105.943 72.9594 105.942 72.9839 105.945L75.4382 106L78.3896 105.986C79.134 105.977 79.7579 105.739 80.2446 105.15C80.6719 104.633 80.7427 104.121 80.7242 103.505C80.6969 102.597 80.7519 102.236 80.5508 101.318C80.3871 100.57 80.2715 100.415 79.9767 99.764C79.8265 99.4322 79.2326 98.6695 79.0083 98.4578L78.6699 98.1143C78.0669 97.557 77.4756 97.1658 76.7146 96.8491C78.1734 95.6828 78.5137 93.7403 77.6599 92.1381C77.4249 91.6971 77.09 91.3005 76.6618 91.0325C76.2787 90.7928 75.6884 90.6081 75.244 90.6008C75.0177 90.5972 74.602 90.5851 74.3977 90.6792C74.3107 90.7193 74.4388 90.7344 74.4539 90.7705C74.3975 90.8778 74.3885 90.84 74.4388 90.8836C74.3892 90.8943 74.2853 90.9069 74.2535 90.9469C74.3354 91.0632 74.618 91.1743 74.7601 91.1543C74.7762 91.1521 74.9722 91.2013 74.985 91.2561C75.0072 91.3509 75.2767 91.3022 75.4079 91.4201C75.4686 91.4747 76.1559 91.9822 76.1508 92.1095C76.1465 92.2162 76.22 92.2277 76.2787 92.315C76.6233 92.8286 76.7401 93.2252 76.7469 93.8237C76.7507 94.1615 76.6126 94.7081 76.4041 94.992C75.9687 95.5849 75.6646 95.8059 74.9706 96.0442C74.8263 96.0937 74.3743 96.1798 74.1975 96.1771C74.0728 96.1752 73.7827 96.165 73.6744 96.1113C73.512 96.0307 73.4666 96.0986 72.9404 95.7895C72.3087 95.4186 71.8862 94.6949 71.8497 93.9821C71.8478 93.9232 71.8271 93.8642 71.8346 93.8052C71.9072 93.2985 71.8495 93.4195 72.0211 92.9002L72.1831 92.4952C72.2057 92.4462 72.2549 92.4145 72.2713 92.3617C72.3057 92.2615 72.3069 92.1951 72.3999 92.1126C72.4265 92.0891 72.3684 92.0969 72.4869 91.9878C72.6277 91.8584 72.4236 91.9507 72.771 91.6723C72.8595 91.6014 73.0148 91.5261 73.1472 91.4089C73.3044 91.2698 73.5685 91.2671 73.6362 91.1828C73.781 91.0023 73.9307 91.0605 73.9972 90.9611C74.0193 90.9275 74.0451 90.9158 74.076 90.912C74.0816 90.9374 74.0879 90.9635 74.0936 90.9909C74.1055 90.9518 74.1137 90.9244 74.1213 90.9021C74.1269 90.9002 74.1308 90.8971 74.1327 90.8922C74.1604 90.8363 74.2064 90.8227 74.2537 90.7959C74.2291 90.7822 74.214 90.7748 74.2014 90.7648C74.2893 90.6455 74.2829 90.5456 74.3873 90.4673L74.5139 90.0742C74.5662 89.839 74.7455 88.9385 74.7263 88.6518C74.6918 88.1377 74.5089 87.7149 74.1932 87.2891C73.7956 86.753 73.1033 86.4828 72.439 86.4512L69.5475 86.3916C69.5159 86.3916 69.4845 86.3928 69.4548 86.3897C69.1319 86.3569 68.4285 86.366 68.0616 86.3624C67.9318 86.3605 67.8014 86.3494 67.6722 86.3475L62.7442 86.3487L57.3977 86.4468L57.341 86.0139C57.3089 85.631 57.3301 85.0698 57.2622 84.6574C57.2522 84.6127 57.2736 84.5661 57.2421 84.5214C57.2247 84.495 57.2769 84.5089 57.2433 84.4339C57.2031 84.344 57.2748 84.0768 57.0984 83.7023L59.5035 83.7247C60.7893 83.7059 61.7358 82.6844 61.7442 81.498L61.7934 72.7238L61.7921 72.2356L64.041 72.6884C64.6537 72.8082 65.3513 72.7615 65.937 72.5741C65.7766 73.4144 65.7547 73.9649 65.6591 74.789C65.5657 75.5956 65.5618 76.4872 65.4612 77.2343C65.418 77.5552 65.323 79.315 65.3434 79.7373C65.4034 80.9831 66.4377 82.0147 67.7561 82.0857C68.4469 82.1118 69.2495 82.0968 69.9482 82.0975C69.9998 82.0975 70.0528 82.0963 70.1032 82.0994C70.79 82.1409 71.7022 82.1179 72.4188 82.1274L78.1219 82.1547C78.4028 82.153 79.3994 82.1599 79.6853 82.1298C80.9522 81.9967 81.9461 80.9538 81.9971 79.6709C82.0022 79.5572 81.999 79.5081 81.999 79.4392Z" fill="#2C2C2C"/>
</g>
<defs>
<filter id="filter0_i_3110_547" x="0" y="0" width="164.092" height="167.938" filterUnits="userSpaceOnUse" color-interpolation-filters="sRGB">
<feFlood flood-opacity="0" result="BackgroundImageFix"/>
<feBlend mode="normal" in="SourceGraphic" in2="BackgroundImageFix" result="shape"/>
<feColorMatrix in="SourceAlpha" type="matrix" values="0 0 0 0 0 0 0 0 0 0 0 0 0 0 0 0 0 0 127 0" result="hardAlpha"/>
<feOffset dy="4"/>
<feGaussianBlur stdDeviation="4.6"/>
<feComposite in2="hardAlpha" operator="arithmetic" k2="-1" k3="1"/>
<feColorMatrix type="matrix" values="0 0 0 0 0 0 0 0 0 0 0 0 0 0 0 0 0 0 0.25 0"/>
<feBlend mode="normal" in2="shape" result="effect1_innerShadow_3110_547"/>
</filter>
</defs>
</svg>
