<svg width="165" height="164" viewBox="0 0 165 164" fill="none" xmlns="http://www.w3.org/2000/svg">
<g filter="url(#filter0_i_3248_45)">
<path d="M159.845 71.7703L140.548 52.4733C132.612 44.5374 137.462 36.1607 146.11 35.652C160.353 34.7702 168.357 19.5768 156.725 6.92691C144.075 -4.67164 128.949 3.29813 128.067 17.5081C127.525 26.1561 119.08 31.0397 111.178 23.1378L92.2882 4.24772C86.6246 -1.41591 77.4339 -1.41591 71.7703 4.24772L52.6428 23.3752C44.707 31.311 36.2963 26.3935 35.7537 17.7454C34.872 3.50161 19.6107 -4.60381 6.96083 7.02866C-4.70555 19.7125 3.39987 34.9737 17.6437 35.8555C26.2917 36.3981 31.2093 44.8427 23.3073 52.7785L4.24772 71.8042C-1.41591 77.4678 -1.41591 86.6585 4.24772 92.3221L23.1378 111.212C31.0736 119.114 26.3596 127.355 17.7115 127.898C3.4677 128.78 -4.50207 143.939 7.1304 156.589C19.7803 168.221 34.872 160.286 35.7537 146.042C36.2963 137.394 44.5713 132.646 52.5072 140.548L71.5668 159.607C77.3322 165.373 86.7602 165.373 92.5256 159.641L105.888 146.279L111.619 140.548C119.114 132.714 114.264 124.472 105.718 123.93C91.4743 123.048 83.4027 107.787 95.0352 95.137C107.685 83.5045 122.946 91.6099 123.828 105.854C124.371 114.4 132.578 119.216 140.412 111.721L145.601 106.532L159.573 92.5595C159.607 92.5256 159.607 92.5256 159.641 92.4917L159.845 92.2882C165.508 86.6246 165.508 77.4339 159.845 71.7703Z" fill="#C3E5BE"/>
</g>
<path d="M63.2487 87.495C67.4101 88.9856 71.1367 91.7495 73.7454 95.383C76.2609 98.8923 77.6894 103.209 77.7205 107.65C74.8944 107.65 72.0684 107.588 69.2423 107.588C69.9566 105.756 69.9256 103.799 68.9939 101.998C68.0933 103.799 68.0312 105.756 68.7455 107.557C64.6772 107.526 60.609 107.495 56.4786 107.432C54.6774 107.432 52.8762 107.432 51.0439 107.432C48.839 107.432 46.6341 107.432 44.4291 107.432C45.1123 105.631 45.0502 103.737 44.1496 101.967C43.249 103.737 43.1869 105.631 43.8701 107.432C42.5969 107.432 41.2925 107.432 40.0193 107.432H37.2553L35.8889 107.464H35.5162C35.5473 105.818 35.7336 104.172 36.1373 102.557C37.8454 95.6315 43.218 89.8241 49.8949 87.4328C50.0812 87.8987 50.2675 88.3645 50.4539 88.8303L50.5781 89.1719C50.2365 89.4204 49.957 89.7309 49.8017 90.1347C49.429 90.9732 49.6464 91.9669 50.2675 92.588C50.547 92.9607 51.0129 93.116 51.4476 93.2091C51.2303 93.675 51.106 94.1719 51.2924 94.6998C51.4787 95.352 51.9756 95.911 52.5967 96.1594C52.752 96.2215 52.9072 96.2215 53.0625 96.2215C53.0004 96.3457 52.9072 96.501 52.8762 96.6563C52.6277 97.619 53.1246 98.6749 53.9631 99.0786C54.3358 99.296 54.8948 99.327 55.2053 99.2649L56.1991 99.1407C56.8513 99.0475 57.5034 98.9233 58.1556 98.7991C57.5034 98.6749 56.8513 98.5507 56.1991 98.4575C55.5469 98.3333 54.8016 98.3643 54.5532 98.0848C53.8078 97.4948 54.3358 96.4078 55.0501 96.47L57.0687 96.4078L58.0624 96.3457C58.3109 96.3457 58.4661 96.3457 58.6835 96.4389C59.0562 96.6252 59.3667 97.0911 59.2736 97.619C59.2115 98.1469 58.7767 98.6749 58.1245 98.7991C58.7767 98.9544 59.5841 98.5817 59.9257 97.8364C60.2363 97.1842 60.081 96.3147 59.522 95.7246H59.6773C59.6152 95.7246 59.5531 95.7246 59.491 95.7246C59.4289 95.6625 59.3978 95.6004 59.3357 95.5383C58.9941 95.2588 58.4661 95.0725 58.0624 95.0725L57.0687 95.0104L55.0501 94.9482C54.7395 94.9482 54.46 95.0104 54.1805 95.1346C52.2551 95.383 52.3793 93.3334 53.4973 93.3644C55.3606 93.3644 57.255 93.3023 59.1183 93.1781C59.6462 93.1781 59.9568 93.0849 60.2363 93.1781C60.5469 93.3023 60.7953 93.5507 60.9195 93.9234C61.168 94.6066 60.64 95.5693 59.7084 95.6936C60.609 95.8799 61.6959 94.9793 61.5717 93.7992C61.5406 93.3334 61.2922 92.9296 60.9195 92.6191H61.2611C61.1369 92.6191 60.9816 92.6191 60.8574 92.588C60.7953 92.5259 60.7642 92.4638 60.6711 92.4017C60.1431 92.029 59.491 92.0912 59.0873 92.029C57.2239 91.9048 55.3606 91.8427 53.4662 91.8427C53.2799 91.8427 53.0936 91.9359 52.9072 91.9669C52.1619 91.9669 51.4787 91.9669 51.2924 91.6253C50.8265 91.1284 51.2613 90.2278 51.9135 90.2589H52.3172H52.4414L56.3233 90.2278L60.1742 90.1657H61.1369H61.6027C61.6338 90.1657 61.6648 90.1347 61.6959 90.1036C61.8512 90.1657 61.9754 90.2278 62.0996 90.352C62.8449 91.0042 62.3791 92.557 61.1369 92.6501C62.3481 92.8986 63.5592 91.1905 62.6276 89.9173C62.5344 89.762 62.4102 89.6067 62.2549 89.5136L62.317 89.2962C62.5033 88.7061 62.6897 88.1161 62.9071 87.526C63.7766 85.1658 65.143 83.1162 66.6958 81.0976C68.3107 79.079 69.0871 76.4703 68.9007 73.9859C68.8076 76.4703 67.8759 78.8616 66.1679 80.6628C64.4909 82.5261 62.8449 84.6379 61.8512 87.0602C61.6027 87.6502 61.3543 88.2403 61.1369 88.8614H61.0437H60.081L56.6028 88.7993C57.3482 85.6627 57.3792 82.3087 56.6649 79.1411C57.845 79.7622 59.0251 80.3522 60.2052 80.9733C61.3853 81.5944 60.5158 81.0976 60.6711 81.0354C61.0748 80.9733 61.3232 80.5696 61.2611 80.1969C60.9816 78.7684 60.7332 77.3709 60.4537 75.9734C61.4475 74.9175 62.4412 73.8927 63.4039 72.8989C64.3667 71.9052 63.5282 72.7126 63.5282 72.5884C63.5282 72.3399 63.3729 72.0915 63.0934 72.0604C61.5406 71.9052 60.081 71.7499 58.6214 71.6257C57.845 70.2592 57.1308 68.986 56.4165 67.7438C57.0997 69.1723 57.5966 70.6008 58.2177 71.9983C58.2488 72.0604 58.3109 72.1226 58.404 72.1536C59.5531 72.371 60.7642 72.6194 61.9754 72.8368C61.0748 73.6443 60.2052 74.4517 59.2736 75.2902C59.1183 75.4144 59.0562 75.6318 59.0873 75.8181C59.2425 76.874 59.3978 77.8989 59.5531 78.9547C58.6214 78.4578 57.6898 77.961 56.7581 77.4641C56.5407 77.3399 56.2612 77.3399 56.0438 77.4641L53.2799 78.9547C53.4352 77.9299 53.5905 76.874 53.7457 75.8492C53.7457 75.6318 53.7147 75.4144 53.5594 75.2902C52.6588 74.4517 51.7582 73.6443 50.8576 72.8368C52.0377 72.6194 53.2178 72.371 54.3979 72.1536C55.578 71.9362 54.5532 72.0915 54.5842 71.9983C55.1432 70.663 55.6712 69.2034 56.3854 67.7438C55.7333 68.9549 54.9569 70.2282 54.1805 71.6257C52.6898 71.7809 51.2302 71.9052 49.7085 72.0604C49.6154 72.0604 49.4911 72.1226 49.429 72.1847C49.2427 72.371 49.2427 72.6816 49.429 72.8679C50.3918 73.9238 51.3855 74.9486 52.3793 75.9734C52.0998 77.3709 51.8514 78.7684 51.5719 80.1969C51.5719 80.3522 51.5719 80.5075 51.634 80.6628C51.8203 81.0354 52.2551 81.1597 52.6277 80.9733C53.0004 80.787 56.168 79.1411 56.168 79.1411C55.4538 82.3087 55.4848 85.6316 56.2302 88.7682H56.137L52.2551 88.7372H52.1309C52.1309 88.7372 51.9445 88.7372 51.8514 88.7372L51.7271 88.3335C51.5097 87.7123 51.2613 87.0912 51.0129 86.4701C50.6713 85.6627 50.2365 84.8863 49.8017 84.1099C49.4601 83.582 49.1185 83.054 48.7458 82.5261C47.4415 80.7559 45.9819 79.3274 45.3297 77.5262C44.6465 75.756 44.5533 73.6443 44.895 71.7499C45.5782 67.868 48.3421 64.4208 52.0066 62.9302C55.6401 61.3774 60.0189 61.7811 63.3108 63.9861C66.6337 66.1599 68.7765 69.9797 68.8697 73.9859C68.9939 70.0108 67.0374 65.9425 63.6524 63.5202C60.2984 61.0669 55.6401 60.4147 51.634 61.9985C47.6278 63.5202 44.4602 67.2158 43.6217 71.5325C43.218 73.7064 43.249 75.9113 44.0254 78.0852C44.8018 80.2591 46.4167 81.8429 47.5968 83.4578C47.9384 83.9236 48.2489 84.4205 48.5595 84.9174C48.9632 85.6316 49.3669 86.3459 49.6775 87.1223C49.988 87.8987 49.7706 87.3397 49.8017 87.4639C43.0006 89.3272 36.9758 95.0104 34.9262 102.277C34.3983 104.079 34.1188 105.973 34.0566 107.836V108.023V108.116V108.178C35.392 109.513 34.4293 108.55 34.7399 108.861C35.0504 109.172 35.0815 108.861 35.0815 108.861H35.7647H37.1311H39.895C43.5596 108.892 47.2552 108.923 50.9197 108.923H56.3544C63.7456 108.861 71.0125 108.799 78.1863 108.737L78.7453 108.178C78.6832 103.302 76.9751 98.6128 74.118 94.9793C71.2609 91.3458 67.348 88.7061 63.1244 87.4639L63.2487 87.495Z" fill="#2C2C2C"/>
<path d="M63.2487 87.495C67.4101 88.9856 71.1367 91.7495 73.7454 95.383C76.2609 98.8923 77.6894 103.209 77.7205 107.65C74.8944 107.65 72.0684 107.588 69.2423 107.588C69.9566 105.756 69.9256 103.799 68.9939 101.998C68.0933 103.799 68.0312 105.756 68.7455 107.557C64.6772 107.526 60.609 107.495 56.4786 107.432C54.6774 107.432 52.8762 107.432 51.0439 107.432C48.839 107.432 46.6341 107.432 44.4291 107.432C45.1123 105.631 45.0502 103.737 44.1496 101.967C43.249 103.737 43.1869 105.631 43.8701 107.432C42.5969 107.432 41.2925 107.432 40.0193 107.432H37.2553L35.8889 107.464H35.5162C35.5473 105.818 35.7336 104.172 36.1373 102.557C37.8454 95.6315 43.218 89.8241 49.8949 87.4328C50.0812 87.8987 50.2675 88.3645 50.4539 88.8303L50.5781 89.1719C50.2365 89.4204 49.957 89.7309 49.8017 90.1347C49.429 90.9732 49.6464 91.9669 50.2675 92.588C50.547 92.9607 51.0129 93.116 51.4476 93.2091C51.2303 93.675 51.106 94.1719 51.2924 94.6998C51.4787 95.352 51.9756 95.911 52.5967 96.1594C52.752 96.2215 52.9072 96.2215 53.0625 96.2215C53.0004 96.3457 52.9072 96.501 52.8762 96.6563C52.6277 97.619 53.1246 98.6749 53.9631 99.0786C54.3358 99.296 54.8948 99.327 55.2053 99.2649L56.1991 99.1407C56.8513 99.0475 57.5034 98.9233 58.1556 98.7991C57.5034 98.6749 56.8513 98.5507 56.1991 98.4575C55.5469 98.3333 54.8016 98.3643 54.5532 98.0848C53.8078 97.4948 54.3358 96.4078 55.0501 96.47L57.0687 96.4078L58.0624 96.3457C58.3109 96.3457 58.4661 96.3457 58.6835 96.4389C59.0562 96.6252 59.3667 97.0911 59.2736 97.619C59.2115 98.1469 58.7767 98.6749 58.1245 98.7991C58.7767 98.9544 59.5841 98.5817 59.9257 97.8364C60.2363 97.1842 60.081 96.3147 59.522 95.7246H59.6773C59.6152 95.7246 59.5531 95.7246 59.491 95.7246C59.4289 95.6625 59.3978 95.6004 59.3357 95.5383C58.9941 95.2588 58.4661 95.0725 58.0624 95.0725L57.0687 95.0104L55.0501 94.9482C54.7395 94.9482 54.46 95.0104 54.1805 95.1346C52.2551 95.383 52.3793 93.3334 53.4973 93.3644C55.3606 93.3644 57.255 93.3023 59.1183 93.1781C59.6462 93.1781 59.9568 93.0849 60.2363 93.1781C60.5469 93.3023 60.7953 93.5507 60.9195 93.9234C61.168 94.6066 60.64 95.5693 59.7084 95.6936C60.609 95.8799 61.6959 94.9793 61.5717 93.7992C61.5406 93.3334 61.2922 92.9296 60.9195 92.6191H61.2611C61.1369 92.6191 60.9816 92.6191 60.8574 92.588C60.7953 92.5259 60.7642 92.4638 60.6711 92.4017C60.1431 92.029 59.491 92.0912 59.0873 92.029C57.2239 91.9048 55.3606 91.8427 53.4662 91.8427C53.2799 91.8427 53.0936 91.9359 52.9072 91.9669C52.1619 91.9669 51.4787 91.9669 51.2924 91.6253C50.8265 91.1284 51.2613 90.2278 51.9135 90.2589H52.3172H52.4414L56.3233 90.2278L60.1742 90.1657H61.1369H61.6027C61.6338 90.1657 61.6648 90.1347 61.6959 90.1036C61.8512 90.1657 61.9754 90.2278 62.0996 90.352C62.8449 91.0042 62.3791 92.557 61.1369 92.6501C62.3481 92.8986 63.5592 91.1905 62.6276 89.9173C62.5344 89.762 62.4102 89.6067 62.2549 89.5136L62.317 89.2962C62.5033 88.7061 62.6897 88.1161 62.9071 87.526C63.7766 85.1658 65.143 83.1162 66.6958 81.0976C68.3107 79.079 69.0871 76.4703 68.9007 73.9859C68.8076 76.4703 67.8759 78.8616 66.1679 80.6628C64.4909 82.5261 62.8449 84.6379 61.8512 87.0602C61.6027 87.6502 61.3543 88.2403 61.1369 88.8614H61.0437H60.081L56.6028 88.7993C57.3482 85.6627 57.3792 82.3087 56.6649 79.1411C57.845 79.7622 59.0251 80.3522 60.2052 80.9733C61.3853 81.5944 60.5158 81.0976 60.6711 81.0354C61.0748 80.9733 61.3232 80.5696 61.2611 80.1969C60.9816 78.7684 60.7332 77.3709 60.4537 75.9734C61.4475 74.9175 62.4412 73.8927 63.4039 72.8989C64.3667 71.9052 63.5282 72.7126 63.5282 72.5884C63.5282 72.3399 63.3729 72.0915 63.0934 72.0604C61.5406 71.9052 60.081 71.7499 58.6214 71.6257C57.845 70.2592 57.1308 68.986 56.4165 67.7438C57.0997 69.1723 57.5966 70.6008 58.2177 71.9983C58.2488 72.0604 58.3109 72.1226 58.404 72.1536C59.5531 72.371 60.7642 72.6194 61.9754 72.8368C61.0748 73.6443 60.2052 74.4517 59.2736 75.2902C59.1183 75.4144 59.0562 75.6318 59.0873 75.8181C59.2425 76.874 59.3978 77.8989 59.5531 78.9547C58.6214 78.4578 57.6898 77.961 56.7581 77.4641C56.5407 77.3399 56.2612 77.3399 56.0438 77.4641L53.2799 78.9547C53.4352 77.9299 53.5905 76.874 53.7457 75.8492C53.7457 75.6318 53.7147 75.4144 53.5594 75.2902C52.6588 74.4517 51.7582 73.6443 50.8576 72.8368C52.0377 72.6194 53.2178 72.371 54.3979 72.1536C55.578 71.9362 54.5532 72.0915 54.5842 71.9983C55.1432 70.663 55.6712 69.2034 56.3854 67.7438C55.7333 68.9549 54.9569 70.2282 54.1805 71.6257C52.6898 71.7809 51.2302 71.9052 49.7085 72.0604C49.6154 72.0604 49.4911 72.1226 49.429 72.1847C49.2427 72.371 49.2427 72.6816 49.429 72.8679C50.3918 73.9238 51.3855 74.9486 52.3793 75.9734C52.0998 77.3709 51.8514 78.7684 51.5719 80.1969C51.5719 80.3522 51.5719 80.5075 51.634 80.6628C51.8203 81.0354 52.2551 81.1597 52.6277 80.9733C53.0004 80.787 56.168 79.1411 56.168 79.1411C55.4538 82.3087 55.4848 85.6316 56.2302 88.7682H56.137L52.2551 88.7372H52.1309C52.1309 88.7372 51.9445 88.7372 51.8514 88.7372L51.7271 88.3335C51.5097 87.7123 51.2613 87.0912 51.0129 86.4701C50.6713 85.6627 50.2365 84.8863 49.8017 84.1099C49.4601 83.582 49.1185 83.054 48.7458 82.5261C47.4415 80.7559 45.9819 79.3274 45.3297 77.5262C44.6465 75.756 44.5533 73.6443 44.895 71.7499C45.5782 67.868 48.3421 64.4208 52.0066 62.9302C55.6401 61.3774 60.0189 61.7811 63.3108 63.9861C66.6337 66.1599 68.7765 69.9797 68.8697 73.9859C68.9939 70.0108 67.0374 65.9425 63.6524 63.5202C60.2984 61.0669 55.6401 60.4147 51.634 61.9985C47.6278 63.5202 44.4602 67.2158 43.6217 71.5325C43.218 73.7064 43.249 75.9113 44.0254 78.0852C44.8018 80.2591 46.4167 81.8429 47.5968 83.4578C47.9384 83.9236 48.2489 84.4205 48.5595 84.9174C48.9632 85.6316 49.3669 86.3459 49.6775 87.1223C49.988 87.8987 49.7706 87.3397 49.8017 87.4639C43.0006 89.3272 36.9758 95.0104 34.9262 102.277C34.3983 104.079 34.1188 105.973 34.0566 107.836V108.023V108.116V108.178C35.392 109.513 34.4293 108.55 34.7399 108.861C35.0504 109.172 35.0815 108.861 35.0815 108.861H35.7647H37.1311H39.895C43.5596 108.892 47.2552 108.923 50.9197 108.923H56.3544C63.7456 108.861 71.0125 108.799 78.1863 108.737L78.7453 108.178C78.6832 103.302 76.9751 98.6128 74.118 94.9793C71.2609 91.3458 67.348 88.7061 63.1244 87.4639L63.2487 87.495Z" fill="#2C2C2C"/>
<path d="M39.0873 85.6641C36.2302 86.1299 33.6526 87.6206 31.8203 89.8565C34.6774 89.3907 37.255 87.9 39.0873 85.6641Z" fill="#2C2C2C"/>
<path d="M39.0873 85.6641C36.2302 86.1299 33.6526 87.6206 31.8203 89.8565C34.6774 89.3907 37.255 87.9 39.0873 85.6641Z" fill="#2C2C2C"/>
<path d="M36.3849 75.5694C33.6831 74.5446 30.7018 74.5446 28 75.5694C30.7018 76.5942 33.6831 76.5942 36.3849 75.5694Z" fill="#2C2C2C"/>
<path d="M36.3849 75.5694C33.6831 74.5446 30.7018 74.5446 28 75.5694C30.7018 76.5942 33.6831 76.5942 36.3849 75.5694Z" fill="#2C2C2C"/>
<path d="M39.1183 65.4776C37.255 63.2416 34.6774 61.751 31.8203 61.2852C33.6526 63.5211 36.2612 65.0118 39.1183 65.4776Z" fill="#2C2C2C"/>
<path d="M39.1183 65.4776C37.255 63.2416 34.6774 61.751 31.8203 61.2852C33.6526 63.5211 36.2612 65.0118 39.1183 65.4776Z" fill="#2C2C2C"/>
<path d="M46.4776 58.1183C46.0118 55.2612 44.5211 52.6526 42.2852 50.8203C42.751 53.6774 44.2416 56.255 46.4776 58.1183Z" fill="#2C2C2C"/>
<path d="M46.4776 58.1183C46.0118 55.2612 44.5211 52.6526 42.2852 50.8203C42.751 53.6774 44.2416 56.255 46.4776 58.1183Z" fill="#2C2C2C"/>
<path d="M56.5714 47C55.5465 49.7018 55.5465 52.7142 56.5714 55.416C57.5962 52.7142 57.5962 49.7018 56.5714 47Z" fill="#2C2C2C"/>
<path d="M56.5714 47C55.5465 49.7018 55.5465 52.7142 56.5714 55.416C57.5962 52.7142 57.5962 49.7018 56.5714 47Z" fill="#2C2C2C"/>
<path d="M70.8565 50.8203C68.6206 52.6526 67.1299 55.2612 66.6641 58.1183C68.9 56.2861 70.3907 53.6774 70.8565 50.8203Z" fill="#2C2C2C"/>
<path d="M70.8565 50.8203C68.6206 52.6526 67.1299 55.2612 66.6641 58.1183C68.9 56.2861 70.3907 53.6774 70.8565 50.8203Z" fill="#2C2C2C"/>
<path d="M81.3234 61.2852C78.4663 61.751 75.8577 63.2416 74.0254 65.4776C76.8825 65.0118 79.4601 63.5211 81.3234 61.2852Z" fill="#2C2C2C"/>
<path d="M81.3234 61.2852C78.4663 61.751 75.8577 63.2416 74.0254 65.4776C76.8825 65.0118 79.4601 63.5211 81.3234 61.2852Z" fill="#2C2C2C"/>
<path d="M76.7578 75.5694C79.4596 76.5942 82.4409 76.5942 85.1428 75.5694C82.4409 74.5446 79.4596 74.5446 76.7578 75.5694Z" fill="#2C2C2C"/>
<path d="M76.7578 75.5694C79.4596 76.5942 82.4409 76.5942 85.1428 75.5694C82.4409 74.5446 79.4596 74.5446 76.7578 75.5694Z" fill="#2C2C2C"/>
<path d="M74.0547 85.6641C75.887 87.9 78.4645 89.3907 81.3216 89.8565C79.4894 87.6206 76.9118 86.1299 74.0547 85.6641Z" fill="#2C2C2C"/>
<path d="M74.0547 85.6641C75.887 87.9 78.4645 89.3907 81.3216 89.8565C79.4894 87.6206 76.9118 86.1299 74.0547 85.6641Z" fill="#2C2C2C"/>
<defs>
<filter id="filter0_i_3248_45" x="0" y="0" width="164.092" height="167.938" filterUnits="userSpaceOnUse" color-interpolation-filters="sRGB">
<feFlood flood-opacity="0" result="BackgroundImageFix"/>
<feBlend mode="normal" in="SourceGraphic" in2="BackgroundImageFix" result="shape"/>
<feColorMatrix in="SourceAlpha" type="matrix" values="0 0 0 0 0 0 0 0 0 0 0 0 0 0 0 0 0 0 127 0" result="hardAlpha"/>
<feOffset dy="4"/>
<feGaussianBlur stdDeviation="4.6"/>
<feComposite in2="hardAlpha" operator="arithmetic" k2="-1" k3="1"/>
<feColorMatrix type="matrix" values="0 0 0 0 0 0 0 0 0 0 0 0 0 0 0 0 0 0 0.25 0"/>
<feBlend mode="normal" in2="shape" result="effect1_innerShadow_3248_45"/>
</filter>
</defs>
</svg>
