<svg width="17" height="13" viewBox="0 0 17 13" fill="none" xmlns="http://www.w3.org/2000/svg">
<path fill-rule="evenodd" clip-rule="evenodd" d="M1.28668 0.723859L6.10146 5.61342C7.15158 6.67734 8.86815 6.67826 9.91914 5.61342L14.7339 0.723859C14.7824 0.674638 14.7753 0.593581 14.7191 0.55376C14.228 0.206105 13.6305 0 12.9869 0H3.03374C2.39009 0 1.79259 0.206141 1.30151 0.55376C1.24526 0.593581 1.23819 0.674638 1.28668 0.723859ZM0 3.07949C0 2.56573 0.125486 2.08031 0.346523 1.65365C0.381089 1.5869 0.468703 1.5734 0.52123 1.62672L5.27506 6.45229C6.78044 7.98262 9.23928 7.9835 10.7456 6.45229L15.4994 1.62672C15.5519 1.5734 15.6395 1.5869 15.6741 1.65365C15.8951 2.08031 16.0206 2.56577 16.0206 3.07949V9.50811C16.0206 11.2074 14.6589 12.5876 12.9869 12.5876H3.03374C1.3618 12.5876 0 11.2074 0 9.50811V3.07949Z" fill="black"/>
</svg>
