<svg width="545" height="442" viewBox="0 0 545 442" fill="none" xmlns="http://www.w3.org/2000/svg">
<g opacity="0.09">
<path d="M493.948 65.8498C503.871 71.6204 513.207 78.3877 521.696 85.9637C529.97 93.3474 537.541 101.588 544.198 110.457C550.734 119.164 556.456 128.564 561.205 138.397C565.909 148.135 569.699 158.382 572.471 168.853C575.243 179.324 577.019 190.104 577.75 200.896C578.488 211.791 578.166 222.793 576.795 233.596C575.398 244.598 572.897 255.508 569.361 266.022C565.732 276.809 560.968 287.313 555.201 297.242L553.999 296.543C600.486 216.514 573.234 113.565 493.249 67.0524C413.264 20.5396 310.371 47.8063 263.883 127.835L262.682 127.136C268.449 117.208 275.213 107.866 282.785 99.3723C290.164 91.0936 298.4 83.5188 307.264 76.8581C315.967 70.3186 325.362 64.5934 335.189 59.8419C344.922 55.1358 355.164 51.3433 365.629 48.5701C376.094 45.7968 386.869 44.0199 397.654 43.2885C408.543 42.5502 419.539 42.8716 430.336 44.2436C441.333 45.6411 452.237 48.1438 462.745 51.6823C473.526 55.3126 484.025 60.0793 493.948 65.8498Z" fill="#972056"/>
<path d="M490.059 72.5462C508.901 83.5028 525.034 97.8243 538.011 115.112C544.248 123.422 549.708 132.392 554.24 141.774C558.729 151.067 562.345 160.845 564.99 170.837C567.635 180.829 569.33 191.116 570.027 201.414C570.732 211.811 570.425 222.309 569.117 232.618C566.394 254.067 559.461 274.501 548.51 293.352L547.308 292.654C591.652 216.316 565.656 118.116 489.361 73.7486C413.065 29.381 314.918 55.3902 270.575 131.727L269.373 131.029C280.324 112.177 294.637 96.035 311.916 83.0509C320.221 76.8104 329.186 71.3471 338.563 66.8132C347.851 62.3224 357.624 58.7033 367.611 56.0569C377.597 53.4105 387.879 51.7148 398.171 51.017C408.562 50.3124 419.055 50.619 429.358 51.9284C450.795 54.6528 471.218 61.5897 490.059 72.5462Z" fill="#972056"/>
<path d="M486.171 79.2383C504.109 89.6696 519.469 103.305 531.824 119.764C537.762 127.675 542.961 136.215 547.275 145.148C551.548 153.995 554.992 163.305 557.51 172.817C560.028 182.33 561.642 192.124 562.306 201.928C562.976 211.827 562.684 221.822 561.438 231.636C558.846 252.057 552.245 271.511 541.82 289.459L540.618 288.76C582.817 216.114 558.079 122.663 485.473 80.4409C412.866 38.219 319.465 62.9705 277.266 135.616L276.064 134.917C286.49 116.97 300.118 101.601 316.568 89.2397C324.474 83.2984 333.01 78.097 341.938 73.7802C350.781 69.5048 360.085 66.0592 369.592 63.5398C379.1 61.0205 388.889 59.4059 398.688 58.7415C408.581 58.0707 418.57 58.3628 428.38 59.6092C448.789 62.2028 468.233 68.8071 486.171 79.2383Z" fill="#972056"/>
<path d="M482.281 85.9347C499.316 95.8407 513.902 108.789 525.635 124.42C531.274 131.932 536.21 140.042 540.308 148.525C544.366 156.927 547.636 165.768 550.027 174.802C552.419 183.835 553.951 193.136 554.581 202.447C555.218 211.846 554.941 221.338 553.758 230.659C551.296 250.051 545.028 268.526 535.127 285.57L533.925 284.871C573.98 215.917 550.499 127.214 481.582 87.1373C412.665 47.0608 324.01 70.5546 283.956 139.509L282.754 138.81C292.655 121.766 305.596 107.172 321.218 95.4323C328.726 89.79 336.832 84.8507 345.31 80.7516C353.708 76.6913 362.544 73.4192 371.572 71.0267C380.601 68.6339 389.897 67.1008 399.202 66.47C408.597 65.8329 418.084 66.1102 427.399 67.2941C446.781 69.757 465.246 76.0287 482.281 85.9347Z" fill="#972056"/>
<path d="M478.392 92.6275C494.524 102.008 508.337 114.27 519.448 129.072C524.788 136.186 529.463 143.866 533.343 151.899C537.186 159.856 540.282 168.228 542.547 176.782C544.811 185.337 546.262 194.145 546.859 202.961C547.462 211.863 547.2 220.851 546.08 229.678C543.748 248.042 537.812 265.537 528.437 281.677L527.235 280.978C565.145 215.715 542.921 131.761 477.694 93.8299C412.466 55.8988 328.557 78.1349 290.647 143.398L289.445 142.699C298.821 126.559 311.076 112.738 325.87 101.621C332.98 96.2785 340.656 91.601 348.685 87.719C356.637 83.874 365.004 80.7754 373.554 78.5097C382.104 76.2439 390.907 74.792 399.719 74.1944C408.616 73.5912 417.6 73.8537 426.421 74.9749C444.775 77.3075 462.261 83.2466 478.392 92.6275Z" fill="#972056"/>
<path d="M474.504 99.3233C489.732 108.179 502.772 119.754 513.26 133.727C518.301 140.443 522.714 147.693 526.377 155.276C530.005 162.787 532.928 170.69 535.066 178.766C537.204 186.841 538.574 195.156 539.137 203.479C539.707 211.882 539.459 220.368 538.401 228.7C536.2 246.035 530.597 262.551 521.746 277.788L520.544 277.089C556.31 215.517 535.343 136.312 473.805 100.526C412.268 64.7403 333.105 85.7186 297.338 147.29L296.137 146.591C304.988 131.355 316.556 118.308 330.522 107.814C337.234 102.77 344.48 98.3546 352.059 94.69C359.566 91.0601 367.465 88.1353 375.536 85.9964C383.607 83.8574 391.918 82.487 400.236 81.9228C408.635 81.3535 417.115 81.6012 425.443 82.6596C442.769 84.8611 459.276 90.4677 474.504 99.3233Z" fill="#972056"/>
<path d="M470.616 106.016C484.941 114.346 497.207 125.235 507.073 138.379C511.815 144.696 515.967 151.516 519.412 158.65C522.825 165.715 525.575 173.15 527.586 180.746C529.596 188.343 530.885 196.164 531.415 203.994C531.951 211.899 531.718 219.881 530.723 227.718C528.652 244.026 523.381 259.562 515.056 273.894L513.854 273.196C547.476 215.316 527.766 140.858 469.917 107.218C412.068 73.578 337.652 93.2986 304.03 151.179L302.828 150.48C311.154 136.147 322.036 123.874 335.174 114.003C341.488 109.258 348.304 105.104 355.434 101.657C362.495 98.2426 369.926 95.4913 377.518 93.4792C385.11 91.4671 392.928 90.1781 400.753 89.6474C408.653 89.1117 416.631 89.3449 424.464 90.3405C440.763 92.4115 456.29 97.6854 470.616 106.016Z" fill="#972056"/>
<path d="M466.725 112.712C480.147 120.517 491.64 130.719 500.884 143.034C505.327 148.953 509.217 155.344 512.445 162.027C515.642 168.647 518.219 175.613 520.103 182.73C521.987 189.848 523.194 197.176 523.691 204.512C524.193 211.918 523.975 219.397 523.043 226.741C521.103 242.02 516.164 256.576 508.363 270.005L507.162 269.306C538.639 215.118 520.186 145.409 466.027 113.915C411.868 82.42 342.197 100.883 310.719 155.071L309.518 154.373C317.318 140.944 327.515 129.445 339.824 120.195C345.74 115.75 352.126 111.858 358.806 108.628C365.422 105.429 372.384 102.851 379.498 100.966C386.612 99.0809 393.936 97.8729 401.268 97.3758C408.67 96.874 416.145 97.0922 423.484 98.0251C438.755 99.9653 453.304 104.907 466.725 112.712Z" fill="#972056"/>
<path d="M462.837 119.405C475.355 126.685 486.075 136.2 494.697 147.687C503.025 158.782 509.056 171.238 512.623 184.712C516.189 198.185 517.111 211.995 515.364 225.76C513.555 240.011 508.949 253.588 501.673 266.113L500.471 265.414C529.804 214.917 512.609 149.957 462.139 120.608C411.669 91.2588 346.744 108.464 317.411 158.961L316.209 158.262C323.485 145.737 332.995 135.012 344.475 126.385C355.564 118.053 368.014 112.018 381.48 108.45C394.945 104.881 408.749 103.958 422.506 105.707C436.749 107.517 450.319 112.126 462.837 119.405Z" fill="#972056"/>
<path d="M458.949 126.101C470.564 132.856 480.51 141.684 488.51 152.342C496.237 162.637 501.833 174.194 505.142 186.695C508.451 199.196 509.307 212.01 507.686 224.782C506.007 238.005 501.733 250.602 494.982 262.223L493.78 261.525C520.969 214.719 505.03 154.507 458.25 127.304C411.47 100.1 351.291 116.047 324.102 162.853L322.9 162.155C329.651 150.533 338.475 140.582 349.127 132.577C359.416 124.846 370.968 119.247 383.462 115.936C395.956 112.625 408.763 111.769 421.528 113.391C434.743 115.07 447.334 119.347 458.949 126.101Z" fill="#972056"/>
<path d="M455.06 132.797C465.772 139.026 474.945 147.168 482.323 156.998C489.449 166.491 494.61 177.15 497.662 188.679C500.713 200.208 501.503 212.025 500.007 223.804C498.459 235.998 494.518 247.616 488.292 258.334L487.09 257.635C512.135 214.52 497.453 159.058 454.362 133.999C411.271 108.941 355.838 123.631 330.794 166.745L329.592 166.046C335.818 155.329 343.955 146.151 353.779 138.769C363.268 131.639 373.921 126.476 385.444 123.422C396.966 120.369 408.777 119.579 420.549 121.075C432.737 122.624 444.349 126.568 455.06 132.797Z" fill="#972056"/>
<path d="M451.172 139.489C460.98 145.193 469.379 152.648 476.135 161.649C482.661 170.342 487.386 180.102 490.181 190.659C492.975 201.215 493.698 212.037 492.329 222.822C490.911 233.988 487.302 244.626 481.601 254.44L480.4 253.741C503.3 214.318 489.875 163.604 450.473 140.691C411.072 117.778 360.385 131.21 337.485 170.633L336.283 169.934C341.984 160.121 349.436 151.717 358.431 144.957C367.119 138.428 376.875 133.7 387.425 130.904C397.976 128.108 408.791 127.385 419.571 128.755C430.731 130.173 441.363 133.784 451.172 139.489Z" fill="#972056"/>
<path d="M447.282 146.184C456.187 151.363 463.813 158.132 469.947 166.304C475.871 174.196 480.161 183.058 482.699 192.642C485.236 202.227 485.892 212.051 484.649 221.843C483.362 231.981 480.085 241.64 474.909 250.55L473.707 249.851C494.463 214.12 482.296 168.154 446.583 147.387C410.871 126.619 364.931 138.794 344.174 174.525L342.973 173.827C348.148 164.916 354.914 157.287 363.081 151.149C370.969 145.222 379.826 140.929 389.406 138.391C398.985 135.852 408.804 135.196 418.591 136.439C428.724 137.727 438.377 141.005 447.282 146.184Z" fill="#972056"/>
<path d="M112.909 235.814C102.986 230.043 93.6495 223.276 85.1601 215.7C76.8859 208.316 69.3151 200.075 62.6581 191.207C56.1219 182.499 50.4001 173.099 45.6512 163.267C40.9477 153.528 37.1572 143.281 34.3855 132.811C31.6137 122.34 29.8377 111.559 29.1068 100.768C28.3686 89.8727 28.6901 78.871 30.0613 68.0679C31.4581 57.0651 33.9594 46.1552 37.496 35.6417C41.1243 24.8543 45.8884 14.3504 51.6558 4.42188L52.8575 5.12067C6.36997 85.1492 33.6221 188.098 113.607 234.611C193.592 281.124 296.485 253.857 342.973 173.829L344.175 174.527C338.407 184.456 331.644 193.797 324.072 202.291C316.692 210.57 308.456 218.145 299.592 224.805C290.889 231.345 281.494 237.07 271.667 241.822C261.934 246.528 251.693 250.32 241.228 253.093C230.762 255.867 219.988 257.644 209.202 258.375C198.313 259.113 187.317 258.792 176.52 257.42C165.523 256.022 154.619 253.52 144.111 249.981C133.33 246.351 122.832 241.584 112.909 235.814Z" fill="#972056"/>
<path d="M116.797 229.119C97.9562 218.162 81.8228 203.841 68.8458 186.553C62.6087 178.243 57.1484 169.273 52.617 159.891C48.1285 150.598 44.5114 140.819 41.8665 130.828C39.2215 120.836 37.5269 110.548 36.8294 100.251C36.1251 89.8542 36.4315 79.3556 37.7402 69.0468C40.4631 47.5981 47.396 27.164 58.3468 8.3125L59.5485 9.01129C15.2053 85.3485 41.2004 183.549 117.496 227.916C193.792 272.284 291.939 246.274 336.282 169.937L337.484 170.636C326.533 189.488 312.22 205.63 294.941 218.614C286.636 224.854 277.671 230.318 268.294 234.852C259.006 239.343 249.233 242.962 239.246 245.608C229.26 248.254 218.978 249.95 208.686 250.648C198.295 251.353 187.802 251.046 177.499 249.736C156.062 247.012 135.639 240.075 116.797 229.119Z" fill="#972056"/>
<path d="M120.686 222.424C102.748 211.993 87.3881 198.358 75.0333 181.898C69.0952 173.987 63.8967 165.447 59.5825 156.514C55.3091 147.667 51.8656 138.357 49.3476 128.845C46.8294 119.332 45.216 109.538 44.5519 99.7338C43.8815 89.8356 44.1731 79.8404 45.4191 70.0258C48.0114 49.6054 54.612 30.1509 65.0378 12.2031L66.2395 12.9019C24.0405 85.5478 48.7786 178.999 121.385 221.221C193.991 263.443 287.392 238.692 329.591 166.046L330.793 166.745C320.367 184.693 306.74 200.061 290.289 212.423C282.383 218.364 273.847 223.565 264.92 227.882C256.077 232.157 246.773 235.603 237.265 238.122C227.758 240.642 217.968 242.256 208.17 242.921C198.277 243.591 188.287 243.299 178.478 242.053C158.068 239.459 138.624 232.855 120.686 222.424Z" fill="#972056"/>
<path d="M124.575 215.729C107.541 205.823 92.9542 192.875 81.2212 177.244C75.5823 169.731 70.6455 161.621 66.5483 153.138C62.4902 144.736 59.2202 135.896 56.8287 126.862C54.4372 117.828 52.9052 108.527 52.2745 99.2169C51.6377 89.8171 51.9149 80.3252 53.0979 71.0049C55.5597 51.6127 61.8281 33.1379 71.7287 16.0938L72.9304 16.7925C32.8757 85.7468 56.3567 174.45 125.274 214.526C194.191 254.603 282.845 231.109 322.9 162.155L324.102 162.854C314.201 179.898 301.26 194.492 285.638 206.231C278.129 211.874 270.024 216.813 261.545 220.912C253.148 224.972 244.312 228.244 235.283 230.637C226.254 233.03 216.958 234.563 207.653 235.194C198.258 235.831 188.772 235.554 179.456 234.37C160.075 231.907 141.61 225.635 124.575 215.729Z" fill="#972056"/>
<path d="M128.464 209.034C112.332 199.653 98.5195 187.392 87.4085 172.59C82.0684 165.476 77.3935 157.795 73.5138 149.762C69.6708 141.806 66.5742 133.434 64.3097 124.879C62.0451 116.325 60.5941 107.517 59.997 98.7C59.3941 89.7986 59.6565 80.8101 60.777 71.9838C63.1082 53.6197 69.0442 36.1245 78.4198 19.9844L79.6216 20.6832C41.7111 85.9461 63.935 169.901 129.163 207.832C194.39 245.763 278.299 223.527 316.209 158.264L317.411 158.962C308.035 175.103 295.78 188.923 280.987 200.04C273.876 205.383 266.2 210.061 258.172 213.942C250.219 217.788 241.852 220.886 233.302 223.152C224.752 225.417 215.949 226.869 207.137 227.467C198.24 228.07 189.257 227.808 180.435 226.686C162.081 224.354 144.596 218.415 128.464 209.034Z" fill="#972056"/>
<path d="M132.353 202.339C117.125 193.484 104.085 181.909 93.5966 167.936C88.5554 161.22 84.1424 153.97 80.4795 146.387C76.8518 138.875 73.9286 130.972 71.7908 122.897C69.6531 114.821 68.2832 106.507 67.7195 98.1834C67.1505 89.7805 67.3981 81.2951 68.4557 72.963C70.6564 55.6272 76.26 39.1116 85.1108 23.875L86.3125 24.5738C50.5464 86.1454 71.5133 165.351 133.051 201.137C194.59 236.922 273.752 215.944 309.519 154.372L310.72 155.071C301.87 170.308 290.301 183.354 276.335 193.849C269.623 198.892 262.377 203.308 254.798 206.973C247.291 210.602 239.392 213.527 231.321 215.666C223.25 217.805 214.939 219.175 206.621 219.74C198.222 220.309 189.742 220.061 181.414 219.003C164.088 216.802 147.581 211.195 132.353 202.339Z" fill="#972056"/>
<path d="M136.242 195.644C121.917 187.314 109.651 176.426 99.7843 163.281C95.0422 156.964 90.8908 150.144 87.4454 143.01C84.033 135.945 81.2829 128.51 79.2719 120.914C77.2609 113.317 75.9724 105.496 75.4422 97.6663C74.9067 89.7615 75.1398 81.7795 76.1347 73.9419C78.205 57.6343 83.4761 42.0982 91.8019 27.7656L93.0036 28.4644C59.3817 86.3445 79.0916 160.802 136.94 194.442C194.789 228.082 269.206 208.361 302.828 150.481L304.029 151.18C295.704 165.513 284.821 177.786 271.684 187.657C265.37 192.402 258.553 196.556 251.424 200.003C244.362 203.418 236.932 206.169 229.34 208.181C221.747 210.193 213.93 211.482 206.105 212.013C198.204 212.549 190.227 212.315 182.393 211.32C166.094 209.249 150.567 203.975 136.242 195.644Z" fill="#972056"/>
<path d="M140.131 188.954C126.709 181.149 115.216 170.947 105.972 158.631C101.529 152.712 97.6391 146.322 94.4109 139.638C91.2136 133.018 88.6369 126.053 86.7529 118.935C84.8688 111.817 83.6615 104.489 83.1647 97.1535C82.6631 89.7473 82.8815 82.2687 83.8136 74.9249C85.7532 59.6457 90.692 45.0892 98.4928 31.6602L99.6946 32.3589C68.217 86.5476 86.6698 156.256 140.829 187.751C194.989 219.245 264.659 200.782 296.137 146.594L297.339 147.293C289.538 160.722 279.341 172.221 267.032 181.47C261.117 185.916 254.73 189.807 248.05 193.037C241.434 196.236 234.472 198.814 227.358 200.699C220.244 202.585 212.92 203.793 205.588 204.29C198.186 204.791 190.712 204.573 183.372 203.64C168.101 201.7 153.552 196.759 140.131 188.954Z" fill="#972056"/>
<path d="M144.019 182.259C131.5 174.979 120.781 165.464 112.159 153.977C103.831 142.882 97.7997 130.425 94.233 116.952C90.6665 103.479 89.7441 89.6685 91.4914 75.9039C93.3004 61.6527 97.9069 48.076 105.183 35.5508L106.384 36.2496C77.0511 86.7469 94.2471 151.707 144.717 181.056C195.187 210.405 260.112 193.2 289.445 142.703L290.647 143.402C283.371 155.927 273.861 166.652 262.38 175.279C251.292 183.611 238.842 189.646 225.376 193.214C211.91 196.783 198.107 197.706 184.35 195.957C170.106 194.147 156.537 189.538 144.019 182.259Z" fill="#972056"/>
<path d="M147.909 175.564C136.293 168.809 126.348 159.98 118.347 149.323C110.62 139.029 105.024 127.47 101.715 114.97C98.4062 102.469 97.5504 89.6545 99.1717 76.883C100.85 63.66 105.124 51.0629 111.875 39.4414L113.077 40.1402C85.888 86.9462 101.827 147.157 148.607 174.361C195.388 201.565 255.566 185.617 282.755 138.811L283.957 139.51C277.206 151.132 268.382 161.083 257.73 169.088C247.442 176.819 235.89 182.418 223.396 185.729C210.901 189.04 198.094 189.896 185.33 188.274C172.114 186.595 159.524 182.318 147.909 175.564Z" fill="#972056"/>
<path d="M151.797 168.869C141.085 162.64 131.913 154.497 124.535 144.668C117.408 135.175 112.248 124.515 109.196 112.987C106.144 101.458 105.355 89.6405 106.85 77.8621C108.398 65.6673 112.34 54.0499 118.566 43.332L119.767 44.0308C94.7226 87.1455 109.404 142.608 152.495 167.666C195.587 192.725 251.019 178.035 276.064 134.92L277.265 135.619C271.04 146.337 262.902 155.514 253.078 162.896C243.59 170.027 232.936 175.19 221.414 178.244C209.891 181.297 198.08 182.087 186.308 180.591C174.12 179.042 162.509 175.098 151.797 168.869Z" fill="#972056"/>
<path d="M155.685 162.174C145.877 156.47 137.478 149.014 130.722 140.014C124.196 131.321 119.471 121.56 116.676 111.004C113.882 100.447 113.159 89.6259 114.528 78.8409C115.946 67.6744 119.555 57.0366 125.256 47.2227L126.458 47.9214C103.557 87.3445 116.982 138.059 156.384 160.971C195.786 183.884 246.472 170.452 269.372 131.029L270.574 131.728C264.873 141.542 257.421 149.945 248.426 156.705C239.738 163.234 229.983 167.962 219.432 170.758C208.881 173.554 198.066 174.277 187.286 172.907C176.126 171.489 165.494 167.878 155.685 162.174Z" fill="#972056"/>
<path d="M159.574 155.479C150.668 150.3 143.043 143.531 136.909 135.36C130.984 127.467 126.694 118.606 124.157 109.021C121.62 99.4367 120.963 89.6119 122.207 79.82C123.494 69.6818 126.771 60.0234 131.946 51.1133L133.148 51.8121C112.392 87.5438 124.56 133.509 160.272 154.277C195.984 175.044 241.925 162.87 262.681 127.138L263.883 127.837C258.707 136.747 251.941 144.377 243.774 150.514C235.886 156.441 227.029 160.734 217.45 163.273C207.871 165.811 198.051 166.468 188.264 165.224C178.132 163.936 168.479 160.658 159.574 155.479Z" fill="#972056"/>
<path d="M444.473 379.997C434.55 374.227 425.214 367.459 416.724 359.883C408.45 352.5 400.88 344.259 394.222 335.391C387.687 326.683 381.964 317.283 377.216 307.45C372.512 297.712 368.722 287.465 365.95 276.994C363.178 266.523 361.402 255.743 360.671 244.951C359.933 234.056 360.254 223.055 361.626 212.252C363.022 201.249 365.524 190.339 369.06 179.825C372.689 169.038 377.453 158.534 383.22 148.605L384.422 149.304C337.934 229.333 365.186 332.282 445.171 378.795C525.156 425.308 628.05 398.041 674.537 318.012L675.739 318.711C669.972 328.639 663.208 337.981 655.636 346.475C648.256 354.753 640.02 362.328 631.156 368.989C622.454 375.529 613.058 381.253 603.232 386.005C593.498 390.711 583.257 394.504 572.792 397.277C562.327 400.05 551.552 401.827 540.766 402.558C529.877 403.297 518.881 402.975 508.084 401.603C497.088 400.206 486.184 397.703 475.676 394.165C464.894 390.535 454.396 385.768 444.473 379.997Z" fill="#972056"/>
<path d="M448.362 373.302C429.52 362.346 413.387 348.024 400.41 330.736C394.173 322.427 388.713 313.457 384.181 304.074C379.693 294.781 376.076 285.003 373.431 275.011C370.786 265.02 369.091 254.732 368.394 244.434C367.69 234.038 367.996 223.539 369.305 213.23C372.028 191.782 378.96 171.348 389.911 152.496L391.113 153.195C346.77 229.532 372.765 327.732 449.061 372.1C525.356 416.467 623.503 390.458 667.847 314.121L669.048 314.82C658.098 333.671 643.784 349.813 626.505 362.798C618.201 369.038 609.235 374.501 599.858 379.035C590.57 383.526 580.797 387.145 570.811 389.792C560.824 392.438 550.543 394.134 540.25 394.831C529.859 395.536 519.367 395.229 509.063 393.92C487.626 391.196 467.203 384.259 448.362 373.302Z" fill="#972056"/>
<path d="M452.251 366.607C434.313 356.176 418.953 342.541 406.598 326.082C400.66 318.171 395.461 309.631 391.147 300.698C386.874 291.851 383.43 282.541 380.912 273.028C378.394 263.516 376.78 253.721 376.116 243.917C375.446 234.019 375.738 224.024 376.984 214.209C379.576 193.789 386.176 174.334 396.602 156.387L397.804 157.086C355.605 229.731 380.343 323.183 452.949 365.405C525.555 407.627 618.956 382.875 661.155 310.23L662.357 310.928C651.932 328.876 638.304 344.244 621.854 356.606C613.947 362.548 605.411 367.749 596.484 372.065C587.641 376.341 578.337 379.786 568.829 382.306C559.322 384.825 549.533 386.44 539.734 387.104C529.841 387.775 519.851 387.483 510.042 386.237C489.633 383.643 470.189 377.039 452.251 366.607Z" fill="#972056"/>
<path d="M456.14 359.913C439.105 350.006 424.519 337.058 412.785 321.428C407.146 313.915 402.21 305.805 398.113 297.322C394.054 288.92 390.784 280.079 388.393 271.046C386.002 262.012 384.469 252.711 383.839 243.401C383.202 234.001 383.479 224.509 384.662 215.188C387.124 195.796 393.393 177.322 403.293 160.277L404.495 160.976C364.44 229.93 387.921 318.633 456.838 358.71C525.755 398.786 614.41 375.293 654.465 306.338L655.667 307.037C645.766 324.081 632.825 338.676 617.203 350.415C609.694 356.057 601.588 360.997 593.11 365.096C584.713 369.156 575.877 372.428 566.848 374.821C557.819 377.213 548.523 378.747 539.218 379.377C529.823 380.014 520.337 379.737 511.021 378.553C491.639 376.091 473.175 369.819 456.14 359.913Z" fill="#972056"/>
<path d="M460.029 353.218C443.897 343.837 430.084 331.575 418.973 316.773C413.633 309.659 408.958 301.979 405.078 293.946C401.236 285.989 398.139 277.618 395.874 269.063C393.61 260.508 392.159 251.7 391.562 242.884C390.958 233.982 391.221 224.994 392.342 216.167C394.673 197.803 400.609 180.308 409.984 164.168L411.186 164.867C373.276 230.13 395.5 314.084 460.727 352.015C525.955 389.946 609.863 367.71 647.774 302.447L648.975 303.146C639.6 319.286 627.345 333.107 612.551 344.224C605.441 349.567 597.765 354.244 589.736 358.126C581.784 361.971 573.417 365.07 564.867 367.335C556.317 369.601 547.513 371.053 538.702 371.651C529.805 372.254 520.821 371.991 512 370.87C493.646 368.538 476.16 362.599 460.029 353.218Z" fill="#972056"/>
<path d="M463.917 346.523C448.689 337.667 435.65 326.092 425.161 312.119C420.12 305.403 415.707 298.153 412.044 290.57C408.416 283.059 405.493 275.156 403.355 267.08C401.218 259.005 399.848 250.69 399.284 242.367C398.715 233.964 398.963 225.479 400.02 217.147C402.221 199.811 407.824 183.295 416.675 168.059L417.877 168.757C382.111 230.329 403.078 309.535 464.616 345.32C526.154 381.106 605.317 360.128 641.083 298.556L642.285 299.255C633.434 314.491 621.865 327.538 607.9 338.032C601.187 343.076 593.941 347.492 586.362 351.156C578.855 354.786 570.957 357.711 562.885 359.85C554.814 361.989 546.504 363.359 538.185 363.923C529.787 364.493 521.306 364.245 512.979 363.187C495.652 360.985 479.146 355.378 463.917 346.523Z" fill="#972056"/>
<path d="M467.806 339.828C453.481 331.498 441.215 320.609 431.349 307.465C426.607 301.147 422.455 294.327 419.01 287.194C415.597 280.128 412.847 272.694 410.836 265.097C408.825 257.501 407.537 249.679 407.007 241.85C406.471 233.945 406.704 225.963 407.699 218.125C409.769 201.818 415.041 186.282 423.366 171.949L424.568 172.648C390.946 230.528 410.656 304.985 468.505 338.626C526.354 372.266 600.77 352.545 634.392 294.665L635.594 295.364C627.268 309.696 616.386 321.969 603.248 331.841C596.934 336.586 590.118 340.739 582.988 344.187C575.926 347.601 568.496 350.352 560.904 352.364C553.311 354.377 545.494 355.666 537.669 356.196C529.769 356.732 521.791 356.499 513.958 355.503C497.659 353.432 482.131 348.158 467.806 339.828Z" fill="#972056"/>
<path d="M471.695 333.137C458.273 325.332 446.781 315.13 437.536 302.814C433.093 296.895 429.203 290.505 425.975 283.822C422.778 277.202 420.201 270.236 418.317 263.119C416.433 256.001 415.226 248.673 414.729 241.337C414.228 233.931 414.446 226.452 415.378 219.108C417.318 203.829 422.256 189.273 430.057 175.844L431.259 176.543C399.781 230.731 418.234 300.44 472.394 331.934C526.553 363.429 596.224 344.966 627.701 290.778L628.903 291.476C621.102 304.905 610.906 316.404 598.597 325.654C592.681 330.099 586.294 333.991 579.614 337.221C572.998 340.42 566.036 342.998 558.923 344.883C551.809 346.768 544.484 347.976 537.153 348.473C529.751 348.975 522.276 348.757 514.936 347.824C499.665 345.883 485.117 340.942 471.695 333.137Z" fill="#972056"/>
<path d="M475.583 326.442C463.065 319.162 452.345 309.647 443.723 298.16C435.395 287.066 429.364 274.609 425.797 261.136C422.231 247.663 421.309 233.852 423.056 220.088C424.865 205.836 429.471 192.26 436.747 179.734L437.949 180.433C408.616 230.931 425.812 295.89 476.281 325.24C526.751 354.589 591.676 337.383 621.009 286.886L622.211 287.585C614.935 300.11 605.425 310.835 593.945 319.462C582.856 327.795 570.406 333.829 556.94 337.398C543.474 340.966 529.671 341.889 515.914 340.141C501.671 338.331 488.101 333.722 475.583 326.442Z" fill="#972056"/>
<path d="M479.473 319.747C467.858 312.993 457.912 304.164 449.912 293.506C442.185 283.212 436.589 271.654 433.28 259.153C429.971 246.652 429.115 233.838 430.736 221.067C432.415 207.844 436.689 195.246 443.44 183.625L444.641 184.324C417.452 231.13 433.391 291.341 480.172 318.545C526.952 345.749 587.131 329.801 614.32 282.995L615.521 283.694C608.771 295.315 599.947 305.266 589.295 313.271C579.006 321.002 567.454 326.601 554.96 329.912C542.466 333.223 529.659 334.08 516.894 332.458C503.679 330.778 491.088 326.502 479.473 319.747Z" fill="#972056"/>
<path d="M483.362 313.052C472.65 306.823 463.477 298.681 456.099 288.852C448.973 279.358 443.812 268.699 440.76 257.17C437.708 245.641 436.919 233.824 438.414 222.046C439.963 209.851 443.904 198.234 450.13 187.516L451.332 188.214C426.287 231.329 440.969 286.792 484.06 311.85C527.151 336.908 582.584 322.218 607.628 279.104L608.83 279.803C602.604 290.52 594.466 299.698 584.643 307.08C575.154 314.21 564.501 319.374 552.978 322.427C541.456 325.481 529.645 326.27 517.873 324.775C505.685 323.226 494.073 319.282 483.362 313.052Z" fill="#972056"/>
<path d="M487.25 306.357C477.441 300.654 469.042 293.198 462.286 284.197C455.761 275.504 451.035 265.744 448.241 255.187C445.446 244.631 444.723 233.81 446.093 223.024C447.51 211.858 451.12 201.22 456.82 191.406L458.022 192.105C435.122 231.528 448.547 282.242 487.948 305.155C527.35 328.068 578.036 314.636 600.937 275.213L602.139 275.912C596.438 285.726 588.986 294.129 579.99 300.889C571.302 307.418 561.547 312.146 550.996 314.942C540.445 317.738 529.63 318.461 518.851 317.091C507.69 315.673 497.058 312.061 487.25 306.357Z" fill="#972056"/>
<path d="M491.138 299.663C482.233 294.484 474.607 287.715 468.473 279.543C462.549 271.651 458.259 262.789 455.721 253.205C453.184 243.62 452.528 233.796 453.771 224.004C455.058 213.865 458.335 204.207 463.511 195.297L464.712 195.996C443.956 231.727 456.124 277.693 491.836 298.46C527.549 319.228 573.489 307.053 594.245 271.322L595.447 272.02C590.271 280.931 583.506 288.56 575.339 294.697C567.45 300.625 558.593 304.918 549.014 307.456C539.435 309.995 529.616 310.651 519.829 309.408C509.696 308.12 500.043 304.841 491.138 299.663Z" fill="#972056"/>
</g>
<rect x="515.258" y="87.5664" width="486" height="186.234" transform="rotate(167.142 515.258 87.5664)" fill="url(#paint0_linear_3110_953)"/>
<rect x="452.334" y="240.844" width="100.161" height="69.6308" transform="rotate(-165 452.334 240.844)" fill="url(#paint1_linear_3110_953)"/>
<rect x="477.406" y="196.414" width="100.161" height="69.6308" transform="rotate(11.6639 477.406 196.414)" fill="url(#paint2_linear_3110_953)"/>
<defs>
<linearGradient id="paint0_linear_3110_953" x1="758.258" y1="273.8" x2="758.258" y2="87.5664" gradientUnits="userSpaceOnUse">
<stop stop-color="white"/>
<stop offset="0.665954" stop-color="white" stop-opacity="0.85"/>
<stop offset="1" stop-color="white" stop-opacity="0"/>
</linearGradient>
<linearGradient id="paint1_linear_3110_953" x1="502.415" y1="310.475" x2="502.415" y2="240.844" gradientUnits="userSpaceOnUse">
<stop stop-color="white"/>
<stop offset="0.665954" stop-color="white" stop-opacity="0.85"/>
<stop offset="1" stop-color="white" stop-opacity="0"/>
</linearGradient>
<linearGradient id="paint2_linear_3110_953" x1="527.487" y1="266.045" x2="527.487" y2="196.414" gradientUnits="userSpaceOnUse">
<stop stop-color="white"/>
<stop offset="0.665954" stop-color="white" stop-opacity="0.85"/>
<stop offset="1" stop-color="white" stop-opacity="0"/>
</linearGradient>
</defs>
</svg>
