<svg width="134" height="42" viewBox="0 0 134 42" fill="none" xmlns="http://www.w3.org/2000/svg">
<path d="M70.7331 11.608C70.8411 11.5893 71.0452 11.5997 71.1617 11.6106C72.8242 11.7734 74.439 12.1428 75.5749 13.4662C77.2453 15.4118 77.1661 17.655 77.1616 20.0605L77.1583 23.8583C77.1603 25.8248 77.2584 28.7553 77.1302 30.6108C76.4582 30.514 75.0587 30.5439 74.337 30.5434L69.5429 30.55C69.4186 27.9738 69.5887 25.2616 69.5351 22.6654C69.505 21.2046 69.6771 18.3971 67.4492 18.4184C64.9596 18.4423 65.4069 22.1502 65.4073 23.8047C65.4025 26.065 65.4106 28.3253 65.4313 30.5855C65.0225 30.5551 64.5906 30.5447 64.18 30.5501C62.0213 30.5783 59.8087 30.4761 57.656 30.5794C57.5642 28.2733 57.7041 25.7561 57.6494 23.4326C57.6216 22.246 57.7293 21.078 57.5285 19.9003C57.1895 19.0277 56.7673 18.3842 55.7418 18.4027C54.7514 18.38 53.8785 19.1137 53.6903 20.0969C53.4469 21.3683 53.5309 22.8383 53.5314 24.1414L53.5379 30.6083C52.9513 30.5141 51.4616 30.5439 50.813 30.5436L45.8545 30.5545C45.7809 28.3156 45.8264 25.8782 45.8266 23.6272L45.8308 12.044C48.3506 11.9692 50.9748 12.0925 53.522 12.0121C53.545 12.8296 53.5613 13.6473 53.5705 14.4651C54.0074 13.9268 54.3528 13.4976 54.8813 13.0689C57.4354 10.9967 62.112 11.0054 64.0555 13.9111C64.2213 14.1591 64.4267 14.4053 64.6134 14.6411C64.7354 14.4831 64.8653 14.3312 65.0024 14.1861C66.7569 12.2941 68.1702 11.7057 70.7331 11.608Z" fill="#373536"/>
<path d="M17.6534 11.6675C29.9324 10.5718 29.2466 33.183 16.8906 30.8003C15.5201 30.536 13.9215 29.5682 13.1479 28.3806C13.0711 29.0157 13.0928 30.0747 13.092 30.7343L13.0913 34.4422L13.0998 35.9976C12.2307 35.9154 11.0276 35.9414 10.1376 35.9412C8.58827 35.9368 7.03896 35.9453 5.48971 35.9668C5.3652 30.0153 5.53888 24.006 5.46874 18.0486C5.44535 16.0629 5.44277 14.0254 5.4881 12.042C8.00149 11.9994 10.5866 12.0957 13.0945 12.0115C13.0951 12.7825 13.0876 13.558 13.1314 14.3275C13.1483 14.3049 13.1657 14.2826 13.1833 14.2607C14.3755 12.7683 15.7291 11.8821 17.6534 11.6675ZM16.3896 24.583C17.4542 24.2128 18.2104 23.7839 18.7322 22.7096C19.1107 21.9183 19.1575 21.0085 18.8623 20.1825C18.4191 18.9097 17.0979 17.801 15.6948 18.0016C14.7557 18.2172 14.0484 18.5927 13.5264 19.4327C13.0173 20.2366 12.8535 21.2117 13.072 22.1378C13.2711 22.9772 13.8034 23.6993 14.5462 24.138C15.1197 24.4826 15.7228 24.6505 16.3896 24.583Z" fill="#373536"/>
<path d="M79.3181 12.0443C81.6801 11.9378 84.5512 12.0632 86.9943 12.0152C87.0728 12.576 87.0872 13.9394 87.0532 14.5024C88.8643 13.1949 91.1432 12.7108 93.3299 13.1687C95.5172 13.6266 97.4101 14.9841 98.5446 16.9085C99.9926 19.364 100.014 22.4071 98.5996 24.8823C97.4847 26.8337 95.595 28.2215 93.3992 28.7016C91.2034 29.1816 88.9068 28.7092 87.0787 27.4012C87.1945 27.8406 87.0368 29.6731 86.9989 30.2265C86.5815 36.385 81.5709 36.2349 76.752 35.8278L76.7533 31.232C79.7519 31.2538 79.3089 29.8827 79.3096 27.397V23.8486L79.3181 12.0443Z" fill="#FEFEFE"/>
<path d="M79.3181 12.0443C81.6801 11.9378 84.5512 12.0632 86.9943 12.0152C87.0728 12.576 87.0872 13.9394 87.0532 14.5024C84.9797 15.9988 83.7536 18.4017 83.7582 20.9585C83.7634 23.5152 84.9994 25.9132 87.0787 27.4012C87.1945 27.8406 87.0368 29.6731 86.9989 30.2265C86.5815 36.385 81.5709 36.2349 76.752 35.8278L76.7533 31.232C79.7519 31.2538 79.3089 29.8827 79.3096 27.397V23.8486L79.3181 12.0443Z" fill="#373536"/>
<path d="M91.2912 17.4426C93.2056 17.2162 94.9434 18.578 95.1816 20.4908C95.4191 22.4035 94.0673 24.1493 92.1561 24.3985C90.2279 24.6499 88.4639 23.2845 88.2245 21.3555C87.9843 19.4264 89.3603 17.6708 91.2912 17.4426Z" fill="#EE3337"/>
<path d="M121.335 11.6038C122.991 11.3175 125.177 11.8945 126.404 13.0525C128.8 15.3143 128.31 18.424 128.343 21.3878C128.377 24.4232 128.292 27.4683 128.371 30.498C127.72 30.4006 126.429 30.4434 125.739 30.4397C124.042 30.4305 122.347 30.4659 120.648 30.4239C120.65 30.3961 120.653 30.3682 120.655 30.3404C120.785 28.6386 120.675 26.5235 120.704 24.762C120.659 23.2941 120.807 21.698 120.61 20.2508C120.398 18.6991 118.643 17.559 117.35 18.7933C116.531 19.5754 116.523 20.1609 116.471 21.1986C116.434 24.2057 116.421 27.49 116.48 30.4915C115.628 30.4101 114.424 30.4411 113.555 30.4414L108.672 30.4359L108.675 12.0129C109.537 11.9431 110.699 11.9731 111.59 11.973L116.48 11.9791L116.45 14.4212C116.745 14.1695 117.185 13.655 117.493 13.3592C118.686 12.215 119.741 11.7793 121.335 11.6038Z" fill="#373536"/>
<path d="M34.5307 11.6712C36.7442 11.2364 42.3343 12.2511 43.9919 13.8718C43.4356 15.2472 42.3907 16.8504 41.7315 18.3155C40.9913 18.1524 40.2266 17.752 39.5169 17.4767C38.6764 17.1507 35.114 15.9486 34.65 17.184C34.8341 17.9329 37.3333 18.3084 38.0657 18.552C39.6676 19.0849 41.6437 19.689 42.9 20.8355C45.0347 22.7834 44.726 26.8713 42.7877 28.8566C41.097 30.5883 38.5024 30.9271 36.1832 30.9627C34.0896 30.9234 31.9866 30.6782 30.0224 29.9126C29.435 29.6837 27.219 28.7807 27.0059 28.2945C27.0195 27.5243 28.0026 26.4225 28.3994 25.736C28.702 25.2126 29.0529 24.4632 29.4303 24.0177C29.614 23.8009 31.2071 24.8325 31.4926 24.9042C33.0368 25.499 34.6775 25.9659 36.343 25.9912C36.8002 25.9981 37.3581 25.8089 37.3191 25.26C36.7699 24.3687 32.7037 23.683 31.5293 23.1236C30.7268 22.8253 30.0383 22.4146 29.3683 21.8822C27.0066 20.0055 27.2522 16.2496 29.0537 14.0585C30.4696 12.3364 32.3715 11.8678 34.5307 11.6712Z" fill="#373536"/>
<path d="M98.6601 12.0057C100.999 11.8836 104.063 11.9723 106.45 11.9756C106.241 17.1716 106.546 22.5411 106.423 27.7531C106.403 28.6255 106.415 29.6299 106.463 30.4996C105.579 30.4065 104.599 30.4489 103.705 30.4384C102.034 30.4188 100.327 30.4695 98.6588 30.4383C98.6562 29.9002 98.6077 24.8982 98.5999 24.8838C100.014 22.4087 99.9929 19.3656 98.5449 16.9101C98.5502 15.3342 98.649 13.64 98.6601 12.0057Z" fill="#373536"/>
<path d="M98.5823 5.75391C100.908 5.86893 104.206 5.78159 106.594 5.77126C106.528 7.11885 106.703 9.54341 106.566 10.7263C103.9 10.7113 101.234 10.713 98.5679 10.7314C98.5575 9.07225 98.562 7.41298 98.5823 5.75391Z" fill="#373536"/>
<path d="M79.2344 5.82422C81.7809 5.8995 84.5774 5.83779 87.1553 5.84702C87.1121 7.21717 87.0977 9.44153 87.1658 10.7901L79.2285 10.7779L79.2344 5.82422Z" fill="#373536"/>
</svg>
