<svg width="39" height="41" viewBox="0 0 39 41" fill="none" xmlns="http://www.w3.org/2000/svg">
<path d="M35.8039 24.9775C36.2242 26.9694 33.748 28.4966 32.186 27.1587C31.5551 26.6108 31.1407 25.5732 31.5929 24.8016C31.8405 24.4406 32.1507 24.1042 32.6098 24.2944C32.6084 24.3254 32.6003 24.3486 32.6243 24.3897C32.6292 24.4225 32.5917 24.4277 32.6187 24.4722C32.6316 24.5635 32.5862 24.6306 32.6285 24.7335C32.1971 25.8144 33.8752 26.9964 34.471 25.7179C35.0296 24.844 33.8384 23.9547 33.0786 24.3101C32.9467 24.2895 32.8617 24.4739 32.6982 24.383C32.6833 24.3359 32.7116 24.3192 32.7205 24.281C32.6808 24.2857 32.6805 24.2351 32.6611 24.2082C32.522 24.2189 32.6246 24.0666 32.666 24.0028C33.5033 22.5708 35.6245 23.5644 35.8039 24.9775ZM38.708 26.1127C37.5677 33.3823 26.4984 30.9218 28.7888 23.8599C28.4892 23.4928 28.2277 23.0963 27.9784 22.695C27.0365 23.8507 25.681 24.6335 24.2247 24.9435C25.2549 27.6407 24.8731 26.6777 22.2798 28.8007C22.2224 29.7465 22.0237 30.6901 21.6731 31.575C22.1027 32.3793 22.6079 33.3639 23.0319 34.1731C23.2178 34.537 23.0114 34.9334 22.7196 35.1691C19.5205 38.0868 20.6299 39.108 16.5436 36.8287C15.7096 37.1871 14.8273 37.4373 13.9254 37.5485C13.4274 38.2953 12.8143 39.2969 12.3082 40.0292C12.0129 40.392 11.5253 40.3246 11.1331 40.1865C6.86824 38.7741 6.8258 40.4396 6.66433 35.6567C5.95374 35.1212 5.32792 34.4809 4.77102 33.7885C0.32718 33.5223 1.63326 34.2726 0.286573 29.9684C0.101389 29.2479 -0.356148 28.343 0.513612 27.8687C1.02673 27.5353 2.23028 26.7451 2.73284 26.4168C2.84334 25.5522 3.06241 24.6989 3.40139 23.8949C1.88296 20.6836 1.22382 21.2308 4.05265 18.6451C6.31873 16.1887 5.87368 17.1763 8.86936 18.5582C9.73 18.2222 10.6239 18.0306 11.5437 17.9998C12.1161 17.1921 12.7143 16.421 13.3247 15.6472C13.7246 15.2798 14.3125 15.7396 14.6894 15.9452C14.798 14.1928 15.9751 12.8043 17.2455 11.7055C16.5749 11.2317 15.94 10.2724 15.0215 10.4938C13.9767 10.6571 12.9174 11.0679 11.8542 10.9608C10.6902 10.6489 10.0049 9.44027 9.10427 8.7148C8.16347 7.7835 8.64644 6.30366 8.58491 5.12804C8.68763 4.58257 8.31467 3.13259 9.20008 3.14094C9.54097 3.09237 10.1672 3.96078 10.4022 4.13032C10.8277 4.56299 12.2936 6.0147 12.7046 6.40773C13.3405 6.37845 13.9829 6.33592 14.618 6.31432C14.6408 5.74705 14.6407 4.99019 14.663 4.42609C13.7848 3.57928 12.5082 2.34721 11.6267 1.47985C11.0713 1.10305 11.2886 0.177421 11.976 0.157933C11.9753 0.151789 12.9358 0.120685 12.9385 0.116077C13.517 0.106477 15.1272 -0.00651526 15.6782 0.000300745C16.4439 -0.0137153 17.077 0.464173 17.5541 1.01492C18.35 1.93806 19.7308 2.78325 19.523 4.17697C19.0727 7.58881 18.5769 6.68113 20.7936 9.40648C20.9902 9.4347 21.1967 9.4995 21.3686 9.5907C21.9072 8.81531 22.4362 8.05518 23.1752 7.44424C24.685 6.14766 27.31 7.51499 26.9358 9.52091C28.2287 9.3843 29.3056 10.594 29.2334 11.8527C30.8019 11.6626 32.0304 13.1345 31.5512 14.6498C32.6151 14.7189 33.3806 15.8442 33.2138 16.8683C32.9213 18.1071 31.6898 18.8319 30.9642 19.8213C31.36 20.131 31.7696 20.4181 32.1659 20.7275C35.5749 19.2275 39.33 22.5393 38.708 26.1127ZM31.567 15.6724C31.5087 15.6675 31.4866 15.6478 31.456 15.5906C31.3407 15.5401 31.2122 15.5265 31.0863 15.5104C30.1994 16.4419 29.2928 17.3607 28.3867 18.2711C29.156 20.1995 30.4355 18.3896 31.2526 17.5387C31.9336 16.9838 32.5504 16.3351 31.567 15.6724ZM27.7988 14.1515C27.2916 14.5877 26.6345 15.2607 25.9086 14.9824C25.7778 15.4637 25.3794 15.8097 25.1278 16.2101C24.6438 17.4846 25.9483 18.8152 27.0706 17.7781C27.9612 16.8254 28.8663 15.8511 29.7544 14.8895C30.7506 14.051 30.1507 12.9137 28.9798 12.7718C28.7168 13.3194 28.2292 13.7346 27.7988 14.1515ZM25.8159 14.9528C25.8191 14.9585 25.8222 14.9641 25.8255 14.97C25.8447 14.977 25.8553 14.97 25.8661 14.963C25.8483 14.9559 25.838 14.9546 25.8159 14.9528ZM25.6879 11.4029C25.2727 11.8551 24.7459 12.1519 24.3086 12.5679C24.8543 13.1906 25.4257 13.7624 25.9702 14.3701C26.3895 13.4693 27.2224 12.8711 27.8131 12.0823C28.1303 11.426 27.6728 10.4963 26.887 10.5505C26.8613 10.5749 26.8372 10.5261 26.8111 10.51C26.7225 10.5007 26.6329 10.5204 26.5413 10.521C26.3084 10.8592 25.9839 11.1228 25.6879 11.4029ZM22.0292 10.1365C22.6512 10.7494 23.3066 11.4527 23.877 12.1013C24.1609 10.9185 26.2899 10.0735 25.5361 8.78305C24.3257 7.28008 23.2008 9.81505 22.0292 10.1365ZM17.5388 11.4312C18.332 10.7535 18.9693 9.84606 19.9978 9.49192C16.9065 7.01118 18.4593 6.78952 18.1414 3.61115C17.4716 2.8706 16.7326 2.0524 15.9424 1.45086C15.6707 1.33432 15.0855 1.44654 14.7968 1.43368L13.6191 1.48292C14.0488 2.03435 16.0896 3.63198 16.0176 4.18004C15.8074 5.00046 16.408 7.66868 15.2463 7.62337C11.1324 7.81374 12.6361 7.97032 9.74209 5.19937C9.83915 6.1803 9.23665 7.44577 10.1057 8.17124C10.5809 8.62254 11.3112 9.4731 11.8174 9.86219C14.4834 10.3867 15.4027 8.58808 17.5388 11.4312ZM13.6913 16.0373C13.6961 16.041 13.7054 16.0419 13.7151 16.0412C13.6973 16.0374 13.6813 16.0341 13.6913 16.0373ZM2.04923 32.3022L2.05364 32.3024C2.0522 32.3022 2.04712 32.302 2.04558 32.3019L2.04923 32.3022ZM2.44513 32.6219C2.44504 32.6214 2.44485 32.6209 2.44465 32.6204C2.44523 32.6226 2.44705 32.6293 2.44513 32.6219ZM7.82872 37.9739C7.8219 37.9718 7.81451 37.9697 7.81316 37.9696L7.82872 37.9739ZM19.1988 37.1588L19.2043 37.1534C19.2021 37.1551 19.1901 37.1674 19.1988 37.1588ZM22.0856 34.622C22.0846 34.6201 22.0822 34.6154 22.0813 34.6136C22.0816 34.6146 22.0851 34.621 22.0856 34.622ZM22.1369 34.2624L22.1368 34.2625C22.1378 34.2615 22.1416 34.2578 22.1426 34.2567L22.1369 34.2624ZM24.3166 26.7662L24.3129 26.7506C24.3136 26.756 24.3145 26.7613 24.3166 26.7662ZM24.2586 26.5278C24.1204 26.0336 23.9643 25.5238 23.8879 25.0187C21.473 25.5804 20.7857 25.2774 19.1842 27.4071C20.4018 33.2788 12.5103 36.9235 8.2514 33.209C3.35963 29.79 5.67428 20.7159 11.9617 21.1407C13.0321 19.6161 14.8793 18.2202 14.6687 16.2045C14.3537 16.1435 14.0669 16.1496 13.7452 16.0482C13.3195 16.983 12.6692 17.7981 12.1766 18.6983C11.8886 19.0535 11.3281 18.9168 10.9227 19.0639C7.64334 19.9549 9.8139 20.1587 6.03736 18.5139C5.2299 19.3737 4.36897 20.2369 3.53147 21.07C5.70107 25.2405 4.64334 22.8205 4.08491 26.8978C4.0732 27.2925 3.64148 27.4851 3.36587 27.6713L1.44078 28.9239C1.65668 29.6804 2.15521 31.5437 2.36392 32.3193C6.43182 32.6447 4.51057 31.8345 7.078 34.2841C7.39499 34.5977 7.97656 34.7826 7.9852 35.2934C8.04107 36.214 8.08292 37.139 8.13716 38.0596C8.91582 38.2743 10.7177 38.7809 11.5149 39.0046C12.0248 38.2347 12.545 37.4363 13.0637 36.6769C13.4043 36.2105 14.0805 36.4135 14.57 36.2334C15.2944 36.2048 16.2417 35.4638 16.8418 35.6816C17.1089 35.8188 19.1587 36.8771 19.3749 36.9866C20.0614 36.3155 21.2871 35.1003 21.9812 34.4172C21.5973 33.6175 21.0865 32.746 20.775 31.9271C20.5039 31.5187 20.8862 31.1182 21.0051 30.7268C22.1073 27.4021 20.525 29.0721 24.2914 26.6635L24.2586 26.5278ZM11.1329 21.9394C8.73774 22.7261 6.94916 25.1942 6.95396 27.723C8.42094 25.7704 9.76475 23.7396 11.3629 21.882C11.2864 21.9012 11.21 21.9198 11.1329 21.9394ZM18.4493 28.2163C16.8643 29.9654 15.3214 31.765 13.6755 33.4403C16.2942 33.0626 18.562 30.6305 18.6602 27.9809L18.4493 28.2163ZM24.0435 24.9848C24.0454 24.9904 24.0471 24.9957 24.0491 25.0014C24.0485 24.9951 24.0478 24.9898 24.0473 24.9839C24.0461 24.9842 24.0448 24.9845 24.0435 24.9848ZM24.1486 24.9612C24.1371 24.9638 24.1254 24.9666 24.1138 24.9692C24.1248 24.9807 24.1356 24.9921 24.1468 25.0039C24.1493 24.9913 24.1494 24.9766 24.1486 24.9612ZM28.198 20.812C28.3867 20.6959 28.573 20.5791 28.7464 20.4399C28.1263 20.2218 27.5911 19.6952 27.394 19.0642C25.7631 19.9481 23.5573 18.4158 24.1547 16.581C23.1602 16.7498 22.145 16.3613 21.3397 15.7876C21.6267 17.4903 21.0256 20.6155 18.8939 20.6355C18.9028 20.5973 18.9185 20.5668 18.9006 20.5197C18.9028 20.4793 18.9513 20.4645 18.9325 20.4107C18.9278 20.297 19.0472 20.2385 19.0282 20.1072C21.3369 16.284 18.6427 13.9719 20.0003 13.4397C21.0953 13.114 23.1148 17.0124 25.2897 15.0501C25.4788 15.0051 25.5602 14.7301 25.7992 14.7662C25.8104 14.8238 25.773 14.8543 25.7591 14.9036C25.7953 14.8883 25.8008 14.9149 25.8115 14.9444C25.827 14.9187 25.7845 14.8681 25.8029 14.8377C25.8302 14.8187 25.7816 14.7459 25.8041 14.7231C24.3922 13.6729 22.9611 12.5822 21.7203 11.3246C20.768 10.2961 20.4544 10.2197 19.416 11.2484C17.6633 13.1223 15.7069 14.256 16.0072 17.1637C15.5866 19.8815 9.29531 26.6381 7.02452 28.6339C7.44779 31.4402 10.1112 33.568 12.9265 33.494C22.7876 18.707 20.4143 27.6999 28.198 20.812ZM37.5287 25.3458C37.6004 23.4783 36.1648 21.7304 34.3195 21.4355C32.5662 21.036 32.145 22.0138 31.5879 21.1379C31.2335 20.8274 30.9696 20.4545 30.6345 20.1303C30.3906 20.3213 30.0939 20.4413 29.7926 20.5058C29.3663 21.1463 28.7453 21.6754 28.2892 22.2999C31.2211 24.4484 28.9339 23.3044 29.9403 26.4676C31.2408 30.6418 37.4447 29.6885 37.5287 25.3458Z" fill="white"/>
</svg>
