<svg width="37" height="40" viewBox="0 0 37 40" fill="none" xmlns="http://www.w3.org/2000/svg">
<path fill-rule="evenodd" clip-rule="evenodd" d="M16.3988 27.5244C16.4257 28.2102 16.3887 29.0445 15.5737 29.1911C14.6642 28.5694 15.0061 25.5451 15.2768 24.5104C15.3143 24.4641 15.2116 24.3912 15.2833 24.3759C15.3807 24.3101 15.2348 24.2177 15.452 24.1571L15.5117 24.2068C15.5356 24.1876 15.5739 24.2092 15.6033 24.2091C15.636 24.2089 15.6462 24.1268 15.7565 24.276C15.9991 24.537 16.2078 24.8462 16.175 25.2051C16.2627 25.9862 16.3042 26.6943 16.3988 27.5244ZM26.5143 27.5244C26.5186 28.2217 26.5542 28.9984 25.6892 29.1911C24.7891 28.6998 25.2098 25.8683 25.2587 24.8702C25.2384 24.8271 25.3006 24.8246 25.3066 24.8068C25.3311 24.7349 25.3341 24.5828 25.3924 24.5104C25.4294 24.4645 25.3276 24.3907 25.3979 24.3759C25.497 24.3119 25.3489 24.2178 25.5671 24.1571L25.6263 24.2068C25.6688 24.1855 25.6709 24.2092 25.7189 24.2091C25.7508 24.209 25.7627 24.1271 25.8716 24.276C26.1173 24.5416 26.3197 24.8409 26.291 25.2051C26.384 26.0106 26.4159 26.7328 26.5143 27.5244ZM21.4566 27.5244C21.4835 28.2094 21.4475 29.0436 20.6315 29.1911C20.5636 29.1459 20.5488 29.1671 20.5466 29.146C20.5438 29.1166 20.4771 29.1285 20.466 29.0917C20.4421 29.013 20.3236 29.0361 20.3475 28.9207C20.3587 28.8664 20.287 28.8291 20.2896 28.7566C20.2941 28.6317 20.2308 28.6122 20.229 28.5848C20.2215 28.5387 20.1996 28.4937 20.1555 28.4498C19.9986 27.1288 20.0416 25.606 20.3411 24.3759C20.4386 24.3087 20.2919 24.2193 20.5088 24.157L20.5685 24.2067C20.6063 24.1851 20.6155 24.2092 20.6611 24.209C20.6925 24.2088 20.7051 24.1272 20.8143 24.2759C21.0565 24.5381 21.2658 24.8458 21.2328 25.205C21.3021 25.9606 21.3779 26.7736 21.4566 27.5244ZM35.0365 21.3533C35.2415 20.8925 34.909 20.4123 34.4406 20.4014C25.4977 20.3267 16.4482 20.1969 7.50775 19.9318L7.84236 20.9835C8.04651 21.7068 7.91614 21.4517 7.97042 21.8835L7.96904 22.2756C8.97672 24.7921 10.0936 27.4693 11.179 29.9567C11.6796 31.1724 12.0356 32.9124 13.6665 32.9441C17.1077 32.9384 23.3973 32.956 26.8826 32.9218C27.8469 33.0357 28.728 32.418 29.1055 31.5385C31.0957 28.1453 33.03 24.7287 35.0365 21.3533ZM7.50692 19.8233C7.4969 19.8252 7.48503 19.8261 7.47408 19.8275C7.47086 19.8147 7.46681 19.8014 7.46359 19.7887C7.49644 19.791 7.52836 19.7942 7.55614 19.7992C7.53931 19.8078 7.5233 19.8155 7.50692 19.8233ZM7.48227 19.857C7.48043 19.852 7.47951 19.8483 7.47905 19.8442L7.6003 19.8529C7.56074 19.8543 7.52192 19.8552 7.48227 19.857ZM11.3935 19.5483L11.4504 19.5866C11.4235 19.5871 11.3957 19.5889 11.3688 19.5898C11.372 19.5734 11.3752 19.558 11.3935 19.5483ZM11.4769 19.5689C11.4787 19.5643 11.4819 19.5603 11.4846 19.5552C11.4874 19.5648 11.4896 19.5744 11.4919 19.5849C11.4833 19.5849 11.4755 19.5858 11.4672 19.5858C11.4723 19.5816 11.4746 19.5753 11.4769 19.5689ZM11.6734 19.144C12.0251 15.1508 11.9697 10.8679 11.9766 6.83651C12.0204 6.68756 12.1928 6.55711 12.2994 6.5698C13.5545 6.55793 15.0391 6.44128 16.2516 6.24431C16.3884 10.6184 16.102 15.0285 16.8261 19.3834C15.1364 19.4056 13.3348 19.5031 11.6339 19.5785C11.7112 19.4119 11.6671 19.2455 11.6734 19.144ZM17.4369 10.7814C17.536 8.21081 17.5273 4.44488 17.517 1.91451C17.4613 1.56933 17.7013 1.358 18.0537 1.41716C23.3529 1.45534 21.0932 0.457599 22.051 7.10855C20.1173 7.84768 18.4154 9.23504 17.4378 11.0739L17.4369 10.7814ZM23.24 8.07428C19.9338 8.78148 17.3069 11.9232 17.3853 15.3218C18.5719 14.9329 19.9611 14.9533 21.1949 14.9114C21.225 12.4425 22.0062 9.99009 23.4871 8.01549L23.24 8.07428ZM27.7175 8.30133C30.6366 9.3252 32.4801 12.0872 32.7862 15.1444C31.6224 14.7043 30.344 14.7812 29.1345 14.7236C29.0909 12.3412 28.2653 9.87177 26.7314 8.01089C27.0878 8.08743 27.375 8.17962 27.7175 8.30133ZM22.6515 19.2922C22.3915 18.3577 22.1242 17.0099 22.2253 16.0521C24.1445 16.1717 25.9347 16.1059 27.9195 16.0904C27.9656 17.2631 27.7585 17.9927 27.6054 19.2293L22.6515 19.2922ZM23.6613 10.0036C24.0336 9.37599 24.5823 8.64965 25.0914 8.11025C26.7376 9.85586 27.6935 12.3423 27.8204 14.7267C25.9823 14.7596 24.0598 14.8802 22.2292 14.8794C22.3269 13.2247 22.8053 11.4347 23.6613 10.0036ZM18.1754 19.3619C19.1211 19.3538 21.3265 19.302 22.2347 19.305C21.7743 18.3504 21.2751 17.1074 21.2227 16.0266C19.9393 16.0263 18.5765 15.9416 17.3415 15.8055C17.2443 17.0365 17.6803 18.2589 18.1754 19.3619ZM17.2085 18.8481L17.2272 18.4756C17.3268 18.6614 17.6324 19.2044 17.7665 19.3692L17.1943 19.3779L17.2085 18.8481ZM32.8372 16.1063C32.812 17.0426 32.4136 18.3897 32.1634 19.1983L28.1169 19.2251C28.6831 18.2407 29.0264 17.2375 29.1098 16.0826C30.317 16.1126 31.6499 15.9521 32.8172 15.7744C32.816 15.9279 32.8406 15.9242 32.8372 16.1063ZM36.3107 20.8172C35.9591 18.9032 34.136 19.1906 32.6567 19.1964C37.2099 12.8632 29.4581 4.32767 22.5289 6.94323C22.8288 5.61696 22.97 4.06998 22.9856 2.62217C23.1423 0.838755 22.5388 -0.0707572 20.6354 0.0458988C14.9793 -0.275549 16.3186 1.03932 16.2374 5.64529C15.1088 5.25724 13.773 5.2404 12.5532 5.22541C9.86295 5.11565 10.7392 8.07198 10.6685 9.78897C10.8768 13.0326 10.4761 16.424 11.3168 19.5922C10.5899 19.624 8.13179 19.7149 7.45172 19.7463C5.95268 15.3854 5.09119 13.5137 0.0757162 15.2402C0.0855602 15.2645 0.157228 15.2448 0.116288 15.3218C0.11362 15.3267 0.080776 15.3469 0.125856 15.3719C0.081236 15.3868 0.020332 15.4001 0 15.4316C0.163024 15.6656 0.501032 15.5004 0.553472 15.6021C1.39941 15.6802 2.90444 15.817 3.78396 15.8172C5.59829 16.5914 5.67456 20.1404 6.88243 21.6372C7.01187 21.8529 7.32035 22.6126 7.5647 22.7324C8.54036 25.2628 9.98522 32.8389 12.1835 33.8855C10.0444 35.6812 11.767 39.994 14.5263 39.0673C14.3048 38.8965 14.4248 38.8855 14.1771 38.7044C12.3828 37.7664 11.7927 35.1578 14.0021 34.3053C17.0415 33.7397 17.5246 37.5791 15.0878 38.7786C14.9649 38.8631 14.45 38.9556 14.7032 39.0299C14.6724 39.112 14.6424 39.0916 14.7022 39.1215C14.657 39.1348 14.5562 39.1568 14.5262 39.1899C17.0402 39.7813 18.7366 36.2819 17.1942 34.3095L24.4248 34.299C22.7453 36.1945 24.6279 39.9683 27.1069 39.0672C26.4759 38.3891 25.9605 38.2809 25.4305 37.394C24.5532 35.9949 25.748 33.9885 27.4306 34.2667C28.6787 34.2173 29.4956 35.8329 29.2227 36.843C28.9696 37.7107 28.2524 38.5944 27.36 38.9049C27.0833 38.999 27.2637 38.9952 27.2843 39.0299C27.2537 39.1116 27.224 39.0921 27.2829 39.1215C27.2378 39.1351 27.1371 39.1568 27.1069 39.1899C30.1099 39.8253 31.5159 35.3024 29.1334 33.6174C29.7924 33.1204 30.0715 32.5142 30.4687 31.8185C31.4913 30.034 32.5461 28.2312 33.5634 26.447C34.2979 25.1648 35.0526 23.8508 35.7777 22.5532C36.0954 21.9653 36.4142 21.6394 36.3107 20.8172Z" fill="white"/>
</svg>
