<svg width="37" height="34" viewBox="0 0 37 34" fill="none" xmlns="http://www.w3.org/2000/svg">
<path d="M15.7868 33.775C11.4809 33.775 7.16426 32.0417 4.19715 28.8856C-0.0462004 24.3728 -1.21645 17.283 1.35076 11.6463C3.91761 6.00888 10.0221 2.22974 16.2244 2.47623C16.5233 2.48772 16.7587 2.73492 16.7551 3.03458C16.7213 5.72503 16.6958 8.38961 16.6699 11.0535C16.6459 13.5556 16.6214 16.0578 16.5909 18.5815C18.8635 18.4666 21.1012 18.3724 23.3389 18.2783C25.7829 18.1755 28.2272 18.0728 30.7168 17.9427C30.8713 17.9341 31.0201 17.9916 31.13 18.0979C31.2403 18.205 31.3007 18.353 31.2974 18.5068C31.1544 24.699 27.0142 30.5714 21.2291 32.7876C19.4894 33.4545 17.639 33.775 15.7868 33.775ZM15.6445 3.56922C10.076 3.57712 4.66747 7.0257 2.35537 12.1033C-0.0311101 17.3441 1.05685 23.9344 5.00126 28.1296C8.94567 32.3248 15.4566 33.8166 20.8346 31.7571C26.0265 29.768 29.7931 24.6106 30.1667 19.0759C27.8826 19.1916 25.6341 19.2865 23.3853 19.3814C20.9586 19.4834 18.5318 19.5854 16.0606 19.7141C15.9032 19.7227 15.7591 19.6666 15.6492 19.561C15.5392 19.4554 15.4781 19.3088 15.4799 19.1557C15.5141 16.4336 15.5403 13.7382 15.5662 11.0427C15.5902 8.55848 15.6143 6.07499 15.6445 3.56922Z" fill="white"/>
<path d="M35.8765 16.3823C35.8568 16.3823 35.8367 16.3816 35.8169 16.3788C32.4988 16.018 29.2341 16.0834 26.0762 16.1445C23.998 16.1855 21.8498 16.2278 19.6735 16.1524C19.5165 16.1466 19.3695 16.0748 19.2689 15.9541C19.1683 15.8333 19.1238 15.676 19.1464 15.5207C19.8686 10.5825 19.8815 5.57241 19.1848 0.629862C19.1618 0.467458 19.2129 0.302898 19.3235 0.181454C19.4338 0.0600106 19.5919 -0.0125683 19.7572 0.00180377C23.9697 0.200138 28.2274 2.16983 31.4392 5.40498C34.8249 8.81618 36.2703 11.83 36.4281 15.8089C36.4345 15.9692 36.3706 16.1244 36.2531 16.2336C36.1503 16.3299 36.0156 16.3823 35.8765 16.3823ZM29.7857 14.9926C31.5901 14.9926 33.425 15.0429 35.2869 15.2161C34.9693 11.2903 33.2005 8.74648 30.6559 6.1825C27.8056 3.31169 24.0897 1.50153 20.3687 1.15085C20.9605 5.77362 20.9458 10.4488 20.3245 15.0673C22.2644 15.1162 24.1874 15.0774 26.0543 15.0407C27.2824 15.017 28.5267 14.9926 29.7857 14.9926Z" fill="white"/>
<path d="M16.2442 25.6593C14.4991 25.6593 12.7482 24.9996 11.4964 23.7744C9.61872 21.9362 8.98778 18.9483 9.96149 16.5079C10.9359 14.0675 13.4507 12.3364 16.0775 12.2969H16.0858C16.3869 12.2969 16.633 12.5383 16.6377 12.8409C16.642 13.1455 16.3987 13.3963 16.094 13.4006C13.9005 13.433 11.8004 14.8795 10.9869 16.9175C10.1735 18.9554 10.7006 21.4504 12.2682 22.9854C13.8358 24.5196 16.3423 24.9917 18.362 24.1366C20.3819 23.2793 21.7829 21.1486 21.7689 18.9547C21.7671 18.65 22.0125 18.4014 22.3171 18.3992H22.3207C22.624 18.3992 22.8708 18.6443 22.8726 18.9475C22.8895 21.574 21.2119 24.1258 18.7931 25.1527C17.9872 25.4947 17.1163 25.6593 16.2442 25.6593Z" fill="white"/>
<path d="M24.3583 14.0776C24.2814 14.0776 24.2031 14.0618 24.1287 14.0273C23.8517 13.9001 23.7299 13.5732 23.8571 13.2958C24.9432 10.9251 26.3671 8.72908 28.0885 6.76945C28.2901 6.54022 28.6379 6.51866 28.8675 6.71915C29.0964 6.92036 29.119 7.26888 28.9178 7.49812C27.2672 9.37726 25.9022 11.4828 24.8602 13.7557C24.7675 13.9584 24.5674 14.0776 24.3583 14.0776Z" fill="white"/>
<path d="M24.1434 10.1013C23.7417 10.1013 23.3364 9.96762 22.9958 9.71682C22.588 9.41645 22.3308 8.99391 22.2718 8.52682C22.1957 7.92535 22.4303 7.29369 22.9689 6.64911C23.5549 5.94991 24.3234 5.69983 25.0255 5.97937C25.7779 6.27975 26.2245 7.10614 26.1634 8.0856C26.1034 9.05786 25.3668 9.913 24.4503 10.0747C24.3489 10.0927 24.2462 10.1013 24.1434 10.1013ZM23.8154 7.35765C23.4816 7.75648 23.331 8.10356 23.367 8.38885C23.3875 8.54981 23.4906 8.71006 23.6505 8.82791C23.8341 8.96373 24.0619 9.02193 24.2584 8.98816C24.6727 8.91486 25.0331 8.47939 25.0618 8.01733C25.0967 7.45394 24.8635 7.10327 24.6166 7.00482C24.377 6.90852 24.0834 7.03715 23.8154 7.35765Z" fill="white"/>
<path d="M28.7938 13.656C28.3921 13.656 27.9868 13.5223 27.6462 13.2715C27.2384 12.9711 26.9815 12.5486 26.9222 12.0815C26.846 11.48 27.0807 10.8484 27.6193 10.2038C28.2053 9.5046 28.9724 9.25452 29.6763 9.53406C30.4283 9.83443 30.8749 10.6608 30.8138 11.6403C30.7538 12.6126 30.0172 13.4677 29.1007 13.6294C28.9993 13.6473 28.8966 13.656 28.7938 13.656ZM28.4658 10.9123C28.132 11.3112 27.9814 11.6582 28.0174 11.9435C28.0378 12.1045 28.141 12.2647 28.3009 12.3826C28.4845 12.5184 28.7126 12.5773 28.9088 12.5428C29.3231 12.4696 29.6834 12.0341 29.7122 11.572C29.747 11.0086 29.5139 10.658 29.267 10.5595C29.027 10.4639 28.7335 10.5918 28.4658 10.9123Z" fill="white"/>
</svg>
