<svg width="45" height="43" viewBox="0 0 45 43" fill="none" xmlns="http://www.w3.org/2000/svg">
<path fill-rule="evenodd" clip-rule="evenodd" d="M17.958 23.3937C17.9386 23.3885 17.924 23.3781 17.8904 23.3937C17.8333 23.6362 18.0224 23.7036 18.0356 23.7201C18.2177 23.9464 17.9432 23.7846 18.2216 23.9584C18.3224 24.0628 18.6209 24.4257 18.7006 24.5386C18.6185 24.5656 20.1722 25.9897 20.1911 26.0461C21.0043 27.0444 23.0266 23.871 23.6581 23.368C24.3793 22.6558 24.9457 21.8072 25.4374 20.9435C25.4099 20.7621 25.5165 20.7631 25.4778 20.6741C25.4486 20.6073 25.5042 20.6056 25.4877 20.5756C25.4615 20.5342 25.4705 20.5083 25.4714 20.472C23.6534 20.0446 21.7333 23.4989 20.6039 24.6422C19.9451 24.1032 19.2134 23.4873 18.3074 23.3005C17.9996 23.1874 18.1103 23.3074 18.0858 23.3367C18.0648 23.362 18.0079 23.3654 18.013 23.3989L17.958 23.3937ZM36.1296 23.0466C36.1239 23.0518 36.1176 23.0622 36.1123 23.0673L36.1296 23.0466ZM45 22.6529C44.898 23.1353 44.9412 23.0658 44.5474 23.3057C44.4609 23.2107 44.4514 23.2668 44.4452 23.2175C44.4381 23.1615 44.369 23.1837 44.3436 23.1243C44.2619 22.9331 44.2016 23.0902 44.1424 22.8601C44.1163 22.7586 44.032 22.7515 43.9648 22.6426C43.2895 22.0073 41.9844 22.0975 41.7978 23.14C41.7432 24.1193 42.7087 24.855 43.6054 24.2329C43.659 24.1481 43.6557 24.2972 43.8396 24.1086L44.0748 23.8807C44.1523 23.8269 44.0744 23.6735 44.1618 23.6735C44.2933 23.5938 44.1643 23.4081 44.4064 23.3058L44.4693 23.4094C44.5002 23.366 44.5369 23.4185 44.5746 23.4197C44.6073 23.4209 44.689 23.161 44.778 23.886C44.7094 26.5202 40.7888 26.0974 40.3658 23.7927C40.3373 23.7887 39.9935 23.8751 39.9853 23.8446C38.7622 23.8041 36.4377 24.8441 36.0693 23.1608C36.0809 23.1401 36.0929 23.1297 36.1013 23.0779C35.9931 23.2399 35.991 23.1602 35.9226 23.3059C34.3768 15.4846 29.6493 10.1265 21.4344 9.12204C21.4699 9.08858 21.6047 9.06705 21.6565 9.05983C21.6005 9.00443 21.6011 9.08566 21.6664 8.95624C24.6787 7.73428 29.2667 9.95479 31.8054 12.1525C32.3578 11.1488 33.4356 10.4265 34.3224 9.66595C34.3332 9.63145 34.3776 9.66083 34.3875 9.66083C32.5297 7.01997 36.7801 4.17776 37.8498 6.85312L37.7774 7.14834C37.6467 7.14834 37.6694 7.18023 37.6413 7.15869C37.5952 7.12346 37.5701 7.19152 37.5003 7.15869C37.3811 7.10266 37.3156 7.1819 37.2782 7.16392C36.315 6.79312 35.0724 7.87541 35.666 8.87344C35.9365 9.45562 37.5341 9.80645 37.7737 8.46417C37.7505 8.33831 37.8452 8.50829 37.8498 8.21046L37.8524 7.88409C37.8674 7.79 37.7048 7.7369 37.7643 7.67689C37.7984 7.51046 37.5748 7.48537 37.6778 7.24692C37.723 7.23302 37.7413 7.25706 37.7936 7.27285C37.8064 7.20866 37.8345 7.2464 37.8759 7.20552C37.8916 7.18995 37.8235 7.02655 38.108 7.21587C40.4544 8.93104 37.2181 11.8598 35.1665 10.4174C35.13 10.4505 34.9708 10.7141 34.937 10.7178C34.4063 11.3759 33.8505 12.0867 33.2839 12.7227L32.793 13.0957C35.1642 15.597 37.2085 19.3338 36.2694 22.8451C36.4362 22.8451 36.3888 22.7747 36.5775 22.7569C36.6626 22.7489 36.6113 22.7052 36.6635 22.7052C36.7146 22.7052 36.7001 22.6772 36.709 22.6793C36.7394 22.6948 36.7667 22.6482 36.795 22.6223C37.8883 22.4273 39.1581 22.5558 40.3039 22.674C40.3431 22.6502 40.3518 22.7154 40.3548 22.7154C40.6227 20.196 45.0043 19.9647 45 22.6529ZM18.8492 2.76032C19.0633 3.67692 19.8968 4.43713 20.8339 4.59937C20.6224 5.65971 20.5688 7.00491 20.7401 8.12202C20.7669 8.14794 20.8135 8.17387 20.7988 8.20492C20.7969 8.20492 20.8208 8.20805 20.8245 8.25154C20.827 8.28165 20.8991 8.29064 20.8931 8.41734C20.8889 8.50766 20.9611 8.45163 20.967 8.64534C20.9674 8.65945 21.0773 8.68099 21.0959 8.73859C21.1109 8.7849 21.1854 8.75866 21.1892 8.79556C21.2159 8.81647 21.2754 8.82264 21.2872 8.83696C22.9551 8.52031 21.958 6.14769 21.9782 4.97759C21.9997 4.96024 21.9259 4.62864 21.9248 4.58902C24.4306 4.15205 24.5899 -0.152863 21.7141 0.273655C21.3723 0.345056 21.5458 0.404956 21.545 0.429209C21.5395 0.47437 21.4999 0.495487 21.534 0.532807L21.4344 0.594904C21.6143 0.899112 21.7094 0.673935 21.8022 0.838375C21.8046 0.920751 21.9596 0.845274 22.0133 0.921274C22.0606 0.988179 22.3691 1.24587 22.3461 1.30462C23.6359 3.57708 19.4117 3.92405 20.5532 1.31497C20.5436 1.25047 20.6088 1.26719 20.6098 1.18544C20.6082 1.12262 20.8147 1.00971 20.8812 0.921274C20.9483 0.831998 21.0918 0.857505 21.1201 0.781401C21.171 0.644559 21.2672 0.686689 21.2972 0.605253C21.3242 0.531867 21.3587 0.574832 21.3685 0.543052C21.3821 0.491201 21.4078 0.480852 21.4345 0.454926C21.2898 0.0857992 20.8769 -0.0473835 20.5055 0.014608C19.2272 0.0926986 18.5742 1.64792 18.8492 2.76032ZM15.4578 17.4001C15.4146 17.5086 15.2381 17.6939 15.1528 17.8197C15.2771 17.7638 15.2283 17.7028 15.2183 17.9026C15.2794 17.8924 15.3278 17.8092 15.4021 17.773C11.5226 22.3222 14.7249 32.2903 23.1208 30.5633C34.9513 26.2041 26.6164 10.9656 15.5567 17.4985C21.1009 10.4526 32.5793 17.2861 30.1043 25.5232C25.5599 39.6991 5.03586 28.1156 15.4578 17.4001ZM32.1785 32.9048C32.0855 32.8282 32.0909 32.907 32.0575 32.8738C31.5677 32.8238 30.7906 31.8694 30.4856 31.4284C30.3552 31.291 30.5518 31.3101 29.8071 31.9827C29.75 32.0346 29.6939 32.0915 29.6373 32.1433C30.1748 32.5957 30.6362 33.0991 31.0839 33.7389C31.1215 33.7389 31.0673 33.8062 31.0755 33.8062C31.1001 33.8666 31.1585 33.9471 31.1468 34.0186C31.1396 34.0627 31.2551 34.0225 31.2065 34.0859C31.181 34.1193 31.2071 34.1495 31.2081 34.1481C31.2301 34.1481 31.2349 34.1637 31.2395 34.1792L32.1785 32.9048ZM41.1935 38.5255C41.5422 39.7102 40.2465 40.6799 39.53 41.4265C38.8217 42.2111 37.9753 43.2654 36.7625 42.9391C35.753 42.7605 34.3167 40.8513 33.5899 40.2196C32.6494 39.13 28.3404 35.5713 30.9195 34.7802C30.8134 35.0268 30.9319 34.8638 30.8571 35.0133C30.7922 35.1429 30.8788 35.0922 30.8397 35.2671C30.7857 35.5096 30.9296 35.5938 30.9383 35.6556C31.0738 36.1279 31.9973 36.7177 32.3896 37.0855C33.9144 38.2691 35.5724 40.074 36.97 41.3799C37.1641 41.5012 37.3864 41.4288 37.5348 41.2814L38.8279 40.007C39.1966 39.5991 40.1738 39.0171 39.4833 38.484C38.4842 37.4357 36.3918 35.2485 35.3787 34.2413L34.1957 33.0343C33.9741 32.8213 33.8253 32.9016 33.7445 32.8322C33.0282 32.8369 31.7823 34.6938 31.019 34.8784C31.0261 34.8186 31.1278 34.6968 31.1735 34.6297C31.0927 34.6868 31.1214 34.6287 31.107 34.5468C30.8385 34.6957 31.0551 34.4526 31.1149 34.3448L31.0264 34.4224C31.0048 34.4429 31.0219 34.5013 30.8702 34.5106C30.624 34.55 30.3038 34.6361 30.1109 34.438C30.0973 34.438 30.0837 34.438 30.09 34.4121C29.6217 34.1024 29.1429 33.7245 28.6801 33.4019L28.4642 33.1015C23.8798 36.4504 17.0813 36.0636 13.0092 32.0757C12.9052 32.6533 12.4313 33.2724 12.1972 33.8163C11.9675 34.3277 10.6904 34.0303 10.1863 34.179C8.75763 34.1852 7.17894 34.5456 5.82018 34.0442C5.78339 36.7089 5.80252 36.3685 3.24275 36.2665C3.24286 36.2666 3.01237 36.251 3.01237 36.251C2.80947 36.2658 2.8692 36.1968 2.79022 36.1941C2.64336 36.1836 1.88368 36.1027 1.73967 36.0594C1.59746 36.0171 1.25415 36.1016 1.25182 36.0335C1.2182 35.9446 0.688166 36.0523 0.600091 35.8573L0.821177 35.8107C0.766302 35.8107 0.894237 35.7419 0.900793 35.7382C0.909145 35.7071 0.86146 35.7226 0.858923 35.7019C1.94183 35.4472 3.34426 35.1179 4.47411 35.1113C4.42981 34.3163 4.47612 32.9317 4.39026 32.143C3.77966 32.1832 2.19009 32.2224 1.5594 32.2362C1.5042 33.3881 1.19568 34.7222 0.699585 35.7589C0.622823 35.6364 0.631599 35.7659 0.626736 35.6708C0.621555 35.5686 0.566257 35.6642 0.551243 35.5413C0.515717 35.2481 0.418444 35.4701 0.419712 35.0181C0.411888 34.0976 -0.714262 30.7333 0.803625 30.6873C1.98444 30.6598 3.89005 30.6485 5.07763 30.6459C6.23613 30.6464 5.81035 32.2495 5.86871 32.9667C6.23656 32.9446 6.1157 32.909 6.29471 32.8735C6.60873 32.7237 7.76639 32.7527 8.12694 32.7387C9.18743 32.7374 10.276 32.6503 11.3162 32.7698C11.5528 32.3939 12.036 31.7084 12.3678 31.4229C10.5159 29.3566 9.39054 26.6886 9.30384 23.9424C8.79506 24.1434 7.94645 23.9952 7.43862 24.0875C7.0454 24.085 6.18168 23.9389 5.77556 23.9217C5.74014 23.938 5.73983 23.8938 5.71318 23.8647C5.65535 24.577 6.1987 26.0401 5.07763 26.1131C3.77237 26.1641 2.0631 26.2552 0.768099 26.2114C-0.242275 26.1933 0.0366459 24.9494 0.0566292 24.3102C0.0959615 23.3154 0.16363 22.1404 0.713119 21.3315C0.765033 21.3632 0.79136 21.3194 0.827838 21.3212C0.88229 21.3264 0.88229 21.3264 0.906925 21.2953C1.26441 22.3535 1.36601 23.5464 1.55295 24.6677C2.31379 24.6732 3.50286 24.6299 4.26487 24.6367C4.27459 23.7771 4.34808 22.7128 4.38011 21.8444C3.26348 21.7512 2.09186 21.6695 1.00695 21.3938L1.12167 21.3522C1.09111 21.329 1.07483 21.3539 1.06975 21.3109C1.06034 21.2298 0.891277 21.2596 0.948161 21.2176C1.87723 20.8913 3.08025 20.6627 4.08459 20.6633C6.18105 20.3659 5.56526 21.3027 5.70409 22.8027C5.74321 22.8005 6.09191 22.7268 6.10333 22.7458C7.23065 22.664 8.23267 22.3631 9.33503 22.5748C9.60517 19.8984 10.9792 16.7523 13.4549 15.4208C4.34395 26.3377 19.0811 40.6611 29.3419 30.335C38.2476 19.7839 23.9346 6.56031 13.5549 15.5193C21.3952 4.63753 40.3125 17.8518 31.1931 30.4181C31.2576 30.4671 31.2592 30.4345 31.2507 30.4647C31.81 30.935 32.6911 31.2802 32.9929 31.9877C34.6508 30.9948 35.8737 33.2398 37.0195 34.1013C37.8086 35.0555 40.8708 37.3592 41.1935 38.5255ZM0.000168305 15.188C-0.00871318 15.618 0.335021 15.9703 0.768311 15.9806C1.28576 15.971 3.64506 15.9568 4.10743 15.903C6.32262 16.0086 5.69954 15.2708 5.71329 13.6132C7.4603 14.2781 9.54142 13.6847 11.3709 13.7375C11.7845 14.3723 12.2678 15.0272 12.9821 15.3641C13.2307 15.5338 13.167 15.3975 13.1974 15.3797C13.2384 15.3557 13.2815 15.3776 13.2855 15.3382C13.2865 15.3382 13.2881 15.3331 13.2897 15.3279L13.3971 15.3693C13.5615 15.1374 13.2709 15.0092 13.3495 14.9237C13.407 14.8611 13.2335 14.8067 13.2243 14.7113C13.1252 14.3314 12.295 12.3482 11.7898 12.4319C9.75743 12.2943 7.67461 12.1751 5.70515 12.6288C5.71773 12.2766 5.66888 11.325 5.65588 10.9608C5.65207 10.217 4.77132 10.4069 4.29616 10.4272C3.26887 10.3884 2.07283 10.6349 1.16459 10.9143C0.748116 11.0031 1.03232 11.014 1.05664 11.0437C1.07324 11.0639 1.05654 11.1162 1.12209 11.1162C1.07229 11.1282 1.0079 11.1337 1.00737 11.1628C1.77784 11.4151 2.68386 11.3486 3.43741 11.5565L4.38054 11.6083C4.34871 12.4785 4.27544 13.5387 4.26529 14.4005C3.50296 14.4009 2.31422 14.4351 1.55337 14.4316C1.36411 13.3091 1.26768 12.1247 0.907348 11.0644C0.882713 11.0903 0.882712 11.0903 0.82826 11.0851C0.773914 11.0825 0.822763 11.1181 0.713541 11.0954C-0.0270051 12.2267 0.101988 13.8638 0.000168305 15.188Z" fill="white"/>
</svg>
