<svg width="32" height="36" viewBox="0 0 32 36" fill="none" xmlns="http://www.w3.org/2000/svg">
<path d="M0.498077 31.2455C0.426923 31.3878 0.213462 31.6724 0.142308 31.8859C0.0711539 32.1705 0 32.384 0 32.6686C0 33.8071 0.782692 34.8744 1.85 35.159C1.99231 35.159 2.13462 35.2301 2.27692 35.2301H2.49038C2.56154 35.2301 4.55385 35.2301 4.48269 35.2301H6.97308C14.8 35.2301 16.8635 35.0878 18.0731 35.0167C18.5 35.0167 19.1404 34.8744 19.4962 34.5898C20.35 34.0205 20.6346 32.8109 20.2788 31.8859C20.0654 31.3878 19.7808 31.1744 19.5673 30.8186L18.8558 29.8224C18.5712 29.3955 18.2154 28.8974 17.8596 28.4705C21.4173 28.4705 24.975 26.9763 27.4654 24.5571C27.6077 24.4148 27.6077 24.1301 27.4654 23.9167C26.1846 22.7071 24.975 21.5686 23.6942 20.359C24.1923 19.3628 24.6192 18.3667 25.0462 17.3705C25.8288 15.2359 26.4692 13.0301 26.8962 10.6109C27.0385 9.6859 27.1808 8.7609 27.2519 7.76475C27.5365 7.8359 27.8923 7.8359 28.1769 7.8359C29.2442 7.8359 30.3115 7.33783 30.9519 6.55513C31.6635 5.77244 32.0192 4.70513 31.8769 3.78013C31.8058 2.78398 31.3077 1.85898 30.525 1.3609C31.0231 2.07244 31.3077 2.99744 31.1654 3.78013C31.0942 4.56283 30.6673 5.27436 30.0981 5.77244C28.9596 6.76859 27.1808 6.69744 26.1846 5.63013C25.1173 4.63398 25.0462 2.85513 26.1135 1.71667C26.6115 1.21859 27.3231 0.862825 28.1769 0.720517C28.9596 0.649363 29.8135 0.862824 30.5962 1.3609C30.0981 0.578209 29.1731 0.0801322 28.1769 0.00897835C27.1808 -0.0621755 26.1135 0.293594 25.4019 0.933978C24.6192 1.64552 24.1212 2.64167 24.1212 3.70898C24.1212 3.99359 24.1212 4.34936 24.1923 4.63398C23.2673 4.70513 22.2712 4.84744 21.4173 4.98975C19.1404 5.41667 17.0058 5.9859 14.6577 6.83975C13.6615 7.19552 12.7365 7.62244 11.7404 8.12052C8.25385 4.42052 8.46731 4.70513 8.11154 4.27821C7.89808 4.06475 7.61346 4.06475 7.4 4.27821C6.11923 5.55898 5.12308 7.12436 4.48269 8.83206C3.84231 10.5397 3.48654 12.3897 3.48654 14.1686C3.48654 17.0859 4.48269 20.0032 6.26154 22.4224C4.48269 24.9128 2.775 27.4032 1.13846 29.9648L0.498077 31.2455ZM14.8712 8.04936C17.2904 7.55129 19.4962 6.98206 21.6308 6.19936C22.4846 5.84359 23.4096 5.48783 24.1923 5.0609C24.3346 5.63013 24.6904 6.19936 25.0462 6.62629C24.4058 7.05321 23.7654 7.48013 23.1962 7.90706C21.7019 9.11667 20.35 10.4686 19.0692 12.034C18.5 12.7455 17.9308 13.5282 17.4327 14.4532C16.0808 12.959 14.6577 11.4647 13.3058 9.97052C12.8077 9.40129 12.3096 8.90321 11.8115 8.40513C12.8788 8.33398 13.875 8.19167 14.8712 8.04936ZM7.82692 5.55898C9.53462 7.19552 11.2423 8.83206 12.95 10.3974C14.8 12.1051 16.65 13.884 18.5712 15.5917C18.2154 15.2359 17.8596 14.809 17.5038 14.4532C18.3577 13.9551 19.1404 13.3859 19.9231 12.8167C21.5596 11.5359 22.8404 10.184 24.05 8.68975C24.5481 8.12052 24.975 7.48013 25.3308 6.83975C25.7577 7.26667 26.3269 7.55129 26.8962 7.69359C26.4692 8.54744 26.1135 9.40129 25.7577 10.2551C24.9038 12.5321 24.3346 14.7378 23.9077 17.0148C23.6942 18.0821 23.5519 19.0782 23.5519 20.1455C23.4096 20.0032 23.1962 19.7897 23.0538 19.6474C21.5596 18.2955 20.0654 16.8724 18.5712 15.5205C19.9231 17.0147 21.3462 18.509 22.6981 20.0032C23.9788 21.3551 25.2596 22.7071 26.5404 24.059C24.05 26.1224 20.8481 27.1898 17.6462 27.1186C14.3019 26.9763 11.0288 25.6244 8.68077 23.2051C6.33269 20.8571 4.90961 17.584 4.83846 14.2397C4.69615 11.1801 5.76346 8.04936 7.82692 5.55898ZM1.28077 32.3128C1.35192 32.1705 1.35192 32.0994 1.49423 31.8859L2.06346 30.8186C3.55769 28.1859 4.98077 25.4821 6.26154 22.7782C6.68846 23.3474 7.11538 23.8455 7.61346 24.3436C10.2462 26.9763 13.875 28.4705 17.5038 28.4705H17.6462C17.9308 28.9686 18.1442 29.5378 18.4288 30.0359L18.9981 31.1032C19.1404 31.459 19.425 31.8859 19.4962 32.1705C19.7096 32.8109 19.425 33.5224 18.8558 33.8782C18.5712 34.0205 18.2865 34.0917 17.9308 34.0917L16.7923 34.0205C13.5192 33.8782 10.2462 33.8782 6.97308 33.8782C6.90192 33.8782 3.05962 33.8782 3.27308 33.8782C3.20192 33.8782 2.41923 33.8782 2.49038 33.8782H2.41923C2.34808 33.8782 2.27692 33.8782 2.20577 33.8782C1.70769 33.8071 1.28077 33.2378 1.28077 32.7398C1.20962 32.5263 1.20962 32.4551 1.28077 32.3128Z" fill="white"/>
</svg>
