<svg width="22" height="22" viewBox="0 0 22 22" fill="none" xmlns="http://www.w3.org/2000/svg">
<path d="M18.4809 19.568V0H3.26134V19.568H0V21.7423H21.7423V19.568H18.4809ZM9.78402 2.17424H11.9583V4.34849H9.78402V2.17424ZM9.78402 6.52268H11.9583V8.69692H9.78402V6.52268ZM9.78402 10.8711H11.9583V13.0454H9.78402V10.8711ZM7.60978 13.0454H5.43553V10.8711H7.60978V13.0454ZM7.60978 8.69692H5.43553V6.52268H7.60978V8.69692ZM7.60978 4.34844H5.43553V2.17424H7.60978V4.34844ZM13.0454 19.568H8.69692V15.2196H13.0454V19.568ZM16.3067 13.0454H14.1325V10.8711H16.3067V13.0454ZM16.3067 8.69692H14.1325V6.52268H16.3067V8.69692ZM16.3067 4.34844H14.1325V2.17424H16.3067V4.34844Z" fill="black"/>
</svg>
