<svg width="17" height="17" viewBox="0 0 17 17" fill="none" xmlns="http://www.w3.org/2000/svg">
<path fill-rule="evenodd" clip-rule="evenodd" d="M2.84881 0.115347L5.9838 3.25133C6.12235 3.38952 6.13809 3.60919 6.0204 3.76587C5.54848 4.39536 4.7845 5.41419 4.36847 5.97478C4.09806 6.33539 4.05792 6.82158 4.26691 7.22314C4.26967 7.22825 4.27243 7.23376 4.27557 7.23887C4.60541 7.80893 5.0569 8.62268 6.22826 9.79426C7.39882 10.9651 8.21164 11.4162 8.7796 11.7497C8.78511 11.7532 8.79102 11.7564 8.79731 11.7595C9.19997 11.969 9.68764 11.9288 10.0505 11.656L12.2555 10.0022C12.4121 9.88444 12.6318 9.90019 12.7699 10.0388L15.9053 13.1744C15.9789 13.248 16.0206 13.3484 16.0206 13.4527C16.0206 13.557 15.9789 13.6574 15.9053 13.731C15.4948 14.1412 14.9233 14.7132 14.4195 15.2132C14.4191 15.2136 14.4187 15.214 14.4183 15.2144C13.7515 15.8809 12.7904 16.16 11.8709 15.9541C10.1099 15.5372 7.26776 14.4447 4.42321 11.5997C1.57866 8.75457 0.486421 5.91183 0.0664489 4.15092C-0.139402 3.23011 0.140051 2.26796 0.807205 1.60069L2.29226 0.115347C2.36586 0.0417247 2.46623 0 2.57053 0C2.67483 0 2.77521 0.0417247 2.84881 0.115347Z" fill="black"/>
</svg>
