<svg width="31" height="31" viewBox="0 0 31 31" fill="none" xmlns="http://www.w3.org/2000/svg">
<rect x="0.572165" y="0.572165" width="29.7526" height="29.7526" rx="14.8763" stroke="black" stroke-width="1.14433"/>
<g clip-path="url(#clip0_3287_13501)">
<path d="M15.4324 9.11539C17.4912 9.11539 17.7329 9.12457 18.5466 9.16128C19.2991 9.19493 19.706 9.32035 19.9783 9.42742C20.3392 9.56814 20.5962 9.73333 20.8654 10.0025C21.1346 10.2717 21.3029 10.5287 21.4405 10.8897C21.5445 11.1619 21.673 11.5688 21.7067 12.3213C21.7434 13.1351 21.7525 13.3767 21.7525 15.4355C21.7525 17.4943 21.7434 17.7359 21.7067 18.5497C21.673 19.3022 21.5476 19.7091 21.4405 19.9813C21.2998 20.3423 21.1346 20.5993 20.8654 20.8685C20.5962 21.1377 20.3392 21.3059 19.9783 21.4436C19.706 21.5476 19.2991 21.6761 18.5466 21.7097C17.7329 21.7464 17.4912 21.7556 15.4324 21.7556C13.3737 21.7556 13.132 21.7464 12.3183 21.7097C11.5657 21.6761 11.1589 21.5506 10.8866 21.4436C10.5256 21.3029 10.2687 21.1377 9.99947 20.8685C9.73027 20.5993 9.56202 20.3423 9.42436 19.9813C9.32035 19.7091 9.19187 19.3022 9.15822 18.5497C9.12151 17.7359 9.11234 17.4943 9.11234 15.4355C9.11234 13.3767 9.12151 13.1351 9.15822 12.3213C9.19187 11.5688 9.31729 11.1619 9.42436 10.8897C9.56508 10.5287 9.73027 10.2717 9.99947 10.0025C10.2687 9.73333 10.5256 9.56508 10.8866 9.42742C11.1589 9.32341 11.5657 9.19493 12.3183 9.16128C13.132 9.12151 13.3737 9.11539 15.4324 9.11539ZM15.4324 7.72656C13.34 7.72656 13.0769 7.73574 12.254 7.77245C11.4342 7.80916 10.8744 7.9407 10.3849 8.13036C9.87711 8.32615 9.44884 8.59229 9.02056 9.02056C8.59229 9.44884 8.32921 9.88017 8.13036 10.3849C7.9407 10.8744 7.80916 11.4342 7.77245 12.2571C7.73574 13.0769 7.72656 13.34 7.72656 15.4324C7.72656 17.5249 7.73574 17.7879 7.77245 18.6108C7.80916 19.4307 7.9407 19.9905 8.13036 20.483C8.32615 20.9908 8.59229 21.4191 9.02056 21.8474C9.44884 22.2757 9.88017 22.5387 10.3849 22.7376C10.8744 22.9272 11.4342 23.0588 12.2571 23.0955C13.08 23.1322 13.34 23.1414 15.4355 23.1414C17.531 23.1414 17.791 23.1322 18.6139 23.0955C19.4337 23.0588 19.9936 22.9272 20.4861 22.7376C20.9939 22.5418 21.4222 22.2757 21.8504 21.8474C22.2787 21.4191 22.5418 20.9878 22.7406 20.483C22.9303 19.9936 23.0618 19.4337 23.0985 18.6108C23.1353 17.7879 23.1444 17.5279 23.1444 15.4324C23.1444 13.337 23.1353 13.0769 23.0985 12.254C23.0618 11.4342 22.9303 10.8744 22.7406 10.3819C22.5448 9.87405 22.2787 9.44578 21.8504 9.0175C21.4222 8.58923 20.9908 8.32615 20.4861 8.1273C19.9966 7.93764 19.4368 7.8061 18.6139 7.76939C17.7879 7.73574 17.5249 7.72656 15.4324 7.72656Z" fill="black"/>
<path d="M15.4324 11.474C13.2482 11.474 11.474 13.2452 11.474 15.4325C11.474 17.6198 13.2482 19.391 15.4324 19.391C17.6166 19.391 19.3909 17.6167 19.3909 15.4325C19.3909 13.2483 17.6166 11.474 15.4324 11.474ZM15.4324 18.0021C14.013 18.0021 12.8628 16.8519 12.8628 15.4325C12.8628 14.0131 14.013 12.8629 15.4324 12.8629C16.8518 12.8629 18.0021 14.0131 18.0021 15.4325C18.0021 16.8519 16.8518 18.0021 15.4324 18.0021Z" fill="black"/>
<path d="M19.5469 12.2419C20.0572 12.2419 20.4708 11.8283 20.4708 11.3181C20.4708 10.8078 20.0572 10.3942 19.5469 10.3942C19.0367 10.3942 18.6231 10.8078 18.6231 11.3181C18.6231 11.8283 19.0367 12.2419 19.5469 12.2419Z" fill="black"/>
</g>
<defs>
<clipPath id="clip0_3287_13501">
<rect width="15.4485" height="15.4485" fill="white" transform="translate(7.72461 7.72266)"/>
</clipPath>
</defs>
</svg>
