<svg width="30" height="31" viewBox="0 0 30 31" fill="none" xmlns="http://www.w3.org/2000/svg">
<rect x="0.572165" y="0.572165" width="28.6083" height="29.7526" rx="14.3041" stroke="black" stroke-width="1.14433"/>
<path d="M21.7441 20.599V15.9888C21.7441 13.723 21.2564 11.9922 18.613 11.9922C17.3385 11.9922 16.4888 12.6845 16.1426 13.3454H16.1112V12.1967H13.6094V20.599H16.2213V16.4293C16.2213 15.3279 16.4259 14.2737 17.779 14.2737C19.1165 14.2737 19.1322 15.5167 19.1322 16.4923V20.5833H21.7441V20.599Z" fill="black"/>
<path d="M9.36133 12.1953H11.9733V20.5976H9.36133V12.1953Z" fill="black"/>
<path d="M10.6668 8.01172C9.83284 8.01172 9.15625 8.6883 9.15625 9.52224C9.15625 10.3562 9.83284 11.0485 10.6668 11.0485C11.5007 11.0485 12.1773 10.3562 12.1773 9.52224C12.1773 8.6883 11.5007 8.01172 10.6668 8.01172Z" fill="black"/>
</svg>
