<svg width="165" height="164" viewBox="0 0 165 164" fill="none" xmlns="http://www.w3.org/2000/svg">
<g filter="url(#filter0_i_3110_313)">
<path d="M159.845 71.7703L140.548 52.4733C132.612 44.5374 137.462 36.1607 146.11 35.652C160.353 34.7702 168.357 19.5768 156.725 6.92691C144.075 -4.67164 128.949 3.29813 128.067 17.508C127.525 26.1561 119.08 31.0397 111.178 23.1378L92.2882 4.24772C86.6246 -1.41591 77.4339 -1.41591 71.7703 4.24772L52.6428 23.3752C44.707 31.311 36.2963 26.3935 35.7537 17.7454C34.872 3.50161 19.6107 -4.60381 6.96083 7.02865C-4.70555 19.7125 3.39987 34.9737 17.6437 35.8555C26.2917 36.3981 31.2093 44.8426 23.3073 52.7785L4.24772 71.8042C-1.41591 77.4678 -1.41591 86.6585 4.24772 92.3221L23.1378 111.212C31.0736 119.114 26.3596 127.355 17.7115 127.898C3.46769 128.78 -4.50207 143.939 7.1304 156.589C19.7803 168.221 34.872 160.286 35.7537 146.042C36.2963 137.394 44.5713 132.646 52.5072 140.548L71.5668 159.607C77.3322 165.373 86.7602 165.373 92.5256 159.641L105.888 146.279L111.619 140.548C119.114 132.714 114.264 124.472 105.718 123.93C91.4743 123.048 83.4027 107.787 95.0352 95.137C107.685 83.5045 122.946 91.6099 123.828 105.854C124.371 114.4 132.578 119.216 140.412 111.721L145.601 106.532L159.573 92.5595C159.607 92.5256 159.607 92.5256 159.641 92.4917L159.845 92.2882C165.508 86.6246 165.508 77.4339 159.845 71.7703Z" fill="#EADDF0"/>
<path d="M85.909 80.4691C85.9431 80.6582 85.8544 80.9164 85.8363 81.0848C85.8069 81.1216 85.7357 81.2492 85.6924 81.2889C85.6531 81.2731 85.5934 81.4654 85.5233 81.4106C85.4896 81.3866 85.4194 81.4766 85.3869 81.4528C85.3164 81.4297 85.2877 81.4714 85.2441 81.495C85.2342 81.4925 85.2268 81.4823 85.2068 81.5109C85.1843 81.4995 85.157 81.5292 85.1199 81.564C85.0232 81.5658 84.9273 81.5992 84.8312 81.5521C84.0795 81.3764 83.4125 81.066 82.7512 80.6626C82.7217 80.6882 82.736 80.6117 82.7308 80.5827C82.7191 80.5721 82.705 80.5682 82.6975 80.5453C82.5999 80.5248 82.6023 80.329 82.4879 80.397C82.4708 80.3865 82.5081 80.2931 82.4574 80.2842C82.3542 80.3036 82.4099 80.025 82.4797 80.0028C82.5707 79.6311 83.0261 79.236 83.4182 79.3109C83.6992 79.3016 84.0553 79.4644 84.3556 79.4512C84.9798 79.5471 85.9461 79.5785 85.909 80.4691ZM82.6151 71.0111C82.6283 71.051 82.6326 71.1079 82.6566 71.1375C82.6109 71.1989 82.7449 71.4529 82.8097 71.373C82.8643 71.3505 82.8782 71.4445 82.9022 71.4426C82.9507 71.3173 83.0681 71.4731 83.1572 71.4279C83.177 71.4413 83.1903 71.4355 83.206 71.4366C83.2335 71.4539 83.2575 71.5271 83.2706 71.4865C84.036 71.3892 84.7488 71.215 85.4473 70.8819C85.5512 70.8587 85.6071 70.7724 85.6818 70.7102C85.6877 70.6601 85.6957 70.6184 85.7181 70.614C85.7165 70.579 85.7285 70.5823 85.7377 70.5781C85.7553 70.534 85.7608 70.4771 85.8246 70.4555C85.8644 70.4538 85.8652 70.3389 85.9063 70.3365C85.934 70.329 85.9624 70.3188 85.9535 70.2772C85.9546 70.1107 85.9759 70.0252 85.955 69.8837C85.2661 68.1605 84.0461 69.4592 83.0062 69.9947C82.6763 70.0864 82.5222 70.7314 82.6151 71.0111ZM86.9771 75.352C86.857 73.6476 85.0322 74.5011 83.9983 74.621C83.5828 74.6266 83.2172 75.1933 83.2567 75.5853C83.1892 75.6338 83.2363 75.9075 83.3303 75.8587C83.3853 75.8501 83.378 75.9495 83.3995 75.9552C83.4906 75.8529 83.5572 76.0396 83.6608 76.0258C83.6761 76.045 83.6916 76.044 83.707 76.0502C83.728 76.0765 83.7289 76.1524 83.7548 76.1189C84.5564 76.2808 85.3356 76.3528 86.1492 76.2695C86.2601 76.2823 86.347 76.2193 86.4434 76.185C86.4663 76.1398 86.4887 76.1026 86.5127 76.1061C86.523 76.0724 86.534 76.0796 86.5447 76.0786C86.5782 76.0413 86.6038 75.9905 86.6739 75.9915C86.7146 76.0031 86.7545 75.8947 86.7965 75.9063C86.826 75.908 86.8584 75.909 86.8643 75.8659C86.9206 75.7079 86.9736 75.6372 87 75.4943C86.9878 75.4486 86.9878 75.4486 86.9771 75.352ZM81.2955 90.3065C81.2212 89.7564 81.2542 89.0896 81.0569 88.5994C81.02 88.6274 81.0367 88.6803 80.9871 88.7003C80.933 88.6793 80.8963 88.5954 80.8579 88.6783C80.8366 88.5922 80.8584 88.5058 80.8004 88.4295C80.5138 88.6714 80.5627 89.0567 80.4868 89.3882C80.4862 89.4585 80.3757 89.483 80.3921 89.5602C80.4395 90.0743 80.1815 90.5316 80.0902 91.0264C78.5107 97.7957 74.124 103.536 68.6798 107.609C68.6099 107.81 68.392 107.868 68.3141 108.047C68.3082 108.133 68.2189 108.145 68.1905 108.204C68.1878 108.28 68.143 108.322 68.1041 108.377C74.6514 108.687 81.5476 96.3247 81.2955 90.3065ZM33.5766 95.6805C33.5983 95.7151 33.6242 95.7671 33.6476 95.7397C33.6493 95.6523 33.578 95.5391 33.6004 95.4621C33.7034 95.5021 33.774 95.6515 33.7311 95.4372C33.836 95.6174 33.9059 95.8312 34.0416 95.9845C26.2261 72.9445 49.6739 54.0019 70.3201 65.7261C52.4269 48.3937 21.9472 73.9123 33.5766 95.6805ZM38.6401 86.2132C39.4616 73.2977 50.6105 66.517 62.5513 68.7315C51.0404 60.4369 33.2926 76.5831 38.3031 89.4675C38.3284 89.4136 38.2936 89.3382 38.334 89.2926C38.4083 89.3144 38.4528 89.4279 38.4658 89.287C38.5159 89.4078 38.5252 89.5451 38.6117 89.6468C38.8233 88.5233 38.4584 87.369 38.6401 86.2132ZM68.1912 102.416C65.8573 103.257 64.3966 101.569 62.8395 100.117C62.5056 115.617 65.5226 114.055 49.7092 113.872C48.0919 114.047 46.4872 112.929 46.3934 111.214C46.5259 106.151 47.0207 101.111 47.2452 96.0382C49.2839 115.715 43.1595 111.936 59.6106 112.038C60.834 112.111 60.9671 111.105 60.8901 110.113C60.8867 106.36 60.8882 101.607 60.8817 97.805C60.8519 96.9869 61.9013 96.5288 62.4676 97.091L65.6871 100.059C68.0503 102.111 69.7422 98.4027 70.3833 96.5082C71.2635 94.3444 72.9648 90.4743 73.8461 88.348C74.3177 87.3822 73.5674 85.9702 72.5522 85.7985C70.7653 87.9772 69.4606 90.8696 67.8564 93.2399C67.1333 94.7742 65.2537 94.9897 64.5569 93.3316C61.4007 86.5243 61.1868 85.5724 53.3908 85.8935C47.3881 85.8245 44.3522 91.8081 41.2156 96.1026C39.5902 98.5034 37.9646 101.068 36.3954 103.516C35.9115 104.267 35.4012 105.038 34.8593 105.766C34.4892 106.509 34.3656 108.55 35.4542 108.626C37.5397 108.009 38.7241 105.644 40.1819 104.134C42.4493 101.312 44.8863 98.5457 47.3034 95.8707C46.9834 96.296 46.6487 96.6978 46.3193 97.1185C46.665 96.7249 46.3353 97.1419 46.2524 97.2956C46.3367 97.2245 46.538 96.9575 46.6487 96.8409C43.6449 100.655 41.0885 104.908 37.9021 108.565C34.5772 112.067 31.911 108.051 33.8043 104.761C39.0383 98.1281 43.1063 85.7085 52.1661 84.2796C46.9714 80.9151 50.8574 72.2934 56.7081 73.3097C62.0459 73.9544 63.9798 81.4281 59.4096 84.4459C63.3417 85.1269 64.4909 89.3308 66.1701 92.4175C67.3119 90.5627 68.4843 88.5919 69.6367 86.7339C70.2308 85.8212 70.7508 84.4776 71.9153 84.0198C71.6838 82.7703 71.8229 81.4936 71.9891 80.2418C68.3212 79.0672 62.2182 79.1352 64.4944 73.3968C65.4982 71.721 67.5361 71.6208 69.1973 71.2402C70.9043 70.8311 72.6073 70.4143 74.235 69.7486C75.7362 69.094 77.2186 68.4137 78.5197 67.3936C79.2724 66.9219 79.5041 67.9185 79.7061 68.4519C80.0242 69.3761 80.4054 70.3807 80.3162 71.3698C80.2174 71.2395 80.1918 71.0682 80.1239 70.9183C80.1284 71.092 80.0778 70.9614 79.992 70.9317C79.9583 70.9899 80.0028 71.082 79.9845 71.1491C79.5412 70.3669 79.2564 69.3751 78.7614 68.5759C76.3173 70.9583 72.936 71.9434 69.7409 72.8009C68.5842 73.1578 67.1249 73.2153 66.2029 74.015C64.6522 77.1699 67.9875 77.2307 70.1289 77.7541C73.0405 78.3706 75.966 79.3143 78.4274 81.0724C79.6797 77.9928 79.5726 74.5987 80.1457 71.4084C81.7989 74.6774 81.1313 79.7624 79.7122 83.0685C79.1079 84.2437 78.0989 83.3127 77.4188 82.7695C76.2272 81.9224 74.8679 81.252 73.4927 80.7297C73.5488 81.8826 73.977 83.0348 73.6549 84.1714C73.6716 84.1801 73.6881 84.1889 73.7038 84.1989L73.6548 84.1716C77.9179 86.3838 74.6773 90.9101 73.503 94.1064C72.0734 96.9174 71.4878 101.231 68.1912 102.416ZM54.4146 84.1304C55.5388 84.1221 56.6757 84.1139 57.809 84.2103C62.419 81.4427 60.3493 73.9707 54.7855 75.3383C50.6685 76.679 50.8259 82.1849 54.4146 84.1304ZM66.1241 93.1059C66.1355 93.1677 66.1412 93.1987 66.1428 93.2078C66.1407 93.1963 66.1328 93.1534 66.1222 93.0955C66.1227 93.0983 66.1235 93.1033 66.1241 93.1059ZM73.7036 84.1991C73.7035 84.1991 73.7035 84.1991 73.7036 84.1991V84.1991Z" fill="#2C2C2C"/>
<path d="M85.909 80.4691C85.9431 80.6582 85.8544 80.9164 85.8363 81.0848C85.8069 81.1216 85.7357 81.2492 85.6924 81.2889C85.6531 81.2731 85.5934 81.4654 85.5233 81.4106C85.4896 81.3866 85.4194 81.4766 85.3869 81.4528C85.3164 81.4297 85.2877 81.4714 85.2441 81.495C85.2342 81.4925 85.2268 81.4823 85.2068 81.5109C85.1843 81.4995 85.157 81.5292 85.1199 81.564C85.0232 81.5658 84.9273 81.5992 84.8312 81.5521C84.0795 81.3764 83.4125 81.066 82.7512 80.6626C82.7217 80.6882 82.736 80.6117 82.7308 80.5827C82.7191 80.5721 82.705 80.5682 82.6975 80.5453C82.5999 80.5248 82.6023 80.329 82.4879 80.397C82.4708 80.3865 82.5081 80.2931 82.4574 80.2842C82.3542 80.3036 82.4099 80.025 82.4797 80.0028C82.5707 79.6311 83.0261 79.236 83.4182 79.3109C83.6992 79.3016 84.0553 79.4644 84.3556 79.4512C84.9798 79.5471 85.9461 79.5785 85.909 80.4691ZM82.6151 71.0111C82.6283 71.051 82.6326 71.1079 82.6566 71.1375C82.6109 71.1989 82.7449 71.4529 82.8097 71.373C82.8643 71.3505 82.8782 71.4445 82.9022 71.4426C82.9507 71.3173 83.0681 71.4731 83.1572 71.4279C83.177 71.4413 83.1903 71.4355 83.206 71.4366C83.2335 71.4539 83.2575 71.5271 83.2706 71.4865C84.036 71.3892 84.7488 71.215 85.4473 70.8819C85.5512 70.8587 85.6071 70.7724 85.6818 70.7102C85.6877 70.6601 85.6957 70.6184 85.7181 70.614C85.7165 70.579 85.7285 70.5823 85.7377 70.5781C85.7553 70.534 85.7608 70.4771 85.8246 70.4555C85.8644 70.4538 85.8652 70.3389 85.9063 70.3365C85.934 70.329 85.9624 70.3188 85.9535 70.2772C85.9546 70.1107 85.9759 70.0252 85.955 69.8837C85.2661 68.1605 84.0461 69.4592 83.0062 69.9947C82.6763 70.0864 82.5222 70.7314 82.6151 71.0111ZM86.9771 75.352C86.857 73.6476 85.0322 74.5011 83.9983 74.621C83.5828 74.6266 83.2172 75.1933 83.2567 75.5853C83.1892 75.6338 83.2363 75.9075 83.3303 75.8587C83.3853 75.8501 83.378 75.9495 83.3995 75.9552C83.4906 75.8529 83.5572 76.0396 83.6608 76.0258C83.6761 76.045 83.6916 76.044 83.707 76.0502C83.728 76.0765 83.7289 76.1524 83.7548 76.1189C84.5564 76.2808 85.3356 76.3528 86.1492 76.2695C86.2601 76.2823 86.347 76.2193 86.4434 76.185C86.4663 76.1398 86.4887 76.1026 86.5127 76.1061C86.523 76.0724 86.534 76.0796 86.5447 76.0786C86.5782 76.0413 86.6038 75.9905 86.6739 75.9915C86.7146 76.0031 86.7545 75.8947 86.7965 75.9063C86.826 75.908 86.8584 75.909 86.8643 75.8659C86.9206 75.7079 86.9736 75.6372 87 75.4943C86.9878 75.4486 86.9878 75.4486 86.9771 75.352ZM81.2955 90.3065C81.2212 89.7564 81.2542 89.0896 81.0569 88.5994C81.02 88.6274 81.0367 88.6803 80.9871 88.7003C80.933 88.6793 80.8963 88.5954 80.8579 88.6783C80.8366 88.5922 80.8584 88.5058 80.8004 88.4295C80.5138 88.6714 80.5627 89.0567 80.4868 89.3882C80.4862 89.4585 80.3757 89.483 80.3921 89.5602C80.4395 90.0743 80.1815 90.5316 80.0902 91.0264C78.5107 97.7957 74.124 103.536 68.6798 107.609C68.6099 107.81 68.392 107.868 68.3141 108.047C68.3082 108.133 68.2189 108.145 68.1905 108.204C68.1878 108.28 68.143 108.322 68.1041 108.377C74.6514 108.687 81.5476 96.3247 81.2955 90.3065ZM33.5766 95.6805C33.5983 95.7151 33.6242 95.7671 33.6476 95.7397C33.6493 95.6523 33.578 95.5391 33.6004 95.4621C33.7034 95.5021 33.774 95.6515 33.7311 95.4372C33.836 95.6174 33.9059 95.8312 34.0416 95.9845C26.2261 72.9445 49.6739 54.0019 70.3201 65.7261C52.4269 48.3937 21.9472 73.9123 33.5766 95.6805ZM38.6401 86.2132C39.4616 73.2977 50.6105 66.517 62.5513 68.7315C51.0404 60.4369 33.2926 76.5831 38.3031 89.4675C38.3284 89.4136 38.2936 89.3382 38.334 89.2926C38.4083 89.3144 38.4528 89.4279 38.4658 89.287C38.5159 89.4078 38.5252 89.5451 38.6117 89.6468C38.8233 88.5233 38.4584 87.369 38.6401 86.2132ZM68.1912 102.416C65.8573 103.257 64.3966 101.569 62.8395 100.117C62.5056 115.617 65.5226 114.055 49.7092 113.872C48.0919 114.047 46.4872 112.929 46.3934 111.214C46.5259 106.151 47.0207 101.111 47.2452 96.0382C49.2839 115.715 43.1595 111.936 59.6106 112.038C60.834 112.111 60.9671 111.105 60.8901 110.113C60.8867 106.36 60.8882 101.607 60.8817 97.805C60.8519 96.9869 61.9013 96.5288 62.4676 97.091L65.6871 100.059C68.0503 102.111 69.7422 98.4027 70.3833 96.5082C71.2635 94.3444 72.9648 90.4743 73.8461 88.348C74.3177 87.3822 73.5674 85.9702 72.5522 85.7985C70.7653 87.9772 69.4606 90.8696 67.8564 93.2399C67.1333 94.7742 65.2537 94.9897 64.5569 93.3316C61.4007 86.5243 61.1868 85.5724 53.3908 85.8935C47.3881 85.8245 44.3522 91.8081 41.2156 96.1026C39.5902 98.5034 37.9646 101.068 36.3954 103.516C35.9115 104.267 35.4012 105.038 34.8593 105.766C34.4892 106.509 34.3656 108.55 35.4542 108.626C37.5397 108.009 38.7241 105.644 40.1819 104.134C42.4493 101.312 44.8863 98.5457 47.3034 95.8707C46.9834 96.296 46.6487 96.6978 46.3193 97.1185C46.665 96.7249 46.3353 97.1419 46.2524 97.2956C46.3367 97.2245 46.538 96.9575 46.6487 96.8409C43.6449 100.655 41.0885 104.908 37.9021 108.565C34.5772 112.067 31.911 108.051 33.8043 104.761C39.0383 98.1281 43.1063 85.7085 52.1661 84.2796C46.9714 80.9151 50.8574 72.2934 56.7081 73.3097C62.0459 73.9544 63.9798 81.4281 59.4096 84.4459C63.3417 85.1269 64.4909 89.3308 66.1701 92.4175C67.3119 90.5627 68.4843 88.5919 69.6367 86.7339C70.2308 85.8212 70.7508 84.4776 71.9153 84.0198C71.6838 82.7703 71.8229 81.4936 71.9891 80.2418C68.3212 79.0672 62.2182 79.1352 64.4944 73.3968C65.4982 71.721 67.5361 71.6208 69.1973 71.2402C70.9043 70.8311 72.6073 70.4143 74.235 69.7486C75.7362 69.094 77.2186 68.4137 78.5197 67.3936C79.2724 66.9219 79.5041 67.9185 79.7061 68.4519C80.0242 69.3761 80.4054 70.3807 80.3162 71.3698C80.2174 71.2395 80.1918 71.0682 80.1239 70.9183C80.1284 71.092 80.0778 70.9614 79.992 70.9317C79.9583 70.9899 80.0028 71.082 79.9845 71.1491C79.5412 70.3669 79.2564 69.3751 78.7614 68.5759C76.3173 70.9583 72.936 71.9434 69.7409 72.8009C68.5842 73.1578 67.1249 73.2153 66.2029 74.015C64.6522 77.1699 67.9875 77.2307 70.1289 77.7541C73.0405 78.3706 75.966 79.3143 78.4274 81.0724C79.6797 77.9928 79.5726 74.5987 80.1457 71.4084C81.7989 74.6774 81.1313 79.7624 79.7122 83.0685C79.1079 84.2437 78.0989 83.3127 77.4188 82.7695C76.2272 81.9224 74.8679 81.252 73.4927 80.7297C73.5488 81.8826 73.977 83.0348 73.6549 84.1714C73.6716 84.1801 73.6881 84.1889 73.7038 84.1989L73.6548 84.1716C77.9179 86.3838 74.6773 90.9101 73.503 94.1064C72.0734 96.9174 71.4878 101.231 68.1912 102.416ZM54.4146 84.1304C55.5388 84.1221 56.6757 84.1139 57.809 84.2103C62.419 81.4427 60.3493 73.9707 54.7855 75.3383C50.6685 76.679 50.8259 82.1849 54.4146 84.1304ZM66.1241 93.1059C66.1355 93.1677 66.1412 93.1987 66.1428 93.2078C66.1407 93.1963 66.1328 93.1534 66.1222 93.0955C66.1227 93.0983 66.1235 93.1033 66.1241 93.1059ZM73.7036 84.1991C73.7035 84.1991 73.7035 84.1991 73.7036 84.1991V84.1991Z" fill="#2C2C2C"/>
</g>
<defs>
<filter id="filter0_i_3110_313" x="0" y="0" width="164.092" height="167.934" filterUnits="userSpaceOnUse" color-interpolation-filters="sRGB">
<feFlood flood-opacity="0" result="BackgroundImageFix"/>
<feBlend mode="normal" in="SourceGraphic" in2="BackgroundImageFix" result="shape"/>
<feColorMatrix in="SourceAlpha" type="matrix" values="0 0 0 0 0 0 0 0 0 0 0 0 0 0 0 0 0 0 127 0" result="hardAlpha"/>
<feOffset dy="4"/>
<feGaussianBlur stdDeviation="4.6"/>
<feComposite in2="hardAlpha" operator="arithmetic" k2="-1" k3="1"/>
<feColorMatrix type="matrix" values="0 0 0 0 0 0 0 0 0 0 0 0 0 0 0 0 0 0 0.25 0"/>
<feBlend mode="normal" in2="shape" result="effect1_innerShadow_3110_313"/>
</filter>
</defs>
</svg>
