<svg width="165" height="164" viewBox="0 0 165 164" fill="none" xmlns="http://www.w3.org/2000/svg">
<g filter="url(#filter0_i_3110_193)">
<path d="M159.845 71.7703L140.548 52.4733C132.612 44.5374 137.462 36.1607 146.11 35.652C160.353 34.7702 168.357 19.5768 156.725 6.92691C144.075 -4.67164 128.949 3.29813 128.067 17.5081C127.525 26.1561 119.08 31.0397 111.178 23.1378L92.2882 4.24772C86.6246 -1.41591 77.4339 -1.41591 71.7703 4.24772L52.6428 23.3752C44.707 31.311 36.2963 26.3935 35.7537 17.7454C34.872 3.50161 19.6107 -4.60381 6.96083 7.02866C-4.70555 19.7125 3.39987 34.9737 17.6437 35.8555C26.2917 36.3981 31.2093 44.8427 23.3073 52.7785L4.24772 71.8042C-1.41591 77.4678 -1.41591 86.6585 4.24772 92.3221L23.1378 111.212C31.0736 119.114 26.3596 127.355 17.7115 127.898C3.4677 128.78 -4.50207 143.939 7.1304 156.589C19.7803 168.221 34.872 160.286 35.7537 146.042C36.2963 137.394 44.5713 132.646 52.5072 140.548L71.5668 159.607C77.3322 165.373 86.7602 165.373 92.5256 159.641L105.888 146.279L111.619 140.548C119.114 132.714 114.264 124.472 105.718 123.93C91.4743 123.048 83.4027 107.787 95.0352 95.137C107.685 83.5045 122.946 91.6099 123.828 105.854C124.371 114.4 132.578 119.216 140.412 111.721L145.601 106.532L159.573 92.5595C159.607 92.5256 159.607 92.5256 159.641 92.4917L159.845 92.2882C165.508 86.6246 165.508 77.4339 159.845 71.7703Z" fill="#D8EEF1"/>
<path d="M75.0885 71.2033C74.3674 69.5489 72.713 68.3611 70.804 68.149C58.6717 68.1066 52.351 68.1066 43.6123 68.149C43.1032 68.149 42.679 68.149 42.0851 68.1914C40.9398 68.3187 39.7944 68.8277 38.9884 69.6762C38.14 70.5246 37.5885 71.6275 37.4613 72.8153C37.3764 73.6213 37.5461 89.0625 37.5461 91.5653C37.5885 92.7531 38.0127 93.8984 38.7763 94.7469C39.5399 95.6377 40.558 96.2316 41.6609 96.4437C41.9579 96.4861 42.2124 96.5285 42.5093 96.5285C43.485 96.571 61.9381 96.274 61.9805 96.274C64.5682 96.2316 66.6468 96.1892 68.0891 96.1043C69.5314 96.0619 70.3374 95.9771 70.3374 95.9346C70.3374 95.8922 69.5314 95.8074 68.0891 95.765C66.6468 95.7225 64.5682 95.6377 61.9805 95.5953C33.0071 95.1286 45.903 95.5953 42.5518 95.3408C42.3396 95.3408 42.1275 95.2983 41.9154 95.2559C41.067 95.0862 40.3035 94.6196 39.752 93.9409C39.2005 93.2621 38.8611 92.4137 38.8611 91.5653C38.9884 72.3487 38.946 73.4516 39.0308 73.0274C39.1157 72.179 39.5399 71.4154 40.1338 70.8639C40.7277 70.27 41.4912 69.9307 42.2972 69.8458C42.6366 69.8034 43.1881 69.8458 43.6547 69.8458C43.7395 69.8458 58.6717 69.8883 70.6768 69.8883C71.9918 70.0155 73.0947 70.8639 73.6038 71.9245C73.7735 72.2638 73.9007 72.6456 73.9432 73.0274C73.9432 73.0698 74.2401 91.7774 74.0704 92.4137C73.7311 93.9833 72.6281 94.959 71.101 95.5104C70.7616 95.6377 70.5495 95.6801 70.4647 95.7225C70.3798 95.765 70.3374 95.8498 70.3374 95.8922C70.3374 95.9346 70.3374 96.0195 70.4647 96.0619C70.5919 96.1043 70.804 96.1892 71.2282 96.1467C73.0523 96.0195 74.7067 94.662 75.2582 92.6682C75.5976 91.4805 75.64 73.2395 75.5976 72.7729C75.5127 72.3062 75.3431 71.7548 75.0885 71.2033Z" fill="#2C2C2C"/>
<path d="M75.0885 71.2033C74.3674 69.5489 72.713 68.3611 70.804 68.149C58.6717 68.1066 52.351 68.1066 43.6123 68.149C43.1032 68.149 42.679 68.149 42.0851 68.1914C40.9398 68.3187 39.7944 68.8277 38.9884 69.6762C38.14 70.5246 37.5885 71.6275 37.4613 72.8153C37.3764 73.6213 37.5461 89.0625 37.5461 91.5653C37.5885 92.7531 38.0127 93.8984 38.7763 94.7469C39.5399 95.6377 40.558 96.2316 41.6609 96.4437C41.9579 96.4861 42.2124 96.5285 42.5093 96.5285C43.485 96.571 61.9381 96.274 61.9805 96.274C64.5682 96.2316 66.6468 96.1892 68.0891 96.1043C69.5314 96.0619 70.3374 95.9771 70.3374 95.9346C70.3374 95.8922 69.5314 95.8074 68.0891 95.765C66.6468 95.7225 64.5682 95.6377 61.9805 95.5953C33.0071 95.1286 45.903 95.5953 42.5518 95.3408C42.3396 95.3408 42.1275 95.2983 41.9154 95.2559C41.067 95.0862 40.3035 94.6196 39.752 93.9409C39.2005 93.2621 38.8611 92.4137 38.8611 91.5653C38.9884 72.3487 38.946 73.4516 39.0308 73.0274C39.1157 72.179 39.5399 71.4154 40.1338 70.8639C40.7277 70.27 41.4912 69.9307 42.2972 69.8458C42.6366 69.8034 43.1881 69.8458 43.6547 69.8458C43.7395 69.8458 58.6717 69.8883 70.6768 69.8883C71.9918 70.0155 73.0947 70.8639 73.6038 71.9245C73.7735 72.2638 73.9007 72.6456 73.9432 73.0274C73.9432 73.0698 74.2401 91.7774 74.0704 92.4137C73.7311 93.9833 72.6281 94.959 71.101 95.5104C70.7616 95.6377 70.5495 95.6801 70.4647 95.7225C70.3798 95.765 70.3374 95.8498 70.3374 95.8922C70.3374 95.9346 70.3374 96.0195 70.4647 96.0619C70.5919 96.1043 70.804 96.1892 71.2282 96.1467C73.0523 96.0195 74.7067 94.662 75.2582 92.6682C75.5976 91.4805 75.64 73.2395 75.5976 72.7729C75.5127 72.3062 75.3431 71.7548 75.0885 71.2033Z" fill="#2C2C2C"/>
<path d="M29.019 96.9123C29.019 97.2517 29.019 97.7183 29.1038 98.1001C29.2311 98.9485 29.528 99.7545 30.0371 100.476C30.5461 101.197 31.1824 101.748 31.946 102.173C33.9398 103.275 34.7458 102.851 52.1808 102.766C52.0959 102.936 52.0111 103.106 51.9262 103.233C50.8233 105.354 49.7203 107.475 48.7447 109.342C46.8357 113.075 45.5207 115.874 45.6904 115.959C45.8601 116.044 47.5145 113.456 49.6779 109.851C50.7384 108.069 51.9687 105.99 53.1564 103.912C53.3685 103.53 53.6231 103.106 53.8352 102.724H57.5258C63.8041 116.044 64.3131 116.171 64.7373 115.959C65.1615 115.747 65.3736 115.323 59.4347 102.724C74.6638 102.639 72.4155 102.639 77.506 102.639H78.0575C81.4087 102.639 83.6146 100.136 83.6146 97.3365C83.5722 91.3976 83.4449 76.8897 83.2752 70.9508C83.2328 69.8903 83.2328 69.0419 83.1904 68.4904C83.148 67.9389 83.148 67.642 83.1055 67.642C83.0631 67.642 83.0631 67.9389 83.0207 68.4904C82.9783 69.0419 82.9783 69.8903 82.9359 70.9508C82.7662 77.017 82.6389 91.1855 82.5965 97.2941C82.5541 99.5849 80.9845 101.451 77.5484 101.451C31.6915 101.197 34.1095 101.536 32.7096 100.773C32.1581 100.476 31.6915 100.051 31.3521 99.5424C31.0128 99.0334 30.8007 98.4819 30.7158 97.888C30.631 97.2093 30.7158 95.9367 30.7158 68.8298C30.7158 68.5752 30.7158 68.3631 30.7158 68.1086C30.7158 65.2664 32.4126 63.8241 34.7034 63.7393H35.3397C45.7328 63.7393 66.6887 63.6968 77.0818 63.4847C79.4149 63.4423 81.4935 63.6968 82.5965 66.539C82.7662 67.0481 82.851 67.345 82.8934 67.4723C82.9783 67.642 83.0207 67.642 83.0631 67.642C83.1055 67.642 83.1904 67.642 83.2328 67.4723C83.2752 67.3026 83.3176 66.9632 83.2328 66.3693C82.851 64.1635 80.9845 62.3394 77.8454 62.2545C77.5908 62.2545 77.3363 62.2545 77.0818 62.2545C66.7311 62.0424 45.7752 62 35.3397 62C35.1276 62 34.9155 62 34.7034 62C31.4794 62.0848 29.019 64.2483 28.9766 68.1086V68.8298C28.9766 78.2472 29.019 89.2342 29.019 96.9123Z" fill="#2C2C2C"/>
<path d="M29.019 96.9123C29.019 97.2517 29.019 97.7183 29.1038 98.1001C29.2311 98.9485 29.528 99.7545 30.0371 100.476C30.5461 101.197 31.1824 101.748 31.946 102.173C33.9398 103.275 34.7458 102.851 52.1808 102.766C52.0959 102.936 52.0111 103.106 51.9262 103.233C50.8233 105.354 49.7203 107.475 48.7447 109.342C46.8357 113.075 45.5207 115.874 45.6904 115.959C45.8601 116.044 47.5145 113.456 49.6779 109.851C50.7384 108.069 51.9687 105.99 53.1564 103.912C53.3685 103.53 53.6231 103.106 53.8352 102.724H57.5258C63.8041 116.044 64.3131 116.171 64.7373 115.959C65.1615 115.747 65.3736 115.323 59.4347 102.724C74.6638 102.639 72.4155 102.639 77.506 102.639H78.0575C81.4087 102.639 83.6146 100.136 83.6146 97.3365C83.5722 91.3976 83.4449 76.8897 83.2752 70.9508C83.2328 69.8903 83.2328 69.0419 83.1904 68.4904C83.148 67.9389 83.148 67.642 83.1055 67.642C83.0631 67.642 83.0631 67.9389 83.0207 68.4904C82.9783 69.0419 82.9783 69.8903 82.9359 70.9508C82.7662 77.017 82.6389 91.1855 82.5965 97.2941C82.5541 99.5849 80.9845 101.451 77.5484 101.451C31.6915 101.197 34.1095 101.536 32.7096 100.773C32.1581 100.476 31.6915 100.051 31.3521 99.5424C31.0128 99.0334 30.8007 98.4819 30.7158 97.888C30.631 97.2093 30.7158 95.9367 30.7158 68.8298C30.7158 68.5752 30.7158 68.3631 30.7158 68.1086C30.7158 65.2664 32.4126 63.8241 34.7034 63.7393H35.3397C45.7328 63.7393 66.6887 63.6968 77.0818 63.4847C79.4149 63.4423 81.4935 63.6968 82.5965 66.539C82.7662 67.0481 82.851 67.345 82.8934 67.4723C82.9783 67.642 83.0207 67.642 83.0631 67.642C83.1055 67.642 83.1904 67.642 83.2328 67.4723C83.2752 67.3026 83.3176 66.9632 83.2328 66.3693C82.851 64.1635 80.9845 62.3394 77.8454 62.2545C77.5908 62.2545 77.3363 62.2545 77.0818 62.2545C66.7311 62.0424 45.7752 62 35.3397 62C35.1276 62 34.9155 62 34.7034 62C31.4794 62.0848 29.019 64.2483 28.9766 68.1086V68.8298C28.9766 78.2472 29.019 89.2342 29.019 96.9123Z" fill="#2C2C2C"/>
<path d="M67.197 90.4649C67.3242 90.3376 67.4939 89.9983 67.706 89.1499C68.2999 86.5622 68.6393 82.7867 68.2151 79.3931C68.1302 79.0113 68.0878 78.5022 67.6636 77.9508C67.4515 77.6962 67.1121 77.4417 66.8152 77.3144C66.5182 77.1872 66.2637 77.1448 66.0092 77.1023C65.5001 77.0175 65.0335 77.0175 64.482 77.0599C64.2275 77.1023 63.9306 77.1023 63.6336 77.2296C63.3367 77.3144 62.9973 77.4417 62.7003 77.6962C62.4034 77.9508 62.2761 78.2477 62.1489 78.5022C62.064 78.7568 62.0216 79.0113 61.9792 79.2234C61.9368 79.69 61.9368 80.1142 61.9368 80.496C61.8944 82.7443 61.9368 84.9926 62.1489 87.2833C62.2761 88.4711 62.4034 89.4892 62.5307 90.2528C61.7247 90.2528 60.7914 90.2528 59.7733 90.2528C59.8157 90.1255 59.8157 89.9559 59.8582 89.7862C59.9854 88.8953 60.1127 87.5803 60.2399 85.5865C60.3672 83.6351 60.5369 81.0051 60.6641 77.5265C60.6641 77.0599 60.7066 76.5509 60.7066 75.9994V75.7873C60.7066 75.7025 60.7066 75.6176 60.7066 75.5328C60.7066 75.3631 60.6641 75.0661 60.5369 74.8116C60.4096 74.5571 60.2399 74.345 59.9854 74.1753C59.7733 74.0056 59.4339 73.9208 59.2643 73.8784C59.0522 73.8359 58.84 73.8359 58.6704 73.8359C58.5007 73.8359 58.3734 73.8359 58.2037 73.8359C57.1856 73.8359 56.1675 73.9208 55.1919 74.1753C54.8525 74.2601 54.5131 74.3874 54.1313 74.5571C53.9617 74.6419 53.7496 74.7692 53.5374 74.9389C53.3253 75.1086 53.1557 75.3631 53.0708 75.5752C52.8587 76.0418 52.8587 76.466 52.8163 76.8478C52.8163 77.4417 53.2829 88.0893 53.3253 88.1318C53.3678 89.1074 53.4526 89.871 53.495 90.3376C52.689 90.3801 51.883 90.3801 51.077 90.4225C51.1195 90.2528 51.1619 90.0831 51.1619 89.871C51.374 88.0893 51.2467 85.3744 51.077 83.4655C51.0346 83.2109 51.0346 82.9564 50.9922 82.7019L50.9498 82.4898C50.9498 82.4474 50.9498 82.3625 50.9074 82.1928C50.8649 81.9383 50.7377 81.6838 50.568 81.4293C50.3983 81.1747 50.1014 81.0051 49.8044 80.9202C49.6347 80.8778 49.465 80.8354 49.3378 80.8354C49.2105 80.8354 49.1257 80.8354 48.9984 80.8354C48.6591 80.8354 48.2773 80.8354 47.8955 80.8354C47.1319 80.8778 46.3259 80.9202 45.4775 80.9626C45.0533 81.0051 44.5867 81.0475 44.1624 81.0899C43.7382 81.1323 43.3565 81.1747 43.1019 81.3868C42.9747 81.4717 42.8474 81.6414 42.805 81.8111C42.7201 81.9807 42.7626 82.1504 42.7626 82.3201L42.805 82.8716C42.805 82.914 43.6958 90.8891 43.9928 90.8891C44.5018 90.8891 44.2049 82.7867 44.2049 82.7019C44.2049 82.5746 44.2897 82.617 44.3321 82.617C44.7563 82.617 45.1381 82.5746 45.5623 82.5746C46.4107 82.5746 47.1743 82.5322 47.9379 82.5322H48.9984H49.1681C49.1681 82.617 49.2105 82.7443 49.2105 82.8292C49.5923 86.2228 49.6772 88.5984 49.8468 89.8286C49.8893 90.0831 49.9317 90.2528 49.9741 90.4225C46.3683 90.5922 43.3565 90.8043 43.3565 91.0588C43.3565 91.5254 54.2162 91.9072 59.2643 91.9072C68.4696 91.9072 68.6817 91.5254 68.6817 91.0588C68.7241 90.8467 68.6817 90.6346 67.197 90.4649ZM63.0821 87.2409C63.1246 84.526 63.3367 80.2839 63.5063 79.4779C63.5488 79.181 63.676 78.884 63.7184 78.9264C63.8457 78.8416 64.2275 78.7143 64.5669 78.7143C64.9487 78.7143 65.3729 78.7143 65.7122 78.7992C65.8819 78.8416 66.0516 78.884 66.1364 78.9264C66.2213 78.9689 66.2213 78.9689 66.2637 79.0113C66.3485 79.0961 66.4334 79.3931 66.4758 79.69C66.9848 83.4655 66.5182 86.6894 66.4758 89.0226C66.4758 89.9134 66.5182 90.2528 66.6455 90.4225C65.7971 90.3376 64.6517 90.2952 63.0397 90.2952C63.0397 89.4892 63.0397 88.4711 63.0821 87.2409ZM53.9617 88.1742C54.5131 80.8354 54.0041 76.9751 54.4283 76.2539C54.4707 76.1691 54.5131 76.1267 54.5555 76.1267C54.598 76.0842 54.6828 76.0418 54.7677 75.9994C54.9798 75.9146 55.2767 75.8297 55.5736 75.7449C56.4221 75.5328 57.3129 75.5328 58.1613 75.5328C58.4583 75.5328 58.7552 75.5328 58.8825 75.5752C58.9673 75.6176 58.9249 75.5752 58.9673 75.6176C58.9673 75.5752 59.0097 75.7449 58.9673 76.0418C58.9673 76.5509 58.9249 77.0599 58.9249 77.5265C58.7976 80.9626 58.6704 83.5503 58.6279 85.5441C58.5855 87.4954 58.5855 88.8529 58.6279 89.7437C58.6279 89.9559 58.6279 90.1255 58.6704 90.2952C57.2705 90.2952 55.5736 90.3376 53.8344 90.3801C53.792 89.9134 53.8768 89.1499 53.9617 88.1742Z" fill="#2C2C2C"/>
<path d="M67.197 90.4649C67.3242 90.3376 67.4939 89.9983 67.706 89.1499C68.2999 86.5622 68.6393 82.7867 68.2151 79.3931C68.1302 79.0113 68.0878 78.5022 67.6636 77.9508C67.4515 77.6962 67.1121 77.4417 66.8152 77.3144C66.5182 77.1872 66.2637 77.1448 66.0092 77.1023C65.5001 77.0175 65.0335 77.0175 64.482 77.0599C64.2275 77.1023 63.9306 77.1023 63.6336 77.2296C63.3367 77.3144 62.9973 77.4417 62.7003 77.6962C62.4034 77.9508 62.2761 78.2477 62.1489 78.5022C62.064 78.7568 62.0216 79.0113 61.9792 79.2234C61.9368 79.69 61.9368 80.1142 61.9368 80.496C61.8944 82.7443 61.9368 84.9926 62.1489 87.2833C62.2761 88.4711 62.4034 89.4892 62.5307 90.2528C61.7247 90.2528 60.7914 90.2528 59.7733 90.2528C59.8157 90.1255 59.8157 89.9559 59.8582 89.7862C59.9854 88.8953 60.1127 87.5803 60.2399 85.5865C60.3672 83.6351 60.5369 81.0051 60.6641 77.5265C60.6641 77.0599 60.7066 76.5509 60.7066 75.9994V75.7873C60.7066 75.7025 60.7066 75.6176 60.7066 75.5328C60.7066 75.3631 60.6641 75.0661 60.5369 74.8116C60.4096 74.5571 60.2399 74.345 59.9854 74.1753C59.7733 74.0056 59.4339 73.9208 59.2643 73.8784C59.0522 73.8359 58.84 73.8359 58.6704 73.8359C58.5007 73.8359 58.3734 73.8359 58.2037 73.8359C57.1856 73.8359 56.1675 73.9208 55.1919 74.1753C54.8525 74.2601 54.5131 74.3874 54.1313 74.5571C53.9617 74.6419 53.7496 74.7692 53.5374 74.9389C53.3253 75.1086 53.1557 75.3631 53.0708 75.5752C52.8587 76.0418 52.8587 76.466 52.8163 76.8478C52.8163 77.4417 53.2829 88.0893 53.3253 88.1318C53.3678 89.1074 53.4526 89.871 53.495 90.3376C52.689 90.3801 51.883 90.3801 51.077 90.4225C51.1195 90.2528 51.1619 90.0831 51.1619 89.871C51.374 88.0893 51.2467 85.3744 51.077 83.4655C51.0346 83.2109 51.0346 82.9564 50.9922 82.7019L50.9498 82.4898C50.9498 82.4474 50.9498 82.3625 50.9074 82.1928C50.8649 81.9383 50.7377 81.6838 50.568 81.4293C50.3983 81.1747 50.1014 81.0051 49.8044 80.9202C49.6347 80.8778 49.465 80.8354 49.3378 80.8354C49.2105 80.8354 49.1257 80.8354 48.9984 80.8354C48.6591 80.8354 48.2773 80.8354 47.8955 80.8354C47.1319 80.8778 46.3259 80.9202 45.4775 80.9626C45.0533 81.0051 44.5867 81.0475 44.1624 81.0899C43.7382 81.1323 43.3565 81.1747 43.1019 81.3868C42.9747 81.4717 42.8474 81.6414 42.805 81.8111C42.7201 81.9807 42.7626 82.1504 42.7626 82.3201L42.805 82.8716C42.805 82.914 43.6958 90.8891 43.9928 90.8891C44.5018 90.8891 44.2049 82.7867 44.2049 82.7019C44.2049 82.5746 44.2897 82.617 44.3321 82.617C44.7563 82.617 45.1381 82.5746 45.5623 82.5746C46.4107 82.5746 47.1743 82.5322 47.9379 82.5322H48.9984H49.1681C49.1681 82.617 49.2105 82.7443 49.2105 82.8292C49.5923 86.2228 49.6772 88.5984 49.8468 89.8286C49.8893 90.0831 49.9317 90.2528 49.9741 90.4225C46.3683 90.5922 43.3565 90.8043 43.3565 91.0588C43.3565 91.5254 54.2162 91.9072 59.2643 91.9072C68.4696 91.9072 68.6817 91.5254 68.6817 91.0588C68.7241 90.8467 68.6817 90.6346 67.197 90.4649ZM63.0821 87.2409C63.1246 84.526 63.3367 80.2839 63.5063 79.4779C63.5488 79.181 63.676 78.884 63.7184 78.9264C63.8457 78.8416 64.2275 78.7143 64.5669 78.7143C64.9487 78.7143 65.3729 78.7143 65.7122 78.7992C65.8819 78.8416 66.0516 78.884 66.1364 78.9264C66.2213 78.9689 66.2213 78.9689 66.2637 79.0113C66.3485 79.0961 66.4334 79.3931 66.4758 79.69C66.9848 83.4655 66.5182 86.6894 66.4758 89.0226C66.4758 89.9134 66.5182 90.2528 66.6455 90.4225C65.7971 90.3376 64.6517 90.2952 63.0397 90.2952C63.0397 89.4892 63.0397 88.4711 63.0821 87.2409ZM53.9617 88.1742C54.5131 80.8354 54.0041 76.9751 54.4283 76.2539C54.4707 76.1691 54.5131 76.1267 54.5555 76.1267C54.598 76.0842 54.6828 76.0418 54.7677 75.9994C54.9798 75.9146 55.2767 75.8297 55.5736 75.7449C56.4221 75.5328 57.3129 75.5328 58.1613 75.5328C58.4583 75.5328 58.7552 75.5328 58.8825 75.5752C58.9673 75.6176 58.9249 75.5752 58.9673 75.6176C58.9673 75.5752 59.0097 75.7449 58.9673 76.0418C58.9673 76.5509 58.9249 77.0599 58.9249 77.5265C58.7976 80.9626 58.6704 83.5503 58.6279 85.5441C58.5855 87.4954 58.5855 88.8529 58.6279 89.7437C58.6279 89.9559 58.6279 90.1255 58.6704 90.2952C57.2705 90.2952 55.5736 90.3376 53.8344 90.3801C53.792 89.9134 53.8768 89.1499 53.9617 88.1742Z" fill="#2C2C2C"/>
</g>
<defs>
<filter id="filter0_i_3110_193" x="0" y="0" width="164.092" height="167.938" filterUnits="userSpaceOnUse" color-interpolation-filters="sRGB">
<feFlood flood-opacity="0" result="BackgroundImageFix"/>
<feBlend mode="normal" in="SourceGraphic" in2="BackgroundImageFix" result="shape"/>
<feColorMatrix in="SourceAlpha" type="matrix" values="0 0 0 0 0 0 0 0 0 0 0 0 0 0 0 0 0 0 127 0" result="hardAlpha"/>
<feOffset dy="4"/>
<feGaussianBlur stdDeviation="4.6"/>
<feComposite in2="hardAlpha" operator="arithmetic" k2="-1" k3="1"/>
<feColorMatrix type="matrix" values="0 0 0 0 0 0 0 0 0 0 0 0 0 0 0 0 0 0 0.25 0"/>
<feBlend mode="normal" in2="shape" result="effect1_innerShadow_3110_193"/>
</filter>
</defs>
</svg>
