<svg width="165" height="164" viewBox="0 0 165 164" fill="none" xmlns="http://www.w3.org/2000/svg">
<g filter="url(#filter0_i_3110_791)">
<path d="M159.845 71.7703L140.548 52.4733C132.612 44.5374 137.462 36.1607 146.11 35.652C160.353 34.7702 168.357 19.5768 156.725 6.92691C144.075 -4.67164 128.949 3.29813 128.067 17.508C127.525 26.1561 119.08 31.0397 111.178 23.1378L92.2882 4.24772C86.6246 -1.41591 77.4339 -1.41591 71.7703 4.24772L52.6428 23.3752C44.707 31.311 36.2963 26.3935 35.7537 17.7454C34.872 3.50161 19.6107 -4.60381 6.96083 7.02865C-4.70555 19.7125 3.39987 34.9737 17.6437 35.8555C26.2917 36.3981 31.2093 44.8426 23.3073 52.7785L4.24772 71.8042C-1.41591 77.4678 -1.41591 86.6585 4.24772 92.3221L23.1378 111.212C31.0736 119.114 26.3596 127.355 17.7115 127.898C3.46769 128.78 -4.50207 143.939 7.1304 156.589C19.7803 168.221 34.872 160.286 35.7537 146.042C36.2963 137.394 44.5713 132.646 52.5072 140.548L71.5668 159.607C77.3322 165.373 86.7602 165.373 92.5256 159.641L105.888 146.279L111.619 140.548C119.114 132.714 114.264 124.472 105.718 123.93C91.4743 123.048 83.4027 107.787 95.0352 95.137C107.685 83.5045 122.946 91.6099 123.828 105.854C124.371 114.4 132.578 119.216 140.412 111.721L145.601 106.532L159.573 92.5595C159.607 92.5256 159.607 92.5256 159.641 92.4917L159.845 92.2882C165.508 86.6246 165.508 77.4339 159.845 71.7703Z" fill="#FFB9AB"/>
<path fill-rule="evenodd" clip-rule="evenodd" d="M53.4196 86.2401C53.5814 86.1912 53.7488 86.1653 53.9061 86.1016C54.1706 85.9962 54.4212 85.864 54.7107 85.8097C54.724 85.8073 54.7388 85.801 54.7512 85.7939C54.9652 85.6724 55.2408 85.6733 55.4913 85.5271C55.8065 85.3432 56.3373 85.4032 56.5691 84.9951C56.8412 84.516 56.9761 84.3237 57.2002 83.7841C57.3616 83.3956 57.7234 82.7797 57.7901 82.5164C57.9265 81.9786 58.1279 81.7206 58.2033 81.4266C58.2548 81.2254 58.3487 81.1123 58.3668 81.0362C58.4004 80.9016 58.4579 80.786 58.517 80.6545C58.3817 80.8007 58.3729 80.7355 58.3334 80.7647C58.0868 80.9471 58.2826 80.6643 57.8602 81.0841L56.4182 82.6407C56.1956 82.9153 55.9769 83.1962 55.7325 83.4472L55.4515 83.7872C55.0359 83.862 54.622 83.9462 54.2102 84.046C53.2193 84.2742 52.4114 84.4438 51.4118 84.7158C51.0935 84.8023 50.8107 84.7754 50.509 85.025C50.0495 85.4052 50.0201 86.0649 50.3962 86.5147L51.2118 87.5102C51.3083 87.6322 51.3978 87.7588 51.4967 87.8809L53.1574 89.9095L53.0423 92.3198L52.9535 94.5216C52.9194 95.2667 53.6965 95.8108 54.3861 95.5099L56.3317 94.6326C56.7908 94.4296 57.2539 94.2359 57.7177 94.0424L58.5216 93.6812L60.0189 94.288L61.0072 94.6578C61.3504 94.7916 61.6873 94.9459 62.0391 95.0599C62.3585 95.1618 62.7544 95.4264 63.0975 95.4046C63.566 95.3763 63.924 94.9687 63.8951 94.4934L63.6079 89.7891L65.5994 87.3119C65.7753 87.083 65.9807 86.8761 66.1355 86.6305C66.2163 86.5044 66.5416 86.2767 66.6008 85.9341C66.6685 85.5454 66.4117 85.1747 66.0264 85.1063C64.704 84.8349 63.219 84.3825 61.8411 84.1667L61.3843 84.0942L60.6504 83.1783C60.1406 82.5609 59.6107 81.9585 59.1446 81.3534C59.0898 81.2822 58.6358 80.6601 58.6652 80.7923C58.6947 80.8821 58.7476 80.9427 58.7672 81.0347C58.7563 81.041 58.7462 81.0472 58.7353 81.0535C58.6735 81.0079 58.7244 81.093 58.7447 81.1613L58.5167 80.8458C58.6156 81.1859 58.9441 81.9602 59.1136 82.2457C59.1711 82.3424 59.3656 82.7634 59.3696 82.861C59.3787 83.0779 59.7725 83.5602 59.9011 83.88L60.4599 84.9975C60.6353 85.3083 61.0069 85.358 61.3658 85.4641C61.5584 85.5211 62.3131 85.7144 62.414 85.79C62.622 85.9454 62.8629 85.9464 63.1121 86.019L64.2344 86.3306L62.3339 88.5669C62.0443 88.9196 61.8051 89.0894 61.8226 89.5766L61.9348 92.8887L58.8771 91.6375C58.3744 91.444 58.0575 91.697 57.5736 91.8831C57.1603 92.0404 56.7766 92.2616 56.3541 92.4001L55.1207 92.9084L55.2966 89.5743C55.309 89.32 55.2305 89.062 55.0546 88.8534L53.867 87.4377C53.7424 87.2906 53.6078 87.1512 53.4896 86.9995C53.3238 86.787 53.1527 86.5777 52.9792 86.3715L53.4196 86.2401ZM58.4209 75.68L57.8975 74.0817C57.7752 73.6491 57.7948 72.6992 57.7644 72.5755C57.7225 72.4047 57.7876 72.4303 57.7652 72.3749L57.6866 71.0985C57.6467 70.0727 57.6912 69.04 57.5785 68.0201L57.549 66.9365C57.5482 66.872 57.5295 66.8067 57.5295 66.7437C57.5317 66.2246 57.5048 66.0197 57.4664 65.5139L57.4003 63.4466L57.4782 61.7437L57.4844 61.2377C57.4929 61.0811 57.5116 60.9245 57.5257 60.7671L57.4666 59.4946L57.4238 58.0938C57.4144 57.5037 57.8798 57.0157 58.465 57.0001C58.8202 56.9953 59.1036 57.1868 59.4269 57.3385C60.5526 57.8565 61.3754 58.2932 62.4612 58.936C63.2808 59.433 64.4358 60.1015 65.2028 60.7129C65.3203 60.8066 65.3079 60.8503 65.6107 61.0812L66.0574 61.4738C66.4634 61.859 66.246 61.71 66.2574 61.8382C66.2594 61.8597 66.1878 61.8526 66.2356 61.9154L65.729 61.7769C65.5269 61.7435 65.3815 61.6479 65.0279 61.5809L63.3827 61.0191L62.2574 60.7271L61.9321 60.6146C60.8102 60.2906 60.4976 60.113 59.5593 59.723L59.5523 60.9223C59.5165 61.1528 59.5718 61.3819 59.5585 61.6116C59.5506 61.7501 59.5593 61.8878 59.5656 62.0271C59.6035 62.929 59.5987 63.3042 59.5624 64.195L62.3406 63.1312C62.4737 63.0857 62.5057 63.0277 62.7033 63.0265L64.1967 62.5495C64.4286 62.4861 64.6344 62.3227 64.8045 62.3104C64.9913 62.297 65.5386 61.9964 66.0458 61.9154L65.9158 62.0145L66.0092 62.0098C66.1086 62.0395 66.1207 61.9893 66.2084 61.9784C66.3132 61.9652 66.031 62.1451 65.9835 62.1775C65.3009 62.6432 64.6804 63.2263 63.9756 63.6733L62.5507 64.5121C62.3661 64.6508 62.328 64.6104 62.2753 64.6577C62.15 64.7698 59.8613 66.0156 59.5569 66.1646L59.5522 66.5109C59.5164 66.6714 59.5716 66.832 59.5592 66.9909C59.5506 67.0876 59.5592 67.1852 59.5654 67.2804C59.6376 68.4239 59.5239 69.0956 59.4704 70.2203C59.4191 71.3018 59.42 72.388 59.3538 73.4679C59.3485 73.5725 59.4053 73.648 59.3094 73.7347C59.2552 73.7837 59.2542 74.5311 59.1538 74.8215C59.0968 74.9862 59.2561 75.2456 59.1453 75.2967C59.0481 75.3416 59.1023 75.6364 59.0994 75.6801C63.201 75.6801 67.889 78.7496 69.8287 82.3962C70.0586 82.8283 70.4625 83.7974 70.6381 84.3108C70.7074 84.5135 70.7091 84.6738 70.7719 84.8403C70.8551 85.063 70.9035 85.2967 70.9587 85.5272C71.3715 87.4846 71.3475 89.4693 70.8848 91.4118C70.1865 94.3435 68.3672 96.9904 65.9439 98.7388L65.0613 99.3281C64.3493 99.8015 62.7135 100.57 61.7982 100.788C60.0374 101.206 59.1743 101.316 57.2767 101.185C55.1899 101.041 52.8824 100.206 51.1646 99.0392C48.2236 97.0411 46.2174 93.9546 45.619 90.4241C45.3077 88.5875 45.4158 86.747 45.8688 84.948C46.0592 84.1915 46.1583 83.9849 46.4244 83.3206C47.2484 81.249 48.506 79.5267 50.2649 78.142C51.4178 77.2343 52.1901 76.9502 53.482 76.4423C54.4915 76.0629 57.2276 75.68 58.4209 75.68ZM59.2797 76.6496C62.5435 77.2694 64.7984 78.0599 66.8967 80.8245L67.3489 81.3714C67.4525 81.506 67.5349 81.6562 67.6338 81.7932C68.5689 83.1332 69.206 84.8257 69.4362 86.4557C70.3196 92.7117 66.0749 98.2137 59.9099 99.0888C59.1385 99.1983 58.4581 99.2485 57.678 99.1801C57.0631 99.1187 56.4398 99.0834 55.8436 98.8906C54.6674 98.5215 54.155 98.399 52.9572 97.6843C51.1052 96.5792 49.648 95.0309 48.6848 93.0824C47.9393 91.5745 47.6238 90.1294 47.5432 88.4617C47.4934 87.4309 47.71 85.9286 48.0164 84.941C48.3403 83.8965 48.8212 82.6595 49.4755 81.7579C49.7713 81.3503 50.0212 80.8227 50.4001 80.4689L50.6242 80.1857C50.8172 79.9839 51.0198 79.819 51.2063 79.5853C51.4497 79.2801 52.3618 78.6298 52.6943 78.4293C53.6325 77.8634 54.1861 77.5039 55.2118 77.1986L55.9504 76.9586C56.9832 76.4336 58.121 76.6496 59.2797 76.6496ZM35.7929 101.698C35.782 101.588 35.8036 101.429 35.7516 101.35L35.6348 101.142C35.6262 101.042 35.4364 100.866 35.4364 100.956L35.3321 100.897C35.2781 101.038 35.3086 100.916 35.1189 100.935C35.1187 100.935 35.0547 100.959 35.0295 100.93C34.963 100.852 34.9879 100.91 34.9648 100.915C34.7682 100.957 34.5764 101.061 34.3804 101.119C34.0802 101.208 34.0378 101.149 33.8582 101.314C33.8442 101.329 33.8333 101.346 33.8139 101.348C33.782 101.351 33.7828 101.415 33.7383 101.399L33.15 101.792C32.9236 101.87 33.0035 101.935 32.9002 102.031C32.907 102.195 32.8607 102.162 32.8792 102.223C32.8973 102.283 32.8067 102.281 32.803 102.395C32.8001 102.483 32.7242 102.433 32.7501 102.515C32.7983 102.665 32.7559 102.841 32.9579 103.07C33.1004 103.232 33.0206 103.215 33.2715 103.426C33.4529 103.567 33.7081 103.785 33.9198 103.708L34.3189 103.572C34.5434 103.463 34.635 103.233 34.7874 103.149C34.7983 103.143 34.7998 103.12 34.8092 103.113L34.9173 103.028C34.9456 102.968 34.9528 103.019 34.9702 102.985C35.0785 102.77 35.1875 102.844 35.455 102.545L35.5819 102.41C35.5812 102.386 35.6069 102.445 35.6145 102.393C35.619 102.362 35.7836 102.274 35.7919 102.133L35.7929 101.698ZM32.4356 87.6543C32.3845 87.463 32.3655 87.7027 32.2963 87.4803C32.143 87.5771 32.306 87.5038 32.0838 87.4055C32.0832 87.4052 32.0142 87.3967 32.0052 87.3551C31.9873 87.2727 32.0331 87.3232 31.834 87.289L31.4605 87.2269C31.4122 87.2367 31.0046 87.0691 30.897 87.0704L30.5912 87.1105L30.3173 87.1081L29.8527 87.1521C29.7091 87.0851 29.6004 87.2092 29.5025 87.2332C29.4286 87.3711 29.3983 87.3285 29.3827 87.389C29.3662 87.4527 29.2911 87.3991 29.2254 87.4992C29.1779 87.5715 29.1319 87.494 29.1156 87.5762C29.0865 87.7241 28.956 87.8303 29.0152 88.1616C29.0868 88.5618 28.9896 88.2701 29.1561 88.7275C29.2066 88.8664 29.2472 88.8565 29.283 88.9746C29.3501 89.1958 29.6483 89.2021 29.6581 89.2075L29.9911 89.2854C30.3646 89.259 30.4984 89.1532 30.6371 89.1547C30.6488 89.1547 30.6612 89.1367 30.6752 89.1343L30.816 89.1162C30.8747 89.0777 30.8555 89.1278 30.886 89.1052C31.044 88.9884 31.2929 89.0615 31.4884 88.9958L31.7397 88.9164C31.7503 88.8959 31.7451 88.9595 31.7787 88.9179C31.797 88.8952 31.9929 88.9003 32.0736 88.7833C32.5891 88.0357 32.4054 87.991 32.4277 87.8784C32.4816 87.7834 32.4609 87.776 32.4356 87.6543ZM32.8279 74.3176C32.9358 74.5064 32.8632 74.3427 32.9936 74.5104C33.2795 74.836 33.5983 74.7682 33.7523 74.8599C33.7617 74.8653 33.7803 74.8551 33.7912 74.859L33.9725 74.9307C34.1589 74.9041 34.3148 75.0821 34.4994 75.1131L34.7344 75.158C34.7525 75.1468 34.7213 75.1991 34.7648 75.1785C34.8407 75.1422 34.8863 75.3882 35.4263 74.9739C35.7086 74.7574 35.5975 74.9379 35.7672 74.623C35.8572 74.4648 35.8249 74.6368 35.905 74.3853C35.9454 74.2581 35.879 74.2935 35.8754 74.2854C35.8386 74.2054 35.9137 74.1645 35.8833 74.1705C35.7419 74.1982 35.8546 74.1598 35.7517 74.0084C35.7512 74.0077 35.7016 73.9661 35.716 73.9289C35.7513 73.8372 35.7102 73.8794 35.6973 73.8651L35.2569 73.4717C35.0388 73.2558 35.0753 73.194 34.853 73.1263C34.8344 73.1215 34.8156 73.1207 34.8047 73.105C34.786 73.0782 34.7347 73.1137 34.7276 73.0672L34.1269 72.7666C34.0377 72.6386 33.9075 72.7035 33.8116 72.6761C33.6578 72.775 33.6906 72.701 33.6404 72.7564C33.599 72.8022 33.5588 72.7228 33.4622 72.7793C33.3904 72.8214 33.3925 72.7306 33.3392 72.7966C33.2279 72.9347 33.2433 72.847 33.1757 72.9407L33.0426 73.0847L32.8449 73.5757C32.7905 73.7938 32.7882 74.0504 32.7787 74.0849C32.7569 74.1638 32.7874 74.2767 32.8279 74.3176ZM43.1362 63.2276C43.1584 63.4931 43.1585 63.2613 43.1968 63.4975C43.2905 63.9295 43.5889 64.0536 43.7952 64.3316C43.8598 64.4187 43.8746 64.3826 43.8675 64.4221C44.1217 64.578 44.0176 64.6533 44.3243 64.9423L44.4621 65.0752C44.4843 65.0746 44.4273 65.1042 44.48 65.1098C44.5114 65.1132 44.5966 65.2839 44.7407 65.2963C44.878 65.3082 45.4278 65.3247 45.5189 65.2641C45.8267 65.0607 45.6889 65.2261 45.8838 65.0429C45.9831 64.9497 45.9033 64.9458 45.9048 64.9367C45.9225 64.8296 45.9971 64.8528 45.9663 64.8376C45.8217 64.7661 45.9409 64.8554 45.9243 64.6164C45.9243 64.6157 45.8997 64.5484 45.929 64.5243C46.0055 64.4614 45.9486 64.4772 45.9431 64.4558L45.771 63.9908C45.7418 63.9559 45.6784 63.5044 45.6285 63.4266L45.4441 63.1827L45.0456 62.5674C44.9568 62.3263 44.8985 62.4106 44.8035 62.3062C44.6213 62.3091 44.682 62.2612 44.6105 62.2818C44.5531 62.2982 44.5521 62.2078 44.4393 62.2006C44.3511 62.1952 44.4005 62.1176 44.3186 62.1448C44.1694 62.1942 44.0207 62.136 43.7684 62.351C43.5965 62.4976 43.5929 62.4492 43.4174 62.6721L43.1739 63.0277C43.1166 63.1686 43.1362 63.1488 43.1362 63.2276ZM71.416 64.5544C71.8421 65.2899 71.8552 65.0231 71.9949 65.1997C72.0574 65.2786 72.3011 65.3396 72.2556 65.2627L72.374 65.2658C72.351 65.126 72.3225 65.2699 72.5865 65.0965C72.5971 65.0896 72.6837 65.1391 72.6697 65.0989L72.9623 64.7393C72.9827 64.6893 73.3003 64.4662 73.3475 64.3772C73.4081 64.2629 73.4159 64.1245 73.4511 64.1191L73.7445 63.5227C73.8877 63.3627 73.801 63.3218 73.8301 63.208C73.7452 63.0826 73.795 63.0799 73.7507 63.0364C73.7032 62.9899 73.7829 62.9581 73.7258 62.8585C73.685 62.7874 73.7729 62.7904 73.7087 62.7341C73.5084 62.5359 73.5954 62.5377 73.2527 62.3634C72.6855 62.1116 72.6244 62.2175 72.4364 62.1659C72.3285 62.1363 72.1877 62.2061 72.1205 62.2682L72.0714 62.3422C71.8904 62.5661 71.8716 62.4331 71.7337 62.9072C71.7108 63.0068 71.7475 63.0059 71.6792 63.1323C71.6745 63.1418 71.6839 63.1606 71.6807 63.1717L71.6099 63.3519C71.6191 63.6039 71.4761 63.6512 71.4348 63.8776L71.3912 64.1128C71.4091 64.1352 71.3537 64.0924 71.3732 64.1427C71.4007 64.2138 71.244 64.2375 71.416 64.5544ZM84.2193 73.6905L84.1493 73.4316L83.8232 73.017C83.6332 72.8406 83.4414 72.7437 83.4076 72.7108C83.2446 72.5525 82.9768 72.6957 82.9748 72.6958L82.6542 72.7926C82.3509 73.003 82.2751 73.1694 82.171 73.2262C82.1601 73.2317 82.157 73.2537 82.1492 73.2624L81.9826 73.3931C81.8958 73.5825 81.6558 73.6313 81.5242 73.7857L81.3522 73.9785C81.3529 74.0049 81.3267 73.9423 81.318 73.9973C81.3133 74.0271 81.1465 74.1159 81.1343 74.2594C81.0607 75.1264 81.237 75.1073 81.283 75.2564C81.2921 75.3572 81.4814 75.5293 81.4838 75.4405C81.4849 75.3988 81.5894 75.4993 81.5897 75.4988C81.6393 75.3692 81.6134 75.4799 81.8791 75.4477C81.8918 75.4461 81.9452 75.5327 81.9531 75.4901L82.4239 75.3036C82.4638 75.2698 82.8957 75.2144 82.9795 75.1596L83.2201 74.9739L83.8255 74.5719C84.0518 74.4937 83.981 74.4257 84.0838 74.3279C84.0819 74.1244 84.1282 74.2147 84.1072 74.1336C84.0909 74.0704 84.1819 74.0778 84.1873 73.9596C84.1913 73.8732 84.2682 73.9212 84.241 73.8393C84.2129 73.755 84.2091 73.711 84.2193 73.6905ZM87.9826 88.2224C87.926 87.8155 87.985 88.0192 87.8394 87.6251C87.783 87.4722 87.7511 87.4976 87.7142 87.3773C87.6675 87.2252 87.485 87.1491 87.35 87.1475L87.2791 87.1161C86.8496 86.9827 86.6243 87.1789 86.2574 87.2231C86.1581 87.2351 86.1704 87.2661 86.1422 87.242C85.8899 87.3817 85.7613 87.2783 85.5274 87.3561L85.28 87.4355C85.2682 87.4601 85.2753 87.3922 85.241 87.4347C85.2235 87.4566 85.0281 87.4529 84.9485 87.5684C84.8699 87.6822 84.5773 88.1583 84.5842 88.2663C84.5997 88.5392 84.5764 88.4202 84.5632 88.5669C84.5638 88.594 84.6157 88.8557 84.6644 88.7684C84.6867 88.7286 84.7263 88.8719 84.7267 88.8714C84.8413 88.7836 84.7332 88.8353 84.9384 88.9446C84.9385 88.9446 85.0082 88.9554 85.0154 88.9974C85.0321 89.0944 85.0476 89.0366 85.0676 89.0415L85.5556 89.1248C85.6049 89.1173 86.0133 89.2826 86.1135 89.2815C86.24 89.28 86.3945 89.2142 86.4178 89.2421L87.1502 89.1997C87.2918 89.2674 87.4048 89.1416 87.4973 89.1187C87.5703 88.9808 87.6027 89.0222 87.6163 88.9637C87.6311 88.9006 87.7123 88.9499 87.7728 88.8536C87.8198 88.7785 87.8649 88.861 87.8802 88.7757C87.9133 88.5918 87.9442 88.6844 87.9557 88.5688C88.0062 88.2764 88.0111 88.5378 87.9826 88.2224ZM84.1492 102.022C83.9462 101.816 83.8708 101.672 83.5647 101.561C83.3345 101.477 83.3177 101.538 83.1756 101.453C83.1647 101.447 83.1445 101.457 83.1336 101.453L83.0084 101.399C82.9403 101.403 82.9804 101.373 82.9446 101.374C82.6839 101.383 82.7274 101.256 82.3259 101.17L82.1454 101.127C82.1268 101.14 82.1616 101.089 82.1142 101.107C82.0837 101.118 81.9289 101.018 81.8037 101.081C81.0164 101.471 81.1387 101.602 81.0636 101.694C80.9238 101.792 80.9072 102.02 80.9733 101.981C81.0117 101.958 80.9739 102.101 80.9748 102.101C81.116 102.08 80.9975 102.079 81.115 102.268C81.1151 102.268 81.168 102.313 81.1539 102.35C81.1184 102.442 81.1607 102.402 81.1742 102.414C81.1804 102.421 81.1813 102.435 81.1875 102.439L81.6412 102.824C81.8645 103.04 81.8406 103.113 82.07 103.184C82.0887 103.189 82.109 103.19 82.1206 103.205C82.1392 103.233 82.1938 103.199 82.2015 103.245L82.8326 103.565C83.0168 103.726 83.0291 103.622 83.1618 103.664C83.2872 103.582 83.2936 103.631 83.3377 103.587C83.3834 103.541 83.42 103.622 83.5237 103.567C83.5978 103.528 83.5971 103.617 83.6513 103.553C83.778 103.404 83.7478 103.506 83.8171 103.411L83.9525 103.267L84.1471 102.776C84.2052 102.529 84.1896 102.33 84.2047 102.262C84.2287 102.151 84.1809 102.075 84.1492 102.022ZM73.8774 113.157L73.7499 112.67C73.692 112.547 73.3827 112.292 73.2315 112.101L73.1911 112.052C72.9931 111.957 72.9856 111.765 72.8245 111.629L72.6439 111.471C72.6218 111.476 72.6766 111.445 72.6283 111.44C72.5978 111.437 72.5192 111.28 72.3785 111.274C71.463 111.233 71.6097 111.418 71.408 111.449C71.3062 111.464 71.1361 111.647 71.2228 111.647L71.1621 111.748C71.2881 111.787 71.1923 111.758 71.1955 111.955C71.1955 111.956 71.2175 112.016 71.1869 112.042C71.1111 112.105 71.1653 112.085 71.1713 112.105C71.1737 112.114 71.1675 112.125 71.1698 112.133L71.3566 112.667L71.4429 113.06C71.5088 113.168 71.6281 113.249 71.615 113.282L71.9846 113.846C72.0568 114.061 72.1198 113.99 72.2125 114.082C72.3972 114.075 72.3251 114.119 72.3994 114.098C72.4601 114.08 72.4539 114.167 72.5651 114.169C72.6512 114.171 72.5994 114.244 72.6802 114.216C72.9385 114.144 72.9198 114.211 73.2266 114.003C73.3903 113.876 73.6266 113.697 73.7231 113.501C73.7994 113.347 73.8774 113.373 73.8774 113.157ZM45.6778 111.624C45.3419 110.96 45.2301 111.09 45.1081 110.963C45.0547 110.886 44.8033 110.822 44.8451 110.903C44.8655 110.942 44.7258 110.903 44.7261 110.904C44.7491 111.041 44.7686 110.907 44.5035 111.089C44.491 111.098 44.4067 111.047 44.4187 111.089L44.1106 111.476L43.7067 111.869L43.5939 112.145L43.278 112.783C43.1215 112.97 43.2189 112.985 43.1806 113.116C43.2705 113.262 43.2091 113.245 43.257 113.294C43.3037 113.341 43.2225 113.376 43.2771 113.482C43.3151 113.555 43.2283 113.555 43.2904 113.611C43.4415 113.745 43.3393 113.712 43.4312 113.779L43.5729 113.915L44.06 114.112C44.3075 114.171 44.5017 114.155 44.5674 114.17C44.8026 114.224 44.9349 113.974 44.9448 113.974L45.1712 113.733C45.3413 113.367 45.2896 113.278 45.3681 113.13C45.3735 113.118 45.3643 113.098 45.3681 113.087L45.4443 112.896C45.4285 112.667 45.567 112.652 45.6466 112.27L45.6903 112.088C45.6755 112.069 45.7293 112.104 45.7097 112.056C45.6846 111.996 45.8439 111.936 45.6778 111.624ZM59.5675 116.823C59.5236 116.578 59.4637 116.591 59.4656 116.428C59.4656 116.415 59.447 116.404 59.4446 116.392L59.4166 116.186C59.2919 115.995 59.3797 115.816 59.3085 115.607L59.2299 115.366C59.2078 115.356 59.2734 115.359 59.2314 115.328C59.2081 115.311 59.2154 115.124 59.0983 115.044C58.368 114.549 58.2994 114.723 58.2033 114.704C58.0698 114.627 57.84 114.73 57.9114 114.768C57.9524 114.79 57.8087 114.828 57.8095 114.829C57.8935 114.935 57.8182 114.854 57.7075 115.101C57.7021 115.113 57.6015 115.115 57.6351 115.144L57.5402 115.712C57.4873 115.917 57.3811 116.092 57.4079 116.272L57.4849 117.182C57.4392 117.417 57.5309 117.383 57.5651 117.521C57.6009 117.539 57.6632 117.558 57.6437 117.579C57.6422 117.579 57.6452 117.58 57.6484 117.581C57.713 117.605 57.6418 117.615 57.7184 117.635C57.7822 117.652 57.7278 117.723 57.8282 117.786C57.9004 117.831 57.8204 117.875 57.9044 117.892C58.0701 117.925 58.1177 118.036 58.4833 117.988C58.6852 117.962 58.9794 117.921 59.1604 117.795C59.244 117.737 59.5071 117.696 59.5153 117.377C59.5153 117.375 59.5138 117.373 59.5176 117.37C59.6027 117.016 59.6045 117.131 59.5675 116.823ZM80.9391 89.2485C80.0652 89.8352 79.1959 90.8628 78.7165 91.7619C77.4552 94.1278 77.52 96.9207 78.8714 99.221C79.2021 99.7841 78.7945 100.492 78.1609 100.495C76.2965 100.505 74.6589 101.064 73.2332 102.315C71.5844 103.762 70.6675 105.841 70.6954 108.041C70.7035 108.681 70.0199 109.138 69.4121 108.79C68.0286 107.997 66.5653 107.658 64.9825 107.822C64.3817 107.884 63.8707 108.025 63.3078 108.209C61.6193 108.761 60.1807 110.034 59.3147 111.592C58.9861 112.183 58.1031 112.289 57.6804 111.592C57.0123 110.491 56.5271 109.89 55.4221 109.129C53.432 107.759 50.8211 107.477 48.6158 108.444L47.6671 108.936C47.0195 109.333 46.1357 108.897 46.1324 108.041C46.1233 105.632 45.0301 103.448 43.0591 102.047C41.7588 101.122 40.3794 100.736 38.8482 100.739C38.0189 100.741 37.4937 99.8372 37.9151 99.0984C39.0819 97.0536 39.2419 94.6328 38.2769 92.442C37.6379 90.9914 36.5886 89.8758 35.252 89.0898C34.5579 88.6816 34.555 87.6502 35.2816 87.246C37.316 86.114 38.7209 84.0043 38.9454 81.6606C39.101 80.0353 38.7708 78.5818 37.9936 77.1814C37.6243 76.5159 38.1148 75.711 38.852 75.7178C39.2787 75.7217 39.7325 75.7071 40.1509 75.6345C42.2986 75.2616 43.8838 74.1964 45.1798 72.4734C46.0979 71.2528 46.5179 69.7628 46.5814 68.247C46.5998 67.8091 47.0898 67.568 47.4428 67.8063C48.7268 68.6728 50.1661 69.1253 51.709 69.2007L52.474 69.2228C52.7166 69.3086 53.1911 69.2384 53.4849 69.2314C53.8949 69.2216 53.9794 69.1957 54.3915 69.0922L53.5074 69.4997C53.4066 69.5601 52.6158 69.7227 52.4016 69.7949C51.5643 70.0766 49.9497 69.8923 49.0281 69.7587C48.6174 69.6991 48.1299 69.5097 47.7416 69.3361C47.4885 72.0842 46.2597 74.208 44.0894 75.8227L43.1377 76.4468C42.4095 76.9184 41.5735 77.1566 40.7486 77.3855L40.2731 77.4689C40.5437 78.1178 40.7142 78.7959 40.8327 79.4873C41.4003 82.8035 40.194 86.0424 37.6179 88.1732C40.6981 90.7491 41.8489 94.9623 40.4297 98.7218C44.039 99.3109 47.1204 102.123 47.9558 105.737L48.0896 106.402C50.1282 105.627 52.6129 105.592 54.6539 106.434C56.1923 107.069 57.4247 107.922 58.4873 109.214C61.0294 106.085 65.1795 104.95 68.9147 106.392C69.1466 105.257 69.3818 104.463 69.9777 103.403C71.3617 100.94 73.8507 99.1416 76.6432 98.7673C76.6494 98.7664 76.6541 98.7664 76.6603 98.7649C75.2474 94.9861 76.3524 90.7187 79.5506 88.1692C76.5917 85.7918 75.4283 81.8401 76.5452 78.1731L76.8129 77.4601C75.9183 77.2375 75.3151 77.1349 74.4152 76.7039C73.0392 76.0448 72.0128 75.2807 71.0634 74.03C70.0017 72.6313 69.4692 71.1129 69.2338 69.3881C69.1871 69.403 69.1411 69.4156 69.1 69.4218L67.9591 69.7649C66.2298 70.202 64.5655 70.2234 62.9301 69.4762L62.534 69.2699C62.8786 69.3217 63.463 69.5372 63.99 69.6004C63.9368 69.5844 63.6837 69.5157 63.7503 69.495C63.7713 69.4887 63.8476 69.4997 63.9005 69.5037C63.9581 69.495 64.0157 69.4824 64.0748 69.4714C63.9915 69.4249 63.0675 69.177 63.6639 69.2652C64.4661 69.3839 65.1991 69.4533 66.0266 69.3769C67.1356 69.2825 68.2166 68.9551 69.1643 68.4184C69.1635 68.3823 69.162 68.3444 69.1604 68.3115L69.2531 68.365C69.4057 68.2753 69.5542 68.1847 69.7107 68.0849C69.8482 67.9966 70.0854 68.0486 70.0989 68.3115C70.106 68.5026 70.1223 68.6947 70.1417 68.8843L70.179 68.9055C70.1689 68.9118 70.1565 68.9189 70.1456 68.9252C70.6012 73.0831 74.009 76.0595 78.1434 76.0216C78.6317 76.0172 79.007 76.5357 78.7309 77.0509L78.5293 77.4239C77.5635 79.2871 77.4373 81.693 78.2117 83.6358C78.5098 84.3836 78.6803 84.6158 79.1215 85.3379C79.3101 85.6466 79.8432 86.191 80.1012 86.4364C80.5521 86.8653 81.0247 87.2064 81.5636 87.5074C82.0366 87.7717 82.1316 88.4945 81.5636 88.8459L80.9391 89.2485Z" fill="#2C2C2C"/>
<path fill-rule="evenodd" clip-rule="evenodd" d="M53.4196 86.2401C53.5814 86.1912 53.7488 86.1653 53.9061 86.1016C54.1706 85.9962 54.4212 85.864 54.7107 85.8097C54.724 85.8073 54.7388 85.801 54.7512 85.7939C54.9652 85.6724 55.2408 85.6733 55.4913 85.5271C55.8065 85.3432 56.3373 85.4032 56.5691 84.9951C56.8412 84.516 56.9761 84.3237 57.2002 83.7841C57.3616 83.3956 57.7234 82.7797 57.7901 82.5164C57.9265 81.9786 58.1279 81.7206 58.2033 81.4266C58.2548 81.2254 58.3487 81.1123 58.3668 81.0362C58.4004 80.9016 58.4579 80.786 58.517 80.6545C58.3817 80.8007 58.3729 80.7355 58.3334 80.7647C58.0868 80.9471 58.2826 80.6643 57.8602 81.0841L56.4182 82.6407C56.1956 82.9153 55.9769 83.1962 55.7325 83.4472L55.4515 83.7872C55.0359 83.862 54.622 83.9462 54.2102 84.046C53.2193 84.2742 52.4114 84.4438 51.4118 84.7158C51.0935 84.8023 50.8107 84.7754 50.509 85.025C50.0495 85.4052 50.0201 86.0649 50.3962 86.5147L51.2118 87.5102C51.3083 87.6322 51.3978 87.7588 51.4967 87.8809L53.1574 89.9095L53.0423 92.3198L52.9535 94.5216C52.9194 95.2667 53.6965 95.8108 54.3861 95.5099L56.3317 94.6326C56.7908 94.4296 57.2539 94.2359 57.7177 94.0424L58.5216 93.6812L60.0189 94.288L61.0072 94.6578C61.3504 94.7916 61.6873 94.9459 62.0391 95.0599C62.3585 95.1618 62.7544 95.4264 63.0975 95.4046C63.566 95.3763 63.924 94.9687 63.8951 94.4934L63.6079 89.7891L65.5994 87.3119C65.7753 87.083 65.9807 86.8761 66.1355 86.6305C66.2163 86.5044 66.5416 86.2767 66.6008 85.9341C66.6685 85.5454 66.4117 85.1747 66.0264 85.1063C64.704 84.8349 63.219 84.3825 61.8411 84.1667L61.3843 84.0942L60.6504 83.1783C60.1406 82.5609 59.6107 81.9585 59.1446 81.3534C59.0898 81.2822 58.6358 80.6601 58.6652 80.7923C58.6947 80.8821 58.7476 80.9427 58.7672 81.0347C58.7563 81.041 58.7462 81.0472 58.7353 81.0535C58.6735 81.0079 58.7244 81.093 58.7447 81.1613L58.5167 80.8458C58.6156 81.1859 58.9441 81.9602 59.1136 82.2457C59.1711 82.3424 59.3656 82.7634 59.3696 82.861C59.3787 83.0779 59.7725 83.5602 59.9011 83.88L60.4599 84.9975C60.6353 85.3083 61.0069 85.358 61.3658 85.4641C61.5584 85.5211 62.3131 85.7144 62.414 85.79C62.622 85.9454 62.8629 85.9464 63.1121 86.019L64.2344 86.3306L62.3339 88.5669C62.0443 88.9196 61.8051 89.0894 61.8226 89.5766L61.9348 92.8887L58.8771 91.6375C58.3744 91.444 58.0575 91.697 57.5736 91.8831C57.1603 92.0404 56.7766 92.2616 56.3541 92.4001L55.1207 92.9084L55.2966 89.5743C55.309 89.32 55.2305 89.062 55.0546 88.8534L53.867 87.4377C53.7424 87.2906 53.6078 87.1512 53.4896 86.9995C53.3238 86.787 53.1527 86.5777 52.9792 86.3715L53.4196 86.2401ZM58.4209 75.68L57.8975 74.0817C57.7752 73.6491 57.7948 72.6992 57.7644 72.5755C57.7225 72.4047 57.7876 72.4303 57.7652 72.3749L57.6866 71.0985C57.6467 70.0727 57.6912 69.04 57.5785 68.0201L57.549 66.9365C57.5482 66.872 57.5295 66.8067 57.5295 66.7437C57.5317 66.2246 57.5048 66.0197 57.4664 65.5139L57.4003 63.4466L57.4782 61.7437L57.4844 61.2377C57.4929 61.0811 57.5116 60.9245 57.5257 60.7671L57.4666 59.4946L57.4238 58.0938C57.4144 57.5037 57.8798 57.0157 58.465 57.0001C58.8202 56.9953 59.1036 57.1868 59.4269 57.3385C60.5526 57.8565 61.3754 58.2932 62.4612 58.936C63.2808 59.433 64.4358 60.1015 65.2028 60.7129C65.3203 60.8066 65.3079 60.8503 65.6107 61.0812L66.0574 61.4738C66.4634 61.859 66.246 61.71 66.2574 61.8382C66.2594 61.8597 66.1878 61.8526 66.2356 61.9154L65.729 61.7769C65.5269 61.7435 65.3815 61.6479 65.0279 61.5809L63.3827 61.0191L62.2574 60.7271L61.9321 60.6146C60.8102 60.2906 60.4976 60.113 59.5593 59.723L59.5523 60.9223C59.5165 61.1528 59.5718 61.3819 59.5585 61.6116C59.5506 61.7501 59.5593 61.8878 59.5656 62.0271C59.6035 62.929 59.5987 63.3042 59.5624 64.195L62.3406 63.1312C62.4737 63.0857 62.5057 63.0277 62.7033 63.0265L64.1967 62.5495C64.4286 62.4861 64.6344 62.3227 64.8045 62.3104C64.9913 62.297 65.5386 61.9964 66.0458 61.9154L65.9158 62.0145L66.0092 62.0098C66.1086 62.0395 66.1207 61.9893 66.2084 61.9784C66.3132 61.9652 66.031 62.1451 65.9835 62.1775C65.3009 62.6432 64.6804 63.2263 63.9756 63.6733L62.5507 64.5121C62.3661 64.6508 62.328 64.6104 62.2753 64.6577C62.15 64.7698 59.8613 66.0156 59.5569 66.1646L59.5522 66.5109C59.5164 66.6714 59.5716 66.832 59.5592 66.9909C59.5506 67.0876 59.5592 67.1852 59.5654 67.2804C59.6376 68.4239 59.5239 69.0956 59.4704 70.2203C59.4191 71.3018 59.42 72.388 59.3538 73.4679C59.3485 73.5725 59.4053 73.648 59.3094 73.7347C59.2552 73.7837 59.2542 74.5311 59.1538 74.8215C59.0968 74.9862 59.2561 75.2456 59.1453 75.2967C59.0481 75.3416 59.1023 75.6364 59.0994 75.6801C63.201 75.6801 67.889 78.7496 69.8287 82.3962C70.0586 82.8283 70.4625 83.7974 70.6381 84.3108C70.7074 84.5135 70.7091 84.6738 70.7719 84.8403C70.8551 85.063 70.9035 85.2967 70.9587 85.5272C71.3715 87.4846 71.3475 89.4693 70.8848 91.4118C70.1865 94.3435 68.3672 96.9904 65.9439 98.7388L65.0613 99.3281C64.3493 99.8015 62.7135 100.57 61.7982 100.788C60.0374 101.206 59.1743 101.316 57.2767 101.185C55.1899 101.041 52.8824 100.206 51.1646 99.0392C48.2236 97.0411 46.2174 93.9546 45.619 90.4241C45.3077 88.5875 45.4158 86.747 45.8688 84.948C46.0592 84.1915 46.1583 83.9849 46.4244 83.3206C47.2484 81.249 48.506 79.5267 50.2649 78.142C51.4178 77.2343 52.1901 76.9502 53.482 76.4423C54.4915 76.0629 57.2276 75.68 58.4209 75.68ZM59.2797 76.6496C62.5435 77.2694 64.7984 78.0599 66.8967 80.8245L67.3489 81.3714C67.4525 81.506 67.5349 81.6562 67.6338 81.7932C68.5689 83.1332 69.206 84.8257 69.4362 86.4557C70.3196 92.7117 66.0749 98.2137 59.9099 99.0888C59.1385 99.1983 58.4581 99.2485 57.678 99.1801C57.0631 99.1187 56.4398 99.0834 55.8436 98.8906C54.6674 98.5215 54.155 98.399 52.9572 97.6843C51.1052 96.5792 49.648 95.0309 48.6848 93.0824C47.9393 91.5745 47.6238 90.1294 47.5432 88.4617C47.4934 87.4309 47.71 85.9286 48.0164 84.941C48.3403 83.8965 48.8212 82.6595 49.4755 81.7579C49.7713 81.3503 50.0212 80.8227 50.4001 80.4689L50.6242 80.1857C50.8172 79.9839 51.0198 79.819 51.2063 79.5853C51.4497 79.2801 52.3618 78.6298 52.6943 78.4293C53.6325 77.8634 54.1861 77.5039 55.2118 77.1986L55.9504 76.9586C56.9832 76.4336 58.121 76.6496 59.2797 76.6496ZM35.7929 101.698C35.782 101.588 35.8036 101.429 35.7516 101.35L35.6348 101.142C35.6262 101.042 35.4364 100.866 35.4364 100.956L35.3321 100.897C35.2781 101.038 35.3086 100.916 35.1189 100.935C35.1187 100.935 35.0547 100.959 35.0295 100.93C34.963 100.852 34.9879 100.91 34.9648 100.915C34.7682 100.957 34.5764 101.061 34.3804 101.119C34.0802 101.208 34.0378 101.149 33.8582 101.314C33.8442 101.329 33.8333 101.346 33.8139 101.348C33.782 101.351 33.7828 101.415 33.7383 101.399L33.15 101.792C32.9236 101.87 33.0035 101.935 32.9002 102.031C32.907 102.195 32.8607 102.162 32.8792 102.223C32.8973 102.283 32.8067 102.281 32.803 102.395C32.8001 102.483 32.7242 102.433 32.7501 102.515C32.7983 102.665 32.7559 102.841 32.9579 103.07C33.1004 103.232 33.0206 103.215 33.2715 103.426C33.4529 103.567 33.7081 103.785 33.9198 103.708L34.3189 103.572C34.5434 103.463 34.635 103.233 34.7874 103.149C34.7983 103.143 34.7998 103.12 34.8092 103.113L34.9173 103.028C34.9456 102.968 34.9528 103.019 34.9702 102.985C35.0785 102.77 35.1875 102.844 35.455 102.545L35.5819 102.41C35.5812 102.386 35.6069 102.445 35.6145 102.393C35.619 102.362 35.7836 102.274 35.7919 102.133L35.7929 101.698ZM32.4356 87.6543C32.3845 87.463 32.3655 87.7027 32.2963 87.4803C32.143 87.5771 32.306 87.5038 32.0838 87.4055C32.0832 87.4052 32.0142 87.3967 32.0052 87.3551C31.9873 87.2727 32.0331 87.3232 31.834 87.289L31.4605 87.2269C31.4122 87.2367 31.0046 87.0691 30.897 87.0704L30.5912 87.1105L30.3173 87.1081L29.8527 87.1521C29.7091 87.0851 29.6004 87.2092 29.5025 87.2332C29.4286 87.3711 29.3983 87.3285 29.3827 87.389C29.3662 87.4527 29.2911 87.3991 29.2254 87.4992C29.1779 87.5715 29.1319 87.494 29.1156 87.5762C29.0865 87.7241 28.956 87.8303 29.0152 88.1616C29.0868 88.5618 28.9896 88.2701 29.1561 88.7275C29.2066 88.8664 29.2472 88.8565 29.283 88.9746C29.3501 89.1958 29.6483 89.2021 29.6581 89.2075L29.9911 89.2854C30.3646 89.259 30.4984 89.1532 30.6371 89.1547C30.6488 89.1547 30.6612 89.1367 30.6752 89.1343L30.816 89.1162C30.8747 89.0777 30.8555 89.1278 30.886 89.1052C31.044 88.9884 31.2929 89.0615 31.4884 88.9958L31.7397 88.9164C31.7503 88.8959 31.7451 88.9595 31.7787 88.9179C31.797 88.8952 31.9929 88.9003 32.0736 88.7833C32.5891 88.0357 32.4054 87.991 32.4277 87.8784C32.4816 87.7834 32.4609 87.776 32.4356 87.6543ZM32.8279 74.3176C32.9358 74.5064 32.8632 74.3427 32.9936 74.5104C33.2795 74.836 33.5983 74.7682 33.7523 74.8599C33.7617 74.8653 33.7803 74.8551 33.7912 74.859L33.9725 74.9307C34.1589 74.9041 34.3148 75.0821 34.4994 75.1131L34.7344 75.158C34.7525 75.1468 34.7213 75.1991 34.7648 75.1785C34.8407 75.1422 34.8863 75.3882 35.4263 74.9739C35.7086 74.7574 35.5975 74.9379 35.7672 74.623C35.8572 74.4648 35.8249 74.6368 35.905 74.3853C35.9454 74.2581 35.879 74.2935 35.8754 74.2854C35.8386 74.2054 35.9137 74.1645 35.8833 74.1705C35.7419 74.1982 35.8546 74.1598 35.7517 74.0084C35.7512 74.0077 35.7016 73.9661 35.716 73.9289C35.7513 73.8372 35.7102 73.8794 35.6973 73.8651L35.2569 73.4717C35.0388 73.2558 35.0753 73.194 34.853 73.1263C34.8344 73.1215 34.8156 73.1207 34.8047 73.105C34.786 73.0782 34.7347 73.1137 34.7276 73.0672L34.1269 72.7666C34.0377 72.6386 33.9075 72.7035 33.8116 72.6761C33.6578 72.775 33.6906 72.701 33.6404 72.7564C33.599 72.8022 33.5588 72.7228 33.4622 72.7793C33.3904 72.8214 33.3925 72.7306 33.3392 72.7966C33.2279 72.9347 33.2433 72.847 33.1757 72.9407L33.0426 73.0847L32.8449 73.5757C32.7905 73.7938 32.7882 74.0504 32.7787 74.0849C32.7569 74.1638 32.7874 74.2767 32.8279 74.3176ZM43.1362 63.2276C43.1584 63.4931 43.1585 63.2613 43.1968 63.4975C43.2905 63.9295 43.5889 64.0536 43.7952 64.3316C43.8598 64.4187 43.8746 64.3826 43.8675 64.4221C44.1217 64.578 44.0176 64.6533 44.3243 64.9423L44.4621 65.0752C44.4843 65.0746 44.4273 65.1042 44.48 65.1098C44.5114 65.1132 44.5966 65.2839 44.7407 65.2963C44.878 65.3082 45.4278 65.3247 45.5189 65.2641C45.8267 65.0607 45.6889 65.2261 45.8838 65.0429C45.9831 64.9497 45.9033 64.9458 45.9048 64.9367C45.9225 64.8296 45.9971 64.8528 45.9663 64.8376C45.8217 64.7661 45.9409 64.8554 45.9243 64.6164C45.9243 64.6157 45.8997 64.5484 45.929 64.5243C46.0055 64.4614 45.9486 64.4772 45.9431 64.4558L45.771 63.9908C45.7418 63.9559 45.6784 63.5044 45.6285 63.4266L45.4441 63.1827L45.0456 62.5674C44.9568 62.3263 44.8985 62.4106 44.8035 62.3062C44.6213 62.3091 44.682 62.2612 44.6105 62.2818C44.5531 62.2982 44.5521 62.2078 44.4393 62.2006C44.3511 62.1952 44.4005 62.1176 44.3186 62.1448C44.1694 62.1942 44.0207 62.136 43.7684 62.351C43.5965 62.4976 43.5929 62.4492 43.4174 62.6721L43.1739 63.0277C43.1166 63.1686 43.1362 63.1488 43.1362 63.2276ZM71.416 64.5544C71.8421 65.2899 71.8552 65.0231 71.9949 65.1997C72.0574 65.2786 72.3011 65.3396 72.2556 65.2627L72.374 65.2658C72.351 65.126 72.3225 65.2699 72.5865 65.0965C72.5971 65.0896 72.6837 65.1391 72.6697 65.0989L72.9623 64.7393C72.9827 64.6893 73.3003 64.4662 73.3475 64.3772C73.4081 64.2629 73.4159 64.1245 73.4511 64.1191L73.7445 63.5227C73.8877 63.3627 73.801 63.3218 73.8301 63.208C73.7452 63.0826 73.795 63.0799 73.7507 63.0364C73.7032 62.9899 73.7829 62.9581 73.7258 62.8585C73.685 62.7874 73.7729 62.7904 73.7087 62.7341C73.5084 62.5359 73.5954 62.5377 73.2527 62.3634C72.6855 62.1116 72.6244 62.2175 72.4364 62.1659C72.3285 62.1363 72.1877 62.2061 72.1205 62.2682L72.0714 62.3422C71.8904 62.5661 71.8716 62.4331 71.7337 62.9072C71.7108 63.0068 71.7475 63.0059 71.6792 63.1323C71.6745 63.1418 71.6839 63.1606 71.6807 63.1717L71.6099 63.3519C71.6191 63.6039 71.4761 63.6512 71.4348 63.8776L71.3912 64.1128C71.4091 64.1352 71.3537 64.0924 71.3732 64.1427C71.4007 64.2138 71.244 64.2375 71.416 64.5544ZM84.2193 73.6905L84.1493 73.4316L83.8232 73.017C83.6332 72.8406 83.4414 72.7437 83.4076 72.7108C83.2446 72.5525 82.9768 72.6957 82.9748 72.6958L82.6542 72.7926C82.3509 73.003 82.2751 73.1694 82.171 73.2262C82.1601 73.2317 82.157 73.2537 82.1492 73.2624L81.9826 73.3931C81.8958 73.5825 81.6558 73.6313 81.5242 73.7857L81.3522 73.9785C81.3529 74.0049 81.3267 73.9423 81.318 73.9973C81.3133 74.0271 81.1465 74.1159 81.1343 74.2594C81.0607 75.1264 81.237 75.1073 81.283 75.2564C81.2921 75.3572 81.4814 75.5293 81.4838 75.4405C81.4849 75.3988 81.5894 75.4993 81.5897 75.4988C81.6393 75.3692 81.6134 75.4799 81.8791 75.4477C81.8918 75.4461 81.9452 75.5327 81.9531 75.4901L82.4239 75.3036C82.4638 75.2698 82.8957 75.2144 82.9795 75.1596L83.2201 74.9739L83.8255 74.5719C84.0518 74.4937 83.981 74.4257 84.0838 74.3279C84.0819 74.1244 84.1282 74.2147 84.1072 74.1336C84.0909 74.0704 84.1819 74.0778 84.1873 73.9596C84.1913 73.8732 84.2682 73.9212 84.241 73.8393C84.2129 73.755 84.2091 73.711 84.2193 73.6905ZM87.9826 88.2224C87.926 87.8155 87.985 88.0192 87.8394 87.6251C87.783 87.4722 87.7511 87.4976 87.7142 87.3773C87.6675 87.2252 87.485 87.1491 87.35 87.1475L87.2791 87.1161C86.8496 86.9827 86.6243 87.1789 86.2574 87.2231C86.1581 87.2351 86.1704 87.2661 86.1422 87.242C85.8899 87.3817 85.7613 87.2783 85.5274 87.3561L85.28 87.4355C85.2682 87.4601 85.2753 87.3922 85.241 87.4347C85.2235 87.4566 85.0281 87.4529 84.9485 87.5684C84.8699 87.6822 84.5773 88.1583 84.5842 88.2663C84.5997 88.5392 84.5764 88.4202 84.5632 88.5669C84.5638 88.594 84.6157 88.8557 84.6644 88.7684C84.6867 88.7286 84.7263 88.8719 84.7267 88.8714C84.8413 88.7836 84.7332 88.8353 84.9384 88.9446C84.9385 88.9446 85.0082 88.9554 85.0154 88.9974C85.0321 89.0944 85.0476 89.0366 85.0676 89.0415L85.5556 89.1248C85.6049 89.1173 86.0133 89.2826 86.1135 89.2815C86.24 89.28 86.3945 89.2142 86.4178 89.2421L87.1502 89.1997C87.2918 89.2674 87.4048 89.1416 87.4973 89.1187C87.5703 88.9808 87.6027 89.0222 87.6163 88.9637C87.6311 88.9006 87.7123 88.9499 87.7728 88.8536C87.8198 88.7785 87.8649 88.861 87.8802 88.7757C87.9133 88.5918 87.9442 88.6844 87.9557 88.5688C88.0062 88.2764 88.0111 88.5378 87.9826 88.2224ZM84.1492 102.022C83.9462 101.816 83.8708 101.672 83.5647 101.561C83.3345 101.477 83.3177 101.538 83.1756 101.453C83.1647 101.447 83.1445 101.457 83.1336 101.453L83.0084 101.399C82.9403 101.403 82.9804 101.373 82.9446 101.374C82.6839 101.383 82.7274 101.256 82.3259 101.17L82.1454 101.127C82.1268 101.14 82.1616 101.089 82.1142 101.107C82.0837 101.118 81.9289 101.018 81.8037 101.081C81.0164 101.471 81.1387 101.602 81.0636 101.694C80.9238 101.792 80.9072 102.02 80.9733 101.981C81.0117 101.958 80.9739 102.101 80.9748 102.101C81.116 102.08 80.9975 102.079 81.115 102.268C81.1151 102.268 81.168 102.313 81.1539 102.35C81.1184 102.442 81.1607 102.402 81.1742 102.414C81.1804 102.421 81.1813 102.435 81.1875 102.439L81.6412 102.824C81.8645 103.04 81.8406 103.113 82.07 103.184C82.0887 103.189 82.109 103.19 82.1206 103.205C82.1392 103.233 82.1938 103.199 82.2015 103.245L82.8326 103.565C83.0168 103.726 83.0291 103.622 83.1618 103.664C83.2872 103.582 83.2936 103.631 83.3377 103.587C83.3834 103.541 83.42 103.622 83.5237 103.567C83.5978 103.528 83.5971 103.617 83.6513 103.553C83.778 103.404 83.7478 103.506 83.8171 103.411L83.9525 103.267L84.1471 102.776C84.2052 102.529 84.1896 102.33 84.2047 102.262C84.2287 102.151 84.1809 102.075 84.1492 102.022ZM73.8774 113.157L73.7499 112.67C73.692 112.547 73.3827 112.292 73.2315 112.101L73.1911 112.052C72.9931 111.957 72.9856 111.765 72.8245 111.629L72.6439 111.471C72.6218 111.476 72.6766 111.445 72.6283 111.44C72.5978 111.437 72.5192 111.28 72.3785 111.274C71.463 111.233 71.6097 111.418 71.408 111.449C71.3062 111.464 71.1361 111.647 71.2228 111.647L71.1621 111.748C71.2881 111.787 71.1923 111.758 71.1955 111.955C71.1955 111.956 71.2175 112.016 71.1869 112.042C71.1111 112.105 71.1653 112.085 71.1713 112.105C71.1737 112.114 71.1675 112.125 71.1698 112.133L71.3566 112.667L71.4429 113.06C71.5088 113.168 71.6281 113.249 71.615 113.282L71.9846 113.846C72.0568 114.061 72.1198 113.99 72.2125 114.082C72.3972 114.075 72.3251 114.119 72.3994 114.098C72.4601 114.08 72.4539 114.167 72.5651 114.169C72.6512 114.171 72.5994 114.244 72.6802 114.216C72.9385 114.144 72.9198 114.211 73.2266 114.003C73.3903 113.876 73.6266 113.697 73.7231 113.501C73.7994 113.347 73.8774 113.373 73.8774 113.157ZM45.6778 111.624C45.3419 110.96 45.2301 111.09 45.1081 110.963C45.0547 110.886 44.8033 110.822 44.8451 110.903C44.8655 110.942 44.7258 110.903 44.7261 110.904C44.7491 111.041 44.7686 110.907 44.5035 111.089C44.491 111.098 44.4067 111.047 44.4187 111.089L44.1106 111.476L43.7067 111.869L43.5939 112.145L43.278 112.783C43.1215 112.97 43.2189 112.985 43.1806 113.116C43.2705 113.262 43.2091 113.245 43.257 113.294C43.3037 113.341 43.2225 113.376 43.2771 113.482C43.3151 113.555 43.2283 113.555 43.2904 113.611C43.4415 113.745 43.3393 113.712 43.4312 113.779L43.5729 113.915L44.06 114.112C44.3075 114.171 44.5017 114.155 44.5674 114.17C44.8026 114.224 44.9349 113.974 44.9448 113.974L45.1712 113.733C45.3413 113.367 45.2896 113.278 45.3681 113.13C45.3735 113.118 45.3643 113.098 45.3681 113.087L45.4443 112.896C45.4285 112.667 45.567 112.652 45.6466 112.27L45.6903 112.088C45.6755 112.069 45.7293 112.104 45.7097 112.056C45.6846 111.996 45.8439 111.936 45.6778 111.624ZM59.5675 116.823C59.5236 116.578 59.4637 116.591 59.4656 116.428C59.4656 116.415 59.447 116.404 59.4446 116.392L59.4166 116.186C59.2919 115.995 59.3797 115.816 59.3085 115.607L59.2299 115.366C59.2078 115.356 59.2734 115.359 59.2314 115.328C59.2081 115.311 59.2154 115.124 59.0983 115.044C58.368 114.549 58.2994 114.723 58.2033 114.704C58.0698 114.627 57.84 114.73 57.9114 114.768C57.9524 114.79 57.8087 114.828 57.8095 114.829C57.8935 114.935 57.8182 114.854 57.7075 115.101C57.7021 115.113 57.6015 115.115 57.6351 115.144L57.5402 115.712C57.4873 115.917 57.3811 116.092 57.4079 116.272L57.4849 117.182C57.4392 117.417 57.5309 117.383 57.5651 117.521C57.6009 117.539 57.6632 117.558 57.6437 117.579C57.6422 117.579 57.6452 117.58 57.6484 117.581C57.713 117.605 57.6418 117.615 57.7184 117.635C57.7822 117.652 57.7278 117.723 57.8282 117.786C57.9004 117.831 57.8204 117.875 57.9044 117.892C58.0701 117.925 58.1177 118.036 58.4833 117.988C58.6852 117.962 58.9794 117.921 59.1604 117.795C59.244 117.737 59.5071 117.696 59.5153 117.377C59.5153 117.375 59.5138 117.373 59.5176 117.37C59.6027 117.016 59.6045 117.131 59.5675 116.823ZM80.9391 89.2485C80.0652 89.8352 79.1959 90.8628 78.7165 91.7619C77.4552 94.1278 77.52 96.9207 78.8714 99.221C79.2021 99.7841 78.7945 100.492 78.1609 100.495C76.2965 100.505 74.6589 101.064 73.2332 102.315C71.5844 103.762 70.6675 105.841 70.6954 108.041C70.7035 108.681 70.0199 109.138 69.4121 108.79C68.0286 107.997 66.5653 107.658 64.9825 107.822C64.3817 107.884 63.8707 108.025 63.3078 108.209C61.6193 108.761 60.1807 110.034 59.3147 111.592C58.9861 112.183 58.1031 112.289 57.6804 111.592C57.0123 110.491 56.5271 109.89 55.4221 109.129C53.432 107.759 50.8211 107.477 48.6158 108.444L47.6671 108.936C47.0195 109.333 46.1357 108.897 46.1324 108.041C46.1233 105.632 45.0301 103.448 43.0591 102.047C41.7588 101.122 40.3794 100.736 38.8482 100.739C38.0189 100.741 37.4937 99.8372 37.9151 99.0984C39.0819 97.0536 39.2419 94.6328 38.2769 92.442C37.6379 90.9914 36.5886 89.8758 35.252 89.0898C34.5579 88.6816 34.555 87.6502 35.2816 87.246C37.316 86.114 38.7209 84.0043 38.9454 81.6606C39.101 80.0353 38.7708 78.5818 37.9936 77.1814C37.6243 76.5159 38.1148 75.711 38.852 75.7178C39.2787 75.7217 39.7325 75.7071 40.1509 75.6345C42.2986 75.2616 43.8838 74.1964 45.1798 72.4734C46.0979 71.2528 46.5179 69.7628 46.5814 68.247C46.5998 67.8091 47.0898 67.568 47.4428 67.8063C48.7268 68.6728 50.1661 69.1253 51.709 69.2007L52.474 69.2228C52.7166 69.3086 53.1911 69.2384 53.4849 69.2314C53.8949 69.2216 53.9794 69.1957 54.3915 69.0922L53.5074 69.4997C53.4066 69.5601 52.6158 69.7227 52.4016 69.7949C51.5643 70.0766 49.9497 69.8923 49.0281 69.7587C48.6174 69.6991 48.1299 69.5097 47.7416 69.3361C47.4885 72.0842 46.2597 74.208 44.0894 75.8227L43.1377 76.4468C42.4095 76.9184 41.5735 77.1566 40.7486 77.3855L40.2731 77.4689C40.5437 78.1178 40.7142 78.7959 40.8327 79.4873C41.4003 82.8035 40.194 86.0424 37.6179 88.1732C40.6981 90.7491 41.8489 94.9623 40.4297 98.7218C44.039 99.3109 47.1204 102.123 47.9558 105.737L48.0896 106.402C50.1282 105.627 52.6129 105.592 54.6539 106.434C56.1923 107.069 57.4247 107.922 58.4873 109.214C61.0294 106.085 65.1795 104.95 68.9147 106.392C69.1466 105.257 69.3818 104.463 69.9777 103.403C71.3617 100.94 73.8507 99.1416 76.6432 98.7673C76.6494 98.7664 76.6541 98.7664 76.6603 98.7649C75.2474 94.9861 76.3524 90.7187 79.5506 88.1692C76.5917 85.7918 75.4283 81.8401 76.5452 78.1731L76.8129 77.4601C75.9183 77.2375 75.3151 77.1349 74.4152 76.7039C73.0392 76.0448 72.0128 75.2807 71.0634 74.03C70.0017 72.6313 69.4692 71.1129 69.2338 69.3881C69.1871 69.403 69.1411 69.4156 69.1 69.4218L67.9591 69.7649C66.2298 70.202 64.5655 70.2234 62.9301 69.4762L62.534 69.2699C62.8786 69.3217 63.463 69.5372 63.99 69.6004C63.9368 69.5844 63.6837 69.5157 63.7503 69.495C63.7713 69.4887 63.8476 69.4997 63.9005 69.5037C63.9581 69.495 64.0157 69.4824 64.0748 69.4714C63.9915 69.4249 63.0675 69.177 63.6639 69.2652C64.4661 69.3839 65.1991 69.4533 66.0266 69.3769C67.1356 69.2825 68.2166 68.9551 69.1643 68.4184C69.1635 68.3823 69.162 68.3444 69.1604 68.3115L69.2531 68.365C69.4057 68.2753 69.5542 68.1847 69.7107 68.0849C69.8482 67.9966 70.0854 68.0486 70.0989 68.3115C70.106 68.5026 70.1223 68.6947 70.1417 68.8843L70.179 68.9055C70.1689 68.9118 70.1565 68.9189 70.1456 68.9252C70.6012 73.0831 74.009 76.0595 78.1434 76.0216C78.6317 76.0172 79.007 76.5357 78.7309 77.0509L78.5293 77.4239C77.5635 79.2871 77.4373 81.693 78.2117 83.6358C78.5098 84.3836 78.6803 84.6158 79.1215 85.3379C79.3101 85.6466 79.8432 86.191 80.1012 86.4364C80.5521 86.8653 81.0247 87.2064 81.5636 87.5074C82.0366 87.7717 82.1316 88.4945 81.5636 88.8459L80.9391 89.2485Z" fill="#2C2C2C"/>
</g>
<defs>
<filter id="filter0_i_3110_791" x="0" y="0" width="164.092" height="167.934" filterUnits="userSpaceOnUse" color-interpolation-filters="sRGB">
<feFlood flood-opacity="0" result="BackgroundImageFix"/>
<feBlend mode="normal" in="SourceGraphic" in2="BackgroundImageFix" result="shape"/>
<feColorMatrix in="SourceAlpha" type="matrix" values="0 0 0 0 0 0 0 0 0 0 0 0 0 0 0 0 0 0 127 0" result="hardAlpha"/>
<feOffset dy="4"/>
<feGaussianBlur stdDeviation="4.6"/>
<feComposite in2="hardAlpha" operator="arithmetic" k2="-1" k3="1"/>
<feColorMatrix type="matrix" values="0 0 0 0 0 0 0 0 0 0 0 0 0 0 0 0 0 0 0.25 0"/>
<feBlend mode="normal" in2="shape" result="effect1_innerShadow_3110_791"/>
</filter>
</defs>
</svg>
