<svg width="827" height="239" viewBox="0 0 827 239" fill="none" xmlns="http://www.w3.org/2000/svg">
<path d="M162.723 122.801H47.0616C32.7274 123.054 3.46592 132.821 1.09337 169.864C-1.27918 206.908 30.7503 220.723 47.0616 223.001H506.002" stroke="url(#paint0_linear_3333_499)" stroke-width="2" stroke-dasharray="4 4"/>
<path d="M309.408 21H778.598C797.154 21 829.837 39.0193 825.593 74.7549C821.348 110.491 792.606 122.453 778.598 122.453H148.877" stroke="url(#paint1_linear_3333_499)" stroke-width="2" stroke-dasharray="4 4"/>
<circle cx="20.5" cy="20.5" r="20.5" transform="matrix(-1 0 0 1 424.969 0)" fill="url(#paint2_linear_3333_499)"/>
<path d="M396.086 11.0293L404.259 11.1543C404.577 11.1346 404.852 11.3768 404.871 11.6954C404.891 12.014 404.649 12.2883 404.33 12.3081C404.301 12.3099 404.271 12.3095 404.241 12.3067L397.462 12.2071L413.393 28.6331C413.615 28.8622 413.609 29.2281 413.38 29.4504C413.151 29.6726 412.785 29.667 412.563 29.4379L396.632 13.0119L396.528 19.7873C396.548 20.1059 396.306 20.3802 395.987 20.3999C395.668 20.4196 395.394 20.1774 395.374 19.8588C395.373 19.8291 395.373 19.7993 395.376 19.7697L395.501 11.5966C395.507 11.2789 395.768 11.0254 396.086 11.0293Z" fill="white"/>
<circle cx="531.469" cy="218.5" r="20.5" fill="url(#paint3_linear_3333_499)"/>
<path d="M539.852 209.029L531.679 209.154C531.36 209.135 531.086 209.377 531.066 209.695C531.046 210.014 531.289 210.288 531.607 210.308C531.637 210.31 531.667 210.309 531.696 210.307L538.476 210.207L522.545 226.633C522.323 226.862 522.328 227.228 522.557 227.45C522.787 227.673 523.152 227.667 523.375 227.438L539.306 211.012L539.409 217.787C539.39 218.106 539.632 218.38 539.95 218.4C540.269 218.42 540.543 218.177 540.563 217.859C540.565 217.829 540.564 217.799 540.562 217.77L540.437 209.597C540.431 209.279 540.17 209.025 539.852 209.029Z" fill="white"/>
<defs>
<linearGradient id="paint0_linear_3333_499" x1="267.485" y1="122.766" x2="661.158" y2="213.039" gradientUnits="userSpaceOnUse">
<stop stop-color="#6BD4FC"/>
<stop offset="0.216346" stop-color="#FFDB6E"/>
<stop offset="0.408654" stop-color="#FFDB6E"/>
<stop offset="0.620192" stop-color="#F05331"/>
<stop offset="0.783654" stop-color="#DAA400"/>
<stop offset="1" stop-color="white"/>
</linearGradient>
<linearGradient id="paint1_linear_3333_499" x1="424.838" y1="21" x2="449.7" y2="123.928" gradientUnits="userSpaceOnUse">
<stop stop-color="white"/>
<stop offset="0.140601" stop-color="#6BD4FC"/>
<stop offset="0.282269" stop-color="#FFDB6E"/>
<stop offset="0.460021" stop-color="#FFDB6E"/>
<stop offset="0.660516" stop-color="#F05331"/>
<stop offset="1" stop-color="#DAA400"/>
</linearGradient>
<linearGradient id="paint2_linear_3333_499" x1="20.5" y1="0" x2="20.5" y2="41" gradientUnits="userSpaceOnUse">
<stop stop-color="#0058C1"/>
<stop offset="1" stop-color="#2E82E6"/>
</linearGradient>
<linearGradient id="paint3_linear_3333_499" x1="531.469" y1="198" x2="531.469" y2="239" gradientUnits="userSpaceOnUse">
<stop stop-color="#9B3062"/>
<stop offset="1" stop-color="#F45935"/>
</linearGradient>
</defs>
</svg>
