<svg width="24" height="24" viewBox="0 0 24 24" fill="none" xmlns="http://www.w3.org/2000/svg">
<path d="M23.1462 23.147V14.6694C23.1462 10.503 22.2492 7.32031 17.3884 7.32031C15.0448 7.32031 13.4823 8.59339 12.8458 9.8086H12.7879V7.69645H8.1875V23.147H12.9905V15.4796C12.9905 13.4542 13.3666 11.5157 15.8549 11.5157C18.3143 11.5157 18.3432 13.8014 18.3432 15.5953V23.118H23.1462V23.147Z" fill="black"/>
<path d="M0.376953 7.69531H5.17993V23.1458H0.376953V7.69531Z" fill="black"/>
<path d="M2.77762 0C1.24414 0 0 1.24414 0 2.77762C0 4.3111 1.24414 5.58418 2.77762 5.58418C4.3111 5.58418 5.55525 4.3111 5.55525 2.77762C5.55525 1.24414 4.3111 0 2.77762 0Z" fill="black"/>
</svg>
