<svg width="53" height="53" viewBox="0 0 53 53" fill="none" xmlns="http://www.w3.org/2000/svg">
<path d="M46.6951 7.0434C46.8256 7.0434 46.8256 7.0434 46.6951 7.0434L52.4342 5.73907L48.5212 4.82603C49.3038 3.78257 50.2168 2.7391 50.869 1.5652C49.6951 2.3478 48.6516 3.1304 47.6082 3.913L46.6951 0L45.3908 5.60863V5.73907C44.8691 6.13037 44.4778 6.52167 43.956 6.91297C43.8256 7.0434 43.6952 7.17383 43.5647 7.30427C38.9996 2.86953 32.7388 0.260867 26.2171 0.130433C19.4346 -1.26335e-07 12.652 2.7391 7.69557 7.56513C2.86953 12.3912 0 19.1737 0 26.0867C0 32.9996 2.86953 39.7822 7.69557 44.6082C12.5216 49.4342 19.3041 52.1733 26.2171 52.0429C32.9996 52.0429 39.6517 49.0429 44.2169 44.2169C48.7821 39.3909 51.3907 32.7388 50.9994 26.2171C50.869 29.4779 50.0864 32.7388 48.7821 35.6083C47.4777 38.4778 45.5212 41.2169 43.3039 43.3039C38.7387 47.7386 32.4779 50.0864 26.2171 50.0864C19.9563 49.956 13.8259 47.3473 9.52163 42.9126C5.0869 38.4778 2.60867 32.3475 2.60867 26.2171C2.60867 20.0867 5.0869 13.9564 9.52163 9.52163C13.8259 5.0869 19.9563 2.47823 26.2171 2.3478C32.0866 2.21737 37.9561 4.43473 42.5213 8.34773C40.8256 9.91293 39.2604 11.3477 37.5648 13.0433C37.1735 13.4346 36.7822 13.8259 36.3909 14.2172C33.6518 11.739 29.8692 10.4347 26.2171 10.4347C22.0432 10.4347 17.9998 12.1303 15.1303 15.1303C12.2607 18.1302 10.5651 22.1737 10.6955 26.2171C10.826 30.2605 12.5216 34.304 15.5216 36.9126C18.5215 39.5213 22.4345 41.0865 26.2171 40.6952C22.4345 40.4343 18.7824 38.7387 16.4346 35.9996C13.9564 33.2605 12.652 29.7388 12.7825 26.2171C12.9129 22.6954 14.3477 19.1737 16.9563 16.8259C19.4346 14.3477 22.8258 12.9129 26.3475 13.0433C29.3475 13.0433 32.4779 14.0868 34.8257 16.0433C33.7822 17.0868 32.7388 18.2607 31.8257 19.4346C31.4344 19.8259 31.0431 20.3476 30.7823 20.7389C29.6084 19.6954 28.0432 19.1737 26.478 19.1737C24.6519 19.1737 22.6954 19.9563 21.5215 21.2606C20.2172 22.565 19.565 24.5215 19.6954 26.2171C19.8259 28.0432 20.6085 29.7388 21.9128 30.7823C23.2171 31.8257 24.9128 32.3475 26.478 32.0866C24.9128 31.8257 23.6084 31.0431 22.8258 29.8692C21.9128 28.8258 21.6519 27.391 21.6519 26.2171C21.7824 23.6084 23.9997 21.6519 26.478 21.6519C27.5214 21.6519 28.4345 21.9128 29.2171 22.565C28.304 23.7389 27.391 24.9128 26.478 26.2171C27.7823 25.3041 28.9562 24.391 30.1301 23.478C30.7823 24.2606 31.1736 25.1736 31.304 26.2171C31.5649 28.6953 29.6084 31.5649 26.478 32.0866C28.0432 32.3475 29.7388 31.9562 31.0431 30.7823C32.3475 29.7388 33.2605 28.0432 33.2605 26.2171C33.3909 24.6519 32.8692 23.0867 31.9562 21.9128C32.3475 21.5215 32.8692 21.1302 33.2605 20.7389C34.4344 19.6954 35.4779 18.652 36.6518 17.6085C38.6083 19.9563 39.7822 22.9563 39.9126 26.0867C40.043 29.6084 38.7387 33.2605 36.2605 35.8692C33.7822 38.6083 30.2605 40.3039 26.478 40.5648C30.2605 40.8256 34.304 39.3909 37.1735 36.7822C40.043 34.0431 41.8691 30.1301 41.9995 26.0867C42.13 22.4345 40.8256 18.7824 38.4778 15.9129C38.8691 15.5216 39.2604 15.1303 39.7822 14.739C41.3474 13.1738 42.9126 11.4781 44.4778 9.7825C46.4343 11.739 48.1299 14.0868 49.1734 16.6955C50.4777 19.565 51.2603 22.8258 51.3907 26.0867C51.6516 19.9563 49.4342 13.5651 45.2604 8.86947C45.3908 8.73903 45.5212 8.6086 45.6517 8.34773C45.9125 7.95643 46.3038 7.56513 46.6951 7.0434Z" fill="#1E1E1E"/>
</svg>
