<svg width="767" height="215" viewBox="0 0 767 215" fill="none" xmlns="http://www.w3.org/2000/svg">
<path d="M310.333 211.5C310.333 212.973 311.527 214.167 313 214.167C314.473 214.167 315.667 212.973 315.667 211.5C315.667 210.027 314.473 208.833 313 208.833C311.527 208.833 310.333 210.027 310.333 211.5ZM313 211.5V211H310.982V211.5V212H313V211.5ZM306.946 211.5V211H302.911V211.5V212H306.946V211.5ZM298.875 211.5V211H294.839V211.5V212H298.875V211.5ZM290.804 211.5V211H286.768V211.5V212H290.804V211.5ZM282.732 211.5V211H278.696V211.5V212H282.732V211.5ZM274.661 211.5V211H270.625V211.5V212H274.661V211.5ZM266.589 211.5V211H262.554V211.5V212H266.589V211.5ZM258.518 211.5V211H254.482V211.5V212H258.518V211.5ZM250.446 211.5V211H246.411V211.5V212H250.446V211.5ZM242.375 211.5V211H238.339V211.5V212H242.375V211.5ZM234.304 211.5V211H230.268V211.5V212H234.304V211.5ZM226.232 211.5V211H222.196V211.5V212H226.232V211.5ZM218.161 211.5V211H214.125V211.5V212H218.161V211.5ZM210.089 211.5V211H206.054V211.5V212H210.089V211.5ZM202.018 211.5V211H197.982V211.5V212H202.018V211.5ZM193.946 211.5V211H189.911V211.5V212H193.946V211.5ZM185.875 211.5V211H181.839V211.5V212H185.875V211.5ZM177.804 211.5V211H173.768V211.5V212H177.804V211.5ZM169.732 211.5V211H165.696V211.5V212H169.732V211.5ZM161.661 211.5V211H157.625V211.5V212H161.661V211.5ZM153.589 211.5V211H149.554V211.5V212H153.589V211.5ZM145.518 211.5V211H141.482V211.5V212H145.518V211.5ZM137.446 211.5V211H133.411V211.5V212H137.446V211.5ZM129.375 211.5V211H125.339V211.5V212H129.375V211.5ZM121.303 211.5V211H117.268V211.5V212H121.303V211.5ZM113.232 211.5V211H109.196V211.5V212H113.232V211.5ZM105.161 211.5V211H101.125V211.5V212H105.161V211.5ZM97.0892 211.5V211H93.0535V211.5V212H97.0892V211.5ZM89.0177 211.5V211H84.982V211.5V212H89.0177V211.5ZM80.9463 211.5V211H76.9106V211.5V212H80.9463V211.5ZM72.8748 211.5V211H68.8391V211.5V212H72.8748V211.5ZM64.8034 211.5V211H60.7677V211.5V212H64.8034V211.5ZM56.732 211.5V211H52.6963V211.5V212H56.732V211.5ZM48.6606 211.5V211H44.6249V211.5V212H48.6606V211.5ZM40.5891 211.5V211H36.5534V211.5V212H40.5891V211.5ZM32.5177 211.5V211H30.5V211.5V212H32.5177V211.5ZM30.5 211.5V211C29.8509 211 29.2068 210.979 28.5683 210.938L28.536 211.437L28.5038 211.936C29.1638 211.978 29.8294 212 30.5 212V211.5ZM24.6451 210.929L24.7422 210.438C23.468 210.186 22.2234 209.852 21.014 209.442L20.8533 209.915L20.6926 210.389C21.9433 210.813 23.2305 211.159 24.5481 211.419L24.6451 210.929ZM17.2285 208.412L17.4499 207.964C16.2915 207.392 15.1761 206.745 14.1097 206.031L13.8315 206.447L13.5534 206.862C14.6558 207.601 15.8091 208.269 17.007 208.86L17.2285 208.412ZM10.7195 204.056L11.0493 203.68C10.0814 202.83 9.16965 201.919 8.3202 200.951L7.94441 201.281L7.56862 201.61C8.44669 202.611 9.3892 203.553 10.3897 204.431L10.7195 204.056ZM5.55304 198.168L5.96852 197.89C5.2546 196.824 4.6084 195.708 4.03605 194.55L3.58778 194.772L3.13951 194.993C3.73134 196.191 4.39948 197.344 5.13755 198.447L5.55304 198.168ZM2.08468 191.147L2.55815 190.986C2.14771 189.777 1.81359 188.532 1.56152 187.258L1.07102 187.355L0.580528 187.452C0.841195 188.77 1.18673 190.057 1.6112 191.307L2.08468 191.147ZM0.563259 183.464L1.06222 183.432C1.02096 182.793 1 182.149 1 181.5H0.5H0C0 182.171 0.0216508 182.836 0.0643 183.496L0.563259 183.464ZM0.5 181.5H1V179.513H0.5H0V181.5H0.5ZM0.5 175.539H1V171.566H0.5H0V175.539H0.5ZM0.5 167.592H1V163.618H0.5H0V167.592H0.5ZM0.5 159.645H1V155.671H0.5H0V159.645H0.5ZM0.5 151.697H1V147.724H0.5H0V151.697H0.5ZM0.5 143.75H1V139.776H0.5H0V143.75H0.5ZM0.5 135.803H1V131.829H0.5H0V135.803H0.5ZM0.5 127.855H1V123.882H0.5H0V127.855H0.5ZM0.5 119.908H1V115.934H0.5H0V119.908H0.5ZM0.5 111.961H1V107.987H0.5H0V111.961H0.5ZM0.5 104.013H1V100.039H0.5H0V104.013H0.5ZM0.5 96.0658H1V92.0921H0.5H0V96.0658H0.5ZM0.5 88.1184H1V84.1447H0.5H0V88.1184H0.5ZM0.5 80.171H1V76.1974H0.5H0V80.171H0.5ZM0.5 72.2237H1V68.25H0.5H0V72.2237H0.5ZM0.5 64.2763H1V60.3026H0.5H0V64.2763H0.5ZM0.5 56.3289H1V52.3552H0.5H0V56.3289H0.5ZM0.5 48.3816H1V44.4079H0.5H0V48.3816H0.5ZM0.5 40.4342H1V36.4605H0.5H0V40.4342H0.5ZM0.5 32.4868H1V30.5H0.5H0V32.4868H0.5ZM0.5 30.5H1C1 29.8509 1.02096 29.2068 1.06222 28.5683L0.563259 28.536L0.0642999 28.5038C0.0216508 29.1638 0 29.8294 0 30.5H0.5ZM1.07102 24.6451L1.56152 24.7422C1.81359 23.468 2.14771 22.2234 2.55815 21.014L2.08468 20.8533L1.6112 20.6926C1.18673 21.9433 0.841194 23.2305 0.580527 24.5481L1.07102 24.6451ZM3.58778 17.2285L4.03605 17.4499C4.6084 16.2915 5.2546 15.1761 5.96852 14.1097L5.55303 13.8315L5.13755 13.5534C4.39947 14.6558 3.73134 15.8091 3.13951 17.007L3.58778 17.2285ZM7.9444 10.7195L8.3202 11.0493C9.16965 10.0814 10.0814 9.16966 11.0493 8.3202L10.7195 7.94441L10.3897 7.56862C9.38919 8.4467 8.44669 9.3892 7.56861 10.3897L7.9444 10.7195ZM13.8315 5.55304L14.1097 5.96852C15.1761 5.2546 16.2915 4.6084 17.4499 4.03605L17.2285 3.58778L17.007 3.13951C15.8091 3.73134 14.6558 4.39948 13.5534 5.13756L13.8315 5.55304ZM20.8533 2.08468L21.014 2.55815C22.2233 2.14771 23.468 1.81359 24.7422 1.56152L24.6451 1.07102L24.5481 0.580529C23.2305 0.841195 21.9433 1.18673 20.6926 1.6112L20.8533 2.08468ZM28.536 0.563259L28.5683 1.06222C29.2068 1.02096 29.8509 1 30.5 1V0.5V0C29.8294 0 29.1638 0.0216508 28.5038 0.0643001L28.536 0.563259ZM30.5 0.5V1H32.5V0.5V0H30.5V0.5ZM36.5 0.5V1H40.5V0.5V0H36.5V0.5ZM44.5 0.5V1H48.5V0.5V0H44.5V0.5ZM52.5 0.5V1H56.5V0.5V0H52.5V0.5ZM60.5 0.5V1H64.5V0.5V0H60.5V0.5ZM68.5 0.5V1H72.5V0.5V0H68.5V0.5ZM76.5 0.5V1H80.5V0.5V0H76.5V0.5ZM84.5 0.5V1H88.5V0.5V0H84.5V0.5ZM92.5 0.5V1H96.5V0.5V0H92.5V0.5ZM100.5 0.5V1H104.5V0.5V0H100.5V0.5ZM108.5 0.5V1H112.5V0.5V0H108.5V0.5ZM116.5 0.5V1H120.5V0.5V0H116.5V0.5ZM124.5 0.5V1H128.5V0.5V0H124.5V0.5ZM132.5 0.5V1H136.5V0.5V0H132.5V0.5ZM140.5 0.5V1H144.5V0.5V0H140.5V0.5ZM148.5 0.5V1H152.5V0.5V0H148.5V0.5ZM156.5 0.5V1H160.5V0.5V0H156.5V0.5ZM164.5 0.5V1H168.5V0.5V0H164.5V0.5ZM172.5 0.5V1H176.5V0.5V0H172.5V0.5ZM180.5 0.5V1H184.5V0.5V0H180.5V0.5ZM188.5 0.5V1H192.5V0.5V0H188.5V0.5ZM196.5 0.5V1H200.5V0.5V0H196.5V0.5ZM204.5 0.5V1H208.5V0.5V0H204.5V0.5ZM212.5 0.5V1H216.5V0.5V0H212.5V0.5ZM220.5 0.5V1H224.5V0.5V0H220.5V0.5ZM228.5 0.5V1H232.5V0.5V0H228.5V0.5ZM236.5 0.5V1H240.5V0.5V0H236.5V0.5ZM244.5 0.5V1H248.5V0.5V0H244.5V0.5ZM252.5 0.5V1H256.5V0.5V0H252.5V0.5ZM260.5 0.5V1H264.5V0.5V0H260.5V0.5ZM268.5 0.5V1H272.5V0.5V0H268.5V0.5ZM276.5 0.5V1H280.5V0.5V0H276.5V0.5ZM284.5 0.5V1H288.5V0.5V0H284.5V0.5ZM292.5 0.5V1H296.5V0.5V0H292.5V0.5ZM300.5 0.5V1H304.5V0.5V0H300.5V0.5ZM308.5 0.5V1H312.5V0.5V0H308.5V0.5ZM316.5 0.5V1H320.5V0.5V0H316.5V0.5ZM324.5 0.5V1H328.5V0.5V0H324.5V0.5ZM332.5 0.5V1H336.5V0.5V0H332.5V0.5ZM340.5 0.5V1H344.5V0.5V0H340.5V0.5ZM348.5 0.5V1H352.5V0.5V0H348.5V0.5ZM356.5 0.5V1H360.5V0.5V0H356.5V0.5ZM364.5 0.5V1H368.5V0.5V0H364.5V0.5ZM372.5 0.5V1H376.5V0.5V0H372.5V0.5ZM380.5 0.5V1H384.5V0.5V0H380.5V0.5ZM388.5 0.5V1H392.5V0.5V0H388.5V0.5ZM396.5 0.5V1H400.5V0.5V0H396.5V0.5ZM404.5 0.5V1H408.5V0.5V0H404.5V0.5ZM412.5 0.5V1H416.5V0.5V0H412.5V0.5ZM420.5 0.5V1H424.5V0.5V0H420.5V0.5ZM428.5 0.5V1H432.5V0.5V0H428.5V0.5ZM436.5 0.5V1H440.5V0.5V0H436.5V0.5ZM444.5 0.5V1H448.5V0.5V0H444.5V0.5ZM452.5 0.5V1H456.5V0.5V0H452.5V0.5ZM460.5 0.5V1H464.5V0.5V0H460.5V0.5ZM468.5 0.5V1H472.5V0.5V0H468.5V0.5ZM476.5 0.5V1H480.5V0.5V0H476.5V0.5ZM484.5 0.5V1H488.5V0.5V0H484.5V0.5ZM492.5 0.5V1H496.5V0.5V0H492.5V0.5ZM500.5 0.5V1H504.5V0.5V0H500.5V0.5ZM508.5 0.5V1H512.5V0.5V0H508.5V0.5ZM516.5 0.5V1H520.5V0.5V0H516.5V0.5ZM524.5 0.5V1H528.5V0.5V0H524.5V0.5ZM532.5 0.5V1H536.5V0.5V0H532.5V0.5ZM540.5 0.5V1H544.5V0.5V0H540.5V0.5ZM548.5 0.5V1H552.5V0.5V0H548.5V0.5ZM556.5 0.5V1H560.5V0.5V0H556.5V0.5ZM564.5 0.5V1H568.5V0.5V0H564.5V0.5ZM572.5 0.5V1H576.5V0.5V0H572.5V0.5ZM580.5 0.5V1H584.5V0.5V0H580.5V0.5ZM588.5 0.5V1H592.5V0.5V0H588.5V0.5ZM596.5 0.5V1H600.5V0.5V0H596.5V0.5ZM604.5 0.5V1H608.5V0.5V0H604.5V0.5ZM612.5 0.5V1H616.5V0.5V0H612.5V0.5ZM620.5 0.5V1H624.5V0.5V0H620.5V0.5ZM628.5 0.5V1H632.5V0.5V0H628.5V0.5ZM636.5 0.5V1H640.5V0.5V0H636.5V0.5ZM644.5 0.5V1H648.5V0.5V0H644.5V0.5ZM652.5 0.5V1H656.5V0.5V0H652.5V0.5ZM660.5 0.5V1H664.5V0.5V0H660.5V0.5ZM668.5 0.5V1H672.5V0.5V0H668.5V0.5ZM676.5 0.5V1H680.5V0.5V0H676.5V0.5ZM684.5 0.5V1H688.5V0.5V0H684.5V0.5ZM692.5 0.5V1H696.5V0.5V0H692.5V0.5ZM700.5 0.5V1H704.5V0.5V0H700.5V0.5ZM708.5 0.5V1H712.5V0.5V0H708.5V0.5ZM716.5 0.5V1H720.5V0.5V0H716.5V0.5ZM724.5 0.5V1H728.5V0.5V0H724.5V0.5ZM732.5 0.5V1H736.5V0.5V0H732.5V0.5ZM740.5 0.5V1H744.5V0.5V0H740.5V0.5ZM748.5 0.5V1H752.5V0.5V0H748.5V0.5ZM756.5 0.5V1H760.5V0.5V0H756.5V0.5ZM764.5 0.5V1H766.5V0.5V0H764.5V0.5Z" fill="url(#paint0_linear_3287_13185)"/>
<defs>
<linearGradient id="paint0_linear_3287_13185" x1="383.5" y1="0.49999" x2="105.434" y2="323.844" gradientUnits="userSpaceOnUse">
<stop stop-color="white"/>
<stop offset="0.603717" stop-color="white"/>
<stop offset="1" stop-color="white" stop-opacity="0"/>
</linearGradient>
</defs>
</svg>
