<svg width="57" height="59" viewBox="0 0 57 59" fill="none" xmlns="http://www.w3.org/2000/svg">
<path d="M44.1944 16.6125C44.4903 16.6125 44.1961 16.6612 51.3984 13.0961C51.7276 12.932 51.8622 12.5312 51.6972 12.2016C51.533 11.872 51.1327 11.7374 50.8026 11.9028L43.8957 15.3489C43.2683 15.6618 43.4915 16.6125 44.1944 16.6125Z" fill="#3E3E3E"/>
<path d="M38.8009 12.3212C39.104 12.3212 39.3784 12.1132 39.4496 11.8053L41.197 4.28696C41.2804 3.92785 41.0572 3.56961 40.6985 3.48623C40.339 3.40286 39.9811 3.62562 39.8978 3.98474L38.1504 11.5031C38.0533 11.9214 38.3704 12.3212 38.8009 12.3212Z" fill="#3E3E3E"/>
<path d="M43.4136 13.1778L45.8184 9.87545C46.0355 9.57757 45.9695 9.1607 45.6716 8.94358C45.3737 8.72734 44.956 8.79377 44.7398 9.09036L42.335 12.3927C42.1178 12.6906 42.1838 13.1075 42.4817 13.3246C42.7786 13.5407 43.1969 13.4762 43.4136 13.1778Z" fill="#3E3E3E"/>
<path d="M40.3246 33.8241C39.7118 33.8537 39.4651 33.7996 38.9559 33.6313C38.5191 33.4129 37.991 33.7266 37.991 34.2279V39.1834H34.0438C34.479 36.182 31.829 33.7833 29.0163 34.2431C26.8756 34.4645 25.0269 36.7357 25.3704 39.1834H20.6416C20.2734 39.1834 19.9746 39.4821 19.9746 39.8504C19.9746 49.374 27.1152 57.2484 36.5867 58.1673C36.6411 58.1723 36.6982 58.1703 36.7529 58.1749C47.478 59.139 57.2293 50.5713 56.7483 38.9168C56.2882 29.6317 48.759 21.7087 38.658 21.4492C38.2898 21.4492 37.991 21.748 37.991 22.1162V27.3396C37.991 27.9282 38.508 28.1447 38.876 27.9614C38.9709 27.9471 40.8398 27.1258 42.3117 28.7253C43.8625 30.4113 43.086 33.2761 40.6972 33.7654C40.6711 33.7711 40.6451 33.778 40.619 33.7863V33.7845C40.5728 33.7961 40.3575 33.8203 40.3246 33.8241ZM21.3216 40.5174H26.2441C26.723 40.5174 27.0503 40.024 26.8538 39.5794C26.6675 39.1609 26.6316 38.598 26.6783 38.2398C26.7649 36.9475 28.0027 35.5193 29.7128 35.5193C30.4461 35.5193 30.8519 35.7576 31.0476 35.8359C32.326 36.3493 33.1523 38.1572 32.564 39.5972C32.3826 40.035 32.7068 40.5174 33.1806 40.5174H37.2103V44.0724C34.5266 43.6974 32.1712 45.8814 32.2044 48.4678C32.2238 50.2078 33.2597 51.7397 34.8483 52.4179C35.6865 53.0336 36.4175 53.2324 37.2094 53.2909V56.832H36.6619C28.1273 55.9781 21.644 49.0314 21.3216 40.5174ZM54.3886 45.7642C52.0869 51.9906 46.2878 56.4541 39.4396 56.8722C39.4391 55.4161 39.4417 52.6149 39.437 52.4597C39.4812 51.9688 38.9831 51.5814 38.4921 51.7962C38.4029 51.8226 38.3003 51.871 38.0329 51.913C36.673 52.1493 35.891 51.4938 35.8019 51.4648L35.8025 51.4631C35.5249 51.3037 34.9709 50.7579 34.7258 50.2061C33.5535 47.687 36.1473 45.1485 38.5356 46.0625C38.9734 46.2302 39.4405 45.904 39.4405 45.4394V40.5191H43.4042C43.2646 41.5067 43.4622 42.4991 43.967 43.3547C43.9683 43.3569 43.9692 43.3589 43.9705 43.3612L44.0411 43.473C45.7438 46.9387 52.7949 45.7723 52.0811 40.5191H55.4317C55.2692 42.4832 55.104 43.8298 54.3886 45.7642ZM44.409 31.3259C44.4168 31.2825 44.4238 31.2317 44.4316 31.1579C44.6802 28.2008 42.0004 25.9499 39.325 26.4677V22.8171C47.7766 23.2807 54.658 29.9868 55.3599 38.3844H50.484C50.0061 38.3844 49.6821 38.8741 49.8708 39.3137C49.9968 39.6094 50.0584 39.9455 50.0584 40.3437C50.0673 42.8203 47.1761 44.3169 45.1633 42.744C44.6316 41.8958 44.5668 40.8807 44.8858 40.1061C45.0675 39.6668 44.7422 39.1851 44.2692 39.1851H39.325V35.1081C41.7282 35.5284 44.1814 33.8216 44.409 31.3259Z" fill="#3E3E3E"/>
<path d="M0.770719 2.45677L5.83043 1.66169C6.50416 1.53123 7.16269 1.96797 7.29467 2.64957C7.379 3.10495 9.49349 7.08077 9.15059 12.079C9.14625 12.1367 9.14972 12.1945 9.16101 12.2514C9.29215 12.9284 8.84836 13.5858 8.2057 13.7113L2.86981 14.4699C2.50505 14.522 2.25146 14.8594 2.30357 15.2242C2.35334 15.5776 2.67871 15.842 3.0574 15.7908L8.42629 15.0266C9.44772 14.8281 10.2113 14.0491 10.4434 13.0989C13.6573 12.9382 17.0715 13.9535 19.9764 16.0948C15.4963 19.5764 12.8433 24.9473 12.8433 30.6465C12.8433 31.0147 13.1421 31.3134 13.5103 31.3134H19.1041C19.5845 31.3134 19.9035 30.8213 19.7181 30.3864C19.3334 29.4778 19.5551 28.2893 20.0985 27.5912C20.8422 26.5093 21.9981 26.3747 22.0873 26.3475V26.3493C24.3516 25.9376 26.272 28.3046 25.4292 30.3937C25.2514 30.8317 25.5768 31.3134 26.0493 31.3134H31.6431C32.0103 31.3134 32.3118 31.013 32.3118 30.6443V25.917C34.9777 26.3292 37.6429 23.9539 37.2818 21.0436C37.2809 21.0353 37.2787 21.0275 37.2776 21.0192C36.97 18.6332 34.758 16.8948 32.3101 17.2381V12.9049C32.3101 12.5367 32.0113 12.2379 31.6431 12.2379C31.0147 12.2379 30.9306 12.2326 30.0754 12.2861C29.7868 8.92655 28.109 5.69052 24.9481 2.39424C23.2181 0.585652 20.7099 -0.278042 18.2409 0.0793337C14.1211 0.692908 10.849 1.33047 8.47666 1.97672C8.0147 0.749039 6.76033 0.11995 5.59941 0.348125L0.564023 1.1393C0.200134 1.19619 -0.0491173 1.5375 0.00820178 1.90138C0.0663893 2.26614 0.414646 2.51279 0.770719 2.45677ZM31.8533 18.7224L32.1138 18.6329C32.2109 18.5993 32.6158 18.5339 32.8624 18.5339C33.5321 18.5378 34.1937 18.7449 34.7345 19.1341C36.2397 21.6161 33.6269 24.5443 31.0786 23.5467C30.649 23.3769 30.1684 23.6918 30.1684 24.1677V29.0897H26.9475C26.8385 27.0842 25.2138 25.2468 23.1113 25.0075C23.0279 24.991 22.9645 24.9897 22.9575 24.9931C20.05 24.7345 17.8357 27.3057 18.2331 29.9795H14.1903C14.3924 24.8277 16.9272 20.0285 21.0718 16.9404L24.1777 19.4493C24.9544 20.0619 25.9973 20.2608 26.9091 19.91C28.6779 19.2072 28.7893 17.0053 27.662 15.4109C27.4242 15.0739 27.0918 14.6659 26.6625 14.205C28.0606 13.813 29.5046 13.5956 30.9761 13.5736V18.0892C30.9761 18.5432 31.4174 18.8633 31.8533 18.7224ZM21.3014 9.9013C20.9679 9.68288 20.8637 9.31812 20.8784 9.04933C20.9082 8.5016 21.4136 8.19271 21.7912 8.29289C21.819 8.30505 24.4365 9.5144 24.8734 12.518C23.9485 11.7412 22.7795 10.8657 21.3014 9.9013ZM18.4345 1.39897C20.4781 1.10109 22.5511 1.81931 23.9849 3.31699C26.9273 6.38573 28.4854 9.3572 28.7468 12.4012C28.7473 12.4079 28.7514 12.4135 28.7521 12.4203C27.8814 12.5385 27.0236 12.718 26.1811 12.9605C26.2192 12.8647 26.2434 12.7625 26.2325 12.653C25.8435 8.69369 22.4807 7.14043 22.2593 7.04664C20.9245 6.63961 19.6206 7.58796 19.5462 8.97855C19.5028 9.79405 19.8953 10.5752 20.571 11.0177C24.3784 13.502 25.9642 15.318 26.5721 16.1803C27.1691 17.0248 27.3303 18.3075 26.4236 18.6672C25.9755 18.8396 25.4301 18.7389 25.0106 18.4067L21.3535 15.453C18.2192 12.9344 14.3849 11.6148 10.515 11.7581C10.5083 11.7583 10.5027 11.759 10.4962 11.7592C10.6161 9.05834 10.0972 6.19565 8.95095 3.2296C11.2509 2.61418 14.4998 1.9853 18.4345 1.39897Z" fill="#3E3E3E"/>
<path d="M6.78998 12.7082C7.15387 12.6492 7.40051 12.3066 7.34146 11.9431L6.75698 8.34114C6.69792 7.97768 6.35835 7.73191 5.99185 7.78966C5.62796 7.84872 5.38132 8.19133 5.44037 8.55478L6.02486 12.1568C6.08492 12.528 6.43605 12.7672 6.78998 12.7082Z" fill="#3E3E3E"/>
</svg>
